G04*
G04 #@! TF.GenerationSoftware,Altium Limited,Altium Designer,18.1.7 (191)*
G04*
G04 Layer_Color=8421504*
%FSLAX44Y44*%
%MOMM*%
G71*
G01*
G75*
G04:AMPARAMS|DCode=11|XSize=2.2mm|YSize=1.8mm|CornerRadius=0mm|HoleSize=0mm|Usage=FLASHONLY|Rotation=10.000|XOffset=0mm|YOffset=0mm|HoleType=Round|Shape=Rectangle|*
%AMROTATEDRECTD11*
4,1,4,-0.9270,-1.0773,-1.2396,0.6953,0.9270,1.0773,1.2396,-0.6953,-0.9270,-1.0773,0.0*
%
%ADD11ROTATEDRECTD11*%

G04:AMPARAMS|DCode=12|XSize=2.2mm|YSize=1.8mm|CornerRadius=0mm|HoleSize=0mm|Usage=FLASHONLY|Rotation=170.000|XOffset=0mm|YOffset=0mm|HoleType=Round|Shape=Rectangle|*
%AMROTATEDRECTD12*
4,1,4,1.2396,0.6953,0.9270,-1.0773,-1.2396,-0.6953,-0.9270,1.0773,1.2396,0.6953,0.0*
%
%ADD12ROTATEDRECTD12*%

%ADD17C,2.0000*%
D11*
X171462Y1525716D02*
D03*
X208711Y1533299D02*
D03*
X171462Y1615716D02*
D03*
X208711Y1623299D02*
D03*
X171462Y1705716D02*
D03*
X208711Y1713299D02*
D03*
X171462Y1885716D02*
D03*
X208711Y1893299D02*
D03*
X171462Y1795716D02*
D03*
X208711Y1803299D02*
D03*
Y1353299D02*
D03*
X171462Y1345716D02*
D03*
X208711Y1443299D02*
D03*
X171462Y1435716D02*
D03*
X208711Y723299D02*
D03*
X171462Y715716D02*
D03*
X208711Y543299D02*
D03*
X171462Y535716D02*
D03*
X208711Y453299D02*
D03*
X171462Y445716D02*
D03*
X208711Y363299D02*
D03*
X171462Y355716D02*
D03*
X208711Y273299D02*
D03*
X171462Y265716D02*
D03*
X208711Y183299D02*
D03*
X171462Y175716D02*
D03*
X208711Y633299D02*
D03*
X171462Y625716D02*
D03*
X208711Y813299D02*
D03*
X171462Y805716D02*
D03*
X208711Y903299D02*
D03*
X171462Y895716D02*
D03*
X208711Y993299D02*
D03*
X171462Y985716D02*
D03*
X208711Y1263299D02*
D03*
X171462Y1255716D02*
D03*
X208711Y1173299D02*
D03*
X171462Y1165716D02*
D03*
X208711Y1083299D02*
D03*
X171462Y1075716D02*
D03*
X51462Y1525716D02*
D03*
X88711Y1533299D02*
D03*
X51462Y1615716D02*
D03*
X88711Y1623299D02*
D03*
X51462Y1705716D02*
D03*
X88711Y1713299D02*
D03*
X51462Y1885716D02*
D03*
X88711Y1893299D02*
D03*
X51462Y1795716D02*
D03*
X88711Y1803299D02*
D03*
Y1353299D02*
D03*
X51462Y1345716D02*
D03*
X88711Y1443299D02*
D03*
X51462Y1435716D02*
D03*
X88711Y723299D02*
D03*
X51462Y715716D02*
D03*
X88711Y543299D02*
D03*
X51462Y535716D02*
D03*
X88711Y453299D02*
D03*
X51462Y445716D02*
D03*
X88711Y363299D02*
D03*
X51462Y355716D02*
D03*
X88711Y273299D02*
D03*
X51462Y265716D02*
D03*
X88711Y183299D02*
D03*
X51462Y175716D02*
D03*
X88711Y633299D02*
D03*
X51462Y625716D02*
D03*
X88711Y813299D02*
D03*
X51462Y805716D02*
D03*
X88711Y903299D02*
D03*
X51462Y895716D02*
D03*
X88711Y993299D02*
D03*
X51462Y985716D02*
D03*
X88711Y1263299D02*
D03*
X51462Y1255716D02*
D03*
X88711Y1173299D02*
D03*
X51462Y1165716D02*
D03*
X88711Y1083299D02*
D03*
X51462Y1075716D02*
D03*
D12*
X208885Y1572686D02*
D03*
X171289Y1578299D02*
D03*
X208885Y1662686D02*
D03*
X171289Y1668299D02*
D03*
X208885Y1932686D02*
D03*
X171289Y1938299D02*
D03*
X208885Y1842686D02*
D03*
X171289Y1848299D02*
D03*
X208885Y1752686D02*
D03*
X171289Y1758299D02*
D03*
Y1308299D02*
D03*
X208885Y1302686D02*
D03*
X171289Y1398299D02*
D03*
X208885Y1392686D02*
D03*
X171289Y1488299D02*
D03*
X208885Y1482686D02*
D03*
X171289Y588299D02*
D03*
X208885Y582686D02*
D03*
X171289Y498299D02*
D03*
X208885Y492686D02*
D03*
X171289Y408299D02*
D03*
X208885Y402686D02*
D03*
X171289Y318299D02*
D03*
X208885Y312686D02*
D03*
X171289Y228299D02*
D03*
X208885Y222686D02*
D03*
X171289Y678299D02*
D03*
X208885Y672685D02*
D03*
X171289Y768299D02*
D03*
X208885Y762685D02*
D03*
X171289Y858299D02*
D03*
X208885Y852685D02*
D03*
X171289Y948299D02*
D03*
X208885Y942685D02*
D03*
X171289Y1038299D02*
D03*
X208885Y1032685D02*
D03*
X171289Y1218299D02*
D03*
X208885Y1212685D02*
D03*
X171289Y1128299D02*
D03*
X208885Y1122685D02*
D03*
X88885Y1572686D02*
D03*
X51289Y1578299D02*
D03*
X88885Y1662686D02*
D03*
X51289Y1668299D02*
D03*
X88885Y1932686D02*
D03*
X51289Y1938299D02*
D03*
X88885Y1842686D02*
D03*
X51289Y1848299D02*
D03*
X88885Y1752686D02*
D03*
X51289Y1758299D02*
D03*
Y1308299D02*
D03*
X88885Y1302686D02*
D03*
X51289Y1398299D02*
D03*
X88885Y1392686D02*
D03*
X51289Y1488299D02*
D03*
X88885Y1482686D02*
D03*
X51289Y588299D02*
D03*
X88885Y582686D02*
D03*
X51289Y498299D02*
D03*
X88885Y492686D02*
D03*
X51289Y408299D02*
D03*
X88885Y402686D02*
D03*
X51289Y318299D02*
D03*
X88885Y312686D02*
D03*
X51289Y228299D02*
D03*
X88885Y222686D02*
D03*
X51289Y678299D02*
D03*
X88885Y672685D02*
D03*
X51289Y768299D02*
D03*
X88885Y762685D02*
D03*
X51289Y858299D02*
D03*
X88885Y852685D02*
D03*
X51289Y948299D02*
D03*
X88885Y942685D02*
D03*
X51289Y1038299D02*
D03*
X88885Y1032685D02*
D03*
X51289Y1218299D02*
D03*
X88885Y1212685D02*
D03*
X51289Y1128299D02*
D03*
X88885Y1122685D02*
D03*
D17*
X216270Y2090000D02*
D03*
X46270D02*
D03*
X50000Y20000D02*
D03*
X215000D02*
D03*
M02*
