G04*
G04 #@! TF.GenerationSoftware,Altium Limited,Altium Designer,18.1.7 (191)*
G04*
G04 Layer_Color=32896*
%FSLAX44Y44*%
%MOMM*%
G71*
G01*
G75*
%ADD25C,0.5000*%
G36*
X198353Y1154361D02*
X198400Y1154314D01*
X198492Y1154268D01*
X198631Y1154222D01*
X198724Y1154175D01*
X198770Y1154129D01*
Y1138163D01*
X200390Y1138533D01*
X201963Y1138857D01*
X203490Y1139181D01*
X204971Y1139505D01*
X206406Y1139783D01*
X207748Y1140107D01*
X209090Y1140384D01*
X210340Y1140662D01*
X211543Y1140893D01*
X212700Y1141171D01*
X213810Y1141403D01*
X214875Y1141634D01*
X215893Y1141865D01*
X216819Y1142050D01*
X217744Y1142236D01*
X218577Y1142421D01*
X219410Y1142606D01*
X220151Y1142745D01*
X220845Y1142930D01*
X221493Y1143069D01*
X222094Y1143161D01*
X222603Y1143300D01*
X223113Y1143392D01*
X223529Y1143485D01*
X223946Y1143578D01*
X224269Y1143670D01*
X224547Y1143717D01*
X224778Y1143763D01*
X224964Y1143809D01*
X225102D01*
X225149Y1143855D01*
X225195D01*
X225241Y1143624D01*
X225288Y1143439D01*
Y1143300D01*
X223344Y1142328D01*
X221400Y1141403D01*
X219595Y1140477D01*
X217790Y1139598D01*
X216078Y1138765D01*
X214412Y1137932D01*
X212839Y1137145D01*
X211311Y1136358D01*
X209830Y1135664D01*
X208442Y1134970D01*
X207100Y1134322D01*
X205804Y1133674D01*
X204555Y1133072D01*
X203398Y1132517D01*
X202333Y1131962D01*
X201269Y1131453D01*
X200297Y1130990D01*
X199418Y1130527D01*
X198585Y1130110D01*
X197798Y1129740D01*
X197057Y1129370D01*
X196410Y1129046D01*
X195808Y1128768D01*
X195253Y1128491D01*
X194790Y1128259D01*
X194373Y1128074D01*
X194049Y1127889D01*
X193772Y1127750D01*
X193540Y1127658D01*
X193402Y1127565D01*
X193309Y1127519D01*
X193263D01*
Y1143855D01*
X191550Y1142884D01*
X189931Y1141958D01*
X188496Y1141079D01*
X187802Y1140708D01*
X187154Y1140338D01*
X186598Y1140014D01*
X186089Y1139736D01*
X185627Y1139459D01*
X185256Y1139274D01*
X184979Y1139089D01*
X184747Y1138950D01*
X184608Y1138904D01*
X184562Y1138857D01*
X183035Y1138024D01*
X181462Y1137145D01*
X180027Y1136266D01*
X179333Y1135895D01*
X178685Y1135479D01*
X178083Y1135155D01*
X177528Y1134831D01*
X177065Y1134553D01*
X176649Y1134276D01*
X176325Y1134090D01*
X176047Y1133952D01*
X175908Y1133859D01*
X175862Y1133813D01*
X175584Y1133720D01*
X175353Y1133628D01*
X175168D01*
X174936Y1133674D01*
X174705Y1133766D01*
X174520Y1133859D01*
X174473Y1133905D01*
X173548Y1134461D01*
X172715Y1134970D01*
X171928Y1135433D01*
X171188Y1135849D01*
X170494Y1136266D01*
X169892Y1136636D01*
X169336Y1136960D01*
X168827Y1137237D01*
X168365Y1137515D01*
X167994Y1137747D01*
X167670Y1137932D01*
X167393Y1138071D01*
X167208Y1138209D01*
X167069Y1138302D01*
X166976Y1138348D01*
X166930D01*
X166606Y1138533D01*
X166189Y1138718D01*
X165403Y1139089D01*
X165033Y1139227D01*
X164709Y1139320D01*
X164524Y1139366D01*
X164431Y1139413D01*
X163783Y1139644D01*
X163181Y1139829D01*
X162626Y1140014D01*
X162163Y1140107D01*
X161793Y1140199D01*
X161469Y1140246D01*
X161284Y1140292D01*
X161099D01*
X160914Y1140246D01*
X160775Y1140199D01*
X160729D01*
X160497Y1140061D01*
X160451Y1140014D01*
X159896Y1139551D01*
X159387Y1139181D01*
X158970Y1138811D01*
X158600Y1138533D01*
X158322Y1138302D01*
X158091Y1138117D01*
X157998Y1138024D01*
X157952Y1137978D01*
X157535Y1137654D01*
X157073Y1137284D01*
X156101Y1136590D01*
X155638Y1136266D01*
X155268Y1135988D01*
X155036Y1135803D01*
X154944Y1135757D01*
X154574Y1135479D01*
X154296Y1135155D01*
X154065Y1134877D01*
X153879Y1134553D01*
X153741Y1134322D01*
X153648Y1134090D01*
X153602Y1133952D01*
Y1133905D01*
X153555Y1133489D01*
Y1133119D01*
X153602Y1132748D01*
X153648Y1132424D01*
X153741Y1132147D01*
X153787Y1131962D01*
X153879Y1131823D01*
Y1131777D01*
X154157Y1131129D01*
X154388Y1130573D01*
X154527Y1130342D01*
X154574Y1130157D01*
X154666Y1130064D01*
Y1130018D01*
X154805Y1129648D01*
X154990Y1129139D01*
X155175Y1128630D01*
X155360Y1128074D01*
X155545Y1127565D01*
X155684Y1127149D01*
X155777Y1126825D01*
X155823Y1126778D01*
Y1126732D01*
X155916Y1126547D01*
X156054Y1126408D01*
X156147Y1126316D01*
X156193Y1126269D01*
X156332Y1126177D01*
X156517Y1126131D01*
X156656Y1126084D01*
X157026D01*
X157350Y1126177D01*
X157535Y1126316D01*
X157628Y1126362D01*
X157952Y1126686D01*
X158183Y1127056D01*
X158276Y1127380D01*
X158322Y1127473D01*
Y1127519D01*
X158368Y1128028D01*
X158415Y1128491D01*
Y1130296D01*
X158368Y1130712D01*
X158230Y1131545D01*
X158137Y1131915D01*
X158091Y1132193D01*
X158045Y1132378D01*
Y1132471D01*
X158507Y1132517D01*
X158970Y1132610D01*
X159387Y1132702D01*
X159711Y1132841D01*
X159988Y1132934D01*
X160173Y1133026D01*
X160312Y1133072D01*
X160358Y1133119D01*
X160960Y1133674D01*
X161376Y1134229D01*
X161515Y1134461D01*
X161608Y1134600D01*
X161700Y1134738D01*
Y1134785D01*
X163320Y1133905D01*
X164894Y1133119D01*
X166282Y1132378D01*
X167624Y1131684D01*
X168827Y1131036D01*
X169938Y1130434D01*
X170956Y1129925D01*
X171882Y1129463D01*
X172669Y1129046D01*
X173363Y1128676D01*
X173918Y1128398D01*
X174427Y1128120D01*
X174797Y1127935D01*
X175029Y1127797D01*
X175214Y1127750D01*
X175260Y1127704D01*
X175306Y1128213D01*
X175399Y1128676D01*
X175445Y1129046D01*
X175492Y1129324D01*
X175538Y1129555D01*
X175584Y1129694D01*
X175630Y1129787D01*
Y1130018D01*
X175677Y1130203D01*
X175723Y1130296D01*
Y1130342D01*
X175862Y1130481D01*
X176001Y1130573D01*
X176093Y1130666D01*
X176140Y1130712D01*
X177250Y1131221D01*
X178315Y1131730D01*
X179286Y1132193D01*
X180166Y1132610D01*
X180906Y1132980D01*
X181184Y1133165D01*
X181462Y1133304D01*
X181647Y1133396D01*
X181786Y1133489D01*
X181878Y1133535D01*
X181924D01*
X182989Y1134044D01*
X184007Y1134507D01*
X184979Y1134970D01*
X185858Y1135386D01*
X186598Y1135710D01*
X186876Y1135849D01*
X187154Y1135988D01*
X187385Y1136080D01*
X187524Y1136173D01*
X187617Y1136219D01*
X187663D01*
X188126Y1136404D01*
X188542Y1136590D01*
X188820Y1136682D01*
X188866Y1136728D01*
X188912D01*
X189375Y1136914D01*
X189792Y1137099D01*
X190069Y1137237D01*
X190116Y1137284D01*
X190162D01*
X190069Y1137052D01*
X189977Y1136775D01*
X189931Y1136590D01*
X189884Y1136497D01*
X189745Y1136219D01*
X189560Y1136034D01*
X189422Y1135942D01*
X189375D01*
X188079Y1135109D01*
X186876Y1134322D01*
X185719Y1133581D01*
X184701Y1132887D01*
X183729Y1132286D01*
X182850Y1131684D01*
X182063Y1131175D01*
X181323Y1130712D01*
X180721Y1130296D01*
X180166Y1129925D01*
X179703Y1129648D01*
X179333Y1129370D01*
X179009Y1129185D01*
X178824Y1129046D01*
X178685Y1129000D01*
X178638Y1128953D01*
X178361Y1128722D01*
X178130Y1128537D01*
X178037Y1128352D01*
X177991Y1128306D01*
X177852Y1127935D01*
X177759Y1127565D01*
X177667Y1127334D01*
Y1127241D01*
X177620Y1126593D01*
X177528Y1126038D01*
X177482Y1125529D01*
X177435Y1125112D01*
Y1124835D01*
X177389Y1124603D01*
Y1124418D01*
X176278Y1124881D01*
X175168Y1125297D01*
X174149Y1125714D01*
X173270Y1126084D01*
X172483Y1126408D01*
X172160Y1126501D01*
X171882Y1126640D01*
X171650Y1126686D01*
X171512Y1126778D01*
X171419Y1126825D01*
X171373D01*
X170308Y1127241D01*
X169244Y1127658D01*
X168272Y1128028D01*
X167393Y1128352D01*
X166652Y1128630D01*
X166328Y1128768D01*
X166097Y1128861D01*
X165866Y1128953D01*
X165727Y1129000D01*
X165634Y1129046D01*
X165588D01*
Y1128953D01*
X166421Y1128074D01*
X167208Y1127288D01*
X167948Y1126547D01*
X168596Y1125853D01*
X169244Y1125205D01*
X169799Y1124603D01*
X170308Y1124094D01*
X170725Y1123632D01*
X171141Y1123215D01*
X171512Y1122845D01*
X171789Y1122521D01*
X172021Y1122289D01*
X172206Y1122058D01*
X172345Y1121919D01*
X172391Y1121873D01*
X172437Y1121827D01*
X172298Y1121688D01*
X172206Y1121595D01*
X172160Y1121503D01*
X171280Y1121873D01*
X170540Y1122197D01*
X169892Y1122475D01*
X169336Y1122706D01*
X168920Y1122845D01*
X168642Y1122984D01*
X168457Y1123030D01*
X168411Y1123076D01*
X168689Y1121688D01*
X168920Y1120438D01*
X169013Y1119929D01*
X169105Y1119420D01*
X169198Y1118957D01*
X169244Y1118587D01*
X169336Y1118217D01*
X169383Y1117893D01*
X169429Y1117662D01*
X169475Y1117430D01*
X169522Y1117291D01*
X169568Y1117152D01*
Y1117060D01*
X169614D01*
X169660Y1117106D01*
X169892Y1117152D01*
X170262Y1117291D01*
X170679Y1117384D01*
X171095Y1117523D01*
X171419Y1117662D01*
X171697Y1117708D01*
X171743Y1117754D01*
X171789D01*
X172576Y1117986D01*
X173316Y1118217D01*
X173918Y1118448D01*
X174427Y1118633D01*
X174890Y1118772D01*
X175168Y1118911D01*
X175399Y1118957D01*
X175445Y1119004D01*
X175630Y1119050D01*
X175677Y1119096D01*
X175723D01*
X175908Y1119281D01*
X175954Y1119374D01*
X176232Y1119698D01*
X176463Y1119976D01*
X176649Y1120161D01*
X176695Y1120253D01*
X176973Y1120623D01*
X177204Y1120901D01*
X177389Y1121086D01*
X177482Y1121132D01*
X177713Y1121364D01*
X177944Y1121549D01*
X178083Y1121688D01*
X178176Y1121734D01*
X178453Y1121919D01*
X178685Y1122058D01*
X178870Y1122151D01*
X178916Y1122197D01*
X179842Y1122475D01*
X180305Y1122613D01*
X180675Y1122752D01*
X180999Y1122891D01*
X181230Y1122984D01*
X181415Y1123030D01*
X181462Y1123076D01*
X182387Y1123400D01*
X182804Y1123539D01*
X183174Y1123678D01*
X183498Y1123817D01*
X183729Y1123863D01*
X183914Y1123955D01*
X183961D01*
X184377Y1124094D01*
X184747Y1124141D01*
X185025Y1124233D01*
X185118D01*
X185488Y1124372D01*
X185858Y1124464D01*
X186089Y1124557D01*
X186136Y1124603D01*
X186182D01*
X186136Y1124418D01*
X186089Y1124326D01*
X186043Y1124233D01*
X185997D01*
X185812Y1124094D01*
X185765Y1124048D01*
X185719D01*
X184655Y1123400D01*
X184192Y1123122D01*
X183729Y1122845D01*
X183405Y1122613D01*
X183128Y1122428D01*
X182943Y1122336D01*
X182896Y1122289D01*
X181878Y1121641D01*
X181369Y1121364D01*
X180952Y1121086D01*
X180629Y1120855D01*
X180351Y1120670D01*
X180166Y1120577D01*
X180119Y1120531D01*
X179842Y1120392D01*
X179610Y1120207D01*
X179471Y1120114D01*
X179425Y1120068D01*
X179240Y1119790D01*
X179055Y1119559D01*
X178962Y1119420D01*
X178916Y1119374D01*
X178592Y1118957D01*
X178361Y1118587D01*
X178222Y1118309D01*
X178176Y1118263D01*
Y1118217D01*
X177898Y1117800D01*
X177620Y1117430D01*
X177435Y1117152D01*
X177389Y1117106D01*
Y1117060D01*
X177111Y1116782D01*
X177065Y1116736D01*
X177019Y1116690D01*
X176787Y1116505D01*
X176602Y1116366D01*
X176463Y1116319D01*
X176417Y1116273D01*
X175538Y1115995D01*
X174659Y1115718D01*
X173825Y1115486D01*
X173085Y1115255D01*
X172483Y1115116D01*
X172021Y1114977D01*
X171835Y1114885D01*
X171697D01*
X171650Y1114838D01*
X171604D01*
X170679Y1114561D01*
X169753Y1114237D01*
X168966Y1113959D01*
X168226Y1113728D01*
X167624Y1113543D01*
X167161Y1113358D01*
X166976Y1113311D01*
X166837Y1113265D01*
X166791Y1113219D01*
X166745D01*
X166328Y1113080D01*
X165912Y1112987D01*
X165542Y1112941D01*
X164801D01*
X164662Y1112987D01*
X164616D01*
X164246Y1113126D01*
X163922Y1113311D01*
X163274Y1113774D01*
X163043Y1114006D01*
X162857Y1114191D01*
X162719Y1114329D01*
X162672Y1114376D01*
X162626Y1114422D01*
X162580Y1114515D01*
X162533Y1114607D01*
X162487Y1114653D01*
X162256Y1114885D01*
X162024Y1115116D01*
X161839Y1115255D01*
X161793Y1115348D01*
X161747Y1115394D01*
X161608Y1115533D01*
X161469Y1115671D01*
X161423Y1115718D01*
X161238Y1115995D01*
X161099Y1116181D01*
X161006Y1116366D01*
X160960Y1116412D01*
X160821Y1116319D01*
X160729Y1116273D01*
X160636D01*
X160451Y1116181D01*
X160266D01*
X160127Y1116227D01*
X160081Y1116273D01*
X159988Y1116412D01*
X159896Y1116458D01*
Y1116505D01*
X159109Y1117338D01*
X158692Y1117754D01*
X158368Y1118078D01*
X158045Y1118402D01*
X157813Y1118633D01*
X157674Y1118772D01*
X157628Y1118819D01*
X157211Y1119235D01*
X156888Y1119559D01*
X156564Y1119883D01*
X156332Y1120114D01*
X156147Y1120299D01*
X156008Y1120438D01*
X155962Y1120484D01*
X155916Y1120531D01*
X155083D01*
X154944Y1120577D01*
X154712Y1120623D01*
X154666Y1120670D01*
X154527Y1120762D01*
X154388Y1120947D01*
X154157Y1121410D01*
X154065Y1121641D01*
X153972Y1121827D01*
X153879Y1121965D01*
Y1122012D01*
X153509Y1122752D01*
X153231Y1123400D01*
X153139Y1123678D01*
X153046Y1123863D01*
X153000Y1124002D01*
Y1124048D01*
X152722Y1124835D01*
X152537Y1125205D01*
X152399Y1125529D01*
X152306Y1125760D01*
X152213Y1125992D01*
X152121Y1126131D01*
Y1126177D01*
X151797Y1126825D01*
X151473Y1127380D01*
X151380Y1127565D01*
X151242Y1127750D01*
X151195Y1127843D01*
X151149Y1127889D01*
X150779Y1128537D01*
X150501Y1129139D01*
X150362Y1129370D01*
X150270Y1129555D01*
X150177Y1129694D01*
Y1129740D01*
X149992Y1130203D01*
X149946Y1130573D01*
X149899Y1130897D01*
Y1131314D01*
X149946Y1131591D01*
X150038Y1131823D01*
X150316Y1132193D01*
X150594Y1132424D01*
X150640Y1132471D01*
X150686D01*
X150918Y1132563D01*
X151103Y1132610D01*
X151380Y1132748D01*
X151519Y1132887D01*
X151565Y1132934D01*
X151612Y1133072D01*
X151658Y1133211D01*
X151704Y1133581D01*
X151750Y1133859D01*
Y1133998D01*
X151797Y1134600D01*
X151889Y1135109D01*
X151936Y1135294D01*
X151982Y1135433D01*
X152028Y1135525D01*
Y1135571D01*
X152213Y1136080D01*
X152445Y1136451D01*
X152630Y1136728D01*
X152676Y1136775D01*
X152722Y1136821D01*
X153324Y1137376D01*
X153926Y1137885D01*
X154435Y1138348D01*
X154944Y1138718D01*
X155314Y1139042D01*
X155638Y1139320D01*
X155823Y1139459D01*
X155916Y1139505D01*
X156471Y1139922D01*
X157026Y1140384D01*
X157535Y1140801D01*
X157998Y1141217D01*
X158415Y1141588D01*
X158739Y1141865D01*
X158924Y1142050D01*
X159016Y1142143D01*
X159387Y1142421D01*
X159711Y1142606D01*
X159988Y1142745D01*
X160035Y1142791D01*
X160081D01*
X160451Y1142976D01*
X160821Y1143022D01*
X161238D01*
X161932Y1142884D01*
X162487Y1142745D01*
X162950Y1142698D01*
X163320Y1142606D01*
X163598Y1142560D01*
X163783Y1142513D01*
X163922D01*
X164246Y1142467D01*
X164616Y1142328D01*
X165449Y1142097D01*
X165819Y1141958D01*
X166097Y1141819D01*
X166282Y1141773D01*
X166375Y1141727D01*
X166421D01*
X166514Y1141680D01*
X166652Y1141634D01*
X166837Y1141541D01*
X167300Y1141356D01*
X167809Y1141125D01*
X168318Y1140940D01*
X168781Y1140755D01*
X168966Y1140662D01*
X169105Y1140616D01*
X169198Y1140570D01*
X169244D01*
X170262Y1140153D01*
X171188Y1139736D01*
X171974Y1139459D01*
X172622Y1139181D01*
X173131Y1138996D01*
X173502Y1138857D01*
X173733Y1138811D01*
X173825Y1138765D01*
X174011Y1138672D01*
X174196Y1138626D01*
X174659D01*
X174844Y1138672D01*
X174936Y1138718D01*
X174982Y1138765D01*
X177158Y1140246D01*
X179240Y1141634D01*
X180258Y1142328D01*
X181184Y1142976D01*
X182109Y1143578D01*
X182943Y1144133D01*
X183729Y1144688D01*
X184470Y1145151D01*
X185071Y1145568D01*
X185580Y1145938D01*
X186043Y1146216D01*
X186321Y1146401D01*
X186552Y1146540D01*
X186598Y1146586D01*
X188774Y1148067D01*
X190856Y1149501D01*
X191874Y1150149D01*
X192846Y1150797D01*
X193772Y1151399D01*
X194605Y1152000D01*
X195392Y1152510D01*
X196132Y1152972D01*
X196733Y1153389D01*
X197289Y1153759D01*
X197705Y1154037D01*
X198029Y1154222D01*
X198261Y1154361D01*
X198307Y1154407D01*
X198353Y1154361D01*
D02*
G37*
G36*
X78353D02*
X78400Y1154314D01*
X78492Y1154268D01*
X78631Y1154222D01*
X78724Y1154175D01*
X78770Y1154129D01*
Y1138163D01*
X80390Y1138533D01*
X81963Y1138857D01*
X83490Y1139181D01*
X84971Y1139505D01*
X86406Y1139783D01*
X87748Y1140107D01*
X89090Y1140384D01*
X90339Y1140662D01*
X91543Y1140893D01*
X92700Y1141171D01*
X93810Y1141403D01*
X94875Y1141634D01*
X95893Y1141865D01*
X96819Y1142050D01*
X97744Y1142236D01*
X98577Y1142421D01*
X99410Y1142606D01*
X100151Y1142745D01*
X100845Y1142930D01*
X101493Y1143069D01*
X102094Y1143161D01*
X102603Y1143300D01*
X103112Y1143392D01*
X103529Y1143485D01*
X103946Y1143578D01*
X104269Y1143670D01*
X104547Y1143717D01*
X104778Y1143763D01*
X104964Y1143809D01*
X105103D01*
X105149Y1143855D01*
X105195D01*
X105241Y1143624D01*
X105288Y1143439D01*
Y1143300D01*
X103344Y1142328D01*
X101400Y1141403D01*
X99595Y1140477D01*
X97790Y1139598D01*
X96078Y1138765D01*
X94412Y1137932D01*
X92839Y1137145D01*
X91311Y1136358D01*
X89831Y1135664D01*
X88442Y1134970D01*
X87100Y1134322D01*
X85804Y1133674D01*
X84555Y1133072D01*
X83398Y1132517D01*
X82333Y1131962D01*
X81269Y1131453D01*
X80297Y1130990D01*
X79418Y1130527D01*
X78585Y1130110D01*
X77798Y1129740D01*
X77057Y1129370D01*
X76410Y1129046D01*
X75808Y1128768D01*
X75253Y1128491D01*
X74790Y1128259D01*
X74373Y1128074D01*
X74049Y1127889D01*
X73772Y1127750D01*
X73540Y1127658D01*
X73401Y1127565D01*
X73309Y1127519D01*
X73263D01*
Y1143855D01*
X71550Y1142884D01*
X69931Y1141958D01*
X68496Y1141079D01*
X67802Y1140708D01*
X67154Y1140338D01*
X66599Y1140014D01*
X66089Y1139736D01*
X65627Y1139459D01*
X65256Y1139274D01*
X64979Y1139089D01*
X64747Y1138950D01*
X64608Y1138904D01*
X64562Y1138857D01*
X63035Y1138024D01*
X61462Y1137145D01*
X60027Y1136266D01*
X59333Y1135895D01*
X58685Y1135479D01*
X58083Y1135155D01*
X57528Y1134831D01*
X57065Y1134553D01*
X56649Y1134276D01*
X56325Y1134090D01*
X56047Y1133952D01*
X55908Y1133859D01*
X55862Y1133813D01*
X55584Y1133720D01*
X55353Y1133628D01*
X55168D01*
X54936Y1133674D01*
X54705Y1133766D01*
X54520Y1133859D01*
X54473Y1133905D01*
X53548Y1134461D01*
X52715Y1134970D01*
X51928Y1135433D01*
X51188Y1135849D01*
X50493Y1136266D01*
X49892Y1136636D01*
X49337Y1136960D01*
X48827Y1137237D01*
X48365Y1137515D01*
X47994Y1137747D01*
X47670Y1137932D01*
X47393Y1138071D01*
X47208Y1138209D01*
X47069Y1138302D01*
X46976Y1138348D01*
X46930D01*
X46606Y1138533D01*
X46189Y1138718D01*
X45403Y1139089D01*
X45033Y1139227D01*
X44709Y1139320D01*
X44524Y1139366D01*
X44431Y1139413D01*
X43783Y1139644D01*
X43181Y1139829D01*
X42626Y1140014D01*
X42163Y1140107D01*
X41793Y1140199D01*
X41469Y1140246D01*
X41284Y1140292D01*
X41099D01*
X40914Y1140246D01*
X40775Y1140199D01*
X40729D01*
X40497Y1140061D01*
X40451Y1140014D01*
X39896Y1139551D01*
X39387Y1139181D01*
X38970Y1138811D01*
X38600Y1138533D01*
X38322Y1138302D01*
X38091Y1138117D01*
X37998Y1138024D01*
X37952Y1137978D01*
X37535Y1137654D01*
X37073Y1137284D01*
X36101Y1136590D01*
X35638Y1136266D01*
X35268Y1135988D01*
X35036Y1135803D01*
X34944Y1135757D01*
X34574Y1135479D01*
X34296Y1135155D01*
X34065Y1134877D01*
X33879Y1134553D01*
X33740Y1134322D01*
X33648Y1134090D01*
X33602Y1133952D01*
Y1133905D01*
X33555Y1133489D01*
Y1133119D01*
X33602Y1132748D01*
X33648Y1132424D01*
X33740Y1132147D01*
X33787Y1131962D01*
X33879Y1131823D01*
Y1131777D01*
X34157Y1131129D01*
X34388Y1130573D01*
X34527Y1130342D01*
X34574Y1130157D01*
X34666Y1130064D01*
Y1130018D01*
X34805Y1129648D01*
X34990Y1129139D01*
X35175Y1128630D01*
X35360Y1128074D01*
X35545Y1127565D01*
X35684Y1127149D01*
X35777Y1126825D01*
X35823Y1126778D01*
Y1126732D01*
X35916Y1126547D01*
X36054Y1126408D01*
X36147Y1126316D01*
X36193Y1126269D01*
X36332Y1126177D01*
X36517Y1126131D01*
X36656Y1126084D01*
X37026D01*
X37350Y1126177D01*
X37535Y1126316D01*
X37628Y1126362D01*
X37952Y1126686D01*
X38183Y1127056D01*
X38276Y1127380D01*
X38322Y1127473D01*
Y1127519D01*
X38368Y1128028D01*
X38415Y1128491D01*
Y1130296D01*
X38368Y1130712D01*
X38230Y1131545D01*
X38137Y1131915D01*
X38091Y1132193D01*
X38045Y1132378D01*
Y1132471D01*
X38507Y1132517D01*
X38970Y1132610D01*
X39387Y1132702D01*
X39711Y1132841D01*
X39988Y1132934D01*
X40173Y1133026D01*
X40312Y1133072D01*
X40358Y1133119D01*
X40960Y1133674D01*
X41377Y1134229D01*
X41515Y1134461D01*
X41608Y1134600D01*
X41701Y1134738D01*
Y1134785D01*
X43320Y1133905D01*
X44894Y1133119D01*
X46282Y1132378D01*
X47624Y1131684D01*
X48827Y1131036D01*
X49938Y1130434D01*
X50956Y1129925D01*
X51882Y1129463D01*
X52669Y1129046D01*
X53363Y1128676D01*
X53918Y1128398D01*
X54427Y1128120D01*
X54797Y1127935D01*
X55029Y1127797D01*
X55214Y1127750D01*
X55260Y1127704D01*
X55307Y1128213D01*
X55399Y1128676D01*
X55445Y1129046D01*
X55492Y1129324D01*
X55538Y1129555D01*
X55584Y1129694D01*
X55630Y1129787D01*
Y1130018D01*
X55677Y1130203D01*
X55723Y1130296D01*
Y1130342D01*
X55862Y1130481D01*
X56001Y1130573D01*
X56093Y1130666D01*
X56139Y1130712D01*
X57250Y1131221D01*
X58315Y1131730D01*
X59286Y1132193D01*
X60166Y1132610D01*
X60906Y1132980D01*
X61184Y1133165D01*
X61462Y1133304D01*
X61647Y1133396D01*
X61785Y1133489D01*
X61878Y1133535D01*
X61924D01*
X62989Y1134044D01*
X64007Y1134507D01*
X64979Y1134970D01*
X65858Y1135386D01*
X66599Y1135710D01*
X66876Y1135849D01*
X67154Y1135988D01*
X67385Y1136080D01*
X67524Y1136173D01*
X67617Y1136219D01*
X67663D01*
X68126Y1136404D01*
X68542Y1136590D01*
X68820Y1136682D01*
X68866Y1136728D01*
X68912D01*
X69375Y1136914D01*
X69792Y1137099D01*
X70069Y1137237D01*
X70116Y1137284D01*
X70162D01*
X70069Y1137052D01*
X69977Y1136775D01*
X69931Y1136590D01*
X69884Y1136497D01*
X69745Y1136219D01*
X69560Y1136034D01*
X69422Y1135942D01*
X69375D01*
X68079Y1135109D01*
X66876Y1134322D01*
X65719Y1133581D01*
X64701Y1132887D01*
X63729Y1132286D01*
X62850Y1131684D01*
X62063Y1131175D01*
X61323Y1130712D01*
X60721Y1130296D01*
X60166Y1129925D01*
X59703Y1129648D01*
X59333Y1129370D01*
X59009Y1129185D01*
X58824Y1129046D01*
X58685Y1129000D01*
X58639Y1128953D01*
X58361Y1128722D01*
X58130Y1128537D01*
X58037Y1128352D01*
X57991Y1128306D01*
X57852Y1127935D01*
X57759Y1127565D01*
X57667Y1127334D01*
Y1127241D01*
X57620Y1126593D01*
X57528Y1126038D01*
X57482Y1125529D01*
X57435Y1125112D01*
Y1124835D01*
X57389Y1124603D01*
Y1124418D01*
X56278Y1124881D01*
X55168Y1125297D01*
X54149Y1125714D01*
X53270Y1126084D01*
X52484Y1126408D01*
X52160Y1126501D01*
X51882Y1126640D01*
X51650Y1126686D01*
X51512Y1126778D01*
X51419Y1126825D01*
X51373D01*
X50308Y1127241D01*
X49244Y1127658D01*
X48272Y1128028D01*
X47393Y1128352D01*
X46652Y1128630D01*
X46328Y1128768D01*
X46097Y1128861D01*
X45866Y1128953D01*
X45727Y1129000D01*
X45634Y1129046D01*
X45588D01*
Y1128953D01*
X46421Y1128074D01*
X47208Y1127288D01*
X47948Y1126547D01*
X48596Y1125853D01*
X49244Y1125205D01*
X49799Y1124603D01*
X50308Y1124094D01*
X50725Y1123632D01*
X51141Y1123215D01*
X51512Y1122845D01*
X51789Y1122521D01*
X52021Y1122289D01*
X52206Y1122058D01*
X52345Y1121919D01*
X52391Y1121873D01*
X52437Y1121827D01*
X52298Y1121688D01*
X52206Y1121595D01*
X52160Y1121503D01*
X51280Y1121873D01*
X50540Y1122197D01*
X49892Y1122475D01*
X49337Y1122706D01*
X48920Y1122845D01*
X48642Y1122984D01*
X48457Y1123030D01*
X48411Y1123076D01*
X48689Y1121688D01*
X48920Y1120438D01*
X49013Y1119929D01*
X49105Y1119420D01*
X49198Y1118957D01*
X49244Y1118587D01*
X49337Y1118217D01*
X49383Y1117893D01*
X49429Y1117662D01*
X49475Y1117430D01*
X49522Y1117291D01*
X49568Y1117152D01*
Y1117060D01*
X49614D01*
X49661Y1117106D01*
X49892Y1117152D01*
X50262Y1117291D01*
X50679Y1117384D01*
X51095Y1117523D01*
X51419Y1117662D01*
X51697Y1117708D01*
X51743Y1117754D01*
X51789D01*
X52576Y1117986D01*
X53316Y1118217D01*
X53918Y1118448D01*
X54427Y1118633D01*
X54890Y1118772D01*
X55168Y1118911D01*
X55399Y1118957D01*
X55445Y1119004D01*
X55630Y1119050D01*
X55677Y1119096D01*
X55723D01*
X55908Y1119281D01*
X55954Y1119374D01*
X56232Y1119698D01*
X56463Y1119976D01*
X56649Y1120161D01*
X56695Y1120253D01*
X56972Y1120623D01*
X57204Y1120901D01*
X57389Y1121086D01*
X57482Y1121132D01*
X57713Y1121364D01*
X57944Y1121549D01*
X58083Y1121688D01*
X58176Y1121734D01*
X58453Y1121919D01*
X58685Y1122058D01*
X58870Y1122151D01*
X58916Y1122197D01*
X59842Y1122475D01*
X60305Y1122613D01*
X60675Y1122752D01*
X60999Y1122891D01*
X61230Y1122984D01*
X61415Y1123030D01*
X61462Y1123076D01*
X62387Y1123400D01*
X62804Y1123539D01*
X63174Y1123678D01*
X63498Y1123817D01*
X63729Y1123863D01*
X63914Y1123955D01*
X63961D01*
X64377Y1124094D01*
X64747Y1124141D01*
X65025Y1124233D01*
X65118D01*
X65488Y1124372D01*
X65858Y1124464D01*
X66089Y1124557D01*
X66136Y1124603D01*
X66182D01*
X66136Y1124418D01*
X66089Y1124326D01*
X66043Y1124233D01*
X65997D01*
X65812Y1124094D01*
X65766Y1124048D01*
X65719D01*
X64655Y1123400D01*
X64192Y1123122D01*
X63729Y1122845D01*
X63405Y1122613D01*
X63128Y1122428D01*
X62943Y1122336D01*
X62896Y1122289D01*
X61878Y1121641D01*
X61369Y1121364D01*
X60953Y1121086D01*
X60628Y1120855D01*
X60351Y1120670D01*
X60166Y1120577D01*
X60120Y1120531D01*
X59842Y1120392D01*
X59610Y1120207D01*
X59472Y1120114D01*
X59425Y1120068D01*
X59240Y1119790D01*
X59055Y1119559D01*
X58962Y1119420D01*
X58916Y1119374D01*
X58592Y1118957D01*
X58361Y1118587D01*
X58222Y1118309D01*
X58176Y1118263D01*
Y1118217D01*
X57898Y1117800D01*
X57620Y1117430D01*
X57435Y1117152D01*
X57389Y1117106D01*
Y1117060D01*
X57111Y1116782D01*
X57065Y1116736D01*
X57019Y1116690D01*
X56787Y1116505D01*
X56602Y1116366D01*
X56463Y1116319D01*
X56417Y1116273D01*
X55538Y1115995D01*
X54659Y1115718D01*
X53825Y1115486D01*
X53085Y1115255D01*
X52484Y1115116D01*
X52021Y1114977D01*
X51836Y1114885D01*
X51697D01*
X51650Y1114838D01*
X51604D01*
X50679Y1114561D01*
X49753Y1114237D01*
X48966Y1113959D01*
X48226Y1113728D01*
X47624Y1113543D01*
X47161Y1113358D01*
X46976Y1113311D01*
X46837Y1113265D01*
X46791Y1113219D01*
X46745D01*
X46328Y1113080D01*
X45912Y1112987D01*
X45542Y1112941D01*
X44801D01*
X44662Y1112987D01*
X44616D01*
X44246Y1113126D01*
X43922Y1113311D01*
X43274Y1113774D01*
X43043Y1114006D01*
X42857Y1114191D01*
X42719Y1114329D01*
X42672Y1114376D01*
X42626Y1114422D01*
X42580Y1114515D01*
X42533Y1114607D01*
X42487Y1114653D01*
X42256Y1114885D01*
X42024Y1115116D01*
X41839Y1115255D01*
X41793Y1115348D01*
X41747Y1115394D01*
X41608Y1115533D01*
X41469Y1115671D01*
X41423Y1115718D01*
X41238Y1115995D01*
X41099Y1116181D01*
X41006Y1116366D01*
X40960Y1116412D01*
X40821Y1116319D01*
X40729Y1116273D01*
X40636D01*
X40451Y1116181D01*
X40266D01*
X40127Y1116227D01*
X40081Y1116273D01*
X39988Y1116412D01*
X39896Y1116458D01*
Y1116505D01*
X39109Y1117338D01*
X38692Y1117754D01*
X38368Y1118078D01*
X38045Y1118402D01*
X37813Y1118633D01*
X37674Y1118772D01*
X37628Y1118819D01*
X37211Y1119235D01*
X36888Y1119559D01*
X36564Y1119883D01*
X36332Y1120114D01*
X36147Y1120299D01*
X36008Y1120438D01*
X35962Y1120484D01*
X35916Y1120531D01*
X35083D01*
X34944Y1120577D01*
X34712Y1120623D01*
X34666Y1120670D01*
X34527Y1120762D01*
X34388Y1120947D01*
X34157Y1121410D01*
X34065Y1121641D01*
X33972Y1121827D01*
X33879Y1121965D01*
Y1122012D01*
X33509Y1122752D01*
X33231Y1123400D01*
X33139Y1123678D01*
X33046Y1123863D01*
X33000Y1124002D01*
Y1124048D01*
X32722Y1124835D01*
X32537Y1125205D01*
X32399Y1125529D01*
X32306Y1125760D01*
X32213Y1125992D01*
X32121Y1126131D01*
Y1126177D01*
X31797Y1126825D01*
X31473Y1127380D01*
X31380Y1127565D01*
X31242Y1127750D01*
X31195Y1127843D01*
X31149Y1127889D01*
X30779Y1128537D01*
X30501Y1129139D01*
X30362Y1129370D01*
X30270Y1129555D01*
X30177Y1129694D01*
Y1129740D01*
X29992Y1130203D01*
X29946Y1130573D01*
X29899Y1130897D01*
Y1131314D01*
X29946Y1131591D01*
X30038Y1131823D01*
X30316Y1132193D01*
X30594Y1132424D01*
X30640Y1132471D01*
X30686D01*
X30917Y1132563D01*
X31103Y1132610D01*
X31380Y1132748D01*
X31519Y1132887D01*
X31565Y1132934D01*
X31612Y1133072D01*
X31658Y1133211D01*
X31704Y1133581D01*
X31751Y1133859D01*
Y1133998D01*
X31797Y1134600D01*
X31889Y1135109D01*
X31936Y1135294D01*
X31982Y1135433D01*
X32028Y1135525D01*
Y1135571D01*
X32213Y1136080D01*
X32445Y1136451D01*
X32630Y1136728D01*
X32676Y1136775D01*
X32722Y1136821D01*
X33324Y1137376D01*
X33926Y1137885D01*
X34435Y1138348D01*
X34944Y1138718D01*
X35314Y1139042D01*
X35638Y1139320D01*
X35823Y1139459D01*
X35916Y1139505D01*
X36471Y1139922D01*
X37026Y1140384D01*
X37535Y1140801D01*
X37998Y1141217D01*
X38415Y1141588D01*
X38739Y1141865D01*
X38924Y1142050D01*
X39016Y1142143D01*
X39387Y1142421D01*
X39711Y1142606D01*
X39988Y1142745D01*
X40034Y1142791D01*
X40081D01*
X40451Y1142976D01*
X40821Y1143022D01*
X41238D01*
X41932Y1142884D01*
X42487Y1142745D01*
X42950Y1142698D01*
X43320Y1142606D01*
X43598Y1142560D01*
X43783Y1142513D01*
X43922D01*
X44246Y1142467D01*
X44616Y1142328D01*
X45449Y1142097D01*
X45819Y1141958D01*
X46097Y1141819D01*
X46282Y1141773D01*
X46375Y1141727D01*
X46421D01*
X46514Y1141680D01*
X46652Y1141634D01*
X46837Y1141541D01*
X47300Y1141356D01*
X47809Y1141125D01*
X48318Y1140940D01*
X48781Y1140755D01*
X48966Y1140662D01*
X49105Y1140616D01*
X49198Y1140570D01*
X49244D01*
X50262Y1140153D01*
X51188Y1139736D01*
X51974Y1139459D01*
X52622Y1139181D01*
X53131Y1138996D01*
X53502Y1138857D01*
X53733Y1138811D01*
X53825Y1138765D01*
X54011Y1138672D01*
X54196Y1138626D01*
X54659D01*
X54844Y1138672D01*
X54936Y1138718D01*
X54983Y1138765D01*
X57158Y1140246D01*
X59240Y1141634D01*
X60258Y1142328D01*
X61184Y1142976D01*
X62109Y1143578D01*
X62943Y1144133D01*
X63729Y1144688D01*
X64470Y1145151D01*
X65071Y1145568D01*
X65580Y1145938D01*
X66043Y1146216D01*
X66321Y1146401D01*
X66552Y1146540D01*
X66599Y1146586D01*
X68774Y1148067D01*
X70856Y1149501D01*
X71874Y1150149D01*
X72846Y1150797D01*
X73772Y1151399D01*
X74605Y1152000D01*
X75392Y1152510D01*
X76132Y1152972D01*
X76734Y1153389D01*
X77289Y1153759D01*
X77705Y1154037D01*
X78029Y1154222D01*
X78261Y1154361D01*
X78307Y1154407D01*
X78353Y1154361D01*
D02*
G37*
G36*
X216865Y1106925D02*
X215754Y1106369D01*
X214829Y1105907D01*
X213995Y1105490D01*
X213348Y1105166D01*
X212839Y1104889D01*
X212422Y1104704D01*
X212237Y1104611D01*
X212144Y1104565D01*
Y1115625D01*
X211034Y1115070D01*
X210062Y1114607D01*
X209229Y1114191D01*
X208581Y1113867D01*
X208026Y1113635D01*
X207655Y1113450D01*
X207470Y1113358D01*
X207378Y1113311D01*
Y1102343D01*
X206267Y1101788D01*
X205295Y1101325D01*
X204462Y1100955D01*
X203814Y1100631D01*
X203305Y1100353D01*
X202935Y1100168D01*
X202750Y1100076D01*
X202657Y1100029D01*
Y1111090D01*
X201546Y1110535D01*
X200575Y1110072D01*
X199742Y1109655D01*
X199094Y1109331D01*
X198538Y1109054D01*
X198168Y1108868D01*
X197983Y1108776D01*
X197890Y1108730D01*
Y1097808D01*
X196780Y1097253D01*
X195854Y1096836D01*
X195068Y1096420D01*
X194420Y1096142D01*
X193911Y1095864D01*
X193540Y1095725D01*
X193355Y1095633D01*
X193263Y1095586D01*
Y1112154D01*
X194697Y1112849D01*
X196132Y1113543D01*
X197474Y1114191D01*
X198816Y1114792D01*
X200066Y1115394D01*
X201315Y1115995D01*
X202472Y1116551D01*
X203629Y1117106D01*
X204694Y1117615D01*
X205712Y1118124D01*
X206730Y1118587D01*
X207655Y1119050D01*
X208581Y1119466D01*
X209414Y1119883D01*
X210201Y1120253D01*
X210987Y1120623D01*
X212376Y1121271D01*
X213579Y1121873D01*
X214551Y1122336D01*
X215384Y1122752D01*
X216032Y1123030D01*
X216495Y1123261D01*
X216772Y1123400D01*
X216865Y1123446D01*
Y1106925D01*
D02*
G37*
G36*
X96865D02*
X95754Y1106369D01*
X94829Y1105907D01*
X93996Y1105490D01*
X93348Y1105166D01*
X92839Y1104889D01*
X92422Y1104704D01*
X92237Y1104611D01*
X92144Y1104565D01*
Y1115625D01*
X91034Y1115070D01*
X90062Y1114607D01*
X89229Y1114191D01*
X88581Y1113867D01*
X88026Y1113635D01*
X87655Y1113450D01*
X87470Y1113358D01*
X87378Y1113311D01*
Y1102343D01*
X86267Y1101788D01*
X85295Y1101325D01*
X84462Y1100955D01*
X83814Y1100631D01*
X83305Y1100353D01*
X82935Y1100168D01*
X82750Y1100076D01*
X82657Y1100029D01*
Y1111090D01*
X81546Y1110535D01*
X80575Y1110072D01*
X79742Y1109655D01*
X79094Y1109331D01*
X78538Y1109054D01*
X78168Y1108868D01*
X77983Y1108776D01*
X77891Y1108730D01*
Y1097808D01*
X76780Y1097253D01*
X75854Y1096836D01*
X75068Y1096420D01*
X74420Y1096142D01*
X73910Y1095864D01*
X73540Y1095725D01*
X73355Y1095633D01*
X73263Y1095586D01*
Y1112154D01*
X74697Y1112849D01*
X76132Y1113543D01*
X77474Y1114191D01*
X78816Y1114792D01*
X80066Y1115394D01*
X81315Y1115995D01*
X82472Y1116551D01*
X83629Y1117106D01*
X84693Y1117615D01*
X85712Y1118124D01*
X86730Y1118587D01*
X87655Y1119050D01*
X88581Y1119466D01*
X89414Y1119883D01*
X90201Y1120253D01*
X90987Y1120623D01*
X92376Y1121271D01*
X93579Y1121873D01*
X94551Y1122336D01*
X95384Y1122752D01*
X96032Y1123030D01*
X96495Y1123261D01*
X96772Y1123400D01*
X96865Y1123446D01*
Y1106925D01*
D02*
G37*
G36*
X184053Y1090959D02*
X182943Y1090403D01*
X181971Y1089940D01*
X181138Y1089524D01*
X180490Y1089200D01*
X179981Y1088922D01*
X179610Y1088737D01*
X179425Y1088645D01*
X179333Y1088598D01*
Y1099659D01*
X177620Y1098826D01*
X176001Y1098039D01*
X174473Y1097345D01*
X173085Y1096651D01*
X171835Y1096049D01*
X170632Y1095494D01*
X169614Y1094985D01*
X168642Y1094522D01*
X167809Y1094106D01*
X167069Y1093735D01*
X166467Y1093458D01*
X165958Y1093180D01*
X165588Y1092995D01*
X165310Y1092856D01*
X165125Y1092810D01*
X165079Y1092764D01*
Y1081842D01*
X163968Y1081286D01*
X162996Y1080870D01*
X162163Y1080453D01*
X161515Y1080176D01*
X161006Y1079898D01*
X160636Y1079759D01*
X160451Y1079667D01*
X160358Y1079620D01*
Y1096188D01*
X163228Y1097577D01*
X165912Y1098826D01*
X168411Y1100029D01*
X170725Y1101140D01*
X172854Y1102158D01*
X174797Y1103084D01*
X176556Y1103917D01*
X178130Y1104657D01*
X178824Y1104981D01*
X179518Y1105305D01*
X180119Y1105629D01*
X180721Y1105907D01*
X181230Y1106138D01*
X181739Y1106369D01*
X182156Y1106601D01*
X182572Y1106786D01*
X182896Y1106925D01*
X183220Y1107064D01*
X183451Y1107203D01*
X183683Y1107295D01*
X183822Y1107388D01*
X183961Y1107434D01*
X184007Y1107480D01*
X184053D01*
Y1090959D01*
D02*
G37*
G36*
X64053D02*
X62943Y1090403D01*
X61971Y1089940D01*
X61138Y1089524D01*
X60490Y1089200D01*
X59981Y1088922D01*
X59610Y1088737D01*
X59425Y1088645D01*
X59333Y1088598D01*
Y1099659D01*
X57620Y1098826D01*
X56001Y1098039D01*
X54473Y1097345D01*
X53085Y1096651D01*
X51836Y1096049D01*
X50632Y1095494D01*
X49614Y1094985D01*
X48642Y1094522D01*
X47809Y1094106D01*
X47069Y1093735D01*
X46467Y1093458D01*
X45958Y1093180D01*
X45588Y1092995D01*
X45310Y1092856D01*
X45125Y1092810D01*
X45079Y1092764D01*
Y1081842D01*
X43968Y1081286D01*
X42996Y1080870D01*
X42163Y1080453D01*
X41515Y1080176D01*
X41006Y1079898D01*
X40636Y1079759D01*
X40451Y1079667D01*
X40358Y1079620D01*
Y1096188D01*
X43228Y1097577D01*
X45912Y1098826D01*
X48411Y1100029D01*
X50725Y1101140D01*
X52854Y1102158D01*
X54797Y1103084D01*
X56556Y1103917D01*
X58130Y1104657D01*
X58824Y1104981D01*
X59518Y1105305D01*
X60120Y1105629D01*
X60721Y1105907D01*
X61230Y1106138D01*
X61739Y1106369D01*
X62156Y1106601D01*
X62572Y1106786D01*
X62896Y1106925D01*
X63220Y1107064D01*
X63451Y1107203D01*
X63683Y1107295D01*
X63822Y1107388D01*
X63961Y1107434D01*
X64007Y1107480D01*
X64053D01*
Y1090959D01*
D02*
G37*
G36*
X216865Y1085220D02*
X215754Y1084665D01*
X214829Y1084202D01*
X213995Y1083832D01*
X213348Y1083508D01*
X212839Y1083230D01*
X212422Y1083045D01*
X212237Y1082952D01*
X212144Y1082906D01*
Y1094059D01*
X209877Y1092949D01*
X207702Y1091930D01*
X205712Y1090959D01*
X203860Y1090033D01*
X202194Y1089246D01*
X200621Y1088506D01*
X199233Y1087812D01*
X197983Y1087210D01*
X196872Y1086655D01*
X195900Y1086192D01*
X195114Y1085822D01*
X194420Y1085498D01*
X193911Y1085266D01*
X193540Y1085081D01*
X193355Y1084989D01*
X193263Y1084942D01*
Y1090450D01*
X194697Y1091144D01*
X196132Y1091838D01*
X197474Y1092486D01*
X198816Y1093087D01*
X200066Y1093689D01*
X201315Y1094291D01*
X202472Y1094846D01*
X203629Y1095401D01*
X204694Y1095910D01*
X205712Y1096420D01*
X206730Y1096882D01*
X207655Y1097345D01*
X208581Y1097762D01*
X209414Y1098178D01*
X210201Y1098595D01*
X210987Y1098965D01*
X212376Y1099613D01*
X213579Y1100168D01*
X214551Y1100677D01*
X215384Y1101094D01*
X216032Y1101371D01*
X216495Y1101603D01*
X216772Y1101742D01*
X216865Y1101788D01*
Y1085220D01*
D02*
G37*
G36*
X96865D02*
X95754Y1084665D01*
X94829Y1084202D01*
X93996Y1083832D01*
X93348Y1083508D01*
X92839Y1083230D01*
X92422Y1083045D01*
X92237Y1082952D01*
X92144Y1082906D01*
Y1094059D01*
X89877Y1092949D01*
X87702Y1091930D01*
X85712Y1090959D01*
X83861Y1090033D01*
X82194Y1089246D01*
X80621Y1088506D01*
X79233Y1087812D01*
X77983Y1087210D01*
X76872Y1086655D01*
X75901Y1086192D01*
X75114Y1085822D01*
X74420Y1085498D01*
X73910Y1085266D01*
X73540Y1085081D01*
X73355Y1084989D01*
X73263Y1084942D01*
Y1090450D01*
X74697Y1091144D01*
X76132Y1091838D01*
X77474Y1092486D01*
X78816Y1093087D01*
X80066Y1093689D01*
X81315Y1094291D01*
X82472Y1094846D01*
X83629Y1095401D01*
X84693Y1095910D01*
X85712Y1096420D01*
X86730Y1096882D01*
X87655Y1097345D01*
X88581Y1097762D01*
X89414Y1098178D01*
X90201Y1098595D01*
X90987Y1098965D01*
X92376Y1099613D01*
X93579Y1100168D01*
X94551Y1100677D01*
X95384Y1101094D01*
X96032Y1101371D01*
X96495Y1101603D01*
X96772Y1101742D01*
X96865Y1101788D01*
Y1085220D01*
D02*
G37*
G36*
X184053Y1081055D02*
X181184Y1079667D01*
X178500Y1078417D01*
X176001Y1077214D01*
X173687Y1076103D01*
X171558Y1075085D01*
X169614Y1074159D01*
X167856Y1073326D01*
X166282Y1072586D01*
X165588Y1072216D01*
X164894Y1071938D01*
X164292Y1071614D01*
X163690Y1071336D01*
X163181Y1071105D01*
X162672Y1070874D01*
X162256Y1070642D01*
X161839Y1070457D01*
X161515Y1070318D01*
X161191Y1070180D01*
X160914Y1070041D01*
X160729Y1069948D01*
X160543Y1069855D01*
X160451Y1069809D01*
X160358Y1069763D01*
Y1075270D01*
X163228Y1076658D01*
X165912Y1077908D01*
X168411Y1079111D01*
X170725Y1080222D01*
X172854Y1081240D01*
X174797Y1082166D01*
X176556Y1082999D01*
X178130Y1083785D01*
X178824Y1084109D01*
X179518Y1084433D01*
X180119Y1084711D01*
X180721Y1084989D01*
X181230Y1085266D01*
X181739Y1085498D01*
X182156Y1085729D01*
X182572Y1085914D01*
X182896Y1086053D01*
X183220Y1086192D01*
X183451Y1086331D01*
X183683Y1086423D01*
X183822Y1086516D01*
X183961Y1086562D01*
X184007Y1086608D01*
X184053D01*
Y1081055D01*
D02*
G37*
G36*
X64053D02*
X61184Y1079667D01*
X58500Y1078417D01*
X56001Y1077214D01*
X53687Y1076103D01*
X51558Y1075085D01*
X49614Y1074159D01*
X47856Y1073326D01*
X46282Y1072586D01*
X45588Y1072216D01*
X44894Y1071938D01*
X44292Y1071614D01*
X43691Y1071336D01*
X43181Y1071105D01*
X42672Y1070874D01*
X42256Y1070642D01*
X41839Y1070457D01*
X41515Y1070318D01*
X41191Y1070180D01*
X40914Y1070041D01*
X40729Y1069948D01*
X40543Y1069855D01*
X40451Y1069809D01*
X40358Y1069763D01*
Y1075270D01*
X43228Y1076658D01*
X45912Y1077908D01*
X48411Y1079111D01*
X50725Y1080222D01*
X52854Y1081240D01*
X54797Y1082166D01*
X56556Y1082999D01*
X58130Y1083785D01*
X58824Y1084109D01*
X59518Y1084433D01*
X60120Y1084711D01*
X60721Y1084989D01*
X61230Y1085266D01*
X61739Y1085498D01*
X62156Y1085729D01*
X62572Y1085914D01*
X62896Y1086053D01*
X63220Y1086192D01*
X63451Y1086331D01*
X63683Y1086423D01*
X63822Y1086516D01*
X63961Y1086562D01*
X64007Y1086608D01*
X64053D01*
Y1081055D01*
D02*
G37*
G36*
X216865Y1064348D02*
X215754Y1063793D01*
X214829Y1063330D01*
X213995Y1062914D01*
X213348Y1062590D01*
X212839Y1062312D01*
X212422Y1062127D01*
X212237Y1062034D01*
X212144Y1061988D01*
Y1073049D01*
X211034Y1072493D01*
X210062Y1072031D01*
X209229Y1071614D01*
X208581Y1071290D01*
X208026Y1071059D01*
X207655Y1070874D01*
X207470Y1070781D01*
X207378Y1070735D01*
Y1059767D01*
X206267Y1059211D01*
X205295Y1058749D01*
X204462Y1058378D01*
X203814Y1058054D01*
X203305Y1057777D01*
X202935Y1057592D01*
X202750Y1057499D01*
X202657Y1057453D01*
Y1068513D01*
X201546Y1067958D01*
X200575Y1067495D01*
X199742Y1067079D01*
X199094Y1066755D01*
X198538Y1066477D01*
X198168Y1066292D01*
X197983Y1066199D01*
X197890Y1066153D01*
Y1055231D01*
X196780Y1054676D01*
X195854Y1054260D01*
X195068Y1053843D01*
X194420Y1053565D01*
X193911Y1053288D01*
X193540Y1053149D01*
X193355Y1053056D01*
X193263Y1053010D01*
Y1069578D01*
X194697Y1070272D01*
X196132Y1070966D01*
X197474Y1071614D01*
X198816Y1072216D01*
X200066Y1072817D01*
X201315Y1073419D01*
X202472Y1073974D01*
X203629Y1074530D01*
X204694Y1075039D01*
X205712Y1075548D01*
X206730Y1076011D01*
X207655Y1076473D01*
X208581Y1076890D01*
X209414Y1077306D01*
X210201Y1077677D01*
X210987Y1078047D01*
X212376Y1078695D01*
X213579Y1079296D01*
X214551Y1079759D01*
X215384Y1080176D01*
X216032Y1080453D01*
X216495Y1080685D01*
X216772Y1080824D01*
X216865Y1080870D01*
Y1064348D01*
D02*
G37*
G36*
X96865D02*
X95754Y1063793D01*
X94829Y1063330D01*
X93996Y1062914D01*
X93348Y1062590D01*
X92839Y1062312D01*
X92422Y1062127D01*
X92237Y1062034D01*
X92144Y1061988D01*
Y1073049D01*
X91034Y1072493D01*
X90062Y1072031D01*
X89229Y1071614D01*
X88581Y1071290D01*
X88026Y1071059D01*
X87655Y1070874D01*
X87470Y1070781D01*
X87378Y1070735D01*
Y1059767D01*
X86267Y1059211D01*
X85295Y1058749D01*
X84462Y1058378D01*
X83814Y1058054D01*
X83305Y1057777D01*
X82935Y1057592D01*
X82750Y1057499D01*
X82657Y1057453D01*
Y1068513D01*
X81546Y1067958D01*
X80575Y1067495D01*
X79742Y1067079D01*
X79094Y1066755D01*
X78538Y1066477D01*
X78168Y1066292D01*
X77983Y1066199D01*
X77891Y1066153D01*
Y1055231D01*
X76780Y1054676D01*
X75854Y1054260D01*
X75068Y1053843D01*
X74420Y1053565D01*
X73910Y1053288D01*
X73540Y1053149D01*
X73355Y1053056D01*
X73263Y1053010D01*
Y1069578D01*
X74697Y1070272D01*
X76132Y1070966D01*
X77474Y1071614D01*
X78816Y1072216D01*
X80066Y1072817D01*
X81315Y1073419D01*
X82472Y1073974D01*
X83629Y1074530D01*
X84693Y1075039D01*
X85712Y1075548D01*
X86730Y1076011D01*
X87655Y1076473D01*
X88581Y1076890D01*
X89414Y1077306D01*
X90201Y1077677D01*
X90987Y1078047D01*
X92376Y1078695D01*
X93579Y1079296D01*
X94551Y1079759D01*
X95384Y1080176D01*
X96032Y1080453D01*
X96495Y1080685D01*
X96772Y1080824D01*
X96865Y1080870D01*
Y1064348D01*
D02*
G37*
G36*
X175538Y1070827D02*
X176649Y1070688D01*
X177667Y1070596D01*
X178638Y1070550D01*
X179471Y1070457D01*
X180305Y1070365D01*
X180999Y1070318D01*
X181647Y1070272D01*
X182202Y1070180D01*
X182711D01*
X183128Y1070133D01*
X183451Y1070087D01*
X183729D01*
X183914Y1070041D01*
X184053D01*
Y1064533D01*
X183174Y1063562D01*
X182295Y1062682D01*
X181462Y1061803D01*
X180721Y1061062D01*
X180119Y1060415D01*
X179657Y1059906D01*
X179471Y1059721D01*
X179333Y1059582D01*
X179286Y1059535D01*
X179240Y1059489D01*
X178315Y1058517D01*
X177435Y1057592D01*
X176602Y1056712D01*
X175908Y1055926D01*
X175260Y1055278D01*
X174797Y1054769D01*
X174612Y1054584D01*
X174473Y1054445D01*
X174427Y1054398D01*
X174381Y1054352D01*
X172669Y1053565D01*
X171095Y1052779D01*
X169614Y1052085D01*
X168226Y1051437D01*
X166976Y1050835D01*
X165819Y1050280D01*
X164755Y1049771D01*
X163829Y1049308D01*
X163043Y1048891D01*
X162302Y1048567D01*
X161700Y1048243D01*
X161238Y1048012D01*
X160868Y1047827D01*
X160590Y1047688D01*
X160405Y1047642D01*
X160358Y1047595D01*
Y1053103D01*
X161886Y1053843D01*
X163320Y1054537D01*
X164662Y1055185D01*
X165912Y1055787D01*
X167023Y1056342D01*
X168087Y1056805D01*
X169013Y1057268D01*
X169846Y1057684D01*
X170586Y1058054D01*
X171234Y1058332D01*
X171789Y1058610D01*
X172252Y1058841D01*
X172576Y1058980D01*
X172854Y1059119D01*
X172992Y1059165D01*
X173039Y1059211D01*
X174196Y1060415D01*
X175214Y1061479D01*
X176047Y1062405D01*
X176741Y1063145D01*
X177296Y1063700D01*
X177667Y1064117D01*
X177898Y1064348D01*
X177991Y1064441D01*
X176834Y1064533D01*
X175816Y1064626D01*
X174936Y1064672D01*
X174242Y1064719D01*
X173733Y1064765D01*
X173363Y1064811D01*
X173039D01*
X171512Y1064071D01*
X170077Y1063376D01*
X168735Y1062729D01*
X167485Y1062127D01*
X166375Y1061572D01*
X165310Y1061109D01*
X164385Y1060646D01*
X163552Y1060229D01*
X162811Y1059859D01*
X162163Y1059582D01*
X161608Y1059304D01*
X161145Y1059073D01*
X160821Y1058934D01*
X160543Y1058795D01*
X160405Y1058702D01*
X160358D01*
Y1064256D01*
X162071Y1065042D01*
X163644Y1065829D01*
X165125Y1066523D01*
X166514Y1067171D01*
X167763Y1067773D01*
X168920Y1068328D01*
X169984Y1068791D01*
X170910Y1069254D01*
X171697Y1069624D01*
X172437Y1069994D01*
X173039Y1070272D01*
X173502Y1070503D01*
X173872Y1070688D01*
X174149Y1070827D01*
X174335Y1070874D01*
X174381Y1070920D01*
X175538Y1070827D01*
D02*
G37*
G36*
X55538D02*
X56649Y1070688D01*
X57667Y1070596D01*
X58639Y1070550D01*
X59472Y1070457D01*
X60305Y1070365D01*
X60999Y1070318D01*
X61647Y1070272D01*
X62202Y1070180D01*
X62711D01*
X63128Y1070133D01*
X63451Y1070087D01*
X63729D01*
X63914Y1070041D01*
X64053D01*
Y1064533D01*
X63174Y1063562D01*
X62295Y1062682D01*
X61462Y1061803D01*
X60721Y1061062D01*
X60120Y1060415D01*
X59657Y1059906D01*
X59472Y1059721D01*
X59333Y1059582D01*
X59286Y1059535D01*
X59240Y1059489D01*
X58315Y1058517D01*
X57435Y1057592D01*
X56602Y1056712D01*
X55908Y1055926D01*
X55260Y1055278D01*
X54797Y1054769D01*
X54612Y1054584D01*
X54473Y1054445D01*
X54427Y1054398D01*
X54381Y1054352D01*
X52669Y1053565D01*
X51095Y1052779D01*
X49614Y1052085D01*
X48226Y1051437D01*
X46976Y1050835D01*
X45819Y1050280D01*
X44755Y1049771D01*
X43829Y1049308D01*
X43043Y1048891D01*
X42302Y1048567D01*
X41701Y1048243D01*
X41238Y1048012D01*
X40868Y1047827D01*
X40590Y1047688D01*
X40405Y1047642D01*
X40358Y1047595D01*
Y1053103D01*
X41886Y1053843D01*
X43320Y1054537D01*
X44662Y1055185D01*
X45912Y1055787D01*
X47023Y1056342D01*
X48087Y1056805D01*
X49013Y1057268D01*
X49846Y1057684D01*
X50586Y1058054D01*
X51234Y1058332D01*
X51789Y1058610D01*
X52252Y1058841D01*
X52576Y1058980D01*
X52854Y1059119D01*
X52993Y1059165D01*
X53039Y1059211D01*
X54196Y1060415D01*
X55214Y1061479D01*
X56047Y1062405D01*
X56741Y1063145D01*
X57297Y1063700D01*
X57667Y1064117D01*
X57898Y1064348D01*
X57991Y1064441D01*
X56834Y1064533D01*
X55816Y1064626D01*
X54936Y1064672D01*
X54242Y1064719D01*
X53733Y1064765D01*
X53363Y1064811D01*
X53039D01*
X51512Y1064071D01*
X50077Y1063376D01*
X48735Y1062729D01*
X47485Y1062127D01*
X46375Y1061572D01*
X45310Y1061109D01*
X44385Y1060646D01*
X43552Y1060229D01*
X42811Y1059859D01*
X42163Y1059582D01*
X41608Y1059304D01*
X41145Y1059073D01*
X40821Y1058934D01*
X40543Y1058795D01*
X40405Y1058702D01*
X40358D01*
Y1064256D01*
X42071Y1065042D01*
X43644Y1065829D01*
X45125Y1066523D01*
X46514Y1067171D01*
X47763Y1067773D01*
X48920Y1068328D01*
X49984Y1068791D01*
X50910Y1069254D01*
X51697Y1069624D01*
X52437Y1069994D01*
X53039Y1070272D01*
X53502Y1070503D01*
X53872Y1070688D01*
X54149Y1070827D01*
X54335Y1070874D01*
X54381Y1070920D01*
X55538Y1070827D01*
D02*
G37*
G36*
X216865Y1042644D02*
X215754Y1042088D01*
X214829Y1041626D01*
X213995Y1041255D01*
X213348Y1040931D01*
X212839Y1040654D01*
X212422Y1040469D01*
X212237Y1040376D01*
X212144Y1040330D01*
Y1051344D01*
X210432Y1050511D01*
X208812Y1049724D01*
X207285Y1049030D01*
X205897Y1048336D01*
X204647Y1047734D01*
X203444Y1047179D01*
X202426Y1046670D01*
X201454Y1046207D01*
X200621Y1045837D01*
X199881Y1045467D01*
X199279Y1045189D01*
X198770Y1044911D01*
X198400Y1044726D01*
X198122Y1044587D01*
X197937Y1044541D01*
X197890Y1044495D01*
Y1033573D01*
X196780Y1033018D01*
X195854Y1032555D01*
X195068Y1032138D01*
X194420Y1031814D01*
X193911Y1031583D01*
X193540Y1031398D01*
X193355Y1031305D01*
X193263Y1031259D01*
Y1047873D01*
X194697Y1048567D01*
X196132Y1049261D01*
X197474Y1049909D01*
X198816Y1050511D01*
X200066Y1051113D01*
X201315Y1051714D01*
X202472Y1052270D01*
X203629Y1052825D01*
X204694Y1053334D01*
X205712Y1053843D01*
X206730Y1054306D01*
X207655Y1054769D01*
X208581Y1055185D01*
X209414Y1055602D01*
X210201Y1056018D01*
X210987Y1056388D01*
X212376Y1057036D01*
X213579Y1057592D01*
X214551Y1058101D01*
X215384Y1058517D01*
X216032Y1058795D01*
X216495Y1059026D01*
X216772Y1059165D01*
X216865Y1059211D01*
Y1042644D01*
D02*
G37*
G36*
X96865D02*
X95754Y1042088D01*
X94829Y1041626D01*
X93996Y1041255D01*
X93348Y1040931D01*
X92839Y1040654D01*
X92422Y1040469D01*
X92237Y1040376D01*
X92144Y1040330D01*
Y1051344D01*
X90432Y1050511D01*
X88812Y1049724D01*
X87285Y1049030D01*
X85897Y1048336D01*
X84647Y1047734D01*
X83444Y1047179D01*
X82426Y1046670D01*
X81454Y1046207D01*
X80621Y1045837D01*
X79880Y1045467D01*
X79279Y1045189D01*
X78770Y1044911D01*
X78400Y1044726D01*
X78122Y1044587D01*
X77937Y1044541D01*
X77891Y1044495D01*
Y1033573D01*
X76780Y1033018D01*
X75854Y1032555D01*
X75068Y1032138D01*
X74420Y1031814D01*
X73910Y1031583D01*
X73540Y1031398D01*
X73355Y1031305D01*
X73263Y1031259D01*
Y1047873D01*
X74697Y1048567D01*
X76132Y1049261D01*
X77474Y1049909D01*
X78816Y1050511D01*
X80066Y1051113D01*
X81315Y1051714D01*
X82472Y1052270D01*
X83629Y1052825D01*
X84693Y1053334D01*
X85712Y1053843D01*
X86730Y1054306D01*
X87655Y1054769D01*
X88581Y1055185D01*
X89414Y1055602D01*
X90201Y1056018D01*
X90987Y1056388D01*
X92376Y1057036D01*
X93579Y1057592D01*
X94551Y1058101D01*
X95384Y1058517D01*
X96032Y1058795D01*
X96495Y1059026D01*
X96772Y1059165D01*
X96865Y1059211D01*
Y1042644D01*
D02*
G37*
G36*
X184053Y1047781D02*
X181184Y1046392D01*
X178500Y1045143D01*
X176001Y1043939D01*
X173687Y1042829D01*
X171558Y1041811D01*
X169614Y1040885D01*
X167856Y1040052D01*
X166282Y1039312D01*
X165588Y1038941D01*
X164894Y1038664D01*
X164292Y1038340D01*
X163690Y1038062D01*
X163181Y1037831D01*
X162672Y1037599D01*
X162256Y1037368D01*
X161839Y1037183D01*
X161515Y1037044D01*
X161191Y1036905D01*
X160914Y1036766D01*
X160729Y1036674D01*
X160543Y1036581D01*
X160451Y1036535D01*
X160358Y1036488D01*
Y1041903D01*
X163228Y1043291D01*
X165912Y1044541D01*
X168411Y1045744D01*
X170725Y1046855D01*
X172854Y1047873D01*
X174797Y1048799D01*
X176556Y1049632D01*
X178130Y1050372D01*
X178824Y1050696D01*
X179518Y1051020D01*
X180119Y1051344D01*
X180721Y1051622D01*
X181230Y1051853D01*
X181739Y1052085D01*
X182156Y1052316D01*
X182572Y1052501D01*
X182896Y1052640D01*
X183220Y1052779D01*
X183451Y1052917D01*
X183683Y1053010D01*
X183822Y1053103D01*
X183961Y1053149D01*
X184007Y1053195D01*
X184053D01*
Y1047781D01*
D02*
G37*
G36*
X64053D02*
X61184Y1046392D01*
X58500Y1045143D01*
X56001Y1043939D01*
X53687Y1042829D01*
X51558Y1041811D01*
X49614Y1040885D01*
X47856Y1040052D01*
X46282Y1039312D01*
X45588Y1038941D01*
X44894Y1038664D01*
X44292Y1038340D01*
X43691Y1038062D01*
X43181Y1037831D01*
X42672Y1037599D01*
X42256Y1037368D01*
X41839Y1037183D01*
X41515Y1037044D01*
X41191Y1036905D01*
X40914Y1036766D01*
X40729Y1036674D01*
X40543Y1036581D01*
X40451Y1036535D01*
X40358Y1036488D01*
Y1041903D01*
X43228Y1043291D01*
X45912Y1044541D01*
X48411Y1045744D01*
X50725Y1046855D01*
X52854Y1047873D01*
X54797Y1048799D01*
X56556Y1049632D01*
X58130Y1050372D01*
X58824Y1050696D01*
X59518Y1051020D01*
X60120Y1051344D01*
X60721Y1051622D01*
X61230Y1051853D01*
X61739Y1052085D01*
X62156Y1052316D01*
X62572Y1052501D01*
X62896Y1052640D01*
X63220Y1052779D01*
X63451Y1052917D01*
X63683Y1053010D01*
X63822Y1053103D01*
X63961Y1053149D01*
X64007Y1053195D01*
X64053D01*
Y1047781D01*
D02*
G37*
G36*
X216865Y1027187D02*
X214597Y1026076D01*
X212422Y1025058D01*
X210432Y1024132D01*
X208581Y1023206D01*
X206915Y1022420D01*
X205341Y1021679D01*
X203953Y1020985D01*
X202703Y1020384D01*
X201593Y1019828D01*
X200621Y1019365D01*
X199834Y1018949D01*
X199140Y1018625D01*
X198631Y1018393D01*
X198261Y1018208D01*
X198076Y1018116D01*
X197983Y1018070D01*
Y1012655D01*
X196872Y1012146D01*
X195900Y1011683D01*
X195068Y1011313D01*
X194420Y1010989D01*
X193911Y1010758D01*
X193540Y1010572D01*
X193355Y1010480D01*
X193263Y1010434D01*
Y1027001D01*
X194373Y1027557D01*
X195299Y1027973D01*
X196132Y1028390D01*
X196780Y1028667D01*
X197289Y1028899D01*
X197659Y1029084D01*
X197890Y1029176D01*
X197983Y1029223D01*
Y1023716D01*
X200251Y1024826D01*
X202426Y1025844D01*
X204416Y1026816D01*
X206221Y1027695D01*
X207933Y1028482D01*
X209506Y1029269D01*
X210895Y1029917D01*
X212144Y1030518D01*
X213255Y1031074D01*
X214227Y1031490D01*
X215014Y1031907D01*
X215662Y1032231D01*
X216217Y1032462D01*
X216587Y1032647D01*
X216772Y1032740D01*
X216865Y1032786D01*
Y1027187D01*
D02*
G37*
G36*
X96865D02*
X94597Y1026076D01*
X92422Y1025058D01*
X90432Y1024132D01*
X88581Y1023206D01*
X86915Y1022420D01*
X85341Y1021679D01*
X83953Y1020985D01*
X82704Y1020384D01*
X81593Y1019828D01*
X80621Y1019365D01*
X79834Y1018949D01*
X79140Y1018625D01*
X78631Y1018393D01*
X78261Y1018208D01*
X78076Y1018116D01*
X77983Y1018070D01*
Y1012655D01*
X76872Y1012146D01*
X75901Y1011683D01*
X75068Y1011313D01*
X74420Y1010989D01*
X73910Y1010758D01*
X73540Y1010572D01*
X73355Y1010480D01*
X73263Y1010434D01*
Y1027001D01*
X74373Y1027557D01*
X75299Y1027973D01*
X76132Y1028390D01*
X76780Y1028667D01*
X77289Y1028899D01*
X77659Y1029084D01*
X77891Y1029176D01*
X77983Y1029223D01*
Y1023716D01*
X80251Y1024826D01*
X82426Y1025844D01*
X84416Y1026816D01*
X86221Y1027695D01*
X87933Y1028482D01*
X89507Y1029269D01*
X90895Y1029917D01*
X92144Y1030518D01*
X93255Y1031074D01*
X94227Y1031490D01*
X95014Y1031907D01*
X95662Y1032231D01*
X96217Y1032462D01*
X96587Y1032647D01*
X96772Y1032740D01*
X96865Y1032786D01*
Y1027187D01*
D02*
G37*
G36*
X184053Y1025705D02*
X182943Y1025150D01*
X181971Y1024687D01*
X181138Y1024317D01*
X180490Y1023993D01*
X179981Y1023716D01*
X179610Y1023530D01*
X179425Y1023438D01*
X179333Y1023392D01*
Y1034452D01*
X177019Y1033342D01*
X174890Y1032323D01*
X172854Y1031398D01*
X171003Y1030518D01*
X169290Y1029686D01*
X167763Y1028945D01*
X166328Y1028297D01*
X165079Y1027695D01*
X163968Y1027140D01*
X162996Y1026677D01*
X162210Y1026307D01*
X161515Y1025983D01*
X161006Y1025752D01*
X160636Y1025567D01*
X160451Y1025474D01*
X160358Y1025428D01*
Y1030935D01*
X163228Y1032323D01*
X165912Y1033573D01*
X168411Y1034776D01*
X170725Y1035887D01*
X172854Y1036905D01*
X174797Y1037831D01*
X176556Y1038664D01*
X178130Y1039450D01*
X178824Y1039774D01*
X179518Y1040098D01*
X180119Y1040376D01*
X180721Y1040654D01*
X181230Y1040931D01*
X181739Y1041163D01*
X182156Y1041394D01*
X182572Y1041579D01*
X182896Y1041718D01*
X183220Y1041857D01*
X183451Y1041996D01*
X183683Y1042088D01*
X183822Y1042181D01*
X183961Y1042227D01*
X184007Y1042273D01*
X184053D01*
Y1025705D01*
D02*
G37*
G36*
X64053D02*
X62943Y1025150D01*
X61971Y1024687D01*
X61138Y1024317D01*
X60490Y1023993D01*
X59981Y1023716D01*
X59610Y1023530D01*
X59425Y1023438D01*
X59333Y1023392D01*
Y1034452D01*
X57019Y1033342D01*
X54890Y1032323D01*
X52854Y1031398D01*
X51002Y1030518D01*
X49290Y1029686D01*
X47763Y1028945D01*
X46328Y1028297D01*
X45079Y1027695D01*
X43968Y1027140D01*
X42996Y1026677D01*
X42210Y1026307D01*
X41515Y1025983D01*
X41006Y1025752D01*
X40636Y1025567D01*
X40451Y1025474D01*
X40358Y1025428D01*
Y1030935D01*
X43228Y1032323D01*
X45912Y1033573D01*
X48411Y1034776D01*
X50725Y1035887D01*
X52854Y1036905D01*
X54797Y1037831D01*
X56556Y1038664D01*
X58130Y1039450D01*
X58824Y1039774D01*
X59518Y1040098D01*
X60120Y1040376D01*
X60721Y1040654D01*
X61230Y1040931D01*
X61739Y1041163D01*
X62156Y1041394D01*
X62572Y1041579D01*
X62896Y1041718D01*
X63220Y1041857D01*
X63451Y1041996D01*
X63683Y1042088D01*
X63822Y1042181D01*
X63961Y1042227D01*
X64007Y1042273D01*
X64053D01*
Y1025705D01*
D02*
G37*
G36*
X216865Y1011035D02*
X215708Y1010480D01*
X214643Y1009971D01*
X213672Y1009508D01*
X212746Y1009045D01*
X211867Y1008629D01*
X211080Y1008258D01*
X210386Y1007934D01*
X209738Y1007610D01*
X209182Y1007333D01*
X208720Y1007102D01*
X208303Y1006916D01*
X207979Y1006731D01*
X207702Y1006639D01*
X207516Y1006546D01*
X207424Y1006454D01*
X207378D01*
Y1004741D01*
X208164Y1004649D01*
X208905Y1004602D01*
X209599Y1004510D01*
X210201Y1004464D01*
X210802Y1004417D01*
X211358Y1004371D01*
X211820Y1004325D01*
X212237Y1004278D01*
X212607Y1004232D01*
X212931D01*
X213209Y1004186D01*
X213440D01*
X213625Y1004140D01*
X213857D01*
X214551Y1004464D01*
X215199Y1004788D01*
X215708Y1005019D01*
X216124Y1005250D01*
X216448Y1005389D01*
X216680Y1005528D01*
X216819Y1005574D01*
X216865Y1005620D01*
Y999975D01*
X215847Y999512D01*
X214967Y999095D01*
X214227Y998725D01*
X213579Y998447D01*
X213116Y998216D01*
X212792Y998077D01*
X212561Y997984D01*
X212515Y997938D01*
X211311Y997984D01*
X210293Y998031D01*
X209414D01*
X208673Y998077D01*
X208118Y998123D01*
X207702D01*
X207470Y998170D01*
X207378D01*
Y995532D01*
X205665Y994699D01*
X204046Y993958D01*
X202565Y993218D01*
X201176Y992570D01*
X199881Y991968D01*
X198724Y991413D01*
X197705Y990904D01*
X196780Y990441D01*
X195947Y990071D01*
X195206Y989701D01*
X194605Y989423D01*
X194142Y989192D01*
X193772Y989007D01*
X193494Y988868D01*
X193309Y988821D01*
X193263Y988775D01*
Y1005297D01*
X194697Y1005991D01*
X196132Y1006685D01*
X197474Y1007333D01*
X198816Y1007934D01*
X200066Y1008536D01*
X201315Y1009138D01*
X202472Y1009693D01*
X203629Y1010248D01*
X204694Y1010758D01*
X205712Y1011267D01*
X206730Y1011729D01*
X207655Y1012192D01*
X208581Y1012609D01*
X209414Y1013025D01*
X210201Y1013442D01*
X210987Y1013812D01*
X212376Y1014460D01*
X213579Y1015015D01*
X214551Y1015524D01*
X215384Y1015941D01*
X216032Y1016218D01*
X216495Y1016450D01*
X216772Y1016589D01*
X216865Y1016635D01*
Y1011035D01*
D02*
G37*
G36*
X96865D02*
X95708Y1010480D01*
X94643Y1009971D01*
X93672Y1009508D01*
X92746Y1009045D01*
X91867Y1008629D01*
X91080Y1008258D01*
X90386Y1007934D01*
X89738Y1007610D01*
X89183Y1007333D01*
X88720Y1007102D01*
X88303Y1006916D01*
X87979Y1006731D01*
X87702Y1006639D01*
X87516Y1006546D01*
X87424Y1006454D01*
X87378D01*
Y1004741D01*
X88164Y1004649D01*
X88905Y1004602D01*
X89599Y1004510D01*
X90201Y1004464D01*
X90802Y1004417D01*
X91358Y1004371D01*
X91820Y1004325D01*
X92237Y1004278D01*
X92607Y1004232D01*
X92931D01*
X93209Y1004186D01*
X93440D01*
X93625Y1004140D01*
X93857D01*
X94551Y1004464D01*
X95199Y1004788D01*
X95708Y1005019D01*
X96124Y1005250D01*
X96448Y1005389D01*
X96680Y1005528D01*
X96819Y1005574D01*
X96865Y1005620D01*
Y999975D01*
X95847Y999512D01*
X94967Y999095D01*
X94227Y998725D01*
X93579Y998447D01*
X93116Y998216D01*
X92792Y998077D01*
X92561Y997984D01*
X92515Y997938D01*
X91311Y997984D01*
X90293Y998031D01*
X89414D01*
X88673Y998077D01*
X88118Y998123D01*
X87702D01*
X87470Y998170D01*
X87378D01*
Y995532D01*
X85665Y994699D01*
X84046Y993958D01*
X82565Y993218D01*
X81176Y992570D01*
X79880Y991968D01*
X78724Y991413D01*
X77705Y990904D01*
X76780Y990441D01*
X75947Y990071D01*
X75206Y989701D01*
X74605Y989423D01*
X74142Y989192D01*
X73772Y989007D01*
X73494Y988868D01*
X73309Y988821D01*
X73263Y988775D01*
Y1005297D01*
X74697Y1005991D01*
X76132Y1006685D01*
X77474Y1007333D01*
X78816Y1007934D01*
X80066Y1008536D01*
X81315Y1009138D01*
X82472Y1009693D01*
X83629Y1010248D01*
X84693Y1010758D01*
X85712Y1011267D01*
X86730Y1011729D01*
X87655Y1012192D01*
X88581Y1012609D01*
X89414Y1013025D01*
X90201Y1013442D01*
X90987Y1013812D01*
X92376Y1014460D01*
X93579Y1015015D01*
X94551Y1015524D01*
X95384Y1015941D01*
X96032Y1016218D01*
X96495Y1016450D01*
X96772Y1016589D01*
X96865Y1016635D01*
Y1011035D01*
D02*
G37*
G36*
X216865Y989053D02*
X215430Y988359D01*
X213995Y987664D01*
X212653Y987017D01*
X211311Y986415D01*
X210062Y985767D01*
X208812Y985212D01*
X207655Y984656D01*
X206498Y984101D01*
X205434Y983592D01*
X204416Y983083D01*
X203398Y982620D01*
X202472Y982157D01*
X201546Y981694D01*
X200714Y981324D01*
X199927Y980908D01*
X199140Y980537D01*
X197752Y979890D01*
X196548Y979334D01*
X195577Y978825D01*
X194744Y978409D01*
X194096Y978131D01*
X193633Y977899D01*
X193355Y977761D01*
X193263Y977714D01*
Y983129D01*
X194697Y983823D01*
X196132Y984517D01*
X197474Y985165D01*
X198816Y985813D01*
X200066Y986415D01*
X201315Y986970D01*
X202472Y987572D01*
X203629Y988081D01*
X204694Y988636D01*
X205712Y989099D01*
X206730Y989608D01*
X207655Y990071D01*
X208581Y990487D01*
X209414Y990904D01*
X210201Y991274D01*
X210987Y991644D01*
X212376Y992292D01*
X213579Y992894D01*
X214551Y993357D01*
X215384Y993773D01*
X216032Y994051D01*
X216495Y994282D01*
X216772Y994421D01*
X216865Y994467D01*
Y989053D01*
D02*
G37*
G36*
X96865D02*
X95430Y988359D01*
X93996Y987664D01*
X92654Y987017D01*
X91311Y986415D01*
X90062Y985767D01*
X88812Y985212D01*
X87655Y984656D01*
X86498Y984101D01*
X85434Y983592D01*
X84416Y983083D01*
X83398Y982620D01*
X82472Y982157D01*
X81546Y981694D01*
X80714Y981324D01*
X79927Y980908D01*
X79140Y980537D01*
X77752Y979890D01*
X76548Y979334D01*
X75577Y978825D01*
X74744Y978409D01*
X74096Y978131D01*
X73633Y977899D01*
X73355Y977761D01*
X73263Y977714D01*
Y983129D01*
X74697Y983823D01*
X76132Y984517D01*
X77474Y985165D01*
X78816Y985813D01*
X80066Y986415D01*
X81315Y986970D01*
X82472Y987572D01*
X83629Y988081D01*
X84693Y988636D01*
X85712Y989099D01*
X86730Y989608D01*
X87655Y990071D01*
X88581Y990487D01*
X89414Y990904D01*
X90201Y991274D01*
X90987Y991644D01*
X92376Y992292D01*
X93579Y992894D01*
X94551Y993357D01*
X95384Y993773D01*
X96032Y994051D01*
X96495Y994282D01*
X96772Y994421D01*
X96865Y994467D01*
Y989053D01*
D02*
G37*
G36*
X216865Y966978D02*
X215754Y966422D01*
X214829Y965960D01*
X213995Y965589D01*
X213348Y965265D01*
X212839Y964988D01*
X212422Y964803D01*
X212237Y964710D01*
X212144Y964664D01*
Y975678D01*
X210432Y974845D01*
X208812Y974058D01*
X207285Y973364D01*
X205897Y972670D01*
X204647Y972068D01*
X203444Y971513D01*
X202426Y971004D01*
X201454Y970541D01*
X200621Y970171D01*
X199881Y969801D01*
X199279Y969523D01*
X198770Y969245D01*
X198400Y969060D01*
X198122Y968922D01*
X197937Y968875D01*
X197890Y968829D01*
Y957907D01*
X196780Y957352D01*
X195854Y956889D01*
X195068Y956472D01*
X194420Y956149D01*
X193911Y955917D01*
X193540Y955732D01*
X193355Y955639D01*
X193263Y955593D01*
Y972207D01*
X194697Y972901D01*
X196132Y973596D01*
X197474Y974243D01*
X198816Y974845D01*
X200066Y975447D01*
X201315Y976048D01*
X202472Y976604D01*
X203629Y977159D01*
X204694Y977668D01*
X205712Y978177D01*
X206730Y978640D01*
X207655Y979103D01*
X208581Y979519D01*
X209414Y979936D01*
X210201Y980352D01*
X210987Y980723D01*
X212376Y981370D01*
X213579Y981926D01*
X214551Y982435D01*
X215384Y982851D01*
X216032Y983129D01*
X216495Y983360D01*
X216772Y983499D01*
X216865Y983546D01*
Y966978D01*
D02*
G37*
G36*
X96865D02*
X95754Y966422D01*
X94829Y965960D01*
X93996Y965589D01*
X93348Y965265D01*
X92839Y964988D01*
X92422Y964803D01*
X92237Y964710D01*
X92144Y964664D01*
Y975678D01*
X90432Y974845D01*
X88812Y974058D01*
X87285Y973364D01*
X85897Y972670D01*
X84647Y972068D01*
X83444Y971513D01*
X82426Y971004D01*
X81454Y970541D01*
X80621Y970171D01*
X79880Y969801D01*
X79279Y969523D01*
X78770Y969245D01*
X78400Y969060D01*
X78122Y968922D01*
X77937Y968875D01*
X77891Y968829D01*
Y957907D01*
X76780Y957352D01*
X75854Y956889D01*
X75068Y956472D01*
X74420Y956149D01*
X73910Y955917D01*
X73540Y955732D01*
X73355Y955639D01*
X73263Y955593D01*
Y972207D01*
X74697Y972901D01*
X76132Y973596D01*
X77474Y974243D01*
X78816Y974845D01*
X80066Y975447D01*
X81315Y976048D01*
X82472Y976604D01*
X83629Y977159D01*
X84693Y977668D01*
X85712Y978177D01*
X86730Y978640D01*
X87655Y979103D01*
X88581Y979519D01*
X89414Y979936D01*
X90201Y980352D01*
X90987Y980723D01*
X92376Y981370D01*
X93579Y981926D01*
X94551Y982435D01*
X95384Y982851D01*
X96032Y983129D01*
X96495Y983360D01*
X96772Y983499D01*
X96865Y983546D01*
Y966978D01*
D02*
G37*
%LPC*%
G36*
X152537Y1131499D02*
X152213Y1131360D01*
X151982Y1131267D01*
X151750Y1131175D01*
X151658Y1131082D01*
X151519Y1130944D01*
X151473Y1130897D01*
Y1130620D01*
X151612Y1130249D01*
X151704Y1130064D01*
X151750Y1129879D01*
X151843Y1129787D01*
Y1129740D01*
X152074Y1129324D01*
X152260Y1128953D01*
X152399Y1128676D01*
X152445Y1128630D01*
Y1128583D01*
X152630Y1128167D01*
X152815Y1127797D01*
X152954Y1127519D01*
X153000Y1127473D01*
Y1127426D01*
X153324Y1127473D01*
X153555Y1127565D01*
X153741Y1127611D01*
X153879Y1127658D01*
X154018Y1127750D01*
X154065Y1127797D01*
Y1127982D01*
X153972Y1128306D01*
X153833Y1128630D01*
X153787Y1128722D01*
Y1128768D01*
X153509Y1129277D01*
X153278Y1129694D01*
X153185Y1129879D01*
X153139Y1130018D01*
X153093Y1130064D01*
Y1130110D01*
X152907Y1130620D01*
X152722Y1131082D01*
X152630Y1131221D01*
X152584Y1131360D01*
X152537Y1131453D01*
Y1131499D01*
D02*
G37*
G36*
X161238Y1128953D02*
X160775Y1128861D01*
X160405Y1128722D01*
X160173Y1128630D01*
X160081Y1128583D01*
X159942Y1128491D01*
X159849Y1128352D01*
X159711Y1127982D01*
X159664Y1127658D01*
Y1127473D01*
X159618Y1127380D01*
X159572Y1127056D01*
X159525Y1126778D01*
X159479Y1126686D01*
Y1126640D01*
X159433Y1126316D01*
X159294Y1126038D01*
X159063Y1125575D01*
X158924Y1125436D01*
X158785Y1125297D01*
X158739Y1125251D01*
X158692Y1125205D01*
X158368Y1125020D01*
X158091Y1124835D01*
X157906Y1124742D01*
X157859Y1124696D01*
X157489Y1124603D01*
X157165Y1124511D01*
X156656D01*
X156378Y1124603D01*
X156008Y1124742D01*
X155730Y1124927D01*
X155684Y1124974D01*
X155638Y1125020D01*
X155268Y1125436D01*
X154990Y1125853D01*
X154805Y1126131D01*
X154759Y1126223D01*
Y1126269D01*
X154527Y1126131D01*
X154388Y1126038D01*
X154296Y1125992D01*
X154250D01*
X153926Y1125807D01*
X153833Y1125760D01*
X153787D01*
X154065Y1125205D01*
X154296Y1124696D01*
X154435Y1124511D01*
X154481Y1124372D01*
X154574Y1124279D01*
Y1124233D01*
X154851Y1123585D01*
X155083Y1123076D01*
X155175Y1122845D01*
X155268Y1122706D01*
X155314Y1122613D01*
Y1122567D01*
X155360Y1122475D01*
X155453Y1122428D01*
X155592Y1122382D01*
X155638D01*
X155823Y1122336D01*
X155962D01*
X156054Y1122382D01*
X156101D01*
X157397Y1123030D01*
X157952Y1123307D01*
X158507Y1123585D01*
X158924Y1123817D01*
X159294Y1124002D01*
X159479Y1124094D01*
X159572Y1124141D01*
X160220Y1124511D01*
X160775Y1124974D01*
X161284Y1125436D01*
X161654Y1125945D01*
X161978Y1126362D01*
X162210Y1126732D01*
X162348Y1126964D01*
X162395Y1127010D01*
Y1127056D01*
X162163Y1127334D01*
X161978Y1127658D01*
X161839Y1127889D01*
X161793Y1127935D01*
Y1127982D01*
X161608Y1128352D01*
X161423Y1128676D01*
X161284Y1128861D01*
X161238Y1128953D01*
D02*
G37*
G36*
X164153Y1124233D02*
X163181Y1123724D01*
X162765Y1123493D01*
X162348Y1123307D01*
X162024Y1123122D01*
X161747Y1122984D01*
X161562Y1122937D01*
X161515Y1122891D01*
X160543Y1122382D01*
X160127Y1122151D01*
X159711Y1121919D01*
X159387Y1121780D01*
X159155Y1121641D01*
X158970Y1121549D01*
X158924Y1121503D01*
X158739Y1121364D01*
X158553Y1121271D01*
X158415Y1120994D01*
X158322Y1120762D01*
Y1120670D01*
X158368Y1120438D01*
X158461Y1120253D01*
X158692Y1119929D01*
X158924Y1119698D01*
X158970Y1119605D01*
X159016D01*
X159201Y1119374D01*
X159387Y1119142D01*
X159525Y1118957D01*
X159572Y1118911D01*
X159803Y1118680D01*
X160035Y1118494D01*
X160220Y1118356D01*
X160266Y1118309D01*
X160914Y1118680D01*
X161515Y1118957D01*
X161747Y1119050D01*
X161932Y1119142D01*
X162071Y1119189D01*
X162117D01*
X162719Y1119559D01*
X163274Y1119883D01*
X163505Y1119976D01*
X163690Y1120068D01*
X163783Y1120161D01*
X163829D01*
X164107Y1120346D01*
X164200Y1120392D01*
X164246Y1120438D01*
X164385Y1120531D01*
X164431Y1120670D01*
X164524Y1120808D01*
Y1120855D01*
X164801Y1121271D01*
X165033Y1121595D01*
X165171Y1121827D01*
X165264Y1122058D01*
X165310Y1122197D01*
Y1122382D01*
X165264Y1122567D01*
X165125Y1122845D01*
X164940Y1123169D01*
X164709Y1123446D01*
X164524Y1123770D01*
X164338Y1124002D01*
X164200Y1124187D01*
X164153Y1124233D01*
D02*
G37*
G36*
X167208Y1119605D02*
X166282Y1119142D01*
X165912Y1118911D01*
X165542Y1118726D01*
X165218Y1118541D01*
X164986Y1118448D01*
X164847Y1118356D01*
X164801Y1118309D01*
X163876Y1117893D01*
X163459Y1117708D01*
X163089Y1117523D01*
X162765Y1117384D01*
X162533Y1117245D01*
X162348Y1117199D01*
X162302Y1117152D01*
X162626Y1116690D01*
X162950Y1116319D01*
X163181Y1116088D01*
X163228Y1115995D01*
X163274D01*
X163598Y1115579D01*
X163876Y1115209D01*
X164061Y1114931D01*
X164153Y1114885D01*
Y1114838D01*
X164801Y1115116D01*
X165403Y1115394D01*
X165634Y1115533D01*
X165819Y1115625D01*
X165912Y1115671D01*
X165958Y1115718D01*
X166606Y1115995D01*
X167161Y1116227D01*
X167393Y1116366D01*
X167578Y1116412D01*
X167670Y1116505D01*
X167717D01*
X167902Y1116690D01*
X167994Y1116967D01*
X168087Y1117245D01*
Y1117338D01*
X168041Y1117847D01*
X167994Y1118217D01*
X167948Y1118448D01*
X167902Y1118541D01*
X167670Y1118819D01*
X167624Y1118957D01*
Y1119004D01*
X167485Y1119189D01*
X167346Y1119374D01*
X167254Y1119513D01*
X167208Y1119605D01*
D02*
G37*
G36*
X32537Y1131499D02*
X32213Y1131360D01*
X31982Y1131267D01*
X31751Y1131175D01*
X31658Y1131082D01*
X31519Y1130944D01*
X31473Y1130897D01*
Y1130620D01*
X31612Y1130249D01*
X31704Y1130064D01*
X31751Y1129879D01*
X31843Y1129787D01*
Y1129740D01*
X32074Y1129324D01*
X32260Y1128953D01*
X32399Y1128676D01*
X32445Y1128630D01*
Y1128583D01*
X32630Y1128167D01*
X32815Y1127797D01*
X32954Y1127519D01*
X33000Y1127473D01*
Y1127426D01*
X33324Y1127473D01*
X33555Y1127565D01*
X33740Y1127611D01*
X33879Y1127658D01*
X34018Y1127750D01*
X34065Y1127797D01*
Y1127982D01*
X33972Y1128306D01*
X33833Y1128630D01*
X33787Y1128722D01*
Y1128768D01*
X33509Y1129277D01*
X33278Y1129694D01*
X33185Y1129879D01*
X33139Y1130018D01*
X33093Y1130064D01*
Y1130110D01*
X32908Y1130620D01*
X32722Y1131082D01*
X32630Y1131221D01*
X32584Y1131360D01*
X32537Y1131453D01*
Y1131499D01*
D02*
G37*
G36*
X41238Y1128953D02*
X40775Y1128861D01*
X40405Y1128722D01*
X40173Y1128630D01*
X40081Y1128583D01*
X39942Y1128491D01*
X39849Y1128352D01*
X39711Y1127982D01*
X39664Y1127658D01*
Y1127473D01*
X39618Y1127380D01*
X39572Y1127056D01*
X39525Y1126778D01*
X39479Y1126686D01*
Y1126640D01*
X39433Y1126316D01*
X39294Y1126038D01*
X39063Y1125575D01*
X38924Y1125436D01*
X38785Y1125297D01*
X38739Y1125251D01*
X38692Y1125205D01*
X38368Y1125020D01*
X38091Y1124835D01*
X37906Y1124742D01*
X37859Y1124696D01*
X37489Y1124603D01*
X37165Y1124511D01*
X36656D01*
X36378Y1124603D01*
X36008Y1124742D01*
X35731Y1124927D01*
X35684Y1124974D01*
X35638Y1125020D01*
X35268Y1125436D01*
X34990Y1125853D01*
X34805Y1126131D01*
X34759Y1126223D01*
Y1126269D01*
X34527Y1126131D01*
X34388Y1126038D01*
X34296Y1125992D01*
X34250D01*
X33926Y1125807D01*
X33833Y1125760D01*
X33787D01*
X34065Y1125205D01*
X34296Y1124696D01*
X34435Y1124511D01*
X34481Y1124372D01*
X34574Y1124279D01*
Y1124233D01*
X34851Y1123585D01*
X35083Y1123076D01*
X35175Y1122845D01*
X35268Y1122706D01*
X35314Y1122613D01*
Y1122567D01*
X35360Y1122475D01*
X35453Y1122428D01*
X35592Y1122382D01*
X35638D01*
X35823Y1122336D01*
X35962D01*
X36054Y1122382D01*
X36101D01*
X37397Y1123030D01*
X37952Y1123307D01*
X38507Y1123585D01*
X38924Y1123817D01*
X39294Y1124002D01*
X39479Y1124094D01*
X39572Y1124141D01*
X40220Y1124511D01*
X40775Y1124974D01*
X41284Y1125436D01*
X41654Y1125945D01*
X41978Y1126362D01*
X42210Y1126732D01*
X42348Y1126964D01*
X42395Y1127010D01*
Y1127056D01*
X42163Y1127334D01*
X41978Y1127658D01*
X41839Y1127889D01*
X41793Y1127935D01*
Y1127982D01*
X41608Y1128352D01*
X41423Y1128676D01*
X41284Y1128861D01*
X41238Y1128953D01*
D02*
G37*
G36*
X44153Y1124233D02*
X43181Y1123724D01*
X42765Y1123493D01*
X42348Y1123307D01*
X42024Y1123122D01*
X41747Y1122984D01*
X41562Y1122937D01*
X41515Y1122891D01*
X40543Y1122382D01*
X40127Y1122151D01*
X39711Y1121919D01*
X39387Y1121780D01*
X39155Y1121641D01*
X38970Y1121549D01*
X38924Y1121503D01*
X38739Y1121364D01*
X38554Y1121271D01*
X38415Y1120994D01*
X38322Y1120762D01*
Y1120670D01*
X38368Y1120438D01*
X38461Y1120253D01*
X38692Y1119929D01*
X38924Y1119698D01*
X38970Y1119605D01*
X39016D01*
X39201Y1119374D01*
X39387Y1119142D01*
X39525Y1118957D01*
X39572Y1118911D01*
X39803Y1118680D01*
X40034Y1118494D01*
X40220Y1118356D01*
X40266Y1118309D01*
X40914Y1118680D01*
X41515Y1118957D01*
X41747Y1119050D01*
X41932Y1119142D01*
X42071Y1119189D01*
X42117D01*
X42719Y1119559D01*
X43274Y1119883D01*
X43505Y1119976D01*
X43691Y1120068D01*
X43783Y1120161D01*
X43829D01*
X44107Y1120346D01*
X44200Y1120392D01*
X44246Y1120438D01*
X44385Y1120531D01*
X44431Y1120670D01*
X44524Y1120808D01*
Y1120855D01*
X44801Y1121271D01*
X45033Y1121595D01*
X45171Y1121827D01*
X45264Y1122058D01*
X45310Y1122197D01*
Y1122382D01*
X45264Y1122567D01*
X45125Y1122845D01*
X44940Y1123169D01*
X44709Y1123446D01*
X44524Y1123770D01*
X44338Y1124002D01*
X44200Y1124187D01*
X44153Y1124233D01*
D02*
G37*
G36*
X47208Y1119605D02*
X46282Y1119142D01*
X45912Y1118911D01*
X45542Y1118726D01*
X45218Y1118541D01*
X44986Y1118448D01*
X44847Y1118356D01*
X44801Y1118309D01*
X43876Y1117893D01*
X43459Y1117708D01*
X43089Y1117523D01*
X42765Y1117384D01*
X42533Y1117245D01*
X42348Y1117199D01*
X42302Y1117152D01*
X42626Y1116690D01*
X42950Y1116319D01*
X43181Y1116088D01*
X43228Y1115995D01*
X43274D01*
X43598Y1115579D01*
X43876Y1115209D01*
X44061Y1114931D01*
X44153Y1114885D01*
Y1114838D01*
X44801Y1115116D01*
X45403Y1115394D01*
X45634Y1115533D01*
X45819Y1115625D01*
X45912Y1115671D01*
X45958Y1115718D01*
X46606Y1115995D01*
X47161Y1116227D01*
X47393Y1116366D01*
X47578Y1116412D01*
X47670Y1116505D01*
X47717D01*
X47902Y1116690D01*
X47994Y1116967D01*
X48087Y1117245D01*
Y1117338D01*
X48041Y1117847D01*
X47994Y1118217D01*
X47948Y1118448D01*
X47902Y1118541D01*
X47670Y1118819D01*
X47624Y1118957D01*
Y1119004D01*
X47485Y1119189D01*
X47347Y1119374D01*
X47254Y1119513D01*
X47208Y1119605D01*
D02*
G37*
G36*
X202657Y1004232D02*
X201546Y1003677D01*
X200621Y1003260D01*
X199834Y1002844D01*
X199140Y1002566D01*
X198631Y1002289D01*
X198261Y1002150D01*
X198076Y1002057D01*
X197983Y1002011D01*
Y996596D01*
X198816Y996966D01*
X199233Y997151D01*
X199603Y997337D01*
X199881Y997476D01*
X200158Y997568D01*
X200297Y997614D01*
X200343Y997661D01*
X201176Y998077D01*
X201593Y998262D01*
X201917Y998401D01*
X202241Y998540D01*
X202472Y998632D01*
X202611Y998725D01*
X202657D01*
Y1004232D01*
D02*
G37*
G36*
X82657D02*
X81546Y1003677D01*
X80621Y1003260D01*
X79834Y1002844D01*
X79140Y1002566D01*
X78631Y1002289D01*
X78261Y1002150D01*
X78076Y1002057D01*
X77983Y1002011D01*
Y996596D01*
X78816Y996966D01*
X79233Y997151D01*
X79603Y997337D01*
X79880Y997476D01*
X80158Y997568D01*
X80297Y997614D01*
X80343Y997661D01*
X81176Y998077D01*
X81593Y998262D01*
X81917Y998401D01*
X82241Y998540D01*
X82472Y998632D01*
X82611Y998725D01*
X82657D01*
Y1004232D01*
D02*
G37*
%LPD*%
D25*
X204995Y175000D02*
X185002D01*
X175005Y165003D01*
X185002Y155007D01*
X204995D01*
X190000D01*
Y175000D01*
X175005Y1955000D02*
X204995D01*
X194998D01*
X175005Y1935006D01*
X190000Y1950002D01*
X204995Y1935006D01*
X84995Y175000D02*
X65002D01*
X55005Y165003D01*
X65002Y155007D01*
X84995D01*
X70000D01*
Y175000D01*
X55005Y1955000D02*
X84995D01*
X74998D01*
X55005Y1935006D01*
X70000Y1950002D01*
X84995Y1935006D01*
M02*
