M48
;Layer_Color=9474304
;FILE_FORMAT=4:4
METRIC,LZ
;TYPE=PLATED
;TYPE=NON_PLATED
T5F00S00C2.0000
%
G90
G05
T05
G00X0003Y0005
M15
G01X0001
M16
G00X0013Y0005
M15
G01X0011
M16
G00X0015Y0005
M15
G01X0013
M16
G00X0025Y0005
M15
G01X0023
M16
G00X0025Y0006
M15
G01Y0205
M16
G00X0013Y0006
M15
G01Y0205
M16
G00X0013Y0006
M15
G01Y0205
M16
G00X0001Y0006
M15
G01Y0205
M16
G00X0003Y0206
M15
G01X0001
M16
G00X0013Y0206
M15
G01X0011
M16
G00X0015Y0206
M15
G01X0013
M16
G00X0025Y0206
M15
G01X0023
M16
M17
M30
