G04*
G04 #@! TF.GenerationSoftware,Altium Limited,Altium Designer,18.1.7 (191)*
G04*
G04 Layer_Physical_Order=1*
G04 Layer_Color=255*
%FSLAX44Y44*%
%MOMM*%
G71*
G01*
G75*
%ADD10C,1.0000*%
G04:AMPARAMS|DCode=11|XSize=2.2mm|YSize=1.8mm|CornerRadius=0mm|HoleSize=0mm|Usage=FLASHONLY|Rotation=10.000|XOffset=0mm|YOffset=0mm|HoleType=Round|Shape=Rectangle|*
%AMROTATEDRECTD11*
4,1,4,-0.9270,-1.0773,-1.2396,0.6953,0.9270,1.0773,1.2396,-0.6953,-0.9270,-1.0773,0.0*
%
%ADD11ROTATEDRECTD11*%

G04:AMPARAMS|DCode=12|XSize=2.2mm|YSize=1.8mm|CornerRadius=0mm|HoleSize=0mm|Usage=FLASHONLY|Rotation=170.000|XOffset=0mm|YOffset=0mm|HoleType=Round|Shape=Rectangle|*
%AMROTATEDRECTD12*
4,1,4,1.2396,0.6953,0.9270,-1.0773,-1.2396,-0.6953,-0.9270,1.0773,1.2396,0.6953,0.0*
%
%ADD12ROTATEDRECTD12*%

%ADD13C,1.5240*%
%ADD14C,5.0000*%
G36*
X211462Y1991273D02*
X187640Y1951013D01*
X187640Y1951013D01*
X186697Y1949786D01*
X185061Y1947161D01*
X183780Y1944345D01*
X182877Y1941387D01*
X182572Y1939869D01*
X180480Y1927349D01*
X180480D01*
X180332Y1926464D01*
X179367Y1924952D01*
X177887Y1923939D01*
X176129Y1923586D01*
X175251Y1923768D01*
X160595Y1926808D01*
X160595Y1926808D01*
X159284Y1927079D01*
X157020Y1928513D01*
X155406Y1930651D01*
X154648Y1933221D01*
X154747Y1934557D01*
X157278Y1969063D01*
X157321Y1972034D01*
X157713Y1977965D01*
X158410Y1983868D01*
X159411Y1989727D01*
X160713Y1995526D01*
X162312Y2001250D01*
X164205Y2006885D01*
X166385Y2012414D01*
X167617Y2015119D01*
X211462Y1991273D01*
D02*
G37*
G36*
X91462D02*
X67640Y1951013D01*
X67640Y1951013D01*
X66697Y1949786D01*
X65061Y1947161D01*
X63780Y1944345D01*
X62877Y1941387D01*
X62572Y1939869D01*
X60480Y1927349D01*
X60480D01*
X60332Y1926464D01*
X59367Y1924952D01*
X57887Y1923939D01*
X56129Y1923586D01*
X55251Y1923768D01*
X40595Y1926808D01*
X40595Y1926808D01*
X39284Y1927079D01*
X37020Y1928513D01*
X35406Y1930651D01*
X34648Y1933221D01*
X34746Y1934557D01*
X37278Y1969063D01*
X37321Y1972034D01*
X37713Y1977965D01*
X38410Y1983868D01*
X39411Y1989727D01*
X40713Y1995526D01*
X42312Y2001250D01*
X44205Y2006885D01*
X46385Y2012414D01*
X47617Y2015119D01*
X91462Y1991273D01*
D02*
G37*
G36*
X203933Y1945713D02*
X203933Y1945713D01*
X216485Y1943530D01*
X218058Y1943256D01*
X220940Y1941883D01*
X223347Y1939785D01*
X225100Y1937117D01*
X225586Y1935597D01*
Y1935597D01*
X226451Y1932885D01*
X227756Y1927344D01*
X228624Y1921718D01*
X229052Y1916041D01*
X229037Y1910349D01*
X228579Y1904674D01*
X227680Y1899053D01*
X226346Y1893519D01*
X225466Y1890812D01*
X225466Y1890812D01*
X224998Y1889372D01*
X223325Y1886848D01*
X221037Y1884865D01*
X218301Y1883566D01*
X216810Y1883307D01*
X216810Y1883307D01*
X203933Y1881067D01*
X203156Y1880932D01*
X201617Y1881274D01*
X200324Y1882177D01*
X199472Y1883504D01*
X199331Y1884280D01*
X199331Y1884280D01*
X196038Y1902390D01*
X195543Y1905112D01*
X195046Y1910623D01*
X195046Y1916157D01*
X195543Y1921668D01*
X196038Y1924390D01*
Y1924390D01*
X199331Y1942500D01*
X199472Y1943276D01*
X200324Y1944603D01*
X201617Y1945506D01*
X203156Y1945848D01*
X203933Y1945713D01*
D02*
G37*
G36*
X83933D02*
X83933Y1945713D01*
X96485Y1943530D01*
X98058Y1943256D01*
X100940Y1941883D01*
X103347Y1939785D01*
X105100Y1937117D01*
X105586Y1935597D01*
Y1935597D01*
X106451Y1932885D01*
X107755Y1927344D01*
X108624Y1921718D01*
X109052Y1916041D01*
X109037Y1910349D01*
X108579Y1904674D01*
X107680Y1899053D01*
X106346Y1893519D01*
X105466Y1890812D01*
X105466Y1890812D01*
X104998Y1889372D01*
X103324Y1886848D01*
X101037Y1884865D01*
X98301Y1883566D01*
X96810Y1883307D01*
X96810Y1883307D01*
X83933Y1881067D01*
X83156Y1880932D01*
X81617Y1881274D01*
X80324Y1882177D01*
X79472Y1883504D01*
X79331Y1884280D01*
X79331Y1884280D01*
X76038Y1902390D01*
X75543Y1905112D01*
X75046Y1910623D01*
X75046Y1916157D01*
X75543Y1921668D01*
X76038Y1924390D01*
Y1924390D01*
X79331Y1942500D01*
X79472Y1943276D01*
X80324Y1944603D01*
X81617Y1945506D01*
X83156Y1945848D01*
X83933Y1945713D01*
D02*
G37*
G36*
X178459Y1900311D02*
X179752Y1899408D01*
X180604Y1898081D01*
X180745Y1897305D01*
X180745D01*
X184038Y1879195D01*
X184533Y1876473D01*
X185030Y1870962D01*
X185030Y1865428D01*
X184533Y1859917D01*
X184038Y1857195D01*
X184038Y1857195D01*
X180745Y1839085D01*
X180604Y1838309D01*
X179752Y1836982D01*
X178459Y1836079D01*
X176920Y1835737D01*
X176143Y1835872D01*
Y1835872D01*
X163591Y1838056D01*
X162018Y1838329D01*
X159136Y1839702D01*
X156729Y1841800D01*
X154976Y1844468D01*
X154490Y1845988D01*
Y1845988D01*
X153625Y1848700D01*
X152320Y1854241D01*
X151452Y1859867D01*
X151024Y1865544D01*
X151039Y1871236D01*
X151497Y1876911D01*
X152396Y1882532D01*
X153730Y1888066D01*
X154610Y1890773D01*
X154610Y1890773D01*
X155078Y1892213D01*
X156751Y1894737D01*
X159039Y1896720D01*
X161775Y1898019D01*
X163266Y1898278D01*
X163267D01*
X176143Y1900518D01*
X176920Y1900653D01*
X178459Y1900311D01*
D02*
G37*
G36*
X58459D02*
X59752Y1899408D01*
X60604Y1898081D01*
X60745Y1897305D01*
X60745D01*
X64038Y1879195D01*
X64533Y1876473D01*
X65030Y1870962D01*
X65030Y1865428D01*
X64533Y1859917D01*
X64038Y1857195D01*
X64038Y1857195D01*
X60745Y1839085D01*
X60604Y1838309D01*
X59752Y1836982D01*
X58459Y1836079D01*
X56920Y1835737D01*
X56143Y1835872D01*
Y1835872D01*
X43591Y1838056D01*
X42018Y1838329D01*
X39136Y1839702D01*
X36729Y1841800D01*
X34976Y1844468D01*
X34490Y1845988D01*
Y1845988D01*
X33625Y1848700D01*
X32320Y1854241D01*
X31452Y1859867D01*
X31024Y1865544D01*
X31039Y1871236D01*
X31497Y1876911D01*
X32396Y1882532D01*
X33730Y1888066D01*
X34610Y1890773D01*
X34610Y1890773D01*
X35078Y1892213D01*
X36751Y1894737D01*
X39039Y1896720D01*
X41775Y1898019D01*
X43266Y1898278D01*
X43267D01*
X56143Y1900518D01*
X56920Y1900653D01*
X58459Y1900311D01*
D02*
G37*
G36*
X203933Y1855713D02*
X203933Y1855713D01*
X216485Y1853530D01*
X218058Y1853256D01*
X220940Y1851883D01*
X223347Y1849785D01*
X225100Y1847117D01*
X225586Y1845597D01*
Y1845597D01*
X226451Y1842885D01*
X227756Y1837344D01*
X228624Y1831718D01*
X229052Y1826041D01*
X229037Y1820349D01*
X228579Y1814674D01*
X227680Y1809053D01*
X226346Y1803519D01*
X225466Y1800812D01*
X225466Y1800812D01*
X224998Y1799372D01*
X223325Y1796848D01*
X221037Y1794865D01*
X218301Y1793566D01*
X216810Y1793307D01*
X216810Y1793307D01*
X203933Y1791067D01*
X203156Y1790932D01*
X201617Y1791274D01*
X200324Y1792177D01*
X199472Y1793504D01*
X199331Y1794280D01*
X199331Y1794280D01*
X196038Y1812390D01*
X195543Y1815112D01*
X195046Y1820623D01*
X195046Y1826157D01*
X195543Y1831668D01*
X196038Y1834390D01*
Y1834390D01*
X199331Y1852500D01*
X199472Y1853276D01*
X200324Y1854603D01*
X201617Y1855506D01*
X203156Y1855848D01*
X203933Y1855713D01*
D02*
G37*
G36*
X83933D02*
X83933Y1855713D01*
X96485Y1853530D01*
X98058Y1853256D01*
X100940Y1851883D01*
X103347Y1849785D01*
X105100Y1847117D01*
X105586Y1845597D01*
Y1845597D01*
X106451Y1842885D01*
X107755Y1837344D01*
X108624Y1831718D01*
X109052Y1826041D01*
X109037Y1820349D01*
X108579Y1814674D01*
X107680Y1809053D01*
X106346Y1803519D01*
X105466Y1800812D01*
X105466Y1800812D01*
X104998Y1799372D01*
X103324Y1796848D01*
X101037Y1794865D01*
X98301Y1793566D01*
X96810Y1793307D01*
X96810Y1793307D01*
X83933Y1791067D01*
X83156Y1790932D01*
X81617Y1791274D01*
X80324Y1792177D01*
X79472Y1793504D01*
X79331Y1794280D01*
X79331Y1794280D01*
X76038Y1812390D01*
X75543Y1815112D01*
X75046Y1820623D01*
X75046Y1826157D01*
X75543Y1831668D01*
X76038Y1834390D01*
Y1834390D01*
X79331Y1852500D01*
X79472Y1853276D01*
X80324Y1854603D01*
X81617Y1855506D01*
X83156Y1855848D01*
X83933Y1855713D01*
D02*
G37*
G36*
X178452Y1810116D02*
X179745Y1809213D01*
X180597Y1807886D01*
X180738Y1807110D01*
X180738D01*
X184030Y1789000D01*
X184525Y1786278D01*
X185022Y1780767D01*
X185022Y1775233D01*
X184525Y1769722D01*
X184030Y1767000D01*
X184030Y1767000D01*
X180738Y1748890D01*
X180597Y1748114D01*
X179745Y1746787D01*
X178452Y1745884D01*
X176912Y1745542D01*
X176136Y1745677D01*
Y1745677D01*
X163583Y1747860D01*
X162010Y1748134D01*
X159128Y1749507D01*
X156722Y1751605D01*
X154968Y1754272D01*
X154483Y1755793D01*
Y1755793D01*
X153617Y1758505D01*
X152313Y1764046D01*
X151444Y1769672D01*
X151016Y1775349D01*
X151031Y1781041D01*
X151490Y1786716D01*
X152388Y1792337D01*
X153722Y1797871D01*
X154602Y1800578D01*
X154602Y1800578D01*
X155071Y1802018D01*
X156744Y1804542D01*
X159032Y1806525D01*
X161767Y1807824D01*
X163259Y1808083D01*
X163259D01*
X176136Y1810323D01*
X176912Y1810458D01*
X178452Y1810116D01*
D02*
G37*
G36*
X58452D02*
X59745Y1809213D01*
X60597Y1807886D01*
X60738Y1807110D01*
X60738D01*
X64030Y1789000D01*
X64525Y1786278D01*
X65022Y1780767D01*
X65022Y1775233D01*
X64525Y1769722D01*
X64030Y1767000D01*
X64030Y1767000D01*
X60738Y1748890D01*
X60597Y1748114D01*
X59745Y1746787D01*
X58452Y1745884D01*
X56912Y1745542D01*
X56136Y1745677D01*
Y1745677D01*
X43583Y1747860D01*
X42010Y1748134D01*
X39128Y1749507D01*
X36722Y1751605D01*
X34968Y1754272D01*
X34483Y1755793D01*
Y1755793D01*
X33617Y1758505D01*
X32313Y1764046D01*
X31444Y1769672D01*
X31016Y1775349D01*
X31031Y1781041D01*
X31490Y1786716D01*
X32389Y1792337D01*
X33722Y1797871D01*
X34602Y1800578D01*
X34602Y1800578D01*
X35071Y1802018D01*
X36744Y1804542D01*
X39032Y1806525D01*
X41767Y1807824D01*
X43259Y1808083D01*
X43259D01*
X56136Y1810323D01*
X56912Y1810458D01*
X58452Y1810116D01*
D02*
G37*
G36*
X203933Y1765713D02*
X203933Y1765713D01*
X216485Y1763530D01*
X218058Y1763256D01*
X220940Y1761883D01*
X223347Y1759785D01*
X225100Y1757117D01*
X225586Y1755597D01*
Y1755597D01*
X226451Y1752885D01*
X227756Y1747344D01*
X228624Y1741718D01*
X229052Y1736041D01*
X229037Y1730349D01*
X228579Y1724674D01*
X227680Y1719053D01*
X226346Y1713519D01*
X225466Y1710812D01*
X225466Y1710812D01*
X224998Y1709372D01*
X223325Y1706848D01*
X221037Y1704865D01*
X218301Y1703566D01*
X216810Y1703307D01*
X216810Y1703307D01*
X203933Y1701067D01*
X203156Y1700932D01*
X201617Y1701274D01*
X200324Y1702177D01*
X199472Y1703504D01*
X199331Y1704280D01*
X199331Y1704280D01*
X196038Y1722390D01*
X195543Y1725112D01*
X195046Y1730623D01*
X195046Y1736157D01*
X195543Y1741668D01*
X196038Y1744390D01*
Y1744390D01*
X199331Y1762500D01*
X199472Y1763276D01*
X200324Y1764603D01*
X201617Y1765506D01*
X203156Y1765848D01*
X203933Y1765713D01*
D02*
G37*
G36*
X83933D02*
X83933Y1765713D01*
X96485Y1763530D01*
X98058Y1763256D01*
X100940Y1761883D01*
X103347Y1759785D01*
X105100Y1757117D01*
X105586Y1755597D01*
Y1755597D01*
X106451Y1752885D01*
X107755Y1747344D01*
X108624Y1741718D01*
X109052Y1736041D01*
X109037Y1730349D01*
X108579Y1724674D01*
X107680Y1719053D01*
X106346Y1713519D01*
X105466Y1710812D01*
X105466Y1710812D01*
X104998Y1709372D01*
X103324Y1706848D01*
X101037Y1704865D01*
X98301Y1703566D01*
X96810Y1703307D01*
X96810Y1703307D01*
X83933Y1701067D01*
X83156Y1700932D01*
X81617Y1701274D01*
X80324Y1702177D01*
X79472Y1703504D01*
X79331Y1704280D01*
X79331Y1704280D01*
X76038Y1722390D01*
X75543Y1725112D01*
X75046Y1730623D01*
X75046Y1736157D01*
X75543Y1741668D01*
X76038Y1744390D01*
Y1744390D01*
X79331Y1762500D01*
X79472Y1763276D01*
X80324Y1764603D01*
X81617Y1765506D01*
X83156Y1765848D01*
X83933Y1765713D01*
D02*
G37*
G36*
X178459Y1720311D02*
X179752Y1719408D01*
X180604Y1718081D01*
X180745Y1717305D01*
X180745D01*
X184038Y1699195D01*
X184533Y1696473D01*
X185030Y1690962D01*
X185030Y1685428D01*
X184533Y1679917D01*
X184038Y1677195D01*
X184038Y1677195D01*
X180745Y1659085D01*
X180604Y1658309D01*
X179752Y1656982D01*
X178459Y1656079D01*
X176920Y1655737D01*
X176143Y1655872D01*
Y1655872D01*
X163591Y1658056D01*
X162018Y1658329D01*
X159136Y1659702D01*
X156729Y1661800D01*
X154976Y1664468D01*
X154490Y1665988D01*
Y1665988D01*
X153625Y1668700D01*
X152320Y1674241D01*
X151452Y1679867D01*
X151024Y1685544D01*
X151039Y1691236D01*
X151497Y1696911D01*
X152396Y1702532D01*
X153730Y1708066D01*
X154610Y1710773D01*
X154610Y1710773D01*
X155078Y1712213D01*
X156751Y1714737D01*
X159039Y1716720D01*
X161775Y1718019D01*
X163266Y1718278D01*
X163267D01*
X176143Y1720518D01*
X176920Y1720653D01*
X178459Y1720311D01*
D02*
G37*
G36*
X58459D02*
X59752Y1719408D01*
X60604Y1718081D01*
X60745Y1717305D01*
X60745D01*
X64038Y1699195D01*
X64533Y1696473D01*
X65030Y1690962D01*
X65030Y1685428D01*
X64533Y1679917D01*
X64038Y1677195D01*
X64038Y1677195D01*
X60745Y1659085D01*
X60604Y1658309D01*
X59752Y1656982D01*
X58459Y1656079D01*
X56920Y1655737D01*
X56143Y1655872D01*
Y1655872D01*
X43591Y1658056D01*
X42018Y1658329D01*
X39136Y1659702D01*
X36729Y1661800D01*
X34976Y1664468D01*
X34490Y1665988D01*
Y1665988D01*
X33625Y1668700D01*
X32320Y1674241D01*
X31452Y1679867D01*
X31024Y1685544D01*
X31039Y1691236D01*
X31497Y1696911D01*
X32396Y1702532D01*
X33730Y1708066D01*
X34610Y1710773D01*
X34610Y1710773D01*
X35078Y1712213D01*
X36751Y1714737D01*
X39039Y1716720D01*
X41775Y1718019D01*
X43266Y1718278D01*
X43267D01*
X56143Y1720518D01*
X56920Y1720653D01*
X58459Y1720311D01*
D02*
G37*
G36*
X203933Y1675713D02*
X203933Y1675713D01*
X216485Y1673530D01*
X218058Y1673256D01*
X220940Y1671883D01*
X223347Y1669785D01*
X225100Y1667117D01*
X225586Y1665597D01*
Y1665597D01*
X226451Y1662885D01*
X227756Y1657344D01*
X228624Y1651718D01*
X229052Y1646041D01*
X229037Y1640349D01*
X228579Y1634674D01*
X227680Y1629053D01*
X226346Y1623519D01*
X225466Y1620812D01*
X225466Y1620812D01*
X224998Y1619372D01*
X223325Y1616848D01*
X221037Y1614865D01*
X218301Y1613566D01*
X216810Y1613307D01*
X216810Y1613307D01*
X203933Y1611067D01*
X203156Y1610932D01*
X201617Y1611274D01*
X200324Y1612177D01*
X199472Y1613504D01*
X199331Y1614280D01*
X199331Y1614280D01*
X196038Y1632390D01*
X195543Y1635112D01*
X195046Y1640623D01*
X195046Y1646157D01*
X195543Y1651668D01*
X196038Y1654390D01*
Y1654390D01*
X199331Y1672500D01*
X199472Y1673276D01*
X200324Y1674603D01*
X201617Y1675506D01*
X203156Y1675848D01*
X203933Y1675713D01*
D02*
G37*
G36*
X83933D02*
X83933Y1675713D01*
X96485Y1673530D01*
X98058Y1673256D01*
X100940Y1671883D01*
X103347Y1669785D01*
X105100Y1667117D01*
X105586Y1665597D01*
Y1665597D01*
X106451Y1662885D01*
X107755Y1657344D01*
X108624Y1651718D01*
X109052Y1646041D01*
X109037Y1640349D01*
X108579Y1634674D01*
X107680Y1629053D01*
X106346Y1623519D01*
X105466Y1620812D01*
X105466Y1620812D01*
X104998Y1619372D01*
X103324Y1616848D01*
X101037Y1614865D01*
X98301Y1613566D01*
X96810Y1613307D01*
X96810Y1613307D01*
X83933Y1611067D01*
X83156Y1610932D01*
X81617Y1611274D01*
X80324Y1612177D01*
X79472Y1613504D01*
X79331Y1614280D01*
X79331Y1614280D01*
X76038Y1632390D01*
X75543Y1635112D01*
X75046Y1640623D01*
X75046Y1646157D01*
X75543Y1651668D01*
X76038Y1654390D01*
Y1654390D01*
X79331Y1672500D01*
X79472Y1673276D01*
X80324Y1674603D01*
X81617Y1675506D01*
X83156Y1675848D01*
X83933Y1675713D01*
D02*
G37*
G36*
X178459Y1630311D02*
X179752Y1629408D01*
X180604Y1628081D01*
X180745Y1627305D01*
X180745D01*
X184038Y1609195D01*
X184533Y1606473D01*
X185030Y1600962D01*
X185030Y1595428D01*
X184533Y1589917D01*
X184038Y1587195D01*
X184038Y1587195D01*
X180745Y1569085D01*
X180604Y1568309D01*
X179752Y1566982D01*
X178459Y1566079D01*
X176920Y1565737D01*
X176143Y1565872D01*
Y1565872D01*
X163591Y1568056D01*
X162018Y1568329D01*
X159136Y1569702D01*
X156729Y1571800D01*
X154976Y1574468D01*
X154490Y1575988D01*
Y1575988D01*
X153625Y1578700D01*
X152320Y1584241D01*
X151452Y1589867D01*
X151024Y1595544D01*
X151039Y1601236D01*
X151497Y1606911D01*
X152396Y1612532D01*
X153730Y1618066D01*
X154610Y1620773D01*
X154610Y1620773D01*
X155078Y1622213D01*
X156751Y1624737D01*
X159039Y1626720D01*
X161775Y1628019D01*
X163266Y1628278D01*
X163267D01*
X176143Y1630518D01*
X176920Y1630653D01*
X178459Y1630311D01*
D02*
G37*
G36*
X58459D02*
X59752Y1629408D01*
X60604Y1628081D01*
X60745Y1627305D01*
X60745D01*
X64038Y1609195D01*
X64533Y1606473D01*
X65030Y1600962D01*
X65030Y1595428D01*
X64533Y1589917D01*
X64038Y1587195D01*
X64038Y1587195D01*
X60745Y1569085D01*
X60604Y1568309D01*
X59752Y1566982D01*
X58459Y1566079D01*
X56920Y1565737D01*
X56143Y1565872D01*
Y1565872D01*
X43591Y1568056D01*
X42018Y1568329D01*
X39136Y1569702D01*
X36729Y1571800D01*
X34976Y1574468D01*
X34490Y1575988D01*
Y1575988D01*
X33625Y1578700D01*
X32320Y1584241D01*
X31452Y1589867D01*
X31024Y1595544D01*
X31039Y1601236D01*
X31497Y1606911D01*
X32396Y1612532D01*
X33730Y1618066D01*
X34610Y1620773D01*
X34610Y1620773D01*
X35078Y1622213D01*
X36751Y1624737D01*
X39039Y1626720D01*
X41775Y1628019D01*
X43266Y1628278D01*
X43267D01*
X56143Y1630518D01*
X56920Y1630653D01*
X58459Y1630311D01*
D02*
G37*
G36*
X203933Y1585713D02*
X203933Y1585713D01*
X216485Y1583530D01*
X218058Y1583256D01*
X220940Y1581883D01*
X223347Y1579785D01*
X225100Y1577117D01*
X225586Y1575597D01*
Y1575597D01*
X226451Y1572885D01*
X227756Y1567344D01*
X228624Y1561718D01*
X229052Y1556041D01*
X229037Y1550349D01*
X228579Y1544674D01*
X227680Y1539053D01*
X226346Y1533519D01*
X225466Y1530812D01*
X225466Y1530812D01*
X224998Y1529372D01*
X223325Y1526848D01*
X221037Y1524865D01*
X218301Y1523566D01*
X216810Y1523307D01*
X216810Y1523307D01*
X203933Y1521067D01*
X203156Y1520932D01*
X201617Y1521274D01*
X200324Y1522177D01*
X199472Y1523504D01*
X199331Y1524280D01*
X199331Y1524280D01*
X196038Y1542390D01*
X195543Y1545112D01*
X195046Y1550623D01*
X195046Y1556157D01*
X195543Y1561668D01*
X196038Y1564390D01*
Y1564390D01*
X199331Y1582500D01*
X199472Y1583276D01*
X200324Y1584603D01*
X201617Y1585506D01*
X203156Y1585848D01*
X203933Y1585713D01*
D02*
G37*
G36*
X83933D02*
X83933Y1585713D01*
X96485Y1583530D01*
X98058Y1583256D01*
X100940Y1581883D01*
X103347Y1579785D01*
X105100Y1577117D01*
X105586Y1575597D01*
Y1575597D01*
X106451Y1572885D01*
X107755Y1567344D01*
X108624Y1561718D01*
X109052Y1556041D01*
X109037Y1550349D01*
X108579Y1544674D01*
X107680Y1539053D01*
X106346Y1533519D01*
X105466Y1530812D01*
X105466Y1530812D01*
X104998Y1529372D01*
X103324Y1526848D01*
X101037Y1524865D01*
X98301Y1523566D01*
X96810Y1523307D01*
X96810Y1523307D01*
X83933Y1521067D01*
X83156Y1520932D01*
X81617Y1521274D01*
X80324Y1522177D01*
X79472Y1523504D01*
X79331Y1524280D01*
X79331Y1524280D01*
X76038Y1542390D01*
X75543Y1545112D01*
X75046Y1550623D01*
X75046Y1556157D01*
X75543Y1561668D01*
X76038Y1564390D01*
Y1564390D01*
X79331Y1582500D01*
X79472Y1583276D01*
X80324Y1584603D01*
X81617Y1585506D01*
X83156Y1585848D01*
X83933Y1585713D01*
D02*
G37*
G36*
X178452Y1540116D02*
X179745Y1539213D01*
X180597Y1537886D01*
X180738Y1537110D01*
X180738D01*
X184030Y1519000D01*
X184525Y1516278D01*
X185022Y1510767D01*
X185022Y1505233D01*
X184525Y1499722D01*
X184030Y1497000D01*
X184030Y1497000D01*
X180738Y1478890D01*
X180597Y1478114D01*
X179745Y1476787D01*
X178452Y1475884D01*
X176912Y1475542D01*
X176136Y1475677D01*
Y1475677D01*
X163583Y1477860D01*
X162010Y1478134D01*
X159128Y1479507D01*
X156722Y1481605D01*
X154968Y1484272D01*
X154483Y1485793D01*
Y1485793D01*
X153617Y1488505D01*
X152313Y1494046D01*
X151444Y1499672D01*
X151016Y1505349D01*
X151031Y1511041D01*
X151490Y1516716D01*
X152388Y1522337D01*
X153722Y1527871D01*
X154602Y1530578D01*
X154602Y1530578D01*
X155071Y1532018D01*
X156744Y1534542D01*
X159032Y1536525D01*
X161767Y1537824D01*
X163259Y1538083D01*
X163259D01*
X176136Y1540323D01*
X176912Y1540458D01*
X178452Y1540116D01*
D02*
G37*
G36*
X58452D02*
X59745Y1539213D01*
X60597Y1537886D01*
X60738Y1537110D01*
X60738D01*
X64030Y1519000D01*
X64525Y1516278D01*
X65022Y1510767D01*
X65022Y1505233D01*
X64525Y1499722D01*
X64030Y1497000D01*
X64030Y1497000D01*
X60738Y1478890D01*
X60597Y1478114D01*
X59745Y1476787D01*
X58452Y1475884D01*
X56912Y1475542D01*
X56136Y1475677D01*
Y1475677D01*
X43583Y1477860D01*
X42010Y1478134D01*
X39128Y1479507D01*
X36722Y1481605D01*
X34968Y1484272D01*
X34483Y1485793D01*
Y1485793D01*
X33617Y1488505D01*
X32313Y1494046D01*
X31444Y1499672D01*
X31016Y1505349D01*
X31031Y1511041D01*
X31490Y1516716D01*
X32389Y1522337D01*
X33722Y1527871D01*
X34602Y1530578D01*
X34602Y1530578D01*
X35071Y1532018D01*
X36744Y1534542D01*
X39032Y1536525D01*
X41767Y1537824D01*
X43259Y1538083D01*
X43259D01*
X56136Y1540323D01*
X56912Y1540458D01*
X58452Y1540116D01*
D02*
G37*
G36*
X203933Y1495713D02*
X203933Y1495713D01*
X216485Y1493530D01*
X218058Y1493256D01*
X220940Y1491883D01*
X223347Y1489785D01*
X225100Y1487117D01*
X225586Y1485597D01*
Y1485597D01*
X226451Y1482885D01*
X227756Y1477344D01*
X228624Y1471718D01*
X229052Y1466041D01*
X229037Y1460349D01*
X228579Y1454674D01*
X227680Y1449053D01*
X226346Y1443519D01*
X225466Y1440812D01*
X225466Y1440812D01*
X224998Y1439372D01*
X223325Y1436848D01*
X221037Y1434865D01*
X218301Y1433566D01*
X216810Y1433307D01*
X216810Y1433307D01*
X203933Y1431067D01*
X203156Y1430932D01*
X201617Y1431274D01*
X200324Y1432177D01*
X199472Y1433504D01*
X199331Y1434280D01*
X199331Y1434280D01*
X196038Y1452390D01*
X195543Y1455112D01*
X195046Y1460623D01*
X195046Y1466157D01*
X195543Y1471668D01*
X196038Y1474390D01*
Y1474390D01*
X199331Y1492500D01*
X199472Y1493276D01*
X200324Y1494603D01*
X201617Y1495506D01*
X203156Y1495848D01*
X203933Y1495713D01*
D02*
G37*
G36*
X83933D02*
X83933Y1495713D01*
X96485Y1493530D01*
X98058Y1493256D01*
X100940Y1491883D01*
X103347Y1489785D01*
X105100Y1487117D01*
X105586Y1485597D01*
Y1485597D01*
X106451Y1482885D01*
X107755Y1477344D01*
X108624Y1471718D01*
X109052Y1466041D01*
X109037Y1460349D01*
X108579Y1454674D01*
X107680Y1449053D01*
X106346Y1443519D01*
X105466Y1440812D01*
X105466Y1440812D01*
X104998Y1439372D01*
X103324Y1436848D01*
X101037Y1434865D01*
X98301Y1433566D01*
X96810Y1433307D01*
X96810Y1433307D01*
X83933Y1431067D01*
X83156Y1430932D01*
X81617Y1431274D01*
X80324Y1432177D01*
X79472Y1433504D01*
X79331Y1434280D01*
X79331Y1434280D01*
X76038Y1452390D01*
X75543Y1455112D01*
X75046Y1460623D01*
X75046Y1466157D01*
X75543Y1471668D01*
X76038Y1474390D01*
Y1474390D01*
X79331Y1492500D01*
X79472Y1493276D01*
X80324Y1494603D01*
X81617Y1495506D01*
X83156Y1495848D01*
X83933Y1495713D01*
D02*
G37*
G36*
X178459Y1450311D02*
X179752Y1449408D01*
X180604Y1448081D01*
X180745Y1447305D01*
X180745D01*
X184038Y1429195D01*
X184533Y1426473D01*
X185030Y1420962D01*
X185030Y1415428D01*
X184533Y1409917D01*
X184038Y1407195D01*
X184038Y1407195D01*
X180745Y1389085D01*
X180604Y1388309D01*
X179752Y1386982D01*
X178459Y1386079D01*
X176920Y1385737D01*
X176143Y1385872D01*
Y1385872D01*
X163591Y1388056D01*
X162018Y1388329D01*
X159136Y1389702D01*
X156729Y1391800D01*
X154976Y1394468D01*
X154490Y1395988D01*
Y1395988D01*
X153625Y1398700D01*
X152320Y1404241D01*
X151452Y1409867D01*
X151024Y1415544D01*
X151039Y1421237D01*
X151497Y1426911D01*
X152396Y1432532D01*
X153730Y1438066D01*
X154610Y1440773D01*
X154610Y1440773D01*
X155078Y1442213D01*
X156751Y1444737D01*
X159039Y1446720D01*
X161775Y1448019D01*
X163266Y1448278D01*
X163267D01*
X176143Y1450518D01*
X176920Y1450653D01*
X178459Y1450311D01*
D02*
G37*
G36*
X58459D02*
X59752Y1449408D01*
X60604Y1448081D01*
X60745Y1447305D01*
X60745D01*
X64038Y1429195D01*
X64533Y1426473D01*
X65030Y1420962D01*
X65030Y1415428D01*
X64533Y1409917D01*
X64038Y1407195D01*
X64038Y1407195D01*
X60745Y1389085D01*
X60604Y1388309D01*
X59752Y1386982D01*
X58459Y1386079D01*
X56920Y1385737D01*
X56143Y1385872D01*
Y1385872D01*
X43591Y1388056D01*
X42018Y1388329D01*
X39136Y1389702D01*
X36729Y1391800D01*
X34976Y1394468D01*
X34490Y1395988D01*
Y1395988D01*
X33625Y1398700D01*
X32320Y1404241D01*
X31452Y1409867D01*
X31024Y1415544D01*
X31039Y1421237D01*
X31497Y1426911D01*
X32396Y1432532D01*
X33730Y1438066D01*
X34610Y1440773D01*
X34610Y1440773D01*
X35078Y1442213D01*
X36751Y1444737D01*
X39039Y1446720D01*
X41775Y1448019D01*
X43266Y1448278D01*
X43267D01*
X56143Y1450518D01*
X56920Y1450653D01*
X58459Y1450311D01*
D02*
G37*
G36*
X203933Y1405713D02*
X203933Y1405713D01*
X216485Y1403530D01*
X218058Y1403256D01*
X220940Y1401883D01*
X223347Y1399785D01*
X225100Y1397118D01*
X225586Y1395597D01*
Y1395597D01*
X226451Y1392885D01*
X227756Y1387344D01*
X228624Y1381718D01*
X229052Y1376041D01*
X229037Y1370349D01*
X228579Y1364674D01*
X227680Y1359053D01*
X226346Y1353519D01*
X225466Y1350812D01*
X225466Y1350812D01*
X224998Y1349372D01*
X223325Y1346848D01*
X221037Y1344865D01*
X218301Y1343566D01*
X216810Y1343307D01*
X216810Y1343307D01*
X203933Y1341067D01*
X203156Y1340932D01*
X201617Y1341274D01*
X200324Y1342177D01*
X199472Y1343504D01*
X199331Y1344280D01*
X199331Y1344280D01*
X196038Y1362390D01*
X195543Y1365112D01*
X195046Y1370623D01*
X195046Y1376157D01*
X195543Y1381668D01*
X196038Y1384390D01*
Y1384390D01*
X199331Y1402500D01*
X199472Y1403276D01*
X200324Y1404603D01*
X201617Y1405506D01*
X203156Y1405848D01*
X203933Y1405713D01*
D02*
G37*
G36*
X83933D02*
X83933Y1405713D01*
X96485Y1403530D01*
X98058Y1403256D01*
X100940Y1401883D01*
X103347Y1399785D01*
X105100Y1397118D01*
X105586Y1395597D01*
Y1395597D01*
X106451Y1392885D01*
X107755Y1387344D01*
X108624Y1381718D01*
X109052Y1376041D01*
X109037Y1370349D01*
X108579Y1364674D01*
X107680Y1359053D01*
X106346Y1353519D01*
X105466Y1350812D01*
X105466Y1350812D01*
X104998Y1349372D01*
X103324Y1346848D01*
X101037Y1344865D01*
X98301Y1343566D01*
X96810Y1343307D01*
X96810Y1343307D01*
X83933Y1341067D01*
X83156Y1340932D01*
X81617Y1341274D01*
X80324Y1342177D01*
X79472Y1343504D01*
X79331Y1344280D01*
X79331Y1344280D01*
X76038Y1362390D01*
X75543Y1365112D01*
X75046Y1370623D01*
X75046Y1376157D01*
X75543Y1381668D01*
X76038Y1384390D01*
Y1384390D01*
X79331Y1402500D01*
X79472Y1403276D01*
X80324Y1404603D01*
X81617Y1405506D01*
X83156Y1405848D01*
X83933Y1405713D01*
D02*
G37*
G36*
X178452Y1360116D02*
X179745Y1359213D01*
X180597Y1357886D01*
X180738Y1357110D01*
X180738D01*
X184030Y1339000D01*
X184525Y1336278D01*
X185022Y1330767D01*
X185022Y1325233D01*
X184525Y1319722D01*
X184030Y1317000D01*
X184030Y1317000D01*
X180738Y1298890D01*
X180597Y1298114D01*
X179745Y1296787D01*
X178452Y1295884D01*
X176912Y1295542D01*
X176136Y1295677D01*
Y1295677D01*
X163583Y1297860D01*
X162010Y1298134D01*
X159128Y1299507D01*
X156722Y1301605D01*
X154968Y1304273D01*
X154483Y1305793D01*
Y1305793D01*
X153617Y1308505D01*
X152313Y1314046D01*
X151444Y1319672D01*
X151016Y1325349D01*
X151031Y1331041D01*
X151490Y1336716D01*
X152388Y1342337D01*
X153722Y1347871D01*
X154602Y1350578D01*
X154602Y1350578D01*
X155071Y1352018D01*
X156744Y1354542D01*
X159032Y1356525D01*
X161767Y1357824D01*
X163259Y1358083D01*
X163259D01*
X176136Y1360323D01*
X176912Y1360458D01*
X178452Y1360116D01*
D02*
G37*
G36*
X58452D02*
X59745Y1359213D01*
X60597Y1357886D01*
X60738Y1357110D01*
X60738D01*
X64030Y1339000D01*
X64525Y1336278D01*
X65022Y1330767D01*
X65022Y1325233D01*
X64525Y1319722D01*
X64030Y1317000D01*
X64030Y1317000D01*
X60738Y1298890D01*
X60597Y1298114D01*
X59745Y1296787D01*
X58452Y1295884D01*
X56912Y1295542D01*
X56136Y1295677D01*
Y1295677D01*
X43583Y1297860D01*
X42010Y1298134D01*
X39128Y1299507D01*
X36722Y1301605D01*
X34968Y1304273D01*
X34483Y1305793D01*
Y1305793D01*
X33617Y1308505D01*
X32313Y1314046D01*
X31444Y1319672D01*
X31016Y1325349D01*
X31031Y1331041D01*
X31490Y1336716D01*
X32389Y1342337D01*
X33722Y1347871D01*
X34602Y1350578D01*
X34602Y1350578D01*
X35071Y1352018D01*
X36744Y1354542D01*
X39032Y1356525D01*
X41767Y1357824D01*
X43259Y1358083D01*
X43259D01*
X56136Y1360323D01*
X56912Y1360458D01*
X58452Y1360116D01*
D02*
G37*
G36*
X203933Y1315713D02*
X203933Y1315713D01*
X216485Y1313530D01*
X218058Y1313256D01*
X220940Y1311883D01*
X223347Y1309785D01*
X225100Y1307118D01*
X225586Y1305597D01*
Y1305597D01*
X226451Y1302885D01*
X227756Y1297344D01*
X228624Y1291718D01*
X229052Y1286041D01*
X229037Y1280349D01*
X228579Y1274674D01*
X227680Y1269053D01*
X226346Y1263519D01*
X225466Y1260812D01*
X225466Y1260812D01*
X224998Y1259372D01*
X223325Y1256849D01*
X221037Y1254865D01*
X218301Y1253566D01*
X216810Y1253307D01*
X216810Y1253307D01*
X203933Y1251067D01*
X203156Y1250932D01*
X201617Y1251274D01*
X200324Y1252177D01*
X199472Y1253504D01*
X199331Y1254280D01*
X199331Y1254280D01*
X196038Y1272390D01*
X195543Y1275112D01*
X195046Y1280623D01*
X195046Y1286157D01*
X195543Y1291668D01*
X196038Y1294390D01*
Y1294390D01*
X199331Y1312500D01*
X199472Y1313276D01*
X200324Y1314603D01*
X201617Y1315506D01*
X203156Y1315848D01*
X203933Y1315713D01*
D02*
G37*
G36*
X83933D02*
X83933Y1315713D01*
X96485Y1313530D01*
X98058Y1313256D01*
X100940Y1311883D01*
X103347Y1309785D01*
X105100Y1307118D01*
X105586Y1305597D01*
Y1305597D01*
X106451Y1302885D01*
X107755Y1297344D01*
X108624Y1291718D01*
X109052Y1286041D01*
X109037Y1280349D01*
X108579Y1274674D01*
X107680Y1269053D01*
X106346Y1263519D01*
X105466Y1260812D01*
X105466Y1260812D01*
X104998Y1259372D01*
X103324Y1256849D01*
X101037Y1254865D01*
X98301Y1253566D01*
X96810Y1253307D01*
X96810Y1253307D01*
X83933Y1251067D01*
X83156Y1250932D01*
X81617Y1251274D01*
X80324Y1252177D01*
X79472Y1253504D01*
X79331Y1254280D01*
X79331Y1254280D01*
X76038Y1272390D01*
X75543Y1275112D01*
X75046Y1280623D01*
X75046Y1286157D01*
X75543Y1291668D01*
X76038Y1294390D01*
Y1294390D01*
X79331Y1312500D01*
X79472Y1313276D01*
X80324Y1314603D01*
X81617Y1315506D01*
X83156Y1315848D01*
X83933Y1315713D01*
D02*
G37*
G36*
X178459Y1270311D02*
X179752Y1269408D01*
X180604Y1268081D01*
X180745Y1267305D01*
X180745D01*
X184038Y1249195D01*
X184533Y1246473D01*
X185030Y1240962D01*
X185030Y1235428D01*
X184533Y1229917D01*
X184038Y1227195D01*
X184038Y1227195D01*
X180745Y1209085D01*
X180604Y1208309D01*
X179752Y1206982D01*
X178459Y1206079D01*
X176920Y1205737D01*
X176143Y1205872D01*
Y1205872D01*
X163591Y1208055D01*
X162018Y1208329D01*
X159136Y1209702D01*
X156729Y1211800D01*
X154976Y1214468D01*
X154490Y1215988D01*
Y1215988D01*
X153625Y1218700D01*
X152320Y1224241D01*
X151452Y1229867D01*
X151024Y1235544D01*
X151039Y1241236D01*
X151497Y1246911D01*
X152396Y1252532D01*
X153730Y1258066D01*
X154610Y1260773D01*
X154610Y1260773D01*
X155078Y1262213D01*
X156751Y1264737D01*
X159039Y1266720D01*
X161775Y1268019D01*
X163266Y1268278D01*
X163267D01*
X176143Y1270518D01*
X176920Y1270653D01*
X178459Y1270311D01*
D02*
G37*
G36*
X58459D02*
X59752Y1269408D01*
X60604Y1268081D01*
X60745Y1267305D01*
X60745D01*
X64038Y1249195D01*
X64533Y1246473D01*
X65030Y1240962D01*
X65030Y1235428D01*
X64533Y1229917D01*
X64038Y1227195D01*
X64038Y1227195D01*
X60745Y1209085D01*
X60604Y1208309D01*
X59752Y1206982D01*
X58459Y1206079D01*
X56920Y1205737D01*
X56143Y1205872D01*
Y1205872D01*
X43591Y1208055D01*
X42018Y1208329D01*
X39136Y1209702D01*
X36729Y1211800D01*
X34976Y1214468D01*
X34490Y1215988D01*
Y1215988D01*
X33625Y1218700D01*
X32320Y1224241D01*
X31452Y1229867D01*
X31024Y1235544D01*
X31039Y1241236D01*
X31497Y1246911D01*
X32396Y1252532D01*
X33730Y1258066D01*
X34610Y1260773D01*
X34610Y1260773D01*
X35078Y1262213D01*
X36751Y1264737D01*
X39039Y1266720D01*
X41775Y1268019D01*
X43266Y1268278D01*
X43267D01*
X56143Y1270518D01*
X56920Y1270653D01*
X58459Y1270311D01*
D02*
G37*
G36*
X203933Y1225713D02*
X203933Y1225713D01*
X216485Y1223530D01*
X218058Y1223256D01*
X220940Y1221883D01*
X223347Y1219785D01*
X225100Y1217118D01*
X225586Y1215597D01*
Y1215597D01*
X226451Y1212886D01*
X227756Y1207344D01*
X228624Y1201718D01*
X229052Y1196041D01*
X229037Y1190349D01*
X228579Y1184674D01*
X227680Y1179053D01*
X226346Y1173519D01*
X225466Y1170812D01*
X225466Y1170812D01*
X224998Y1169372D01*
X223325Y1166849D01*
X221037Y1164865D01*
X218301Y1163566D01*
X216810Y1163307D01*
X216810Y1163307D01*
X203933Y1161067D01*
X203156Y1160932D01*
X201617Y1161274D01*
X200324Y1162177D01*
X199472Y1163504D01*
X199331Y1164280D01*
X199331Y1164280D01*
X196038Y1182390D01*
X195543Y1185112D01*
X195046Y1190623D01*
X195046Y1196157D01*
X195543Y1201668D01*
X196038Y1204390D01*
Y1204390D01*
X199331Y1222501D01*
X199472Y1223276D01*
X200324Y1224603D01*
X201617Y1225506D01*
X203156Y1225848D01*
X203933Y1225713D01*
D02*
G37*
G36*
X83933D02*
X83933Y1225713D01*
X96485Y1223530D01*
X98058Y1223256D01*
X100940Y1221883D01*
X103347Y1219785D01*
X105100Y1217118D01*
X105586Y1215597D01*
Y1215597D01*
X106451Y1212886D01*
X107755Y1207344D01*
X108624Y1201718D01*
X109052Y1196041D01*
X109037Y1190349D01*
X108579Y1184674D01*
X107680Y1179053D01*
X106346Y1173519D01*
X105466Y1170812D01*
X105466Y1170812D01*
X104998Y1169372D01*
X103324Y1166849D01*
X101037Y1164865D01*
X98301Y1163566D01*
X96810Y1163307D01*
X96810Y1163307D01*
X83933Y1161067D01*
X83156Y1160932D01*
X81617Y1161274D01*
X80324Y1162177D01*
X79472Y1163504D01*
X79331Y1164280D01*
X79331Y1164280D01*
X76038Y1182390D01*
X75543Y1185112D01*
X75046Y1190623D01*
X75046Y1196157D01*
X75543Y1201668D01*
X76038Y1204390D01*
Y1204390D01*
X79331Y1222501D01*
X79472Y1223276D01*
X80324Y1224603D01*
X81617Y1225506D01*
X83156Y1225848D01*
X83933Y1225713D01*
D02*
G37*
G36*
X178459Y1180311D02*
X179752Y1179408D01*
X180604Y1178081D01*
X180745Y1177305D01*
X180745D01*
X184038Y1159195D01*
X184533Y1156473D01*
X185030Y1150962D01*
X185030Y1145428D01*
X184533Y1139917D01*
X184038Y1137195D01*
X184038Y1137195D01*
X180745Y1119085D01*
X180604Y1118309D01*
X179752Y1116982D01*
X178459Y1116079D01*
X176920Y1115737D01*
X176143Y1115872D01*
Y1115872D01*
X163591Y1118055D01*
X162018Y1118329D01*
X159136Y1119702D01*
X156729Y1121800D01*
X154976Y1124468D01*
X154490Y1125988D01*
Y1125988D01*
X153625Y1128700D01*
X152320Y1134241D01*
X151452Y1139867D01*
X151024Y1145544D01*
X151039Y1151236D01*
X151497Y1156911D01*
X152396Y1162532D01*
X153730Y1168066D01*
X154610Y1170773D01*
X154610Y1170773D01*
X155078Y1172213D01*
X156751Y1174737D01*
X159039Y1176720D01*
X161775Y1178019D01*
X163266Y1178278D01*
X163267D01*
X176143Y1180518D01*
X176920Y1180653D01*
X178459Y1180311D01*
D02*
G37*
G36*
X58459D02*
X59752Y1179408D01*
X60604Y1178081D01*
X60745Y1177305D01*
X60745D01*
X64038Y1159195D01*
X64533Y1156473D01*
X65030Y1150962D01*
X65030Y1145428D01*
X64533Y1139917D01*
X64038Y1137195D01*
X64038Y1137195D01*
X60745Y1119085D01*
X60604Y1118309D01*
X59752Y1116982D01*
X58459Y1116079D01*
X56920Y1115737D01*
X56143Y1115872D01*
Y1115872D01*
X43591Y1118055D01*
X42018Y1118329D01*
X39136Y1119702D01*
X36729Y1121800D01*
X34976Y1124468D01*
X34490Y1125988D01*
Y1125988D01*
X33625Y1128700D01*
X32320Y1134241D01*
X31452Y1139867D01*
X31024Y1145544D01*
X31039Y1151236D01*
X31497Y1156911D01*
X32396Y1162532D01*
X33730Y1168066D01*
X34610Y1170773D01*
X34610Y1170773D01*
X35078Y1172213D01*
X36751Y1174737D01*
X39039Y1176720D01*
X41775Y1178019D01*
X43266Y1178278D01*
X43267D01*
X56143Y1180518D01*
X56920Y1180653D01*
X58459Y1180311D01*
D02*
G37*
G36*
X203933Y1135713D02*
X203933Y1135713D01*
X216485Y1133530D01*
X218058Y1133256D01*
X220940Y1131883D01*
X223347Y1129785D01*
X225100Y1127118D01*
X225586Y1125597D01*
Y1125597D01*
X226451Y1122886D01*
X227756Y1117344D01*
X228624Y1111718D01*
X229052Y1106041D01*
X229037Y1100349D01*
X228579Y1094674D01*
X227680Y1089053D01*
X226346Y1083519D01*
X225466Y1080812D01*
X225466Y1080812D01*
X224998Y1079372D01*
X223325Y1076849D01*
X221037Y1074865D01*
X218301Y1073566D01*
X216810Y1073307D01*
X216810Y1073307D01*
X203933Y1071067D01*
X203156Y1070932D01*
X201617Y1071274D01*
X200324Y1072177D01*
X199472Y1073504D01*
X199331Y1074280D01*
X199331Y1074280D01*
X196038Y1092390D01*
X195543Y1095112D01*
X195046Y1100623D01*
X195046Y1106157D01*
X195543Y1111668D01*
X196038Y1114390D01*
Y1114390D01*
X199331Y1132501D01*
X199472Y1133276D01*
X200324Y1134603D01*
X201617Y1135506D01*
X203156Y1135848D01*
X203933Y1135713D01*
D02*
G37*
G36*
X83933D02*
X83933Y1135713D01*
X96485Y1133530D01*
X98058Y1133256D01*
X100940Y1131883D01*
X103347Y1129785D01*
X105100Y1127118D01*
X105586Y1125597D01*
Y1125597D01*
X106451Y1122886D01*
X107755Y1117344D01*
X108624Y1111718D01*
X109052Y1106041D01*
X109037Y1100349D01*
X108579Y1094674D01*
X107680Y1089053D01*
X106346Y1083519D01*
X105466Y1080812D01*
X105466Y1080812D01*
X104998Y1079372D01*
X103324Y1076849D01*
X101037Y1074865D01*
X98301Y1073566D01*
X96810Y1073307D01*
X96810Y1073307D01*
X83933Y1071067D01*
X83156Y1070932D01*
X81617Y1071274D01*
X80324Y1072177D01*
X79472Y1073504D01*
X79331Y1074280D01*
X79331Y1074280D01*
X76038Y1092390D01*
X75543Y1095112D01*
X75046Y1100623D01*
X75046Y1106157D01*
X75543Y1111668D01*
X76038Y1114390D01*
Y1114390D01*
X79331Y1132501D01*
X79472Y1133276D01*
X80324Y1134603D01*
X81617Y1135506D01*
X83156Y1135848D01*
X83933Y1135713D01*
D02*
G37*
G36*
X178452Y1090116D02*
X179745Y1089213D01*
X180597Y1087886D01*
X180738Y1087110D01*
X180738D01*
X184030Y1069000D01*
X184525Y1066278D01*
X185022Y1060767D01*
X185022Y1055233D01*
X184525Y1049722D01*
X184030Y1047000D01*
X184030Y1047000D01*
X180738Y1028890D01*
X180597Y1028114D01*
X179745Y1026787D01*
X178452Y1025884D01*
X176912Y1025542D01*
X176136Y1025677D01*
Y1025677D01*
X163583Y1027860D01*
X162010Y1028134D01*
X159128Y1029507D01*
X156722Y1031605D01*
X154968Y1034273D01*
X154483Y1035793D01*
Y1035793D01*
X153617Y1038505D01*
X152313Y1044046D01*
X151444Y1049672D01*
X151016Y1055349D01*
X151031Y1061041D01*
X151490Y1066716D01*
X152388Y1072337D01*
X153722Y1077871D01*
X154602Y1080578D01*
X154602Y1080578D01*
X155071Y1082018D01*
X156744Y1084542D01*
X159032Y1086525D01*
X161767Y1087824D01*
X163259Y1088083D01*
X163259D01*
X176136Y1090323D01*
X176912Y1090458D01*
X178452Y1090116D01*
D02*
G37*
G36*
X58452D02*
X59745Y1089213D01*
X60597Y1087886D01*
X60738Y1087110D01*
X60738D01*
X64030Y1069000D01*
X64525Y1066278D01*
X65022Y1060767D01*
X65022Y1055233D01*
X64525Y1049722D01*
X64030Y1047000D01*
X64030Y1047000D01*
X60738Y1028890D01*
X60597Y1028114D01*
X59745Y1026787D01*
X58452Y1025884D01*
X56912Y1025542D01*
X56136Y1025677D01*
Y1025677D01*
X43583Y1027860D01*
X42010Y1028134D01*
X39128Y1029507D01*
X36722Y1031605D01*
X34968Y1034273D01*
X34483Y1035793D01*
Y1035793D01*
X33617Y1038505D01*
X32313Y1044046D01*
X31444Y1049672D01*
X31016Y1055349D01*
X31031Y1061041D01*
X31490Y1066716D01*
X32389Y1072337D01*
X33722Y1077871D01*
X34602Y1080578D01*
X34602Y1080578D01*
X35071Y1082018D01*
X36744Y1084542D01*
X39032Y1086525D01*
X41767Y1087824D01*
X43259Y1088083D01*
X43259D01*
X56136Y1090323D01*
X56912Y1090458D01*
X58452Y1090116D01*
D02*
G37*
G36*
X203925Y1045518D02*
X203925Y1045518D01*
X216478Y1043335D01*
X218050Y1043061D01*
X220933Y1041688D01*
X223339Y1039590D01*
X225092Y1036923D01*
X225578Y1035402D01*
Y1035402D01*
X226444Y1032691D01*
X227748Y1027149D01*
X228617Y1021523D01*
X229045Y1015846D01*
X229030Y1010154D01*
X228571Y1004479D01*
X227672Y998858D01*
X226339Y993324D01*
X225458Y990617D01*
X225458Y990617D01*
X224990Y989177D01*
X223317Y986653D01*
X221029Y984670D01*
X218294Y983371D01*
X216802Y983112D01*
X216802Y983112D01*
X203925Y980872D01*
X203148Y980737D01*
X201609Y981079D01*
X200316Y981982D01*
X199464Y983309D01*
X199323Y984085D01*
X199323Y984085D01*
X196030Y1002195D01*
X195536Y1004917D01*
X195039Y1010428D01*
X195039Y1015962D01*
X195536Y1021473D01*
X196030Y1024195D01*
Y1024195D01*
X199323Y1042305D01*
X199464Y1043081D01*
X200316Y1044408D01*
X201609Y1045311D01*
X203149Y1045653D01*
X203925Y1045518D01*
D02*
G37*
G36*
X83925D02*
X83925Y1045518D01*
X96478Y1043335D01*
X98050Y1043061D01*
X100933Y1041688D01*
X103339Y1039590D01*
X105092Y1036923D01*
X105578Y1035402D01*
Y1035402D01*
X106444Y1032691D01*
X107748Y1027149D01*
X108617Y1021523D01*
X109045Y1015846D01*
X109030Y1010154D01*
X108571Y1004479D01*
X107672Y998858D01*
X106339Y993324D01*
X105458Y990617D01*
X105458Y990617D01*
X104990Y989177D01*
X103317Y986653D01*
X101029Y984670D01*
X98294Y983371D01*
X96802Y983112D01*
X96802Y983112D01*
X83925Y980872D01*
X83148Y980737D01*
X81609Y981079D01*
X80316Y981982D01*
X79464Y983309D01*
X79323Y984085D01*
X79323Y984085D01*
X76030Y1002195D01*
X75535Y1004917D01*
X75039Y1010428D01*
X75039Y1015962D01*
X75535Y1021473D01*
X76030Y1024195D01*
Y1024195D01*
X79323Y1042305D01*
X79464Y1043081D01*
X80316Y1044408D01*
X81609Y1045311D01*
X83149Y1045653D01*
X83925Y1045518D01*
D02*
G37*
G36*
X178452Y1000116D02*
X179745Y999213D01*
X180597Y997886D01*
X180738Y997110D01*
X180738D01*
X184030Y979000D01*
X184525Y976278D01*
X185022Y970767D01*
X185022Y965233D01*
X184525Y959722D01*
X184030Y957000D01*
X184030Y957000D01*
X180738Y938890D01*
X180597Y938114D01*
X179745Y936787D01*
X178452Y935884D01*
X176912Y935542D01*
X176136Y935677D01*
Y935677D01*
X163583Y937860D01*
X162010Y938134D01*
X159128Y939507D01*
X156722Y941605D01*
X154968Y944273D01*
X154483Y945793D01*
Y945793D01*
X153617Y948505D01*
X152313Y954046D01*
X151444Y959672D01*
X151016Y965349D01*
X151031Y971041D01*
X151490Y976716D01*
X152388Y982337D01*
X153722Y987871D01*
X154602Y990578D01*
X154602Y990578D01*
X155071Y992018D01*
X156744Y994542D01*
X159032Y996525D01*
X161767Y997824D01*
X163259Y998083D01*
X163259D01*
X176136Y1000323D01*
X176912Y1000458D01*
X178452Y1000116D01*
D02*
G37*
G36*
X58452D02*
X59745Y999213D01*
X60597Y997886D01*
X60738Y997110D01*
X60738D01*
X64030Y979000D01*
X64525Y976278D01*
X65022Y970767D01*
X65022Y965233D01*
X64525Y959722D01*
X64030Y957000D01*
X64030Y957000D01*
X60738Y938890D01*
X60597Y938114D01*
X59745Y936787D01*
X58452Y935884D01*
X56912Y935542D01*
X56136Y935677D01*
Y935677D01*
X43583Y937860D01*
X42010Y938134D01*
X39128Y939507D01*
X36722Y941605D01*
X34968Y944273D01*
X34483Y945793D01*
Y945793D01*
X33617Y948505D01*
X32313Y954046D01*
X31444Y959672D01*
X31016Y965349D01*
X31031Y971041D01*
X31490Y976716D01*
X32389Y982337D01*
X33722Y987871D01*
X34602Y990578D01*
X34602Y990578D01*
X35071Y992018D01*
X36744Y994542D01*
X39032Y996525D01*
X41767Y997824D01*
X43259Y998083D01*
X43259D01*
X56136Y1000323D01*
X56912Y1000458D01*
X58452Y1000116D01*
D02*
G37*
G36*
X178444Y910311D02*
X179737Y909408D01*
X180589Y908081D01*
X180730Y907305D01*
X180730D01*
X184023Y889195D01*
X184518Y886473D01*
X185015Y880962D01*
X185015Y875428D01*
X184518Y869917D01*
X184023Y867195D01*
X184023Y867195D01*
X180730Y849085D01*
X180589Y848309D01*
X179737Y846982D01*
X178444Y846079D01*
X176905Y845737D01*
X176128Y845872D01*
Y845872D01*
X163576Y848055D01*
X162003Y848329D01*
X159121Y849702D01*
X156714Y851800D01*
X154961Y854468D01*
X154475Y855988D01*
Y855988D01*
X153610Y858700D01*
X152305Y864241D01*
X151437Y869867D01*
X151009Y875544D01*
X151024Y881236D01*
X151482Y886911D01*
X152381Y892532D01*
X153715Y898066D01*
X154595Y900773D01*
X154595Y900773D01*
X155063Y902213D01*
X156736Y904737D01*
X159024Y906720D01*
X161760Y908019D01*
X163251Y908278D01*
X163251D01*
X176128Y910518D01*
X176905Y910653D01*
X178444Y910311D01*
D02*
G37*
G36*
X58444D02*
X59737Y909408D01*
X60589Y908081D01*
X60730Y907305D01*
X60730D01*
X64023Y889195D01*
X64518Y886473D01*
X65015Y880962D01*
X65015Y875428D01*
X64518Y869917D01*
X64023Y867195D01*
X64023Y867195D01*
X60730Y849085D01*
X60589Y848309D01*
X59737Y846982D01*
X58444Y846079D01*
X56905Y845737D01*
X56128Y845872D01*
Y845872D01*
X43576Y848055D01*
X42003Y848329D01*
X39121Y849702D01*
X36714Y851800D01*
X34961Y854468D01*
X34475Y855988D01*
Y855988D01*
X33609Y858700D01*
X32305Y864241D01*
X31437Y869867D01*
X31009Y875544D01*
X31024Y881236D01*
X31482Y886911D01*
X32381Y892532D01*
X33715Y898066D01*
X34595Y900773D01*
X34595Y900773D01*
X35063Y902213D01*
X36736Y904737D01*
X39024Y906720D01*
X41760Y908019D01*
X43251Y908278D01*
X43251D01*
X56128Y910518D01*
X56905Y910653D01*
X58444Y910311D01*
D02*
G37*
G36*
X203925Y955518D02*
X203925Y955518D01*
X216478Y953335D01*
X218050Y953061D01*
X220933Y951688D01*
X223339Y949590D01*
X225092Y946923D01*
X225578Y945402D01*
Y945402D01*
X226444Y942691D01*
X227748Y937149D01*
X228617Y931523D01*
X229045Y925846D01*
X229030Y920154D01*
X228571Y914479D01*
X227672Y908858D01*
X226339Y903324D01*
X225458Y900617D01*
X225458Y900617D01*
X224990Y899177D01*
X223317Y896653D01*
X221029Y894670D01*
X218294Y893371D01*
X216802Y893112D01*
X216802Y893112D01*
X203925Y890872D01*
X203148Y890737D01*
X201609Y891079D01*
X200316Y891982D01*
X199464Y893309D01*
X199323Y894085D01*
X199323Y894085D01*
X196030Y912195D01*
X195536Y914917D01*
X195039Y920428D01*
X195039Y925962D01*
X195536Y931473D01*
X196030Y934195D01*
Y934195D01*
X199323Y952305D01*
X199464Y953081D01*
X200316Y954408D01*
X201609Y955311D01*
X203149Y955653D01*
X203925Y955518D01*
D02*
G37*
G36*
X83925D02*
X83925Y955518D01*
X96478Y953335D01*
X98050Y953061D01*
X100933Y951688D01*
X103339Y949590D01*
X105092Y946923D01*
X105578Y945402D01*
Y945402D01*
X106444Y942691D01*
X107748Y937149D01*
X108617Y931523D01*
X109045Y925846D01*
X109030Y920154D01*
X108571Y914479D01*
X107672Y908858D01*
X106339Y903324D01*
X105458Y900617D01*
X105458Y900617D01*
X104990Y899177D01*
X103317Y896653D01*
X101029Y894670D01*
X98294Y893371D01*
X96802Y893112D01*
X96802Y893112D01*
X83925Y890872D01*
X83148Y890737D01*
X81609Y891079D01*
X80316Y891982D01*
X79464Y893309D01*
X79323Y894085D01*
X79323Y894085D01*
X76030Y912195D01*
X75535Y914917D01*
X75039Y920428D01*
X75039Y925962D01*
X75535Y931473D01*
X76030Y934195D01*
Y934195D01*
X79323Y952305D01*
X79464Y953081D01*
X80316Y954408D01*
X81609Y955311D01*
X83149Y955653D01*
X83925Y955518D01*
D02*
G37*
G36*
X203918Y865713D02*
X203918Y865713D01*
X216470Y863530D01*
X218043Y863256D01*
X220925Y861883D01*
X223331Y859786D01*
X225085Y857118D01*
X225570Y855597D01*
Y855597D01*
X226436Y852886D01*
X227740Y847344D01*
X228609Y841718D01*
X229037Y836041D01*
X229022Y830349D01*
X228563Y824674D01*
X227665Y819053D01*
X226331Y813519D01*
X225451Y810812D01*
X225451Y810812D01*
X224982Y809372D01*
X223309Y806849D01*
X221021Y804865D01*
X218286Y803566D01*
X216794Y803307D01*
X216794Y803307D01*
X203918Y801067D01*
X203141Y800932D01*
X201602Y801274D01*
X200308Y802177D01*
X199457Y803504D01*
X199316Y804280D01*
X199316Y804280D01*
X196023Y822390D01*
X195528Y825112D01*
X195031Y830623D01*
X195031Y836157D01*
X195528Y841668D01*
X196023Y844390D01*
Y844390D01*
X199316Y862501D01*
X199457Y863276D01*
X200308Y864603D01*
X201602Y865506D01*
X203141Y865848D01*
X203918Y865713D01*
D02*
G37*
G36*
X83918D02*
X83918Y865713D01*
X96470Y863530D01*
X98043Y863256D01*
X100925Y861883D01*
X103331Y859786D01*
X105085Y857118D01*
X105570Y855597D01*
Y855597D01*
X106436Y852886D01*
X107740Y847344D01*
X108609Y841718D01*
X109037Y836041D01*
X109022Y830349D01*
X108563Y824674D01*
X107665Y819053D01*
X106331Y813519D01*
X105451Y810812D01*
X105451Y810812D01*
X104983Y809372D01*
X103309Y806849D01*
X101021Y804865D01*
X98286Y803566D01*
X96795Y803307D01*
X96794Y803307D01*
X83918Y801067D01*
X83141Y800932D01*
X81601Y801274D01*
X80308Y802177D01*
X79457Y803504D01*
X79316Y804280D01*
X79316Y804280D01*
X76023Y822390D01*
X75528Y825112D01*
X75031Y830623D01*
X75031Y836157D01*
X75528Y841668D01*
X76023Y844390D01*
Y844390D01*
X79316Y862501D01*
X79457Y863276D01*
X80309Y864603D01*
X81602Y865506D01*
X83141Y865848D01*
X83918Y865713D01*
D02*
G37*
G36*
X178444Y820311D02*
X179737Y819408D01*
X180589Y818081D01*
X180730Y817305D01*
X180730D01*
X184023Y799195D01*
X184518Y796473D01*
X185015Y790962D01*
X185015Y785428D01*
X184518Y779917D01*
X184023Y777195D01*
X184023Y777195D01*
X180730Y759085D01*
X180589Y758309D01*
X179737Y756982D01*
X178444Y756079D01*
X176905Y755737D01*
X176128Y755872D01*
Y755872D01*
X163576Y758055D01*
X162003Y758329D01*
X159121Y759702D01*
X156714Y761800D01*
X154961Y764468D01*
X154475Y765988D01*
Y765988D01*
X153610Y768700D01*
X152305Y774241D01*
X151437Y779867D01*
X151009Y785544D01*
X151024Y791236D01*
X151482Y796911D01*
X152381Y802532D01*
X153715Y808066D01*
X154595Y810773D01*
X154595Y810773D01*
X155063Y812213D01*
X156736Y814737D01*
X159024Y816720D01*
X161760Y818019D01*
X163251Y818278D01*
X163251D01*
X176128Y820518D01*
X176905Y820653D01*
X178444Y820311D01*
D02*
G37*
G36*
X58444D02*
X59737Y819408D01*
X60589Y818081D01*
X60730Y817305D01*
X60730D01*
X64023Y799195D01*
X64518Y796473D01*
X65015Y790962D01*
X65015Y785428D01*
X64518Y779917D01*
X64023Y777195D01*
X64023Y777195D01*
X60730Y759085D01*
X60589Y758309D01*
X59737Y756982D01*
X58444Y756079D01*
X56905Y755737D01*
X56128Y755872D01*
Y755872D01*
X43576Y758055D01*
X42003Y758329D01*
X39121Y759702D01*
X36714Y761800D01*
X34961Y764468D01*
X34475Y765988D01*
Y765988D01*
X33609Y768700D01*
X32305Y774241D01*
X31437Y779867D01*
X31009Y785544D01*
X31024Y791236D01*
X31482Y796911D01*
X32381Y802532D01*
X33715Y808066D01*
X34595Y810773D01*
X34595Y810773D01*
X35063Y812213D01*
X36736Y814737D01*
X39024Y816720D01*
X41760Y818019D01*
X43251Y818278D01*
X43251D01*
X56128Y820518D01*
X56905Y820653D01*
X58444Y820311D01*
D02*
G37*
G36*
X203918Y775713D02*
X203918Y775713D01*
X216470Y773530D01*
X218043Y773256D01*
X220925Y771883D01*
X223331Y769786D01*
X225085Y767118D01*
X225570Y765597D01*
Y765597D01*
X226436Y762886D01*
X227740Y757344D01*
X228609Y751718D01*
X229037Y746041D01*
X229022Y740349D01*
X228563Y734675D01*
X227665Y729053D01*
X226331Y723519D01*
X225451Y720812D01*
X225451Y720812D01*
X224982Y719372D01*
X223309Y716849D01*
X221021Y714865D01*
X218286Y713566D01*
X216794Y713307D01*
X216794Y713307D01*
X203918Y711067D01*
X203141Y710932D01*
X201602Y711274D01*
X200308Y712177D01*
X199457Y713504D01*
X199316Y714280D01*
X199316Y714280D01*
X196023Y732390D01*
X195528Y735112D01*
X195031Y740623D01*
X195031Y746157D01*
X195528Y751668D01*
X196023Y754390D01*
Y754390D01*
X199316Y772501D01*
X199457Y773276D01*
X200308Y774603D01*
X201602Y775506D01*
X203141Y775848D01*
X203918Y775713D01*
D02*
G37*
G36*
X83918D02*
X83918Y775713D01*
X96470Y773530D01*
X98043Y773256D01*
X100925Y771883D01*
X103331Y769786D01*
X105085Y767118D01*
X105570Y765597D01*
Y765597D01*
X106436Y762886D01*
X107740Y757344D01*
X108609Y751718D01*
X109037Y746041D01*
X109022Y740349D01*
X108563Y734675D01*
X107665Y729053D01*
X106331Y723519D01*
X105451Y720812D01*
X105451Y720812D01*
X104983Y719372D01*
X103309Y716849D01*
X101021Y714865D01*
X98286Y713566D01*
X96795Y713307D01*
X96794Y713307D01*
X83918Y711067D01*
X83141Y710932D01*
X81601Y711274D01*
X80308Y712177D01*
X79457Y713504D01*
X79316Y714280D01*
X79316Y714280D01*
X76023Y732390D01*
X75528Y735112D01*
X75031Y740623D01*
X75031Y746157D01*
X75528Y751668D01*
X76023Y754390D01*
Y754390D01*
X79316Y772501D01*
X79457Y773276D01*
X80309Y774603D01*
X81602Y775506D01*
X83141Y775848D01*
X83918Y775713D01*
D02*
G37*
G36*
X178437Y730116D02*
X179730Y729213D01*
X180581Y727886D01*
X180722Y727110D01*
X180722D01*
X184015Y709000D01*
X184510Y706278D01*
X185007Y700767D01*
X185007Y695233D01*
X184510Y689722D01*
X184015Y687000D01*
X184015Y687000D01*
X180722Y668890D01*
X180581Y668114D01*
X179729Y666787D01*
X178437Y665884D01*
X176897Y665542D01*
X176120Y665677D01*
Y665677D01*
X163568Y667860D01*
X161995Y668134D01*
X159113Y669507D01*
X156707Y671605D01*
X154953Y674273D01*
X154468Y675793D01*
Y675793D01*
X153602Y678505D01*
X152298Y684046D01*
X151429Y689672D01*
X151001Y695349D01*
X151016Y701041D01*
X151475Y706716D01*
X152373Y712337D01*
X153707Y717871D01*
X154587Y720578D01*
X154587Y720578D01*
X155056Y722018D01*
X156729Y724542D01*
X159017Y726525D01*
X161752Y727824D01*
X163244Y728083D01*
X163244D01*
X176120Y730323D01*
X176897Y730458D01*
X178437Y730116D01*
D02*
G37*
G36*
X58437D02*
X59730Y729213D01*
X60581Y727886D01*
X60722Y727110D01*
X60722D01*
X64015Y709000D01*
X64510Y706278D01*
X65007Y700767D01*
X65007Y695233D01*
X64510Y689722D01*
X64015Y687000D01*
X64015Y687000D01*
X60722Y668890D01*
X60581Y668114D01*
X59729Y666787D01*
X58436Y665884D01*
X56897Y665542D01*
X56120Y665677D01*
Y665677D01*
X43568Y667860D01*
X41995Y668134D01*
X39113Y669507D01*
X36707Y671605D01*
X34953Y674273D01*
X34468Y675793D01*
Y675793D01*
X33602Y678505D01*
X32298Y684046D01*
X31429Y689672D01*
X31001Y695349D01*
X31016Y701041D01*
X31474Y706716D01*
X32373Y712337D01*
X33707Y717871D01*
X34587Y720578D01*
X34587Y720578D01*
X35056Y722018D01*
X36729Y724542D01*
X39017Y726525D01*
X41752Y727824D01*
X43244Y728083D01*
X43244D01*
X56120Y730323D01*
X56897Y730458D01*
X58437Y730116D01*
D02*
G37*
G36*
X203910Y685518D02*
X203910Y685518D01*
X216462Y683335D01*
X218035Y683061D01*
X220917Y681688D01*
X223324Y679590D01*
X225077Y676923D01*
X225563Y675402D01*
Y675402D01*
X226429Y672691D01*
X227733Y667149D01*
X228601Y661523D01*
X229030Y655846D01*
X229014Y650154D01*
X228556Y644479D01*
X227657Y638858D01*
X226323Y633324D01*
X225443Y630617D01*
X225443Y630617D01*
X224975Y629177D01*
X223302Y626653D01*
X221014Y624670D01*
X218279Y623371D01*
X216787Y623112D01*
X216787Y623112D01*
X203910Y620872D01*
X203133Y620737D01*
X201594Y621079D01*
X200301Y621982D01*
X199449Y623309D01*
X199308Y624085D01*
X199308Y624085D01*
X196015Y642195D01*
X195520Y644917D01*
X195023Y650428D01*
X195023Y655962D01*
X195520Y661473D01*
X196015Y664195D01*
Y664195D01*
X199308Y682305D01*
X199449Y683081D01*
X200301Y684408D01*
X201594Y685311D01*
X203133Y685653D01*
X203910Y685518D01*
D02*
G37*
G36*
X83910D02*
X83910Y685518D01*
X96462Y683335D01*
X98035Y683061D01*
X100917Y681688D01*
X103324Y679590D01*
X105077Y676923D01*
X105563Y675402D01*
Y675402D01*
X106429Y672691D01*
X107733Y667149D01*
X108602Y661523D01*
X109030Y655846D01*
X109014Y650154D01*
X108556Y644479D01*
X107657Y638858D01*
X106323Y633324D01*
X105443Y630617D01*
X105443Y630617D01*
X104975Y629177D01*
X103302Y626653D01*
X101014Y624670D01*
X98279Y623371D01*
X96787Y623112D01*
X96787Y623112D01*
X83910Y620872D01*
X83133Y620737D01*
X81594Y621079D01*
X80301Y621982D01*
X79449Y623309D01*
X79308Y624085D01*
X79308Y624085D01*
X76015Y642195D01*
X75520Y644917D01*
X75023Y650428D01*
X75023Y655962D01*
X75520Y661473D01*
X76015Y664195D01*
Y664195D01*
X79308Y682305D01*
X79449Y683081D01*
X80301Y684408D01*
X81594Y685311D01*
X83133Y685653D01*
X83910Y685518D01*
D02*
G37*
G36*
X178437Y640116D02*
X179730Y639213D01*
X180581Y637886D01*
X180722Y637110D01*
X180722D01*
X184015Y619000D01*
X184510Y616278D01*
X185007Y610767D01*
X185007Y605233D01*
X184510Y599722D01*
X184015Y597000D01*
X184015Y597000D01*
X180722Y578890D01*
X180581Y578114D01*
X179729Y576787D01*
X178437Y575884D01*
X176897Y575542D01*
X176120Y575677D01*
Y575677D01*
X163568Y577860D01*
X161995Y578134D01*
X159113Y579507D01*
X156707Y581605D01*
X154953Y584273D01*
X154468Y585793D01*
Y585793D01*
X153602Y588505D01*
X152298Y594046D01*
X151429Y599672D01*
X151001Y605349D01*
X151016Y611041D01*
X151475Y616716D01*
X152373Y622337D01*
X153707Y627871D01*
X154587Y630578D01*
X154587Y630578D01*
X155056Y632018D01*
X156729Y634542D01*
X159017Y636525D01*
X161752Y637824D01*
X163244Y638083D01*
X163244D01*
X176120Y640323D01*
X176897Y640458D01*
X178437Y640116D01*
D02*
G37*
G36*
X58437D02*
X59730Y639213D01*
X60581Y637886D01*
X60722Y637110D01*
X60722D01*
X64015Y619000D01*
X64510Y616278D01*
X65007Y610767D01*
X65007Y605233D01*
X64510Y599722D01*
X64015Y597000D01*
X64015Y597000D01*
X60722Y578890D01*
X60581Y578114D01*
X59729Y576787D01*
X58436Y575884D01*
X56897Y575542D01*
X56120Y575677D01*
Y575677D01*
X43568Y577860D01*
X41995Y578134D01*
X39113Y579507D01*
X36707Y581605D01*
X34953Y584273D01*
X34468Y585793D01*
Y585793D01*
X33602Y588505D01*
X32298Y594046D01*
X31429Y599672D01*
X31001Y605349D01*
X31016Y611041D01*
X31474Y616716D01*
X32373Y622337D01*
X33707Y627871D01*
X34587Y630578D01*
X34587Y630578D01*
X35056Y632018D01*
X36729Y634542D01*
X39017Y636525D01*
X41752Y637824D01*
X43244Y638083D01*
X43244D01*
X56120Y640323D01*
X56897Y640458D01*
X58437Y640116D01*
D02*
G37*
G36*
X203910Y595518D02*
X203910Y595518D01*
X216462Y593335D01*
X218035Y593061D01*
X220917Y591688D01*
X223324Y589590D01*
X225077Y586922D01*
X225563Y585402D01*
Y585402D01*
X226429Y582691D01*
X227733Y577149D01*
X228601Y571523D01*
X229030Y565846D01*
X229014Y560154D01*
X228556Y554479D01*
X227657Y548858D01*
X226323Y543324D01*
X225443Y540617D01*
X225443Y540617D01*
X224975Y539177D01*
X223302Y536653D01*
X221014Y534670D01*
X218279Y533371D01*
X216787Y533112D01*
X216787Y533112D01*
X203910Y530872D01*
X203133Y530737D01*
X201594Y531079D01*
X200301Y531982D01*
X199449Y533309D01*
X199308Y534085D01*
X199308Y534085D01*
X196015Y552195D01*
X195520Y554917D01*
X195023Y560428D01*
X195023Y565962D01*
X195520Y571473D01*
X196015Y574195D01*
Y574195D01*
X199308Y592305D01*
X199449Y593081D01*
X200301Y594408D01*
X201594Y595311D01*
X203133Y595653D01*
X203910Y595518D01*
D02*
G37*
G36*
X83910D02*
X83910Y595518D01*
X96462Y593335D01*
X98035Y593061D01*
X100917Y591688D01*
X103324Y589590D01*
X105077Y586922D01*
X105563Y585402D01*
Y585402D01*
X106429Y582691D01*
X107733Y577149D01*
X108602Y571523D01*
X109030Y565846D01*
X109014Y560154D01*
X108556Y554479D01*
X107657Y548858D01*
X106323Y543324D01*
X105443Y540617D01*
X105443Y540617D01*
X104975Y539177D01*
X103302Y536653D01*
X101014Y534670D01*
X98279Y533371D01*
X96787Y533112D01*
X96787Y533112D01*
X83910Y530872D01*
X83133Y530737D01*
X81594Y531079D01*
X80301Y531982D01*
X79449Y533309D01*
X79308Y534085D01*
X79308Y534085D01*
X76015Y552195D01*
X75520Y554917D01*
X75023Y560428D01*
X75023Y565962D01*
X75520Y571473D01*
X76015Y574195D01*
Y574195D01*
X79308Y592305D01*
X79449Y593081D01*
X80301Y594408D01*
X81594Y595311D01*
X83133Y595653D01*
X83910Y595518D01*
D02*
G37*
G36*
X178429Y550116D02*
X179722Y549213D01*
X180574Y547886D01*
X180715Y547110D01*
X180715D01*
X184008Y529000D01*
X184503Y526278D01*
X185000Y520767D01*
X185000Y515233D01*
X184503Y509722D01*
X184008Y507000D01*
X184008Y507000D01*
X180715Y488890D01*
X180574Y488114D01*
X179722Y486787D01*
X178429Y485884D01*
X176889Y485542D01*
X176113Y485677D01*
Y485677D01*
X163560Y487860D01*
X161988Y488134D01*
X159106Y489507D01*
X156699Y491605D01*
X154946Y494273D01*
X154460Y495793D01*
Y495793D01*
X153594Y498505D01*
X152290Y504046D01*
X151421Y509672D01*
X150993Y515349D01*
X151009Y521041D01*
X151467Y526716D01*
X152366Y532337D01*
X153699Y537871D01*
X154580Y540578D01*
X154580Y540578D01*
X155048Y542018D01*
X156721Y544542D01*
X159009Y546525D01*
X161744Y547824D01*
X163236Y548083D01*
X163236D01*
X176113Y550323D01*
X176890Y550458D01*
X178429Y550116D01*
D02*
G37*
G36*
X58429D02*
X59722Y549213D01*
X60574Y547886D01*
X60715Y547110D01*
X60715D01*
X64008Y529000D01*
X64503Y526278D01*
X64999Y520767D01*
X64999Y515233D01*
X64503Y509722D01*
X64008Y507000D01*
X64008Y507000D01*
X60715Y488890D01*
X60574Y488114D01*
X59722Y486787D01*
X58429Y485884D01*
X56890Y485542D01*
X56113Y485677D01*
Y485677D01*
X43560Y487860D01*
X41988Y488134D01*
X39106Y489507D01*
X36699Y491605D01*
X34946Y494273D01*
X34460Y495793D01*
Y495793D01*
X33594Y498505D01*
X32290Y504046D01*
X31421Y509672D01*
X30993Y515349D01*
X31009Y521041D01*
X31467Y526716D01*
X32366Y532337D01*
X33699Y537871D01*
X34580Y540578D01*
X34580Y540578D01*
X35048Y542018D01*
X36721Y544542D01*
X39009Y546525D01*
X41744Y547824D01*
X43236Y548083D01*
X43236D01*
X56113Y550323D01*
X56890Y550458D01*
X58429Y550116D01*
D02*
G37*
G36*
X203903Y505518D02*
X203902Y505518D01*
X216455Y503335D01*
X218027Y503061D01*
X220910Y501688D01*
X223316Y499590D01*
X225070Y496922D01*
X225555Y495402D01*
Y495402D01*
X226421Y492691D01*
X227725Y487149D01*
X228594Y481523D01*
X229022Y475846D01*
X229007Y470154D01*
X228548Y464479D01*
X227650Y458858D01*
X226316Y453324D01*
X225436Y450617D01*
X225436Y450617D01*
X224967Y449177D01*
X223294Y446653D01*
X221006Y444670D01*
X218271Y443371D01*
X216779Y443112D01*
X216779Y443112D01*
X203902Y440872D01*
X203126Y440737D01*
X201586Y441079D01*
X200293Y441982D01*
X199442Y443309D01*
X199300Y444085D01*
X199300Y444085D01*
X196008Y462195D01*
X195513Y464917D01*
X195016Y470428D01*
X195016Y475962D01*
X195513Y481473D01*
X196008Y484195D01*
Y484195D01*
X199300Y502305D01*
X199442Y503081D01*
X200293Y504408D01*
X201586Y505311D01*
X203126Y505653D01*
X203903Y505518D01*
D02*
G37*
G36*
X83903D02*
X83903Y505518D01*
X96455Y503335D01*
X98027Y503061D01*
X100910Y501688D01*
X103316Y499590D01*
X105070Y496922D01*
X105555Y495402D01*
Y495402D01*
X106421Y492691D01*
X107725Y487149D01*
X108594Y481523D01*
X109022Y475846D01*
X109007Y470154D01*
X108548Y464479D01*
X107650Y458858D01*
X106316Y453324D01*
X105436Y450617D01*
X105436Y450617D01*
X104967Y449177D01*
X103294Y446653D01*
X101006Y444670D01*
X98271Y443371D01*
X96779Y443112D01*
X96779Y443112D01*
X83903Y440872D01*
X83126Y440737D01*
X81586Y441079D01*
X80293Y441982D01*
X79441Y443309D01*
X79300Y444085D01*
X79300Y444085D01*
X76008Y462195D01*
X75513Y464917D01*
X75016Y470428D01*
X75016Y475962D01*
X75513Y481473D01*
X76008Y484195D01*
Y484195D01*
X79300Y502305D01*
X79441Y503081D01*
X80293Y504408D01*
X81586Y505311D01*
X83126Y505653D01*
X83903Y505518D01*
D02*
G37*
G36*
X178429Y460116D02*
X179722Y459213D01*
X180574Y457886D01*
X180715Y457110D01*
X180715D01*
X184008Y439000D01*
X184503Y436278D01*
X185000Y430767D01*
X185000Y425233D01*
X184503Y419722D01*
X184008Y417000D01*
X184008Y417000D01*
X180715Y398890D01*
X180574Y398114D01*
X179722Y396787D01*
X178429Y395884D01*
X176889Y395542D01*
X176113Y395677D01*
Y395677D01*
X163560Y397860D01*
X161988Y398134D01*
X159106Y399507D01*
X156699Y401605D01*
X154946Y404273D01*
X154460Y405793D01*
Y405793D01*
X153594Y408505D01*
X152290Y414046D01*
X151421Y419672D01*
X150993Y425349D01*
X151009Y431041D01*
X151467Y436716D01*
X152366Y442337D01*
X153699Y447871D01*
X154580Y450578D01*
X154580Y450578D01*
X155048Y452018D01*
X156721Y454542D01*
X159009Y456525D01*
X161744Y457824D01*
X163236Y458083D01*
X163236D01*
X176113Y460323D01*
X176890Y460458D01*
X178429Y460116D01*
D02*
G37*
G36*
X58429D02*
X59722Y459213D01*
X60574Y457886D01*
X60715Y457110D01*
X60715D01*
X64008Y439000D01*
X64503Y436278D01*
X64999Y430767D01*
X64999Y425233D01*
X64503Y419722D01*
X64008Y417000D01*
X64008Y417000D01*
X60715Y398890D01*
X60574Y398114D01*
X59722Y396787D01*
X58429Y395884D01*
X56890Y395542D01*
X56113Y395677D01*
Y395677D01*
X43560Y397860D01*
X41988Y398134D01*
X39106Y399507D01*
X36699Y401605D01*
X34946Y404273D01*
X34460Y405793D01*
Y405793D01*
X33594Y408505D01*
X32290Y414046D01*
X31421Y419672D01*
X30993Y425349D01*
X31009Y431041D01*
X31467Y436716D01*
X32366Y442337D01*
X33699Y447871D01*
X34580Y450578D01*
X34580Y450578D01*
X35048Y452018D01*
X36721Y454542D01*
X39009Y456525D01*
X41744Y457824D01*
X43236Y458083D01*
X43236D01*
X56113Y460323D01*
X56890Y460458D01*
X58429Y460116D01*
D02*
G37*
G36*
X203903Y415518D02*
X203902Y415518D01*
X216455Y413335D01*
X218027Y413061D01*
X220910Y411688D01*
X223316Y409590D01*
X225070Y406922D01*
X225555Y405402D01*
Y405402D01*
X226421Y402691D01*
X227725Y397149D01*
X228594Y391523D01*
X229022Y385846D01*
X229007Y380154D01*
X228548Y374479D01*
X227650Y368858D01*
X226316Y363324D01*
X225436Y360617D01*
X225436Y360617D01*
X224967Y359177D01*
X223294Y356653D01*
X221006Y354670D01*
X218271Y353371D01*
X216779Y353112D01*
X216779Y353112D01*
X203902Y350872D01*
X203126Y350737D01*
X201586Y351079D01*
X200293Y351982D01*
X199442Y353309D01*
X199300Y354085D01*
X199300Y354085D01*
X196008Y372195D01*
X195513Y374917D01*
X195016Y380428D01*
X195016Y385962D01*
X195513Y391473D01*
X196008Y394195D01*
Y394195D01*
X199300Y412305D01*
X199442Y413081D01*
X200293Y414408D01*
X201586Y415311D01*
X203126Y415653D01*
X203903Y415518D01*
D02*
G37*
G36*
X83903D02*
X83903Y415518D01*
X96455Y413335D01*
X98027Y413061D01*
X100910Y411688D01*
X103316Y409590D01*
X105070Y406922D01*
X105555Y405402D01*
Y405402D01*
X106421Y402691D01*
X107725Y397149D01*
X108594Y391523D01*
X109022Y385846D01*
X109007Y380154D01*
X108548Y374479D01*
X107650Y368858D01*
X106316Y363324D01*
X105436Y360617D01*
X105436Y360617D01*
X104967Y359177D01*
X103294Y356653D01*
X101006Y354670D01*
X98271Y353371D01*
X96779Y353112D01*
X96779Y353112D01*
X83903Y350872D01*
X83126Y350737D01*
X81586Y351079D01*
X80293Y351982D01*
X79441Y353309D01*
X79300Y354085D01*
X79300Y354085D01*
X76008Y372195D01*
X75513Y374917D01*
X75016Y380428D01*
X75016Y385962D01*
X75513Y391473D01*
X76008Y394195D01*
Y394195D01*
X79300Y412305D01*
X79441Y413081D01*
X80293Y414408D01*
X81586Y415311D01*
X83126Y415653D01*
X83903Y415518D01*
D02*
G37*
G36*
X178421Y369921D02*
X179714Y369018D01*
X180566Y367691D01*
X180707Y366915D01*
X180707D01*
X184000Y348805D01*
X184495Y346083D01*
X184992Y340572D01*
X184992Y335038D01*
X184495Y329527D01*
X184000Y326805D01*
X184000Y326805D01*
X180707Y308695D01*
X180566Y307919D01*
X179714Y306592D01*
X178421Y305689D01*
X176882Y305347D01*
X176105Y305482D01*
Y305482D01*
X163553Y307665D01*
X161980Y307939D01*
X159098Y309312D01*
X156691Y311410D01*
X154938Y314077D01*
X154452Y315598D01*
Y315598D01*
X153587Y318310D01*
X152283Y323851D01*
X151414Y329477D01*
X150986Y335154D01*
X151001Y340846D01*
X151459Y346521D01*
X152358Y352142D01*
X153692Y357676D01*
X154572Y360383D01*
X154572Y360383D01*
X155040Y361823D01*
X156714Y364347D01*
X159001Y366330D01*
X161737Y367629D01*
X163228Y367888D01*
X163228D01*
X176105Y370128D01*
X176882Y370263D01*
X178421Y369921D01*
D02*
G37*
G36*
X58421D02*
X59714Y369018D01*
X60566Y367691D01*
X60707Y366915D01*
X60707D01*
X64000Y348805D01*
X64495Y346083D01*
X64992Y340572D01*
X64992Y335038D01*
X64495Y329527D01*
X64000Y326805D01*
X64000Y326805D01*
X60707Y308695D01*
X60566Y307919D01*
X59714Y306592D01*
X58421Y305689D01*
X56882Y305347D01*
X56105Y305482D01*
Y305482D01*
X43553Y307665D01*
X41980Y307939D01*
X39098Y309312D01*
X36691Y311410D01*
X34938Y314077D01*
X34453Y315598D01*
Y315598D01*
X33587Y318310D01*
X32283Y323851D01*
X31414Y329477D01*
X30986Y335154D01*
X31001Y340846D01*
X31459Y346521D01*
X32358Y352142D01*
X33692Y357676D01*
X34572Y360383D01*
X34572Y360383D01*
X35040Y361823D01*
X36714Y364347D01*
X39001Y366330D01*
X41737Y367629D01*
X43228Y367888D01*
X43229D01*
X56105Y370128D01*
X56882Y370263D01*
X58421Y369921D01*
D02*
G37*
G36*
X203895Y325323D02*
X203895Y325323D01*
X216447Y323140D01*
X218020Y322866D01*
X220902Y321493D01*
X223309Y319395D01*
X225062Y316728D01*
X225548Y315207D01*
Y315207D01*
X226413Y312495D01*
X227717Y306954D01*
X228586Y301328D01*
X229014Y295651D01*
X228999Y289959D01*
X228541Y284284D01*
X227642Y278663D01*
X226308Y273129D01*
X225428Y270422D01*
X225428Y270422D01*
X224960Y268982D01*
X223286Y266458D01*
X220999Y264475D01*
X218263Y263176D01*
X216772Y262917D01*
X216772Y262917D01*
X203895Y260677D01*
X203118Y260542D01*
X201579Y260884D01*
X200286Y261787D01*
X199434Y263114D01*
X199293Y263890D01*
X199293Y263890D01*
X196000Y282000D01*
X195505Y284722D01*
X195008Y290233D01*
X195008Y295767D01*
X195505Y301278D01*
X196000Y304000D01*
Y304000D01*
X199293Y322110D01*
X199434Y322886D01*
X200286Y324213D01*
X201579Y325116D01*
X203118Y325458D01*
X203895Y325323D01*
D02*
G37*
G36*
X83895D02*
X83895Y325323D01*
X96447Y323140D01*
X98020Y322866D01*
X100902Y321493D01*
X103309Y319395D01*
X105062Y316728D01*
X105548Y315207D01*
Y315207D01*
X106413Y312495D01*
X107718Y306954D01*
X108586Y301328D01*
X109014Y295651D01*
X108999Y289959D01*
X108541Y284284D01*
X107642Y278663D01*
X106308Y273129D01*
X105428Y270422D01*
X105428Y270422D01*
X104960Y268982D01*
X103287Y266458D01*
X100999Y264475D01*
X98263Y263176D01*
X96772Y262917D01*
X96772Y262917D01*
X83895Y260677D01*
X83118Y260542D01*
X81579Y260884D01*
X80286Y261787D01*
X79434Y263114D01*
X79293Y263890D01*
X79293Y263890D01*
X76000Y282000D01*
X75505Y284722D01*
X75008Y290233D01*
X75008Y295767D01*
X75505Y301278D01*
X76000Y304000D01*
Y304000D01*
X79293Y322110D01*
X79434Y322886D01*
X80286Y324213D01*
X81579Y325116D01*
X83118Y325458D01*
X83895Y325323D01*
D02*
G37*
G36*
X178421Y279921D02*
X179714Y279018D01*
X180566Y277691D01*
X180707Y276915D01*
X180707D01*
X184000Y258805D01*
X184495Y256083D01*
X184992Y250572D01*
X184992Y245038D01*
X184495Y239527D01*
X184000Y236805D01*
X184000Y236805D01*
X180707Y218695D01*
X180566Y217919D01*
X179714Y216592D01*
X178421Y215689D01*
X176882Y215347D01*
X176105Y215482D01*
Y215482D01*
X163553Y217665D01*
X161980Y217939D01*
X159098Y219312D01*
X156691Y221410D01*
X154938Y224077D01*
X154452Y225598D01*
Y225598D01*
X153587Y228310D01*
X152283Y233851D01*
X151414Y239477D01*
X150986Y245154D01*
X151001Y250846D01*
X151459Y256521D01*
X152358Y262142D01*
X153692Y267676D01*
X154572Y270383D01*
X154572Y270383D01*
X155040Y271823D01*
X156714Y274347D01*
X159001Y276330D01*
X161737Y277629D01*
X163228Y277888D01*
X163228D01*
X176105Y280128D01*
X176882Y280263D01*
X178421Y279921D01*
D02*
G37*
G36*
X58421D02*
X59714Y279018D01*
X60566Y277691D01*
X60707Y276915D01*
X60707D01*
X64000Y258805D01*
X64495Y256083D01*
X64992Y250572D01*
X64992Y245038D01*
X64495Y239527D01*
X64000Y236805D01*
X64000Y236805D01*
X60707Y218695D01*
X60566Y217919D01*
X59714Y216592D01*
X58421Y215689D01*
X56882Y215347D01*
X56105Y215482D01*
Y215482D01*
X43553Y217665D01*
X41980Y217939D01*
X39098Y219312D01*
X36691Y221410D01*
X34938Y224077D01*
X34453Y225598D01*
Y225598D01*
X33587Y228310D01*
X32283Y233851D01*
X31414Y239477D01*
X30986Y245154D01*
X31001Y250846D01*
X31459Y256521D01*
X32358Y262142D01*
X33692Y267676D01*
X34572Y270383D01*
X34572Y270383D01*
X35040Y271823D01*
X36714Y274347D01*
X39001Y276330D01*
X41737Y277629D01*
X43228Y277888D01*
X43229D01*
X56105Y280128D01*
X56882Y280263D01*
X58421Y279921D01*
D02*
G37*
G36*
X203895Y235323D02*
X203895Y235323D01*
X216447Y233140D01*
X218020Y232866D01*
X220902Y231493D01*
X223309Y229395D01*
X225062Y226728D01*
X225548Y225207D01*
Y225207D01*
X226413Y222495D01*
X227717Y216954D01*
X228586Y211328D01*
X229014Y205651D01*
X228999Y199959D01*
X228541Y194284D01*
X227642Y188663D01*
X226308Y183129D01*
X225428Y180422D01*
X225428Y180422D01*
X224960Y178982D01*
X223286Y176458D01*
X220999Y174475D01*
X218263Y173176D01*
X216772Y172917D01*
X216772Y172917D01*
X203895Y170677D01*
X203118Y170542D01*
X201579Y170884D01*
X200286Y171787D01*
X199434Y173114D01*
X199293Y173890D01*
X199293Y173890D01*
X196000Y192000D01*
X195505Y194722D01*
X195008Y200233D01*
X195008Y205767D01*
X195505Y211278D01*
X196000Y214000D01*
Y214000D01*
X199293Y232110D01*
X199434Y232886D01*
X200286Y234213D01*
X201579Y235116D01*
X203118Y235458D01*
X203895Y235323D01*
D02*
G37*
G36*
X83895D02*
X83895Y235323D01*
X96447Y233140D01*
X98020Y232866D01*
X100902Y231493D01*
X103309Y229395D01*
X105062Y226728D01*
X105548Y225207D01*
Y225207D01*
X106413Y222495D01*
X107718Y216954D01*
X108586Y211328D01*
X109014Y205651D01*
X108999Y199959D01*
X108541Y194284D01*
X107642Y188663D01*
X106308Y183129D01*
X105428Y180422D01*
X105428Y180422D01*
X104960Y178982D01*
X103287Y176458D01*
X100999Y174475D01*
X98263Y173176D01*
X96772Y172917D01*
X96772Y172917D01*
X83895Y170677D01*
X83118Y170542D01*
X81579Y170884D01*
X80286Y171787D01*
X79434Y173114D01*
X79293Y173890D01*
X79293Y173890D01*
X76000Y192000D01*
X75505Y194722D01*
X75008Y200233D01*
X75008Y205767D01*
X75505Y211278D01*
X76000Y214000D01*
Y214000D01*
X79293Y232110D01*
X79434Y232886D01*
X80286Y234213D01*
X81579Y235116D01*
X83118Y235458D01*
X83895Y235323D01*
D02*
G37*
G36*
X178271Y189180D02*
X179751Y188167D01*
X180715Y186654D01*
X180863Y185770D01*
X180863Y185770D01*
X182956Y173249D01*
X183260Y171732D01*
X184163Y168773D01*
X185444Y165957D01*
X187080Y163332D01*
X188023Y162105D01*
X188023Y162105D01*
X211846Y121846D01*
X168000Y98000D01*
X166769Y100705D01*
X164588Y106234D01*
X162696Y111868D01*
X161096Y117593D01*
X159795Y123392D01*
X158794Y129251D01*
X158096Y135153D01*
X157704Y141084D01*
X157662Y144056D01*
Y144056D01*
X155130Y178561D01*
X155032Y179897D01*
X155789Y182467D01*
X157403Y184606D01*
X159667Y186039D01*
X160979Y186311D01*
X160979Y186311D01*
X175634Y189350D01*
X176512Y189533D01*
X178271Y189180D01*
D02*
G37*
G36*
X58271D02*
X59751Y188167D01*
X60715Y186654D01*
X60863Y185770D01*
X60863Y185770D01*
X62956Y173249D01*
X63260Y171732D01*
X64163Y168773D01*
X65444Y165957D01*
X67080Y163332D01*
X68023Y162105D01*
X68023Y162105D01*
X91846Y121846D01*
X48000Y98000D01*
X46769Y100705D01*
X44588Y106234D01*
X42696Y111868D01*
X41096Y117593D01*
X39794Y123392D01*
X38794Y129251D01*
X38096Y135153D01*
X37704Y141084D01*
X37662Y144056D01*
Y144056D01*
X35130Y178561D01*
X35032Y179897D01*
X35789Y182467D01*
X37403Y184606D01*
X39667Y186039D01*
X40979Y186311D01*
X40979Y186311D01*
X55634Y189350D01*
X56512Y189533D01*
X58271Y189180D01*
D02*
G37*
D10*
X216270Y2090000D02*
D03*
X46270D02*
D03*
X50000Y20000D02*
D03*
X215000D02*
D03*
D11*
X171462Y1525716D02*
D03*
X208711Y1533299D02*
D03*
X171462Y1615716D02*
D03*
X208711Y1623299D02*
D03*
X171462Y1705716D02*
D03*
X208711Y1713299D02*
D03*
X171462Y1885716D02*
D03*
X208711Y1893299D02*
D03*
X171462Y1795716D02*
D03*
X208711Y1803299D02*
D03*
Y1353299D02*
D03*
X171462Y1345716D02*
D03*
X208711Y1443299D02*
D03*
X171462Y1435716D02*
D03*
X208711Y723299D02*
D03*
X171462Y715716D02*
D03*
X208711Y543299D02*
D03*
X171462Y535716D02*
D03*
X208711Y453299D02*
D03*
X171462Y445716D02*
D03*
X208711Y363299D02*
D03*
X171462Y355716D02*
D03*
X208711Y273299D02*
D03*
X171462Y265716D02*
D03*
X208711Y183299D02*
D03*
X171462Y175716D02*
D03*
X208711Y633299D02*
D03*
X171462Y625716D02*
D03*
X208711Y813299D02*
D03*
X171462Y805716D02*
D03*
X208711Y903299D02*
D03*
X171462Y895716D02*
D03*
X208711Y993299D02*
D03*
X171462Y985716D02*
D03*
X208711Y1263299D02*
D03*
X171462Y1255716D02*
D03*
X208711Y1173299D02*
D03*
X171462Y1165716D02*
D03*
X208711Y1083299D02*
D03*
X171462Y1075716D02*
D03*
X51462Y1525716D02*
D03*
X88711Y1533299D02*
D03*
X51462Y1615716D02*
D03*
X88711Y1623299D02*
D03*
X51462Y1705716D02*
D03*
X88711Y1713299D02*
D03*
X51462Y1885716D02*
D03*
X88711Y1893299D02*
D03*
X51462Y1795716D02*
D03*
X88711Y1803299D02*
D03*
Y1353299D02*
D03*
X51462Y1345716D02*
D03*
X88711Y1443299D02*
D03*
X51462Y1435716D02*
D03*
X88711Y723299D02*
D03*
X51462Y715716D02*
D03*
X88711Y543299D02*
D03*
X51462Y535716D02*
D03*
X88711Y453299D02*
D03*
X51462Y445716D02*
D03*
X88711Y363299D02*
D03*
X51462Y355716D02*
D03*
X88711Y273299D02*
D03*
X51462Y265716D02*
D03*
X88711Y183299D02*
D03*
X51462Y175716D02*
D03*
X88711Y633299D02*
D03*
X51462Y625716D02*
D03*
X88711Y813299D02*
D03*
X51462Y805716D02*
D03*
X88711Y903299D02*
D03*
X51462Y895716D02*
D03*
X88711Y993299D02*
D03*
X51462Y985716D02*
D03*
X88711Y1263299D02*
D03*
X51462Y1255716D02*
D03*
X88711Y1173299D02*
D03*
X51462Y1165716D02*
D03*
X88711Y1083299D02*
D03*
X51462Y1075716D02*
D03*
D12*
X208885Y1572686D02*
D03*
X171289Y1578299D02*
D03*
X208885Y1662686D02*
D03*
X171289Y1668299D02*
D03*
X208885Y1932686D02*
D03*
X171289Y1938299D02*
D03*
X208885Y1842686D02*
D03*
X171289Y1848299D02*
D03*
X208885Y1752686D02*
D03*
X171289Y1758299D02*
D03*
Y1308299D02*
D03*
X208885Y1302686D02*
D03*
X171289Y1398299D02*
D03*
X208885Y1392686D02*
D03*
X171289Y1488299D02*
D03*
X208885Y1482686D02*
D03*
X171289Y588299D02*
D03*
X208885Y582686D02*
D03*
X171289Y498299D02*
D03*
X208885Y492686D02*
D03*
X171289Y408299D02*
D03*
X208885Y402686D02*
D03*
X171289Y318299D02*
D03*
X208885Y312686D02*
D03*
X171289Y228299D02*
D03*
X208885Y222686D02*
D03*
X171289Y678299D02*
D03*
X208885Y672685D02*
D03*
X171289Y768299D02*
D03*
X208885Y762685D02*
D03*
X171289Y858299D02*
D03*
X208885Y852685D02*
D03*
X171289Y948299D02*
D03*
X208885Y942685D02*
D03*
X171289Y1038299D02*
D03*
X208885Y1032685D02*
D03*
X171289Y1218299D02*
D03*
X208885Y1212685D02*
D03*
X171289Y1128299D02*
D03*
X208885Y1122685D02*
D03*
X88885Y1572686D02*
D03*
X51289Y1578299D02*
D03*
X88885Y1662686D02*
D03*
X51289Y1668299D02*
D03*
X88885Y1932686D02*
D03*
X51289Y1938299D02*
D03*
X88885Y1842686D02*
D03*
X51289Y1848299D02*
D03*
X88885Y1752686D02*
D03*
X51289Y1758299D02*
D03*
Y1308299D02*
D03*
X88885Y1302686D02*
D03*
X51289Y1398299D02*
D03*
X88885Y1392686D02*
D03*
X51289Y1488299D02*
D03*
X88885Y1482686D02*
D03*
X51289Y588299D02*
D03*
X88885Y582686D02*
D03*
X51289Y498299D02*
D03*
X88885Y492686D02*
D03*
X51289Y408299D02*
D03*
X88885Y402686D02*
D03*
X51289Y318299D02*
D03*
X88885Y312686D02*
D03*
X51289Y228299D02*
D03*
X88885Y222686D02*
D03*
X51289Y678299D02*
D03*
X88885Y672685D02*
D03*
X51289Y768299D02*
D03*
X88885Y762685D02*
D03*
X51289Y858299D02*
D03*
X88885Y852685D02*
D03*
X51289Y948299D02*
D03*
X88885Y942685D02*
D03*
X51289Y1038299D02*
D03*
X88885Y1032685D02*
D03*
X51289Y1218299D02*
D03*
X88885Y1212685D02*
D03*
X51289Y1128299D02*
D03*
X88885Y1122685D02*
D03*
D13*
X240000Y2060000D02*
D03*
X140000D02*
D03*
Y50000D02*
D03*
X240000D02*
D03*
X120000Y2060000D02*
D03*
X20000D02*
D03*
Y50000D02*
D03*
X120000D02*
D03*
D14*
X190000Y2005000D02*
D03*
X190000Y110000D02*
D03*
X70000Y2005000D02*
D03*
X70000Y110000D02*
D03*
M02*
