M48
;Layer_Color=9474304
;FILE_FORMAT=4:4
METRIC,LZ
;TYPE=PLATED
T1F00S00C3.8000
;TYPE=NON_PLATED
T2F00S00C0.7620
T3F00S00C1.0000
T4F00S00C1.6000
%
T01
X0007Y0011
X0019
X0019Y02005
X0007
T02
X0004Y00055
X0005
X0006
X0007
X0008
X0009
X001
X0016
X0017
X0018
X0019
X002
X0021
X0022
Y02055
X0021
X002
X0019
X0018
X0017
X0016
X001
X0009
X0008
X0007
X0006
X0005
X0004
T03
X00025Y0002
X0024
X0024127Y0209
X0002127
T04
X0008Y0002
X00185
X0018627Y0209
X0007627
M30
