G04*
G04 #@! TF.GenerationSoftware,Altium Limited,Altium Designer,18.1.7 (191)*
G04*
G04 Layer_Color=16711935*
%FSLAX44Y44*%
%MOMM*%
G71*
G01*
G75*
%ADD21C,0.2032*%
%ADD22C,0.2960*%
%ADD23C,1.7272*%
%ADD24C,5.2032*%
D21*
X186270Y2090000D02*
D03*
X76270D02*
D03*
X80000Y20000D02*
D03*
X185000D02*
D03*
X130000Y1055000D02*
D03*
X250000Y1055000D02*
D03*
X160000Y55000D02*
D03*
X220000D02*
D03*
X160000Y2055000D02*
D03*
X220000D02*
D03*
X210000D02*
D03*
X200000D02*
D03*
X190000D02*
D03*
X180000D02*
D03*
X170000D02*
D03*
Y55000D02*
D03*
X180000D02*
D03*
X190000D02*
D03*
X200000D02*
D03*
X210000D02*
D03*
X10000Y1055000D02*
D03*
X130000Y1055000D02*
D03*
X40000Y55000D02*
D03*
X100000D02*
D03*
X40000Y2055000D02*
D03*
X100000D02*
D03*
X90000D02*
D03*
X80000D02*
D03*
X70000D02*
D03*
X60000D02*
D03*
X50000D02*
D03*
Y55000D02*
D03*
X60000D02*
D03*
X70000D02*
D03*
X80000D02*
D03*
X90000D02*
D03*
D22*
X241270Y2090000D02*
D03*
X21270D02*
D03*
X25000Y20000D02*
D03*
X240000D02*
D03*
D23*
X240000Y2060000D02*
D03*
X140000D02*
D03*
Y50000D02*
D03*
X240000D02*
D03*
X120000Y2060000D02*
D03*
X20000D02*
D03*
Y50000D02*
D03*
X120000D02*
D03*
D24*
X190000Y2005000D02*
D03*
X190000Y110000D02*
D03*
X70000Y2005000D02*
D03*
X70000Y110000D02*
D03*
M02*
