G04*
G04 #@! TF.GenerationSoftware,Altium Limited,Altium Designer,18.1.7 (191)*
G04*
G04 Layer_Color=65535*
%FSLAX44Y44*%
%MOMM*%
G71*
G01*
G75*
%ADD15C,0.2540*%
%ADD16C,0.2000*%
D15*
X1270Y2070000D02*
X260000Y2070000D01*
X0Y40000D02*
X260000D01*
X110157Y27617D02*
X105078D01*
X107618D01*
Y14922D01*
X105078Y12383D01*
X102539D01*
X100000Y14922D01*
X115235Y27617D02*
Y12383D01*
X125392D01*
X140627Y25078D02*
X138088Y27617D01*
X133009D01*
X130470Y25078D01*
Y14922D01*
X133009Y12383D01*
X138088D01*
X140627Y14922D01*
X155862Y27617D02*
X150784D01*
X153323D01*
Y14922D01*
X150784Y12383D01*
X148244D01*
X145705Y14922D01*
X160940Y27617D02*
Y12383D01*
X171097D01*
X186332Y25078D02*
X183793Y27617D01*
X178715D01*
X176175Y25078D01*
Y14922D01*
X178715Y12383D01*
X183793D01*
X186332Y14922D01*
X201567Y27617D02*
X196489D01*
X199028D01*
Y14922D01*
X196489Y12383D01*
X193950D01*
X191410Y14922D01*
X206646Y27617D02*
Y12383D01*
X216802D01*
X232037Y25078D02*
X229498Y27617D01*
X224420D01*
X221881Y25078D01*
Y14922D01*
X224420Y12383D01*
X229498D01*
X232037Y14922D01*
X247272Y27617D02*
X242194D01*
X244733D01*
Y14922D01*
X242194Y12383D01*
X239655D01*
X237116Y14922D01*
X252351Y27617D02*
Y12383D01*
X262507D01*
X277743Y25078D02*
X275203Y27617D01*
X270125D01*
X267586Y25078D01*
Y14922D01*
X270125Y12383D01*
X275203D01*
X277743Y14922D01*
D16*
X202713Y1515487D02*
X217485Y1518092D01*
X197070Y1547493D02*
X211842Y1550098D01*
X183017Y1592986D02*
X168245Y1595591D01*
X177374Y1560980D02*
X162601Y1563584D01*
X202713Y1605487D02*
X217485Y1608092D01*
X197070Y1637493D02*
X211842Y1640098D01*
X183017Y1682986D02*
X168245Y1685591D01*
X177374Y1650980D02*
X162601Y1653584D01*
X202713Y1695487D02*
X217485Y1698092D01*
X197070Y1727493D02*
X211842Y1730098D01*
X183017Y1952986D02*
X168245Y1955591D01*
X177374Y1920980D02*
X162601Y1923584D01*
X202713Y1875487D02*
X217485Y1878092D01*
X197070Y1907493D02*
X211842Y1910098D01*
X183017Y1862986D02*
X168245Y1865591D01*
X177374Y1830980D02*
X162601Y1833584D01*
X202713Y1785487D02*
X217485Y1788092D01*
X197070Y1817493D02*
X211842Y1820098D01*
X183017Y1772986D02*
X168245Y1775591D01*
X177374Y1740980D02*
X162601Y1743584D01*
X177374Y1290980D02*
X162601Y1293584D01*
X183017Y1322986D02*
X168245Y1325591D01*
X197070Y1367493D02*
X211842Y1370098D01*
X202713Y1335487D02*
X217485Y1338092D01*
X177374Y1380980D02*
X162601Y1383584D01*
X183017Y1412986D02*
X168245Y1415591D01*
X197070Y1457493D02*
X211842Y1460098D01*
X202713Y1425487D02*
X217485Y1428092D01*
X177374Y1470980D02*
X162601Y1473584D01*
X183017Y1502986D02*
X168245Y1505591D01*
X197070Y737493D02*
X211842Y740098D01*
X202713Y705487D02*
X217485Y708092D01*
X177374Y570980D02*
X162601Y573584D01*
X183017Y602986D02*
X168245Y605591D01*
X197070Y557493D02*
X211842Y560098D01*
X202713Y525487D02*
X217485Y528092D01*
X177374Y480980D02*
X162601Y483584D01*
X183017Y512986D02*
X168245Y515591D01*
X197070Y467494D02*
X211842Y470098D01*
X202713Y435487D02*
X217485Y438092D01*
X177374Y390980D02*
X162601Y393584D01*
X183017Y422986D02*
X168245Y425591D01*
X197070Y377494D02*
X211842Y380098D01*
X202713Y345487D02*
X217485Y348092D01*
X177374Y300980D02*
X162601Y303584D01*
X183017Y332986D02*
X168245Y335591D01*
X197070Y287493D02*
X211842Y290098D01*
X202713Y255487D02*
X217485Y258092D01*
X177374Y210980D02*
X162601Y213584D01*
X183017Y242986D02*
X168245Y245591D01*
X197070Y197493D02*
X211842Y200098D01*
X202713Y165487D02*
X217485Y168092D01*
X197070Y647493D02*
X211842Y650098D01*
X202713Y615487D02*
X217485Y618092D01*
X177374Y660980D02*
X162601Y663584D01*
X183017Y692986D02*
X168245Y695591D01*
X177374Y750980D02*
X162601Y753584D01*
X183017Y782986D02*
X168245Y785591D01*
X197070Y827494D02*
X211842Y830098D01*
X202713Y795487D02*
X217485Y798092D01*
X177374Y840980D02*
X162601Y843584D01*
X183017Y872986D02*
X168245Y875591D01*
X197070Y917494D02*
X211842Y920098D01*
X202713Y885487D02*
X217485Y888092D01*
X177374Y930980D02*
X162601Y933584D01*
X183017Y962986D02*
X168245Y965591D01*
X197070Y1007494D02*
X211842Y1010098D01*
X202713Y975487D02*
X217485Y978092D01*
X177374Y1020980D02*
X162601Y1023584D01*
X183017Y1052986D02*
X168245Y1055591D01*
X197070Y1277494D02*
X211842Y1280098D01*
X202713Y1245487D02*
X217485Y1248092D01*
X177374Y1200980D02*
X162601Y1203584D01*
X183017Y1232986D02*
X168245Y1235591D01*
X197070Y1187494D02*
X211842Y1190098D01*
X202713Y1155487D02*
X217485Y1158092D01*
X177374Y1110980D02*
X162601Y1113584D01*
X183017Y1142986D02*
X168245Y1145591D01*
X197070Y1097494D02*
X211842Y1100098D01*
X202713Y1065487D02*
X217485Y1068092D01*
X82713Y1515487D02*
X97485Y1518092D01*
X77070Y1547493D02*
X91842Y1550098D01*
X63017Y1592986D02*
X48245Y1595591D01*
X57373Y1560980D02*
X42601Y1563584D01*
X82713Y1605487D02*
X97485Y1608092D01*
X77070Y1637493D02*
X91842Y1640098D01*
X63017Y1682986D02*
X48245Y1685591D01*
X57373Y1650980D02*
X42601Y1653584D01*
X82713Y1695487D02*
X97485Y1698092D01*
X77070Y1727493D02*
X91842Y1730098D01*
X63017Y1952986D02*
X48245Y1955591D01*
X57373Y1920980D02*
X42601Y1923584D01*
X82713Y1875487D02*
X97485Y1878092D01*
X77070Y1907493D02*
X91842Y1910098D01*
X63017Y1862986D02*
X48245Y1865591D01*
X57373Y1830980D02*
X42601Y1833584D01*
X82713Y1785487D02*
X97485Y1788092D01*
X77070Y1817493D02*
X91842Y1820098D01*
X63017Y1772986D02*
X48245Y1775591D01*
X57373Y1740980D02*
X42601Y1743584D01*
X57373Y1290980D02*
X42601Y1293584D01*
X63017Y1322986D02*
X48245Y1325591D01*
X77070Y1367493D02*
X91842Y1370098D01*
X82713Y1335487D02*
X97485Y1338092D01*
X57373Y1380980D02*
X42601Y1383584D01*
X63017Y1412986D02*
X48245Y1415591D01*
X77070Y1457493D02*
X91842Y1460098D01*
X82713Y1425487D02*
X97485Y1428092D01*
X57373Y1470980D02*
X42601Y1473584D01*
X63017Y1502986D02*
X48245Y1505591D01*
X77070Y737493D02*
X91842Y740098D01*
X82713Y705487D02*
X97485Y708092D01*
X57373Y570980D02*
X42601Y573584D01*
X63017Y602986D02*
X48245Y605591D01*
X77070Y557493D02*
X91842Y560098D01*
X82713Y525487D02*
X97485Y528092D01*
X57373Y480980D02*
X42601Y483584D01*
X63017Y512986D02*
X48245Y515591D01*
X77070Y467494D02*
X91842Y470098D01*
X82713Y435487D02*
X97485Y438092D01*
X57373Y390980D02*
X42601Y393584D01*
X63017Y422986D02*
X48245Y425591D01*
X77070Y377494D02*
X91842Y380098D01*
X82713Y345487D02*
X97485Y348092D01*
X57373Y300980D02*
X42601Y303584D01*
X63017Y332986D02*
X48245Y335591D01*
X77070Y287493D02*
X91842Y290098D01*
X82713Y255487D02*
X97485Y258092D01*
X57374Y210980D02*
X42601Y213584D01*
X63017Y242986D02*
X48245Y245591D01*
X77070Y197493D02*
X91842Y200098D01*
X82713Y165487D02*
X97485Y168092D01*
X77070Y647493D02*
X91842Y650098D01*
X82713Y615487D02*
X97485Y618092D01*
X57373Y660980D02*
X42601Y663584D01*
X63017Y692986D02*
X48245Y695591D01*
X57373Y750980D02*
X42601Y753584D01*
X63017Y782986D02*
X48245Y785591D01*
X77070Y827494D02*
X91842Y830098D01*
X82713Y795487D02*
X97485Y798092D01*
X57373Y840980D02*
X42601Y843584D01*
X63017Y872986D02*
X48245Y875591D01*
X77070Y917494D02*
X91842Y920098D01*
X82713Y885487D02*
X97485Y888092D01*
X57373Y930980D02*
X42601Y933584D01*
X63017Y962986D02*
X48245Y965591D01*
X77070Y1007494D02*
X91842Y1010098D01*
X82713Y975487D02*
X97485Y978092D01*
X57373Y1020980D02*
X42601Y1023584D01*
X63017Y1052986D02*
X48245Y1055591D01*
X77070Y1277494D02*
X91842Y1280098D01*
X82713Y1245487D02*
X97485Y1248092D01*
X57373Y1200980D02*
X42601Y1203584D01*
X63017Y1232986D02*
X48245Y1235591D01*
X77070Y1187494D02*
X91842Y1190098D01*
X82713Y1155487D02*
X97485Y1158092D01*
X57373Y1110980D02*
X42601Y1113584D01*
X63017Y1142986D02*
X48245Y1145591D01*
X77070Y1097494D02*
X91842Y1100098D01*
X82713Y1065487D02*
X97485Y1068092D01*
M02*
