G04*
G04 #@! TF.GenerationSoftware,Altium Limited,Altium Designer,18.1.7 (191)*
G04*
G04 Layer_Color=8421504*
%FSLAX44Y44*%
%MOMM*%
G71*
G01*
G75*
G04:AMPARAMS|DCode=11|XSize=2.2mm|YSize=1.8mm|CornerRadius=0mm|HoleSize=0mm|Usage=FLASHONLY|Rotation=10.000|XOffset=0mm|YOffset=0mm|HoleType=Round|Shape=Rectangle|*
%AMROTATEDRECTD11*
4,1,4,-0.9270,-1.0773,-1.2396,0.6953,0.9270,1.0773,1.2396,-0.6953,-0.9270,-1.0773,0.0*
%
%ADD11ROTATEDRECTD11*%

G04:AMPARAMS|DCode=12|XSize=2.2mm|YSize=1.8mm|CornerRadius=0mm|HoleSize=0mm|Usage=FLASHONLY|Rotation=170.000|XOffset=0mm|YOffset=0mm|HoleType=Round|Shape=Rectangle|*
%AMROTATEDRECTD12*
4,1,4,1.2396,0.6953,0.9270,-1.0773,-1.2396,-0.6953,-0.9270,1.0773,1.2396,0.6953,0.0*
%
%ADD12ROTATEDRECTD12*%

%ADD17C,2.0000*%
D11*
X1131462Y1525716D02*
D03*
X1168711Y1533299D02*
D03*
X1131462Y1615716D02*
D03*
X1168711Y1623299D02*
D03*
X1131462Y1705716D02*
D03*
X1168711Y1713299D02*
D03*
X1131462Y1885716D02*
D03*
X1168711Y1893299D02*
D03*
X1131462Y1795716D02*
D03*
X1168711Y1803299D02*
D03*
Y1353299D02*
D03*
X1131462Y1345716D02*
D03*
X1168711Y1443299D02*
D03*
X1131462Y1435716D02*
D03*
X1168711Y723299D02*
D03*
X1131462Y715716D02*
D03*
X1168711Y543299D02*
D03*
X1131462Y535716D02*
D03*
X1168711Y453299D02*
D03*
X1131462Y445716D02*
D03*
X1168711Y363299D02*
D03*
X1131462Y355716D02*
D03*
X1168711Y273299D02*
D03*
X1131462Y265716D02*
D03*
X1168711Y183299D02*
D03*
X1131462Y175716D02*
D03*
X1168711Y633299D02*
D03*
X1131462Y625716D02*
D03*
X1168711Y813299D02*
D03*
X1131462Y805716D02*
D03*
X1168711Y903299D02*
D03*
X1131462Y895716D02*
D03*
X1168711Y993299D02*
D03*
X1131462Y985716D02*
D03*
X1168711Y1263299D02*
D03*
X1131462Y1255716D02*
D03*
X1168711Y1173299D02*
D03*
X1131462Y1165716D02*
D03*
X1168711Y1083299D02*
D03*
X1131462Y1075716D02*
D03*
X1011462Y1525716D02*
D03*
X1048711Y1533299D02*
D03*
X1011462Y1615716D02*
D03*
X1048711Y1623299D02*
D03*
X1011462Y1705716D02*
D03*
X1048711Y1713299D02*
D03*
X1011462Y1885716D02*
D03*
X1048711Y1893299D02*
D03*
X1011462Y1795716D02*
D03*
X1048711Y1803299D02*
D03*
Y1353299D02*
D03*
X1011462Y1345716D02*
D03*
X1048711Y1443299D02*
D03*
X1011462Y1435716D02*
D03*
X1048711Y723299D02*
D03*
X1011462Y715716D02*
D03*
X1048711Y543299D02*
D03*
X1011462Y535716D02*
D03*
X1048711Y453299D02*
D03*
X1011462Y445716D02*
D03*
X1048711Y363299D02*
D03*
X1011462Y355716D02*
D03*
X1048711Y273299D02*
D03*
X1011462Y265716D02*
D03*
X1048711Y183299D02*
D03*
X1011462Y175716D02*
D03*
X1048711Y633299D02*
D03*
X1011462Y625716D02*
D03*
X1048711Y813299D02*
D03*
X1011462Y805716D02*
D03*
X1048711Y903299D02*
D03*
X1011462Y895716D02*
D03*
X1048711Y993299D02*
D03*
X1011462Y985716D02*
D03*
X1048711Y1263299D02*
D03*
X1011462Y1255716D02*
D03*
X1048711Y1173299D02*
D03*
X1011462Y1165716D02*
D03*
X1048711Y1083299D02*
D03*
X1011462Y1075716D02*
D03*
X891462Y1525716D02*
D03*
X928711Y1533299D02*
D03*
X891462Y1615716D02*
D03*
X928711Y1623299D02*
D03*
X891462Y1705716D02*
D03*
X928711Y1713299D02*
D03*
X891462Y1885716D02*
D03*
X928711Y1893299D02*
D03*
X891462Y1795716D02*
D03*
X928711Y1803299D02*
D03*
Y1353299D02*
D03*
X891462Y1345716D02*
D03*
X928711Y1443299D02*
D03*
X891462Y1435716D02*
D03*
X928711Y723299D02*
D03*
X891462Y715716D02*
D03*
X928711Y543299D02*
D03*
X891462Y535716D02*
D03*
X928711Y453299D02*
D03*
X891462Y445716D02*
D03*
X928711Y363299D02*
D03*
X891462Y355716D02*
D03*
X928711Y273299D02*
D03*
X891462Y265716D02*
D03*
X928711Y183299D02*
D03*
X891462Y175716D02*
D03*
X928711Y633299D02*
D03*
X891462Y625716D02*
D03*
X928711Y813299D02*
D03*
X891462Y805716D02*
D03*
X928711Y903299D02*
D03*
X891462Y895716D02*
D03*
X928711Y993299D02*
D03*
X891462Y985716D02*
D03*
X928711Y1263299D02*
D03*
X891462Y1255716D02*
D03*
X928711Y1173299D02*
D03*
X891462Y1165716D02*
D03*
X928711Y1083299D02*
D03*
X891462Y1075716D02*
D03*
X771462Y1525716D02*
D03*
X808711Y1533299D02*
D03*
X771462Y1615716D02*
D03*
X808711Y1623299D02*
D03*
X771462Y1705716D02*
D03*
X808711Y1713299D02*
D03*
X771462Y1885716D02*
D03*
X808711Y1893299D02*
D03*
X771462Y1795716D02*
D03*
X808711Y1803299D02*
D03*
Y1353299D02*
D03*
X771462Y1345716D02*
D03*
X808711Y1443299D02*
D03*
X771462Y1435716D02*
D03*
X808711Y723299D02*
D03*
X771462Y715716D02*
D03*
X808711Y543299D02*
D03*
X771462Y535716D02*
D03*
X808711Y453299D02*
D03*
X771462Y445716D02*
D03*
X808711Y363299D02*
D03*
X771462Y355716D02*
D03*
X808711Y273299D02*
D03*
X771462Y265716D02*
D03*
X808711Y183299D02*
D03*
X771462Y175716D02*
D03*
X808711Y633299D02*
D03*
X771462Y625716D02*
D03*
X808711Y813299D02*
D03*
X771462Y805716D02*
D03*
X808711Y903299D02*
D03*
X771462Y895716D02*
D03*
X808711Y993299D02*
D03*
X771462Y985716D02*
D03*
X808711Y1263299D02*
D03*
X771462Y1255716D02*
D03*
X808711Y1173299D02*
D03*
X771462Y1165716D02*
D03*
X808711Y1083299D02*
D03*
X771462Y1075716D02*
D03*
X651462Y1525716D02*
D03*
X688711Y1533299D02*
D03*
X651462Y1615716D02*
D03*
X688711Y1623299D02*
D03*
X651462Y1705716D02*
D03*
X688711Y1713299D02*
D03*
X651462Y1885716D02*
D03*
X688711Y1893299D02*
D03*
X651462Y1795716D02*
D03*
X688711Y1803299D02*
D03*
Y1353299D02*
D03*
X651462Y1345716D02*
D03*
X688711Y1443299D02*
D03*
X651462Y1435716D02*
D03*
X688711Y723299D02*
D03*
X651462Y715716D02*
D03*
X688711Y543299D02*
D03*
X651462Y535716D02*
D03*
X688711Y453299D02*
D03*
X651462Y445716D02*
D03*
X688711Y363299D02*
D03*
X651462Y355716D02*
D03*
X688711Y273299D02*
D03*
X651462Y265716D02*
D03*
X688711Y183299D02*
D03*
X651462Y175716D02*
D03*
X688711Y633299D02*
D03*
X651462Y625716D02*
D03*
X688711Y813299D02*
D03*
X651462Y805716D02*
D03*
X688711Y903299D02*
D03*
X651462Y895716D02*
D03*
X688711Y993299D02*
D03*
X651462Y985716D02*
D03*
X688711Y1263299D02*
D03*
X651462Y1255716D02*
D03*
X688711Y1173299D02*
D03*
X651462Y1165716D02*
D03*
X688711Y1083299D02*
D03*
X651462Y1075716D02*
D03*
X531462Y1525716D02*
D03*
X568711Y1533299D02*
D03*
X531462Y1615716D02*
D03*
X568711Y1623299D02*
D03*
X531462Y1705716D02*
D03*
X568711Y1713299D02*
D03*
X531462Y1885716D02*
D03*
X568711Y1893299D02*
D03*
X531462Y1795716D02*
D03*
X568711Y1803299D02*
D03*
Y1353299D02*
D03*
X531462Y1345716D02*
D03*
X568711Y1443299D02*
D03*
X531462Y1435716D02*
D03*
X568711Y723299D02*
D03*
X531462Y715716D02*
D03*
X568711Y543299D02*
D03*
X531462Y535716D02*
D03*
X568711Y453299D02*
D03*
X531462Y445716D02*
D03*
X568711Y363299D02*
D03*
X531462Y355716D02*
D03*
X568711Y273299D02*
D03*
X531462Y265716D02*
D03*
X568711Y183299D02*
D03*
X531462Y175716D02*
D03*
X568711Y633299D02*
D03*
X531462Y625716D02*
D03*
X568711Y813299D02*
D03*
X531462Y805716D02*
D03*
X568711Y903299D02*
D03*
X531462Y895716D02*
D03*
X568711Y993299D02*
D03*
X531462Y985716D02*
D03*
X568711Y1263299D02*
D03*
X531462Y1255716D02*
D03*
X568711Y1173299D02*
D03*
X531462Y1165716D02*
D03*
X568711Y1083299D02*
D03*
X531462Y1075716D02*
D03*
X411462Y1525716D02*
D03*
X448711Y1533299D02*
D03*
X411462Y1615716D02*
D03*
X448711Y1623299D02*
D03*
X411462Y1705716D02*
D03*
X448711Y1713299D02*
D03*
X411462Y1885716D02*
D03*
X448711Y1893299D02*
D03*
X411462Y1795716D02*
D03*
X448711Y1803299D02*
D03*
Y1353299D02*
D03*
X411462Y1345716D02*
D03*
X448711Y1443299D02*
D03*
X411462Y1435716D02*
D03*
X448711Y723299D02*
D03*
X411462Y715716D02*
D03*
X448711Y543299D02*
D03*
X411462Y535716D02*
D03*
X448711Y453299D02*
D03*
X411462Y445716D02*
D03*
X448711Y363299D02*
D03*
X411462Y355716D02*
D03*
X448711Y273299D02*
D03*
X411462Y265716D02*
D03*
X448711Y183299D02*
D03*
X411462Y175716D02*
D03*
X448711Y633299D02*
D03*
X411462Y625716D02*
D03*
X448711Y813299D02*
D03*
X411462Y805716D02*
D03*
X448711Y903299D02*
D03*
X411462Y895716D02*
D03*
X448711Y993299D02*
D03*
X411462Y985716D02*
D03*
X448711Y1263299D02*
D03*
X411462Y1255716D02*
D03*
X448711Y1173299D02*
D03*
X411462Y1165716D02*
D03*
X448711Y1083299D02*
D03*
X411462Y1075716D02*
D03*
X291462Y1525716D02*
D03*
X328712Y1533299D02*
D03*
X291462Y1615716D02*
D03*
X328712Y1623299D02*
D03*
X291462Y1705716D02*
D03*
X328712Y1713299D02*
D03*
X291462Y1885716D02*
D03*
X328712Y1893299D02*
D03*
X291462Y1795716D02*
D03*
X328712Y1803299D02*
D03*
Y1353299D02*
D03*
X291462Y1345716D02*
D03*
X328712Y1443299D02*
D03*
X291462Y1435716D02*
D03*
X328712Y723299D02*
D03*
X291462Y715716D02*
D03*
X328712Y543299D02*
D03*
X291462Y535716D02*
D03*
X328712Y453299D02*
D03*
X291462Y445716D02*
D03*
X328712Y363299D02*
D03*
X291462Y355716D02*
D03*
X328712Y273299D02*
D03*
X291462Y265716D02*
D03*
X328712Y183299D02*
D03*
X291462Y175716D02*
D03*
X328712Y633299D02*
D03*
X291462Y625716D02*
D03*
X328712Y813299D02*
D03*
X291462Y805716D02*
D03*
X328712Y903299D02*
D03*
X291462Y895716D02*
D03*
X328712Y993299D02*
D03*
X291462Y985716D02*
D03*
X328712Y1263299D02*
D03*
X291462Y1255716D02*
D03*
X328712Y1173299D02*
D03*
X291462Y1165716D02*
D03*
X328712Y1083299D02*
D03*
X291462Y1075716D02*
D03*
X171462Y1525716D02*
D03*
X208711Y1533299D02*
D03*
X171462Y1615716D02*
D03*
X208711Y1623299D02*
D03*
X171462Y1705716D02*
D03*
X208711Y1713299D02*
D03*
X171462Y1885716D02*
D03*
X208711Y1893299D02*
D03*
X171462Y1795716D02*
D03*
X208711Y1803299D02*
D03*
Y1353299D02*
D03*
X171462Y1345716D02*
D03*
X208711Y1443299D02*
D03*
X171462Y1435716D02*
D03*
X208711Y723299D02*
D03*
X171462Y715716D02*
D03*
X208711Y543299D02*
D03*
X171462Y535716D02*
D03*
X208711Y453299D02*
D03*
X171462Y445716D02*
D03*
X208711Y363299D02*
D03*
X171462Y355716D02*
D03*
X208711Y273299D02*
D03*
X171462Y265716D02*
D03*
X208711Y183299D02*
D03*
X171462Y175716D02*
D03*
X208711Y633299D02*
D03*
X171462Y625716D02*
D03*
X208711Y813299D02*
D03*
X171462Y805716D02*
D03*
X208711Y903299D02*
D03*
X171462Y895716D02*
D03*
X208711Y993299D02*
D03*
X171462Y985716D02*
D03*
X208711Y1263299D02*
D03*
X171462Y1255716D02*
D03*
X208711Y1173299D02*
D03*
X171462Y1165716D02*
D03*
X208711Y1083299D02*
D03*
X171462Y1075716D02*
D03*
X51462Y1525716D02*
D03*
X88712Y1533299D02*
D03*
X51462Y1615716D02*
D03*
X88712Y1623299D02*
D03*
X51462Y1705716D02*
D03*
X88712Y1713299D02*
D03*
X51462Y1885716D02*
D03*
X88712Y1893299D02*
D03*
X51462Y1795716D02*
D03*
X88712Y1803299D02*
D03*
Y1353299D02*
D03*
X51462Y1345716D02*
D03*
X88712Y1443299D02*
D03*
X51462Y1435716D02*
D03*
X88712Y723299D02*
D03*
X51462Y715716D02*
D03*
X88712Y543299D02*
D03*
X51462Y535716D02*
D03*
X88712Y453299D02*
D03*
X51462Y445716D02*
D03*
X88712Y363299D02*
D03*
X51462Y355716D02*
D03*
X88712Y273299D02*
D03*
X51462Y265716D02*
D03*
X88712Y183299D02*
D03*
X51462Y175716D02*
D03*
X88712Y633299D02*
D03*
X51462Y625716D02*
D03*
X88712Y813299D02*
D03*
X51462Y805716D02*
D03*
X88712Y903299D02*
D03*
X51462Y895716D02*
D03*
X88712Y993299D02*
D03*
X51462Y985716D02*
D03*
X88712Y1263299D02*
D03*
X51462Y1255716D02*
D03*
X88712Y1173299D02*
D03*
X51462Y1165716D02*
D03*
X88712Y1083299D02*
D03*
X51462Y1075716D02*
D03*
D12*
X1168885Y1572686D02*
D03*
X1131289Y1578299D02*
D03*
X1168885Y1662686D02*
D03*
X1131289Y1668299D02*
D03*
X1168885Y1932686D02*
D03*
X1131289Y1938299D02*
D03*
X1168885Y1842686D02*
D03*
X1131289Y1848299D02*
D03*
X1168885Y1752686D02*
D03*
X1131289Y1758299D02*
D03*
Y1308299D02*
D03*
X1168885Y1302686D02*
D03*
X1131289Y1398299D02*
D03*
X1168885Y1392686D02*
D03*
X1131289Y1488299D02*
D03*
X1168885Y1482686D02*
D03*
X1131289Y588299D02*
D03*
X1168885Y582686D02*
D03*
X1131289Y498299D02*
D03*
X1168885Y492686D02*
D03*
X1131289Y408299D02*
D03*
X1168885Y402686D02*
D03*
X1131289Y318299D02*
D03*
X1168885Y312686D02*
D03*
X1131289Y228299D02*
D03*
X1168885Y222686D02*
D03*
X1131289Y678299D02*
D03*
X1168885Y672685D02*
D03*
X1131289Y768299D02*
D03*
X1168885Y762685D02*
D03*
X1131289Y858299D02*
D03*
X1168885Y852685D02*
D03*
X1131289Y948299D02*
D03*
X1168885Y942685D02*
D03*
X1131289Y1038299D02*
D03*
X1168885Y1032685D02*
D03*
X1131289Y1218299D02*
D03*
X1168885Y1212685D02*
D03*
X1131289Y1128299D02*
D03*
X1168885Y1122685D02*
D03*
X1048885Y1572686D02*
D03*
X1011289Y1578299D02*
D03*
X1048885Y1662686D02*
D03*
X1011289Y1668299D02*
D03*
X1048885Y1932686D02*
D03*
X1011289Y1938299D02*
D03*
X1048885Y1842686D02*
D03*
X1011289Y1848299D02*
D03*
X1048885Y1752686D02*
D03*
X1011289Y1758299D02*
D03*
Y1308299D02*
D03*
X1048885Y1302686D02*
D03*
X1011289Y1398299D02*
D03*
X1048885Y1392686D02*
D03*
X1011289Y1488299D02*
D03*
X1048885Y1482686D02*
D03*
X1011289Y588299D02*
D03*
X1048885Y582686D02*
D03*
X1011289Y498299D02*
D03*
X1048885Y492686D02*
D03*
X1011289Y408299D02*
D03*
X1048885Y402686D02*
D03*
X1011289Y318299D02*
D03*
X1048885Y312686D02*
D03*
X1011289Y228299D02*
D03*
X1048885Y222686D02*
D03*
X1011289Y678299D02*
D03*
X1048885Y672685D02*
D03*
X1011289Y768299D02*
D03*
X1048885Y762685D02*
D03*
X1011289Y858299D02*
D03*
X1048885Y852685D02*
D03*
X1011289Y948299D02*
D03*
X1048885Y942685D02*
D03*
X1011289Y1038299D02*
D03*
X1048885Y1032685D02*
D03*
X1011289Y1218299D02*
D03*
X1048885Y1212685D02*
D03*
X1011289Y1128299D02*
D03*
X1048885Y1122685D02*
D03*
X928885Y1572686D02*
D03*
X891289Y1578299D02*
D03*
X928885Y1662686D02*
D03*
X891289Y1668299D02*
D03*
X928885Y1932686D02*
D03*
X891289Y1938299D02*
D03*
X928885Y1842686D02*
D03*
X891289Y1848299D02*
D03*
X928885Y1752686D02*
D03*
X891289Y1758299D02*
D03*
Y1308299D02*
D03*
X928885Y1302686D02*
D03*
X891289Y1398299D02*
D03*
X928885Y1392686D02*
D03*
X891289Y1488299D02*
D03*
X928885Y1482686D02*
D03*
X891289Y588299D02*
D03*
X928885Y582686D02*
D03*
X891289Y498299D02*
D03*
X928885Y492686D02*
D03*
X891289Y408299D02*
D03*
X928885Y402686D02*
D03*
X891289Y318299D02*
D03*
X928885Y312686D02*
D03*
X891289Y228299D02*
D03*
X928885Y222686D02*
D03*
X891289Y678299D02*
D03*
X928885Y672685D02*
D03*
X891289Y768299D02*
D03*
X928885Y762685D02*
D03*
X891289Y858299D02*
D03*
X928885Y852685D02*
D03*
X891289Y948299D02*
D03*
X928885Y942685D02*
D03*
X891289Y1038299D02*
D03*
X928885Y1032685D02*
D03*
X891289Y1218299D02*
D03*
X928885Y1212685D02*
D03*
X891289Y1128299D02*
D03*
X928885Y1122685D02*
D03*
X808885Y1572686D02*
D03*
X771289Y1578299D02*
D03*
X808885Y1662686D02*
D03*
X771289Y1668299D02*
D03*
X808885Y1932686D02*
D03*
X771289Y1938299D02*
D03*
X808885Y1842686D02*
D03*
X771289Y1848299D02*
D03*
X808885Y1752686D02*
D03*
X771289Y1758299D02*
D03*
Y1308299D02*
D03*
X808885Y1302686D02*
D03*
X771289Y1398299D02*
D03*
X808885Y1392686D02*
D03*
X771289Y1488299D02*
D03*
X808885Y1482686D02*
D03*
X771289Y588299D02*
D03*
X808885Y582686D02*
D03*
X771289Y498299D02*
D03*
X808885Y492686D02*
D03*
X771289Y408299D02*
D03*
X808885Y402686D02*
D03*
X771289Y318299D02*
D03*
X808885Y312686D02*
D03*
X771289Y228299D02*
D03*
X808885Y222686D02*
D03*
X771289Y678299D02*
D03*
X808885Y672685D02*
D03*
X771289Y768299D02*
D03*
X808885Y762685D02*
D03*
X771289Y858299D02*
D03*
X808885Y852685D02*
D03*
X771289Y948299D02*
D03*
X808885Y942685D02*
D03*
X771289Y1038299D02*
D03*
X808885Y1032685D02*
D03*
X771289Y1218299D02*
D03*
X808885Y1212685D02*
D03*
X771289Y1128299D02*
D03*
X808885Y1122685D02*
D03*
X688885Y1572686D02*
D03*
X651289Y1578299D02*
D03*
X688885Y1662686D02*
D03*
X651289Y1668299D02*
D03*
X688885Y1932686D02*
D03*
X651289Y1938299D02*
D03*
X688885Y1842686D02*
D03*
X651289Y1848299D02*
D03*
X688885Y1752686D02*
D03*
X651289Y1758299D02*
D03*
Y1308299D02*
D03*
X688885Y1302686D02*
D03*
X651289Y1398299D02*
D03*
X688885Y1392686D02*
D03*
X651289Y1488299D02*
D03*
X688885Y1482686D02*
D03*
X651289Y588299D02*
D03*
X688885Y582686D02*
D03*
X651289Y498299D02*
D03*
X688885Y492686D02*
D03*
X651289Y408299D02*
D03*
X688885Y402686D02*
D03*
X651289Y318299D02*
D03*
X688885Y312686D02*
D03*
X651289Y228299D02*
D03*
X688885Y222686D02*
D03*
X651289Y678299D02*
D03*
X688885Y672685D02*
D03*
X651289Y768299D02*
D03*
X688885Y762685D02*
D03*
X651289Y858299D02*
D03*
X688885Y852685D02*
D03*
X651289Y948299D02*
D03*
X688885Y942685D02*
D03*
X651289Y1038299D02*
D03*
X688885Y1032685D02*
D03*
X651289Y1218299D02*
D03*
X688885Y1212685D02*
D03*
X651289Y1128299D02*
D03*
X688885Y1122685D02*
D03*
X568885Y1572686D02*
D03*
X531289Y1578299D02*
D03*
X568885Y1662686D02*
D03*
X531289Y1668299D02*
D03*
X568885Y1932686D02*
D03*
X531289Y1938299D02*
D03*
X568885Y1842686D02*
D03*
X531289Y1848299D02*
D03*
X568885Y1752686D02*
D03*
X531289Y1758299D02*
D03*
Y1308299D02*
D03*
X568885Y1302686D02*
D03*
X531289Y1398299D02*
D03*
X568885Y1392686D02*
D03*
X531289Y1488299D02*
D03*
X568885Y1482686D02*
D03*
X531289Y588299D02*
D03*
X568885Y582686D02*
D03*
X531289Y498299D02*
D03*
X568885Y492686D02*
D03*
X531289Y408299D02*
D03*
X568885Y402686D02*
D03*
X531289Y318299D02*
D03*
X568885Y312686D02*
D03*
X531289Y228299D02*
D03*
X568885Y222686D02*
D03*
X531289Y678299D02*
D03*
X568885Y672685D02*
D03*
X531289Y768299D02*
D03*
X568885Y762685D02*
D03*
X531289Y858299D02*
D03*
X568885Y852685D02*
D03*
X531289Y948299D02*
D03*
X568885Y942685D02*
D03*
X531289Y1038299D02*
D03*
X568885Y1032685D02*
D03*
X531289Y1218299D02*
D03*
X568885Y1212685D02*
D03*
X531289Y1128299D02*
D03*
X568885Y1122685D02*
D03*
X448885Y1572686D02*
D03*
X411289Y1578299D02*
D03*
X448885Y1662686D02*
D03*
X411289Y1668299D02*
D03*
X448885Y1932686D02*
D03*
X411289Y1938299D02*
D03*
X448885Y1842686D02*
D03*
X411289Y1848299D02*
D03*
X448885Y1752686D02*
D03*
X411289Y1758299D02*
D03*
Y1308299D02*
D03*
X448885Y1302686D02*
D03*
X411289Y1398299D02*
D03*
X448885Y1392686D02*
D03*
X411289Y1488299D02*
D03*
X448885Y1482686D02*
D03*
X411289Y588299D02*
D03*
X448885Y582686D02*
D03*
X411289Y498299D02*
D03*
X448885Y492686D02*
D03*
X411289Y408299D02*
D03*
X448885Y402686D02*
D03*
X411289Y318299D02*
D03*
X448885Y312686D02*
D03*
X411289Y228299D02*
D03*
X448885Y222686D02*
D03*
X411289Y678299D02*
D03*
X448885Y672685D02*
D03*
X411289Y768299D02*
D03*
X448885Y762685D02*
D03*
X411289Y858299D02*
D03*
X448885Y852685D02*
D03*
X411289Y948299D02*
D03*
X448885Y942685D02*
D03*
X411289Y1038299D02*
D03*
X448885Y1032685D02*
D03*
X411289Y1218299D02*
D03*
X448885Y1212685D02*
D03*
X411289Y1128299D02*
D03*
X448885Y1122685D02*
D03*
X328885Y1572686D02*
D03*
X291289Y1578299D02*
D03*
X328885Y1662686D02*
D03*
X291289Y1668299D02*
D03*
X328885Y1932686D02*
D03*
X291289Y1938299D02*
D03*
X328885Y1842686D02*
D03*
X291289Y1848299D02*
D03*
X328885Y1752686D02*
D03*
X291289Y1758299D02*
D03*
Y1308299D02*
D03*
X328885Y1302686D02*
D03*
X291289Y1398299D02*
D03*
X328885Y1392686D02*
D03*
X291289Y1488299D02*
D03*
X328885Y1482686D02*
D03*
X291289Y588299D02*
D03*
X328885Y582686D02*
D03*
X291289Y498299D02*
D03*
X328885Y492686D02*
D03*
X291289Y408299D02*
D03*
X328885Y402686D02*
D03*
X291289Y318299D02*
D03*
X328885Y312686D02*
D03*
X291289Y228299D02*
D03*
X328885Y222686D02*
D03*
X291289Y678299D02*
D03*
X328885Y672685D02*
D03*
X291289Y768299D02*
D03*
X328885Y762685D02*
D03*
X291289Y858299D02*
D03*
X328885Y852685D02*
D03*
X291289Y948299D02*
D03*
X328885Y942685D02*
D03*
X291289Y1038299D02*
D03*
X328885Y1032685D02*
D03*
X291289Y1218299D02*
D03*
X328885Y1212685D02*
D03*
X291289Y1128299D02*
D03*
X328885Y1122685D02*
D03*
X208885Y1572686D02*
D03*
X171289Y1578299D02*
D03*
X208885Y1662686D02*
D03*
X171289Y1668299D02*
D03*
X208885Y1932686D02*
D03*
X171289Y1938299D02*
D03*
X208885Y1842686D02*
D03*
X171289Y1848299D02*
D03*
X208885Y1752686D02*
D03*
X171289Y1758299D02*
D03*
Y1308299D02*
D03*
X208885Y1302686D02*
D03*
X171289Y1398299D02*
D03*
X208885Y1392686D02*
D03*
X171289Y1488299D02*
D03*
X208885Y1482686D02*
D03*
X171289Y588299D02*
D03*
X208885Y582686D02*
D03*
X171289Y498299D02*
D03*
X208885Y492686D02*
D03*
X171289Y408299D02*
D03*
X208885Y402686D02*
D03*
X171289Y318299D02*
D03*
X208885Y312686D02*
D03*
X171289Y228299D02*
D03*
X208885Y222686D02*
D03*
X171289Y678299D02*
D03*
X208885Y672685D02*
D03*
X171289Y768299D02*
D03*
X208885Y762685D02*
D03*
X171289Y858299D02*
D03*
X208885Y852685D02*
D03*
X171289Y948299D02*
D03*
X208885Y942685D02*
D03*
X171289Y1038299D02*
D03*
X208885Y1032685D02*
D03*
X171289Y1218299D02*
D03*
X208885Y1212685D02*
D03*
X171289Y1128299D02*
D03*
X208885Y1122685D02*
D03*
X88885Y1572686D02*
D03*
X51289Y1578299D02*
D03*
X88885Y1662686D02*
D03*
X51289Y1668299D02*
D03*
X88885Y1932686D02*
D03*
X51289Y1938299D02*
D03*
X88885Y1842686D02*
D03*
X51289Y1848299D02*
D03*
X88885Y1752686D02*
D03*
X51289Y1758299D02*
D03*
Y1308299D02*
D03*
X88885Y1302686D02*
D03*
X51289Y1398299D02*
D03*
X88885Y1392686D02*
D03*
X51289Y1488299D02*
D03*
X88885Y1482686D02*
D03*
X51289Y588299D02*
D03*
X88885Y582686D02*
D03*
X51289Y498299D02*
D03*
X88885Y492686D02*
D03*
X51289Y408299D02*
D03*
X88885Y402686D02*
D03*
X51289Y318299D02*
D03*
X88885Y312686D02*
D03*
X51289Y228299D02*
D03*
X88885Y222686D02*
D03*
X51289Y678299D02*
D03*
X88885Y672685D02*
D03*
X51289Y768299D02*
D03*
X88885Y762685D02*
D03*
X51289Y858299D02*
D03*
X88885Y852685D02*
D03*
X51289Y948299D02*
D03*
X88885Y942685D02*
D03*
X51289Y1038299D02*
D03*
X88885Y1032685D02*
D03*
X51289Y1218299D02*
D03*
X88885Y1212685D02*
D03*
X51289Y1128299D02*
D03*
X88885Y1122685D02*
D03*
D17*
X1176270Y2090000D02*
D03*
X46270D02*
D03*
X50000Y20000D02*
D03*
X1175000D02*
D03*
M02*
