G04*
G04 #@! TF.GenerationSoftware,Altium Limited,Altium Designer,18.1.7 (191)*
G04*
G04 Layer_Color=65535*
%FSLAX44Y44*%
%MOMM*%
G71*
G01*
G75*
%ADD15C,0.2540*%
%ADD16C,0.2000*%
D15*
X1270Y2070000D02*
X1220000Y2070000D01*
X0Y40000D02*
X1220000D01*
X110157Y27617D02*
X105078D01*
X107618D01*
Y14922D01*
X105078Y12383D01*
X102539D01*
X100000Y14922D01*
X115235Y27617D02*
Y12383D01*
X125392D01*
X140627Y25078D02*
X138088Y27617D01*
X133009D01*
X130470Y25078D01*
Y14922D01*
X133009Y12383D01*
X138088D01*
X140627Y14922D01*
X155862Y27617D02*
X150784D01*
X153323D01*
Y14922D01*
X150784Y12383D01*
X148244D01*
X145705Y14922D01*
X160940Y27617D02*
Y12383D01*
X171097D01*
X186332Y25078D02*
X183793Y27617D01*
X178715D01*
X176175Y25078D01*
Y14922D01*
X178715Y12383D01*
X183793D01*
X186332Y14922D01*
X201567Y27617D02*
X196489D01*
X199028D01*
Y14922D01*
X196489Y12383D01*
X193950D01*
X191410Y14922D01*
X206646Y27617D02*
Y12383D01*
X216802D01*
X232037Y25078D02*
X229498Y27617D01*
X224420D01*
X221881Y25078D01*
Y14922D01*
X224420Y12383D01*
X229498D01*
X232037Y14922D01*
X247272Y27617D02*
X242194D01*
X244733D01*
Y14922D01*
X242194Y12383D01*
X239655D01*
X237116Y14922D01*
X252351Y27617D02*
Y12383D01*
X262507D01*
X277743Y25078D02*
X275203Y27617D01*
X270125D01*
X267586Y25078D01*
Y14922D01*
X270125Y12383D01*
X275203D01*
X277743Y14922D01*
D16*
X1162713Y1515487D02*
X1177485Y1518092D01*
X1157070Y1547493D02*
X1171842Y1550098D01*
X1143017Y1592986D02*
X1128245Y1595591D01*
X1137374Y1560980D02*
X1122601Y1563584D01*
X1162713Y1605487D02*
X1177485Y1608092D01*
X1157070Y1637493D02*
X1171842Y1640098D01*
X1143017Y1682986D02*
X1128245Y1685591D01*
X1137374Y1650980D02*
X1122601Y1653584D01*
X1162713Y1695487D02*
X1177485Y1698092D01*
X1157070Y1727493D02*
X1171842Y1730098D01*
X1143017Y1952986D02*
X1128245Y1955591D01*
X1137374Y1920980D02*
X1122601Y1923584D01*
X1162713Y1875487D02*
X1177485Y1878092D01*
X1157070Y1907493D02*
X1171842Y1910098D01*
X1143017Y1862986D02*
X1128245Y1865591D01*
X1137374Y1830980D02*
X1122601Y1833584D01*
X1162713Y1785487D02*
X1177485Y1788092D01*
X1157070Y1817493D02*
X1171842Y1820098D01*
X1143017Y1772986D02*
X1128245Y1775591D01*
X1137374Y1740980D02*
X1122601Y1743584D01*
X1137374Y1290980D02*
X1122601Y1293584D01*
X1143017Y1322986D02*
X1128245Y1325591D01*
X1157070Y1367493D02*
X1171842Y1370098D01*
X1162713Y1335487D02*
X1177485Y1338092D01*
X1137374Y1380980D02*
X1122601Y1383584D01*
X1143017Y1412986D02*
X1128245Y1415591D01*
X1157070Y1457493D02*
X1171842Y1460098D01*
X1162713Y1425487D02*
X1177485Y1428092D01*
X1137374Y1470980D02*
X1122601Y1473584D01*
X1143017Y1502986D02*
X1128245Y1505591D01*
X1157070Y737493D02*
X1171842Y740098D01*
X1162713Y705487D02*
X1177485Y708092D01*
X1137374Y570980D02*
X1122601Y573584D01*
X1143017Y602986D02*
X1128245Y605591D01*
X1157070Y557493D02*
X1171842Y560098D01*
X1162713Y525487D02*
X1177485Y528092D01*
X1137374Y480980D02*
X1122601Y483584D01*
X1143017Y512986D02*
X1128245Y515591D01*
X1157070Y467494D02*
X1171842Y470098D01*
X1162713Y435487D02*
X1177485Y438092D01*
X1137374Y390980D02*
X1122601Y393584D01*
X1143017Y422986D02*
X1128245Y425591D01*
X1157070Y377494D02*
X1171842Y380098D01*
X1162713Y345487D02*
X1177485Y348092D01*
X1137374Y300980D02*
X1122601Y303584D01*
X1143017Y332986D02*
X1128245Y335591D01*
X1157070Y287493D02*
X1171842Y290098D01*
X1162713Y255487D02*
X1177485Y258092D01*
X1137374Y210980D02*
X1122601Y213584D01*
X1143017Y242986D02*
X1128245Y245591D01*
X1157070Y197493D02*
X1171842Y200098D01*
X1162713Y165487D02*
X1177485Y168092D01*
X1157070Y647493D02*
X1171842Y650098D01*
X1162713Y615487D02*
X1177485Y618092D01*
X1137374Y660980D02*
X1122601Y663584D01*
X1143017Y692986D02*
X1128245Y695591D01*
X1137374Y750980D02*
X1122601Y753584D01*
X1143017Y782986D02*
X1128245Y785591D01*
X1157070Y827494D02*
X1171842Y830098D01*
X1162713Y795487D02*
X1177485Y798092D01*
X1137374Y840980D02*
X1122601Y843584D01*
X1143017Y872986D02*
X1128245Y875591D01*
X1157070Y917494D02*
X1171842Y920098D01*
X1162713Y885487D02*
X1177485Y888092D01*
X1137374Y930980D02*
X1122601Y933584D01*
X1143017Y962986D02*
X1128245Y965591D01*
X1157070Y1007494D02*
X1171842Y1010098D01*
X1162713Y975487D02*
X1177485Y978092D01*
X1137374Y1020980D02*
X1122601Y1023584D01*
X1143017Y1052986D02*
X1128245Y1055591D01*
X1157070Y1277494D02*
X1171842Y1280098D01*
X1162713Y1245487D02*
X1177485Y1248092D01*
X1137374Y1200980D02*
X1122601Y1203584D01*
X1143017Y1232986D02*
X1128245Y1235591D01*
X1157070Y1187494D02*
X1171842Y1190098D01*
X1162713Y1155487D02*
X1177485Y1158092D01*
X1137374Y1110980D02*
X1122601Y1113584D01*
X1143017Y1142986D02*
X1128245Y1145591D01*
X1157070Y1097494D02*
X1171842Y1100098D01*
X1162713Y1065487D02*
X1177485Y1068092D01*
X1042713Y1515487D02*
X1057485Y1518092D01*
X1037070Y1547493D02*
X1051842Y1550098D01*
X1023017Y1592986D02*
X1008245Y1595591D01*
X1017374Y1560980D02*
X1002601Y1563584D01*
X1042713Y1605487D02*
X1057485Y1608092D01*
X1037070Y1637493D02*
X1051842Y1640098D01*
X1023017Y1682986D02*
X1008245Y1685591D01*
X1017374Y1650980D02*
X1002601Y1653584D01*
X1042713Y1695487D02*
X1057485Y1698092D01*
X1037070Y1727493D02*
X1051842Y1730098D01*
X1023017Y1952986D02*
X1008245Y1955591D01*
X1017374Y1920980D02*
X1002601Y1923584D01*
X1042713Y1875487D02*
X1057485Y1878092D01*
X1037070Y1907493D02*
X1051842Y1910098D01*
X1023017Y1862986D02*
X1008245Y1865591D01*
X1017374Y1830980D02*
X1002601Y1833584D01*
X1042713Y1785487D02*
X1057485Y1788092D01*
X1037070Y1817493D02*
X1051842Y1820098D01*
X1023017Y1772986D02*
X1008245Y1775591D01*
X1017374Y1740980D02*
X1002601Y1743584D01*
X1017374Y1290980D02*
X1002601Y1293584D01*
X1023017Y1322986D02*
X1008245Y1325591D01*
X1037070Y1367493D02*
X1051842Y1370098D01*
X1042713Y1335487D02*
X1057485Y1338092D01*
X1017374Y1380980D02*
X1002601Y1383584D01*
X1023017Y1412986D02*
X1008245Y1415591D01*
X1037070Y1457493D02*
X1051842Y1460098D01*
X1042713Y1425487D02*
X1057485Y1428092D01*
X1017374Y1470980D02*
X1002601Y1473584D01*
X1023017Y1502986D02*
X1008245Y1505591D01*
X1037070Y737493D02*
X1051842Y740098D01*
X1042713Y705487D02*
X1057485Y708092D01*
X1017374Y570980D02*
X1002601Y573584D01*
X1023017Y602986D02*
X1008245Y605591D01*
X1037070Y557493D02*
X1051842Y560098D01*
X1042713Y525487D02*
X1057485Y528092D01*
X1017374Y480980D02*
X1002601Y483584D01*
X1023017Y512986D02*
X1008245Y515591D01*
X1037070Y467494D02*
X1051842Y470098D01*
X1042713Y435487D02*
X1057485Y438092D01*
X1017374Y390980D02*
X1002601Y393584D01*
X1023017Y422986D02*
X1008245Y425591D01*
X1037070Y377494D02*
X1051842Y380098D01*
X1042713Y345487D02*
X1057485Y348092D01*
X1017374Y300980D02*
X1002601Y303584D01*
X1023017Y332986D02*
X1008245Y335591D01*
X1037070Y287493D02*
X1051842Y290098D01*
X1042713Y255487D02*
X1057485Y258092D01*
X1017374Y210980D02*
X1002601Y213584D01*
X1023017Y242986D02*
X1008245Y245591D01*
X1037070Y197493D02*
X1051842Y200098D01*
X1042713Y165487D02*
X1057485Y168092D01*
X1037070Y647493D02*
X1051842Y650098D01*
X1042713Y615487D02*
X1057485Y618092D01*
X1017374Y660980D02*
X1002601Y663584D01*
X1023017Y692986D02*
X1008245Y695591D01*
X1017374Y750980D02*
X1002601Y753584D01*
X1023017Y782986D02*
X1008245Y785591D01*
X1037070Y827494D02*
X1051842Y830098D01*
X1042713Y795487D02*
X1057485Y798092D01*
X1017374Y840980D02*
X1002601Y843584D01*
X1023017Y872986D02*
X1008245Y875591D01*
X1037070Y917494D02*
X1051842Y920098D01*
X1042713Y885487D02*
X1057485Y888092D01*
X1017374Y930980D02*
X1002601Y933584D01*
X1023017Y962986D02*
X1008245Y965591D01*
X1037070Y1007494D02*
X1051842Y1010098D01*
X1042713Y975487D02*
X1057485Y978092D01*
X1017374Y1020980D02*
X1002601Y1023584D01*
X1023017Y1052986D02*
X1008245Y1055591D01*
X1037070Y1277494D02*
X1051842Y1280098D01*
X1042713Y1245487D02*
X1057485Y1248092D01*
X1017374Y1200980D02*
X1002601Y1203584D01*
X1023017Y1232986D02*
X1008245Y1235591D01*
X1037070Y1187494D02*
X1051842Y1190098D01*
X1042713Y1155487D02*
X1057485Y1158092D01*
X1017374Y1110980D02*
X1002601Y1113584D01*
X1023017Y1142986D02*
X1008245Y1145591D01*
X1037070Y1097494D02*
X1051842Y1100098D01*
X1042713Y1065487D02*
X1057485Y1068092D01*
X922713Y1515487D02*
X937486Y1518092D01*
X917070Y1547493D02*
X931842Y1550098D01*
X903017Y1592986D02*
X888245Y1595591D01*
X897374Y1560980D02*
X882601Y1563584D01*
X922713Y1605487D02*
X937486Y1608092D01*
X917070Y1637493D02*
X931842Y1640098D01*
X903017Y1682986D02*
X888245Y1685591D01*
X897374Y1650980D02*
X882601Y1653584D01*
X922713Y1695487D02*
X937486Y1698092D01*
X917070Y1727493D02*
X931842Y1730098D01*
X903017Y1952986D02*
X888245Y1955591D01*
X897374Y1920980D02*
X882601Y1923584D01*
X922713Y1875487D02*
X937486Y1878092D01*
X917070Y1907493D02*
X931842Y1910098D01*
X903017Y1862986D02*
X888245Y1865591D01*
X897374Y1830980D02*
X882601Y1833584D01*
X922713Y1785487D02*
X937486Y1788092D01*
X917070Y1817493D02*
X931842Y1820098D01*
X903017Y1772986D02*
X888245Y1775591D01*
X897374Y1740980D02*
X882601Y1743584D01*
X897374Y1290980D02*
X882601Y1293584D01*
X903017Y1322986D02*
X888245Y1325591D01*
X917070Y1367493D02*
X931842Y1370098D01*
X922713Y1335487D02*
X937486Y1338092D01*
X897374Y1380980D02*
X882601Y1383584D01*
X903017Y1412986D02*
X888245Y1415591D01*
X917070Y1457493D02*
X931842Y1460098D01*
X922713Y1425487D02*
X937486Y1428092D01*
X897374Y1470980D02*
X882601Y1473584D01*
X903017Y1502986D02*
X888245Y1505591D01*
X917070Y737493D02*
X931842Y740098D01*
X922713Y705487D02*
X937486Y708092D01*
X897374Y570980D02*
X882601Y573584D01*
X903017Y602986D02*
X888245Y605591D01*
X917070Y557493D02*
X931842Y560098D01*
X922713Y525487D02*
X937486Y528092D01*
X897374Y480980D02*
X882601Y483584D01*
X903017Y512986D02*
X888245Y515591D01*
X917070Y467494D02*
X931842Y470098D01*
X922713Y435487D02*
X937486Y438092D01*
X897374Y390980D02*
X882601Y393584D01*
X903017Y422986D02*
X888245Y425591D01*
X917070Y377494D02*
X931842Y380098D01*
X922713Y345487D02*
X937486Y348092D01*
X897374Y300980D02*
X882601Y303584D01*
X903017Y332986D02*
X888245Y335591D01*
X917070Y287493D02*
X931842Y290098D01*
X922713Y255487D02*
X937486Y258092D01*
X897374Y210980D02*
X882601Y213584D01*
X903017Y242986D02*
X888245Y245591D01*
X917070Y197493D02*
X931842Y200098D01*
X922713Y165487D02*
X937485Y168092D01*
X917070Y647493D02*
X931842Y650098D01*
X922713Y615487D02*
X937486Y618092D01*
X897374Y660980D02*
X882601Y663584D01*
X903017Y692986D02*
X888245Y695591D01*
X897374Y750980D02*
X882601Y753584D01*
X903017Y782986D02*
X888245Y785591D01*
X917070Y827494D02*
X931842Y830098D01*
X922713Y795487D02*
X937486Y798092D01*
X897374Y840980D02*
X882601Y843584D01*
X903017Y872986D02*
X888245Y875591D01*
X917070Y917494D02*
X931842Y920098D01*
X922713Y885487D02*
X937486Y888092D01*
X897374Y930980D02*
X882601Y933584D01*
X903017Y962986D02*
X888245Y965591D01*
X917070Y1007494D02*
X931842Y1010098D01*
X922713Y975487D02*
X937486Y978092D01*
X897374Y1020980D02*
X882601Y1023584D01*
X903017Y1052986D02*
X888245Y1055591D01*
X917070Y1277494D02*
X931842Y1280098D01*
X922713Y1245487D02*
X937486Y1248092D01*
X897374Y1200980D02*
X882601Y1203584D01*
X903017Y1232986D02*
X888245Y1235591D01*
X917070Y1187494D02*
X931842Y1190098D01*
X922713Y1155487D02*
X937486Y1158092D01*
X897374Y1110980D02*
X882601Y1113584D01*
X903017Y1142986D02*
X888245Y1145591D01*
X917070Y1097494D02*
X931842Y1100098D01*
X922713Y1065487D02*
X937486Y1068092D01*
X802713Y1515487D02*
X817486Y1518092D01*
X797070Y1547493D02*
X811842Y1550098D01*
X783017Y1592986D02*
X768245Y1595591D01*
X777374Y1560980D02*
X762601Y1563584D01*
X802713Y1605487D02*
X817486Y1608092D01*
X797070Y1637493D02*
X811842Y1640098D01*
X783017Y1682986D02*
X768245Y1685591D01*
X777374Y1650980D02*
X762601Y1653584D01*
X802713Y1695487D02*
X817486Y1698092D01*
X797070Y1727493D02*
X811842Y1730098D01*
X783017Y1952986D02*
X768245Y1955591D01*
X777374Y1920980D02*
X762601Y1923584D01*
X802713Y1875487D02*
X817486Y1878092D01*
X797070Y1907493D02*
X811842Y1910098D01*
X783017Y1862986D02*
X768245Y1865591D01*
X777374Y1830980D02*
X762601Y1833584D01*
X802713Y1785487D02*
X817486Y1788092D01*
X797070Y1817493D02*
X811842Y1820098D01*
X783017Y1772986D02*
X768245Y1775591D01*
X777374Y1740980D02*
X762601Y1743584D01*
X777374Y1290980D02*
X762601Y1293584D01*
X783017Y1322986D02*
X768245Y1325591D01*
X797070Y1367493D02*
X811842Y1370098D01*
X802713Y1335487D02*
X817486Y1338092D01*
X777374Y1380980D02*
X762601Y1383584D01*
X783017Y1412986D02*
X768245Y1415591D01*
X797070Y1457493D02*
X811842Y1460098D01*
X802713Y1425487D02*
X817486Y1428092D01*
X777374Y1470980D02*
X762601Y1473584D01*
X783017Y1502986D02*
X768245Y1505591D01*
X797070Y737493D02*
X811842Y740098D01*
X802713Y705487D02*
X817486Y708092D01*
X777374Y570980D02*
X762601Y573584D01*
X783017Y602986D02*
X768245Y605591D01*
X797070Y557493D02*
X811842Y560098D01*
X802713Y525487D02*
X817486Y528092D01*
X777374Y480980D02*
X762601Y483584D01*
X783017Y512986D02*
X768245Y515591D01*
X797070Y467494D02*
X811842Y470098D01*
X802713Y435487D02*
X817486Y438092D01*
X777374Y390980D02*
X762601Y393584D01*
X783017Y422986D02*
X768245Y425591D01*
X797070Y377494D02*
X811842Y380098D01*
X802713Y345487D02*
X817486Y348092D01*
X777374Y300980D02*
X762601Y303584D01*
X783017Y332986D02*
X768245Y335591D01*
X797070Y287493D02*
X811842Y290098D01*
X802713Y255487D02*
X817486Y258092D01*
X777374Y210980D02*
X762601Y213584D01*
X783017Y242986D02*
X768245Y245591D01*
X797070Y197493D02*
X811842Y200098D01*
X802713Y165487D02*
X817485Y168092D01*
X797070Y647493D02*
X811842Y650098D01*
X802713Y615487D02*
X817486Y618092D01*
X777374Y660980D02*
X762601Y663584D01*
X783017Y692986D02*
X768245Y695591D01*
X777374Y750980D02*
X762601Y753584D01*
X783017Y782986D02*
X768245Y785591D01*
X797070Y827494D02*
X811842Y830098D01*
X802713Y795487D02*
X817486Y798092D01*
X777374Y840980D02*
X762601Y843584D01*
X783017Y872986D02*
X768245Y875591D01*
X797070Y917494D02*
X811842Y920098D01*
X802713Y885487D02*
X817486Y888092D01*
X777374Y930980D02*
X762601Y933584D01*
X783017Y962986D02*
X768245Y965591D01*
X797070Y1007494D02*
X811842Y1010098D01*
X802713Y975487D02*
X817486Y978092D01*
X777374Y1020980D02*
X762601Y1023584D01*
X783017Y1052986D02*
X768245Y1055591D01*
X797070Y1277494D02*
X811842Y1280098D01*
X802713Y1245487D02*
X817486Y1248092D01*
X777374Y1200980D02*
X762601Y1203584D01*
X783017Y1232986D02*
X768245Y1235591D01*
X797070Y1187494D02*
X811842Y1190098D01*
X802713Y1155487D02*
X817486Y1158092D01*
X777374Y1110980D02*
X762601Y1113584D01*
X783017Y1142986D02*
X768245Y1145591D01*
X797070Y1097494D02*
X811842Y1100098D01*
X802713Y1065487D02*
X817486Y1068092D01*
X682713Y1515487D02*
X697486Y1518092D01*
X677070Y1547493D02*
X691842Y1550098D01*
X663017Y1592986D02*
X648245Y1595591D01*
X657374Y1560980D02*
X642601Y1563584D01*
X682713Y1605487D02*
X697486Y1608092D01*
X677070Y1637493D02*
X691842Y1640098D01*
X663017Y1682986D02*
X648245Y1685591D01*
X657374Y1650980D02*
X642601Y1653584D01*
X682713Y1695487D02*
X697486Y1698092D01*
X677070Y1727493D02*
X691842Y1730098D01*
X663017Y1952986D02*
X648245Y1955591D01*
X657374Y1920980D02*
X642601Y1923584D01*
X682713Y1875487D02*
X697486Y1878092D01*
X677070Y1907493D02*
X691842Y1910098D01*
X663017Y1862986D02*
X648245Y1865591D01*
X657374Y1830980D02*
X642601Y1833584D01*
X682713Y1785487D02*
X697486Y1788092D01*
X677070Y1817493D02*
X691842Y1820098D01*
X663017Y1772986D02*
X648245Y1775591D01*
X657374Y1740980D02*
X642601Y1743584D01*
X657374Y1290980D02*
X642601Y1293584D01*
X663017Y1322986D02*
X648245Y1325591D01*
X677070Y1367493D02*
X691842Y1370098D01*
X682713Y1335487D02*
X697486Y1338092D01*
X657374Y1380980D02*
X642601Y1383584D01*
X663017Y1412986D02*
X648245Y1415591D01*
X677070Y1457493D02*
X691842Y1460098D01*
X682713Y1425487D02*
X697486Y1428092D01*
X657374Y1470980D02*
X642601Y1473584D01*
X663017Y1502986D02*
X648245Y1505591D01*
X677070Y737493D02*
X691842Y740098D01*
X682713Y705487D02*
X697486Y708092D01*
X657374Y570980D02*
X642601Y573584D01*
X663017Y602986D02*
X648245Y605591D01*
X677070Y557493D02*
X691842Y560098D01*
X682713Y525487D02*
X697486Y528092D01*
X657374Y480980D02*
X642601Y483584D01*
X663017Y512986D02*
X648245Y515591D01*
X677070Y467494D02*
X691842Y470098D01*
X682713Y435487D02*
X697486Y438092D01*
X657374Y390980D02*
X642601Y393584D01*
X663017Y422986D02*
X648245Y425591D01*
X677070Y377494D02*
X691842Y380098D01*
X682713Y345487D02*
X697486Y348092D01*
X657374Y300980D02*
X642601Y303584D01*
X663017Y332986D02*
X648245Y335591D01*
X677070Y287493D02*
X691842Y290098D01*
X682713Y255487D02*
X697486Y258092D01*
X657374Y210980D02*
X642601Y213584D01*
X663017Y242986D02*
X648245Y245591D01*
X677070Y197493D02*
X691842Y200098D01*
X682713Y165487D02*
X697485Y168092D01*
X677070Y647493D02*
X691842Y650098D01*
X682713Y615487D02*
X697486Y618092D01*
X657374Y660980D02*
X642601Y663584D01*
X663017Y692986D02*
X648245Y695591D01*
X657374Y750980D02*
X642601Y753584D01*
X663017Y782986D02*
X648245Y785591D01*
X677070Y827494D02*
X691842Y830098D01*
X682713Y795487D02*
X697486Y798092D01*
X657374Y840980D02*
X642601Y843584D01*
X663017Y872986D02*
X648245Y875591D01*
X677070Y917494D02*
X691842Y920098D01*
X682713Y885487D02*
X697486Y888092D01*
X657374Y930980D02*
X642601Y933584D01*
X663017Y962986D02*
X648245Y965591D01*
X677070Y1007494D02*
X691842Y1010098D01*
X682713Y975487D02*
X697486Y978092D01*
X657374Y1020980D02*
X642601Y1023584D01*
X663017Y1052986D02*
X648245Y1055591D01*
X677070Y1277494D02*
X691842Y1280098D01*
X682713Y1245487D02*
X697486Y1248092D01*
X657374Y1200980D02*
X642601Y1203584D01*
X663017Y1232986D02*
X648245Y1235591D01*
X677070Y1187494D02*
X691842Y1190098D01*
X682713Y1155487D02*
X697486Y1158092D01*
X657374Y1110980D02*
X642601Y1113584D01*
X663017Y1142986D02*
X648245Y1145591D01*
X677070Y1097494D02*
X691842Y1100098D01*
X682713Y1065487D02*
X697486Y1068092D01*
X562713Y1515487D02*
X577486Y1518092D01*
X557070Y1547493D02*
X571842Y1550098D01*
X543017Y1592986D02*
X528245Y1595591D01*
X537374Y1560980D02*
X522602Y1563584D01*
X562713Y1605487D02*
X577486Y1608092D01*
X557070Y1637493D02*
X571842Y1640098D01*
X543017Y1682986D02*
X528245Y1685591D01*
X537374Y1650980D02*
X522602Y1653584D01*
X562713Y1695487D02*
X577486Y1698092D01*
X557070Y1727493D02*
X571842Y1730098D01*
X543017Y1952986D02*
X528245Y1955591D01*
X537374Y1920980D02*
X522602Y1923584D01*
X562713Y1875487D02*
X577486Y1878092D01*
X557070Y1907493D02*
X571842Y1910098D01*
X543017Y1862986D02*
X528245Y1865591D01*
X537374Y1830980D02*
X522602Y1833584D01*
X562713Y1785487D02*
X577486Y1788092D01*
X557070Y1817493D02*
X571842Y1820098D01*
X543017Y1772986D02*
X528245Y1775591D01*
X537374Y1740980D02*
X522602Y1743584D01*
X537374Y1290980D02*
X522602Y1293584D01*
X543017Y1322986D02*
X528245Y1325591D01*
X557070Y1367493D02*
X571842Y1370098D01*
X562713Y1335487D02*
X577486Y1338092D01*
X537374Y1380980D02*
X522602Y1383584D01*
X543017Y1412986D02*
X528245Y1415591D01*
X557070Y1457493D02*
X571842Y1460098D01*
X562713Y1425487D02*
X577486Y1428092D01*
X537374Y1470980D02*
X522602Y1473584D01*
X543017Y1502986D02*
X528245Y1505591D01*
X557070Y737493D02*
X571842Y740098D01*
X562713Y705487D02*
X577486Y708092D01*
X537374Y570980D02*
X522602Y573584D01*
X543017Y602986D02*
X528245Y605591D01*
X557070Y557493D02*
X571842Y560098D01*
X562713Y525487D02*
X577486Y528092D01*
X537374Y480980D02*
X522602Y483584D01*
X543017Y512986D02*
X528245Y515591D01*
X557070Y467494D02*
X571842Y470098D01*
X562713Y435487D02*
X577486Y438092D01*
X537374Y390980D02*
X522602Y393584D01*
X543017Y422986D02*
X528245Y425591D01*
X557070Y377494D02*
X571842Y380098D01*
X562713Y345487D02*
X577486Y348092D01*
X537374Y300980D02*
X522602Y303584D01*
X543017Y332986D02*
X528245Y335591D01*
X557070Y287493D02*
X571842Y290098D01*
X562713Y255487D02*
X577486Y258092D01*
X537374Y210980D02*
X522602Y213584D01*
X543017Y242986D02*
X528245Y245591D01*
X557070Y197493D02*
X571842Y200098D01*
X562713Y165487D02*
X577485Y168092D01*
X557070Y647493D02*
X571842Y650098D01*
X562713Y615487D02*
X577486Y618092D01*
X537374Y660980D02*
X522602Y663584D01*
X543017Y692986D02*
X528245Y695591D01*
X537374Y750980D02*
X522602Y753584D01*
X543017Y782986D02*
X528245Y785591D01*
X557070Y827494D02*
X571842Y830098D01*
X562713Y795487D02*
X577486Y798092D01*
X537374Y840980D02*
X522602Y843584D01*
X543017Y872986D02*
X528245Y875591D01*
X557070Y917494D02*
X571842Y920098D01*
X562713Y885487D02*
X577486Y888092D01*
X537374Y930980D02*
X522602Y933584D01*
X543017Y962986D02*
X528245Y965591D01*
X557070Y1007494D02*
X571842Y1010098D01*
X562713Y975487D02*
X577486Y978092D01*
X537374Y1020980D02*
X522602Y1023584D01*
X543017Y1052986D02*
X528245Y1055591D01*
X557070Y1277494D02*
X571842Y1280098D01*
X562713Y1245487D02*
X577486Y1248092D01*
X537374Y1200980D02*
X522602Y1203584D01*
X543017Y1232986D02*
X528245Y1235591D01*
X557070Y1187494D02*
X571842Y1190098D01*
X562713Y1155487D02*
X577486Y1158092D01*
X537374Y1110980D02*
X522602Y1113584D01*
X543017Y1142986D02*
X528245Y1145591D01*
X557070Y1097494D02*
X571842Y1100098D01*
X562713Y1065487D02*
X577486Y1068092D01*
X442713Y1515487D02*
X457486Y1518092D01*
X437070Y1547493D02*
X451842Y1550098D01*
X423017Y1592986D02*
X408245Y1595591D01*
X417374Y1560980D02*
X402602Y1563584D01*
X442713Y1605487D02*
X457486Y1608092D01*
X437070Y1637493D02*
X451842Y1640098D01*
X423017Y1682986D02*
X408245Y1685591D01*
X417374Y1650980D02*
X402602Y1653584D01*
X442713Y1695487D02*
X457486Y1698092D01*
X437070Y1727493D02*
X451842Y1730098D01*
X423017Y1952986D02*
X408245Y1955591D01*
X417374Y1920980D02*
X402602Y1923584D01*
X442713Y1875487D02*
X457486Y1878092D01*
X437070Y1907493D02*
X451842Y1910098D01*
X423017Y1862986D02*
X408245Y1865591D01*
X417374Y1830980D02*
X402602Y1833584D01*
X442713Y1785487D02*
X457486Y1788092D01*
X437070Y1817493D02*
X451842Y1820098D01*
X423017Y1772986D02*
X408245Y1775591D01*
X417374Y1740980D02*
X402602Y1743584D01*
X417374Y1290980D02*
X402602Y1293584D01*
X423017Y1322986D02*
X408245Y1325591D01*
X437070Y1367493D02*
X451842Y1370098D01*
X442713Y1335487D02*
X457486Y1338092D01*
X417374Y1380980D02*
X402602Y1383584D01*
X423017Y1412986D02*
X408245Y1415591D01*
X437070Y1457493D02*
X451842Y1460098D01*
X442713Y1425487D02*
X457486Y1428092D01*
X417374Y1470980D02*
X402602Y1473584D01*
X423017Y1502986D02*
X408245Y1505591D01*
X437070Y737493D02*
X451842Y740098D01*
X442713Y705487D02*
X457486Y708092D01*
X417374Y570980D02*
X402602Y573584D01*
X423017Y602986D02*
X408245Y605591D01*
X437070Y557493D02*
X451842Y560098D01*
X442713Y525487D02*
X457486Y528092D01*
X417374Y480980D02*
X402602Y483584D01*
X423017Y512986D02*
X408245Y515591D01*
X437070Y467494D02*
X451842Y470098D01*
X442713Y435487D02*
X457486Y438092D01*
X417374Y390980D02*
X402602Y393584D01*
X423017Y422986D02*
X408245Y425591D01*
X437070Y377494D02*
X451842Y380098D01*
X442713Y345487D02*
X457486Y348092D01*
X417374Y300980D02*
X402602Y303584D01*
X423017Y332986D02*
X408245Y335591D01*
X437070Y287493D02*
X451842Y290098D01*
X442713Y255487D02*
X457486Y258092D01*
X417374Y210980D02*
X402602Y213584D01*
X423017Y242986D02*
X408245Y245591D01*
X437070Y197493D02*
X451842Y200098D01*
X442713Y165487D02*
X457485Y168092D01*
X437070Y647493D02*
X451842Y650098D01*
X442713Y615487D02*
X457486Y618092D01*
X417374Y660980D02*
X402602Y663584D01*
X423017Y692986D02*
X408245Y695591D01*
X417374Y750980D02*
X402602Y753584D01*
X423017Y782986D02*
X408245Y785591D01*
X437070Y827494D02*
X451842Y830098D01*
X442713Y795487D02*
X457486Y798092D01*
X417374Y840980D02*
X402602Y843584D01*
X423017Y872986D02*
X408245Y875591D01*
X437070Y917494D02*
X451842Y920098D01*
X442713Y885487D02*
X457486Y888092D01*
X417374Y930980D02*
X402602Y933584D01*
X423017Y962986D02*
X408245Y965591D01*
X437070Y1007494D02*
X451842Y1010098D01*
X442713Y975487D02*
X457486Y978092D01*
X417374Y1020980D02*
X402602Y1023584D01*
X423017Y1052986D02*
X408245Y1055591D01*
X437070Y1277494D02*
X451842Y1280098D01*
X442713Y1245487D02*
X457486Y1248092D01*
X417374Y1200980D02*
X402602Y1203584D01*
X423017Y1232986D02*
X408245Y1235591D01*
X437070Y1187494D02*
X451842Y1190098D01*
X442713Y1155487D02*
X457486Y1158092D01*
X417374Y1110980D02*
X402602Y1113584D01*
X423017Y1142986D02*
X408245Y1145591D01*
X437070Y1097494D02*
X451842Y1100098D01*
X442713Y1065487D02*
X457486Y1068092D01*
X322713Y1515487D02*
X337486Y1518092D01*
X317070Y1547493D02*
X331842Y1550098D01*
X303017Y1592986D02*
X288245Y1595591D01*
X297374Y1560980D02*
X282602Y1563584D01*
X322713Y1605487D02*
X337486Y1608092D01*
X317070Y1637493D02*
X331842Y1640098D01*
X303017Y1682986D02*
X288245Y1685591D01*
X297374Y1650980D02*
X282602Y1653584D01*
X322713Y1695487D02*
X337486Y1698092D01*
X317070Y1727493D02*
X331842Y1730098D01*
X303017Y1952986D02*
X288245Y1955591D01*
X297374Y1920980D02*
X282602Y1923584D01*
X322713Y1875487D02*
X337486Y1878092D01*
X317070Y1907493D02*
X331842Y1910098D01*
X303017Y1862986D02*
X288245Y1865591D01*
X297374Y1830980D02*
X282602Y1833584D01*
X322713Y1785487D02*
X337486Y1788092D01*
X317070Y1817493D02*
X331842Y1820098D01*
X303017Y1772986D02*
X288245Y1775591D01*
X297374Y1740980D02*
X282602Y1743584D01*
X297374Y1290980D02*
X282602Y1293584D01*
X303017Y1322986D02*
X288245Y1325591D01*
X317070Y1367493D02*
X331842Y1370098D01*
X322713Y1335487D02*
X337486Y1338092D01*
X297374Y1380980D02*
X282602Y1383584D01*
X303017Y1412986D02*
X288245Y1415591D01*
X317070Y1457493D02*
X331842Y1460098D01*
X322713Y1425487D02*
X337486Y1428092D01*
X297374Y1470980D02*
X282602Y1473584D01*
X303017Y1502986D02*
X288245Y1505591D01*
X317070Y737493D02*
X331842Y740098D01*
X322713Y705487D02*
X337486Y708092D01*
X297374Y570980D02*
X282602Y573584D01*
X303017Y602986D02*
X288245Y605591D01*
X317070Y557493D02*
X331842Y560098D01*
X322713Y525487D02*
X337486Y528092D01*
X297374Y480980D02*
X282602Y483584D01*
X303017Y512986D02*
X288245Y515591D01*
X317070Y467494D02*
X331842Y470098D01*
X322713Y435487D02*
X337486Y438092D01*
X297374Y390980D02*
X282602Y393584D01*
X303017Y422986D02*
X288245Y425591D01*
X317070Y377494D02*
X331842Y380098D01*
X322713Y345487D02*
X337486Y348092D01*
X297374Y300980D02*
X282602Y303584D01*
X303017Y332986D02*
X288245Y335591D01*
X317070Y287493D02*
X331842Y290098D01*
X322713Y255487D02*
X337486Y258092D01*
X297374Y210980D02*
X282602Y213584D01*
X303017Y242986D02*
X288245Y245591D01*
X317070Y197493D02*
X331842Y200098D01*
X322713Y165487D02*
X337485Y168092D01*
X317070Y647493D02*
X331842Y650098D01*
X322713Y615487D02*
X337486Y618092D01*
X297374Y660980D02*
X282602Y663584D01*
X303017Y692986D02*
X288245Y695591D01*
X297374Y750980D02*
X282602Y753584D01*
X303017Y782986D02*
X288245Y785591D01*
X317070Y827494D02*
X331842Y830098D01*
X322713Y795487D02*
X337486Y798092D01*
X297374Y840980D02*
X282602Y843584D01*
X303017Y872986D02*
X288245Y875591D01*
X317070Y917494D02*
X331842Y920098D01*
X322713Y885487D02*
X337486Y888092D01*
X297374Y930980D02*
X282602Y933584D01*
X303017Y962986D02*
X288245Y965591D01*
X317070Y1007494D02*
X331842Y1010098D01*
X322713Y975487D02*
X337486Y978092D01*
X297374Y1020980D02*
X282602Y1023584D01*
X303017Y1052986D02*
X288245Y1055591D01*
X317070Y1277494D02*
X331842Y1280098D01*
X322713Y1245487D02*
X337486Y1248092D01*
X297374Y1200980D02*
X282602Y1203584D01*
X303017Y1232986D02*
X288245Y1235591D01*
X317070Y1187494D02*
X331842Y1190098D01*
X322713Y1155487D02*
X337486Y1158092D01*
X297374Y1110980D02*
X282602Y1113584D01*
X303017Y1142986D02*
X288245Y1145591D01*
X317070Y1097494D02*
X331842Y1100098D01*
X322713Y1065487D02*
X337486Y1068092D01*
X202713Y1515487D02*
X217486Y1518092D01*
X197070Y1547493D02*
X211842Y1550098D01*
X183017Y1592986D02*
X168245Y1595591D01*
X177374Y1560980D02*
X162602Y1563584D01*
X202713Y1605487D02*
X217486Y1608092D01*
X197070Y1637493D02*
X211842Y1640098D01*
X183017Y1682986D02*
X168245Y1685591D01*
X177374Y1650980D02*
X162602Y1653584D01*
X202713Y1695487D02*
X217486Y1698092D01*
X197070Y1727493D02*
X211842Y1730098D01*
X183017Y1952986D02*
X168245Y1955591D01*
X177374Y1920980D02*
X162602Y1923584D01*
X202713Y1875487D02*
X217486Y1878092D01*
X197070Y1907493D02*
X211842Y1910098D01*
X183017Y1862986D02*
X168245Y1865591D01*
X177374Y1830980D02*
X162602Y1833584D01*
X202713Y1785487D02*
X217486Y1788092D01*
X197070Y1817493D02*
X211842Y1820098D01*
X183017Y1772986D02*
X168245Y1775591D01*
X177374Y1740980D02*
X162602Y1743584D01*
X177374Y1290980D02*
X162602Y1293584D01*
X183017Y1322986D02*
X168245Y1325591D01*
X197070Y1367493D02*
X211842Y1370098D01*
X202713Y1335487D02*
X217486Y1338092D01*
X177374Y1380980D02*
X162602Y1383584D01*
X183017Y1412986D02*
X168245Y1415591D01*
X197070Y1457493D02*
X211842Y1460098D01*
X202713Y1425487D02*
X217486Y1428092D01*
X177374Y1470980D02*
X162602Y1473584D01*
X183017Y1502986D02*
X168245Y1505591D01*
X197070Y737493D02*
X211842Y740098D01*
X202713Y705487D02*
X217486Y708092D01*
X177374Y570980D02*
X162602Y573584D01*
X183017Y602986D02*
X168245Y605591D01*
X197070Y557493D02*
X211842Y560098D01*
X202713Y525487D02*
X217486Y528092D01*
X177374Y480980D02*
X162602Y483584D01*
X183017Y512986D02*
X168245Y515591D01*
X197070Y467494D02*
X211842Y470098D01*
X202713Y435487D02*
X217486Y438092D01*
X177374Y390980D02*
X162602Y393584D01*
X183017Y422986D02*
X168245Y425591D01*
X197070Y377494D02*
X211842Y380098D01*
X202713Y345487D02*
X217486Y348092D01*
X177374Y300980D02*
X162602Y303584D01*
X183017Y332986D02*
X168245Y335591D01*
X197070Y287493D02*
X211842Y290098D01*
X202713Y255487D02*
X217486Y258092D01*
X177374Y210980D02*
X162602Y213584D01*
X183017Y242986D02*
X168245Y245591D01*
X197070Y197493D02*
X211842Y200098D01*
X202713Y165487D02*
X217485Y168092D01*
X197070Y647493D02*
X211842Y650098D01*
X202713Y615487D02*
X217486Y618092D01*
X177374Y660980D02*
X162602Y663584D01*
X183017Y692986D02*
X168245Y695591D01*
X177374Y750980D02*
X162602Y753584D01*
X183017Y782986D02*
X168245Y785591D01*
X197070Y827494D02*
X211842Y830098D01*
X202713Y795487D02*
X217486Y798092D01*
X177374Y840980D02*
X162602Y843584D01*
X183017Y872986D02*
X168245Y875591D01*
X197070Y917494D02*
X211842Y920098D01*
X202713Y885487D02*
X217486Y888092D01*
X177374Y930980D02*
X162602Y933584D01*
X183017Y962986D02*
X168245Y965591D01*
X197070Y1007494D02*
X211842Y1010098D01*
X202713Y975487D02*
X217486Y978092D01*
X177374Y1020980D02*
X162602Y1023584D01*
X183017Y1052986D02*
X168245Y1055591D01*
X197070Y1277494D02*
X211842Y1280098D01*
X202713Y1245487D02*
X217486Y1248092D01*
X177374Y1200980D02*
X162602Y1203584D01*
X183017Y1232986D02*
X168245Y1235591D01*
X197070Y1187494D02*
X211842Y1190098D01*
X202713Y1155487D02*
X217486Y1158092D01*
X177374Y1110980D02*
X162602Y1113584D01*
X183017Y1142986D02*
X168245Y1145591D01*
X197070Y1097494D02*
X211842Y1100098D01*
X202713Y1065487D02*
X217486Y1068092D01*
X82713Y1515487D02*
X97486Y1518092D01*
X77070Y1547493D02*
X91842Y1550098D01*
X63017Y1592986D02*
X48245Y1595591D01*
X57374Y1560980D02*
X42601Y1563584D01*
X82713Y1605487D02*
X97486Y1608092D01*
X77070Y1637493D02*
X91842Y1640098D01*
X63017Y1682986D02*
X48245Y1685591D01*
X57374Y1650980D02*
X42601Y1653584D01*
X82713Y1695487D02*
X97486Y1698092D01*
X77070Y1727493D02*
X91842Y1730098D01*
X63017Y1952986D02*
X48245Y1955591D01*
X57374Y1920980D02*
X42601Y1923584D01*
X82713Y1875487D02*
X97486Y1878092D01*
X77070Y1907493D02*
X91842Y1910098D01*
X63017Y1862986D02*
X48245Y1865591D01*
X57374Y1830980D02*
X42601Y1833584D01*
X82713Y1785487D02*
X97486Y1788092D01*
X77070Y1817493D02*
X91842Y1820098D01*
X63017Y1772986D02*
X48245Y1775591D01*
X57374Y1740980D02*
X42601Y1743584D01*
X57374Y1290980D02*
X42601Y1293584D01*
X63017Y1322986D02*
X48245Y1325591D01*
X77070Y1367493D02*
X91842Y1370098D01*
X82713Y1335487D02*
X97486Y1338092D01*
X57374Y1380980D02*
X42601Y1383584D01*
X63017Y1412986D02*
X48245Y1415591D01*
X77070Y1457493D02*
X91842Y1460098D01*
X82713Y1425487D02*
X97486Y1428092D01*
X57374Y1470980D02*
X42601Y1473584D01*
X63017Y1502986D02*
X48245Y1505591D01*
X77070Y737493D02*
X91842Y740098D01*
X82713Y705487D02*
X97486Y708092D01*
X57374Y570980D02*
X42601Y573584D01*
X63017Y602986D02*
X48245Y605591D01*
X77070Y557493D02*
X91842Y560098D01*
X82713Y525487D02*
X97486Y528092D01*
X57374Y480980D02*
X42601Y483584D01*
X63017Y512986D02*
X48245Y515591D01*
X77070Y467494D02*
X91842Y470098D01*
X82713Y435487D02*
X97486Y438092D01*
X57374Y390980D02*
X42601Y393584D01*
X63017Y422986D02*
X48245Y425591D01*
X77070Y377494D02*
X91842Y380098D01*
X82713Y345487D02*
X97486Y348092D01*
X57374Y300980D02*
X42601Y303584D01*
X63017Y332986D02*
X48245Y335591D01*
X77070Y287493D02*
X91842Y290098D01*
X82713Y255487D02*
X97486Y258092D01*
X57374Y210980D02*
X42601Y213584D01*
X63017Y242986D02*
X48245Y245591D01*
X77070Y197493D02*
X91842Y200098D01*
X82713Y165487D02*
X97486Y168092D01*
X77070Y647493D02*
X91842Y650098D01*
X82713Y615487D02*
X97486Y618092D01*
X57374Y660980D02*
X42601Y663584D01*
X63017Y692986D02*
X48245Y695591D01*
X57374Y750980D02*
X42601Y753584D01*
X63017Y782986D02*
X48245Y785591D01*
X77070Y827494D02*
X91842Y830098D01*
X82713Y795487D02*
X97486Y798092D01*
X57374Y840980D02*
X42601Y843584D01*
X63017Y872986D02*
X48245Y875591D01*
X77070Y917494D02*
X91842Y920098D01*
X82713Y885487D02*
X97486Y888092D01*
X57374Y930980D02*
X42601Y933584D01*
X63017Y962986D02*
X48245Y965591D01*
X77070Y1007494D02*
X91842Y1010098D01*
X82713Y975487D02*
X97486Y978092D01*
X57374Y1020980D02*
X42601Y1023584D01*
X63017Y1052986D02*
X48245Y1055591D01*
X77070Y1277494D02*
X91842Y1280098D01*
X82713Y1245487D02*
X97486Y1248092D01*
X57374Y1200980D02*
X42601Y1203584D01*
X63017Y1232986D02*
X48245Y1235591D01*
X77070Y1187494D02*
X91842Y1190098D01*
X82713Y1155487D02*
X97486Y1158092D01*
X57374Y1110980D02*
X42601Y1113584D01*
X63017Y1142986D02*
X48245Y1145591D01*
X77070Y1097494D02*
X91842Y1100098D01*
X82713Y1065487D02*
X97486Y1068092D01*
M02*
