M48
;Layer_Color=9474304
;FILE_FORMAT=4:4
METRIC,LZ
;TYPE=PLATED
T1F00S00C3.8000
;TYPE=NON_PLATED
T2F00S00C0.7620
T3F00S00C1.0000
T4F00S00C1.6000
%
T01
X0007Y0011
X0019
X0031
X0043
X0055
X0067
X0079
X0091
X0103
X0115
X0115Y02005
X0103
X0091
X0079
X0067
X0055
X0043
X0031
X0019
X0007
T02
X0004Y00055
X0005
X0006
X0007
X0008
X0009
X001
X0016
X0017
X0018
X0019
X002
X0021
X0022
X0028
X0029
X003
X0031
X0032
X0033
X0034
X004
X0041
X0042
X0043
X0044
X0045
X0046
X0052
X0053
X0054
X0055
X0056
X0057
X0058
X0064
X0065
X0066
X0067
X0068
X0069
X007
X0076
X0077
X0078
X0079
X008
X0081
X0082
X0088
X0089
X009
X0091
X0092
X0093
X0094
X01
X0101
X0102
X0103
X0104
X0105
X0106
X0112
X0113
X0114
X0115
X0116
X0117
X0118
Y02055
X0117
X0116
X0115
X0114
X0113
X0112
X0106
X0105
X0104
X0103
X0102
X0101
X01
X0094
X0093
X0092
X0091
X009
X0089
X0088
X0082
X0081
X008
X0079
X0078
X0077
X0076
X007
X0069
X0068
X0067
X0066
X0065
X0064
X0058
X0057
X0056
X0055
X0054
X0053
X0052
X0046
X0045
X0044
X0043
X0042
X0041
X004
X0034
X0033
X0032
X0031
X003
X0029
X0028
X0022
X0021
X002
X0019
X0018
X0017
X0016
X001
X0009
X0008
X0007
X0006
X0005
X0004
T03
X00025Y0002
X012
X0120127Y0209
X0002127
T04
X0008Y0002
X01145
X0114627Y0209
X0007627
M30
