G04*
G04 #@! TF.GenerationSoftware,Altium Limited,Altium Designer,18.1.7 (191)*
G04*
G04 Layer_Color=16711935*
%FSLAX44Y44*%
%MOMM*%
G71*
G01*
G75*
%ADD21C,0.2032*%
%ADD22C,0.2960*%
%ADD23C,1.7272*%
%ADD24C,5.2032*%
D21*
X1146270Y2090000D02*
D03*
X76270D02*
D03*
X80000Y20000D02*
D03*
X1145000D02*
D03*
X1090000Y1055000D02*
D03*
X1210000Y1055000D02*
D03*
X1120000Y55000D02*
D03*
X1180000D02*
D03*
X1120000Y2055000D02*
D03*
X1180000D02*
D03*
X1170000D02*
D03*
X1160000D02*
D03*
X1150000D02*
D03*
X1140000D02*
D03*
X1130000D02*
D03*
Y55000D02*
D03*
X1140000D02*
D03*
X1150000D02*
D03*
X1160000D02*
D03*
X1170000D02*
D03*
X970000Y1055000D02*
D03*
X1090000Y1055000D02*
D03*
X1000000Y55000D02*
D03*
X1060000D02*
D03*
X1000000Y2055000D02*
D03*
X1060000D02*
D03*
X1050000D02*
D03*
X1040000D02*
D03*
X1030000D02*
D03*
X1020000D02*
D03*
X1010000D02*
D03*
Y55000D02*
D03*
X1020000D02*
D03*
X1030000D02*
D03*
X1040000D02*
D03*
X1050000D02*
D03*
X850000Y1055000D02*
D03*
X970000Y1055000D02*
D03*
X880000Y55000D02*
D03*
X940000D02*
D03*
X880000Y2055000D02*
D03*
X940000D02*
D03*
X930000D02*
D03*
X920000D02*
D03*
X910000D02*
D03*
X900000D02*
D03*
X890000D02*
D03*
Y55000D02*
D03*
X900000D02*
D03*
X910000D02*
D03*
X920000D02*
D03*
X930000D02*
D03*
X730000Y1055000D02*
D03*
X850000Y1055000D02*
D03*
X760000Y55000D02*
D03*
X820000D02*
D03*
X760000Y2055000D02*
D03*
X820000D02*
D03*
X810000D02*
D03*
X800000D02*
D03*
X790000D02*
D03*
X780000D02*
D03*
X770000D02*
D03*
Y55000D02*
D03*
X780000D02*
D03*
X790000D02*
D03*
X800000D02*
D03*
X810000D02*
D03*
X610000Y1055000D02*
D03*
X730000Y1055000D02*
D03*
X640000Y55000D02*
D03*
X700000D02*
D03*
X640000Y2055000D02*
D03*
X700000D02*
D03*
X690000D02*
D03*
X680000D02*
D03*
X670000D02*
D03*
X660000D02*
D03*
X650000D02*
D03*
Y55000D02*
D03*
X660000D02*
D03*
X670000D02*
D03*
X680000D02*
D03*
X690000D02*
D03*
X490000Y1055000D02*
D03*
X610000Y1055000D02*
D03*
X520000Y55000D02*
D03*
X580000D02*
D03*
X520000Y2055000D02*
D03*
X580000D02*
D03*
X570000D02*
D03*
X560000D02*
D03*
X550000D02*
D03*
X540000D02*
D03*
X530000D02*
D03*
Y55000D02*
D03*
X540000D02*
D03*
X550000D02*
D03*
X560000D02*
D03*
X570000D02*
D03*
X370000Y1055000D02*
D03*
X490000Y1055000D02*
D03*
X400000Y55000D02*
D03*
X460000D02*
D03*
X400000Y2055000D02*
D03*
X460000D02*
D03*
X450000D02*
D03*
X440000D02*
D03*
X430000D02*
D03*
X420000D02*
D03*
X410000D02*
D03*
Y55000D02*
D03*
X420000D02*
D03*
X430000D02*
D03*
X440000D02*
D03*
X450000D02*
D03*
X250000Y1055000D02*
D03*
X370000Y1055000D02*
D03*
X280000Y55000D02*
D03*
X340000D02*
D03*
X280000Y2055000D02*
D03*
X340000D02*
D03*
X330000D02*
D03*
X320000D02*
D03*
X310000D02*
D03*
X300000D02*
D03*
X290000D02*
D03*
Y55000D02*
D03*
X300000D02*
D03*
X310000D02*
D03*
X320000D02*
D03*
X330000D02*
D03*
X130000Y1055000D02*
D03*
X250000Y1055000D02*
D03*
X160000Y55000D02*
D03*
X220000D02*
D03*
X160000Y2055000D02*
D03*
X220000D02*
D03*
X210000D02*
D03*
X200000D02*
D03*
X190000D02*
D03*
X180000D02*
D03*
X170000D02*
D03*
Y55000D02*
D03*
X180000D02*
D03*
X190000D02*
D03*
X200000D02*
D03*
X210000D02*
D03*
X10000Y1055000D02*
D03*
X130000Y1055000D02*
D03*
X40000Y55000D02*
D03*
X100000D02*
D03*
X40000Y2055000D02*
D03*
X100000D02*
D03*
X90000D02*
D03*
X80000D02*
D03*
X70000D02*
D03*
X60000D02*
D03*
X50000D02*
D03*
Y55000D02*
D03*
X60000D02*
D03*
X70000D02*
D03*
X80000D02*
D03*
X90000D02*
D03*
D22*
X1201270Y2090000D02*
D03*
X21270D02*
D03*
X25000Y20000D02*
D03*
X1200000D02*
D03*
D23*
X1200000Y2060000D02*
D03*
X1100000D02*
D03*
Y50000D02*
D03*
X1200000D02*
D03*
X1080000Y2060000D02*
D03*
X980000D02*
D03*
Y50000D02*
D03*
X1080000D02*
D03*
X960000Y2060000D02*
D03*
X860000D02*
D03*
Y50000D02*
D03*
X960000D02*
D03*
X840000Y2060000D02*
D03*
X740000D02*
D03*
Y50000D02*
D03*
X840000D02*
D03*
X720000Y2060000D02*
D03*
X620000D02*
D03*
Y50000D02*
D03*
X720000D02*
D03*
X600000Y2060000D02*
D03*
X500000D02*
D03*
Y50000D02*
D03*
X600000D02*
D03*
X480000Y2060000D02*
D03*
X380000D02*
D03*
Y50000D02*
D03*
X480000D02*
D03*
X360000Y2060000D02*
D03*
X260000D02*
D03*
Y50000D02*
D03*
X360000D02*
D03*
X240000Y2060000D02*
D03*
X140000D02*
D03*
Y50000D02*
D03*
X240000D02*
D03*
X120000Y2060000D02*
D03*
X20000D02*
D03*
Y50000D02*
D03*
X120000D02*
D03*
D24*
X1150000Y2005000D02*
D03*
X1150000Y110000D02*
D03*
X1030000Y2005000D02*
D03*
X1030000Y110000D02*
D03*
X910000Y2005000D02*
D03*
X910000Y110000D02*
D03*
X790000Y2005000D02*
D03*
X790000Y110000D02*
D03*
X670000Y2005000D02*
D03*
X670000Y110000D02*
D03*
X550000Y2005000D02*
D03*
X550000Y110000D02*
D03*
X430000Y2005000D02*
D03*
X430000Y110000D02*
D03*
X310000Y2005000D02*
D03*
X310000Y110000D02*
D03*
X190000Y2005000D02*
D03*
X190000Y110000D02*
D03*
X70000Y2005000D02*
D03*
X70000Y110000D02*
D03*
M02*
