M48
;Layer_Color=9474304
;FILE_FORMAT=4:4
METRIC,LZ
;TYPE=PLATED
;TYPE=NON_PLATED
T5F00S00C2.0000
%
G90
G05
T05
G00X0003Y0005
M15
G01X0001
M16
G00X0013Y0005
M15
G01X0011
M16
G00X0015Y0005
M15
G01X0013
M16
G00X0025Y0005
M15
G01X0023
M16
G00X0027Y0005
M15
G01X0025
M16
G00X0037Y0005
M15
G01X0035
M16
G00X0039Y0005
M15
G01X0037
M16
G00X0049Y0005
M15
G01X0047
M16
G00X0051Y0005
M15
G01X0049
M16
G00X0061Y0005
M15
G01X0059
M16
G00X0063Y0005
M15
G01X0061
M16
G00X0073Y0005
M15
G01X0071
M16
G00X0075Y0005
M15
G01X0073
M16
G00X0085Y0005
M15
G01X0083
M16
G00X0087Y0005
M15
G01X0085
M16
G00X0097Y0005
M15
G01X0095
M16
G00X0099Y0005
M15
G01X0097
M16
G00X0109Y0005
M15
G01X0107
M16
G00X0111Y0005
M15
G01X0109
M16
G00X0121Y0005
M15
G01X0119
M16
G00X0037Y0006
M15
G01Y0205
M16
G00X0037Y0006
M15
G01Y0205
M16
G00X0025Y0006
M15
G01Y0205
M16
G00X0025Y0006
M15
G01Y0205
M16
G00X0013Y0006
M15
G01Y0205
M16
G00X0013Y0006
M15
G01Y0205
M16
G00X0001Y0006
M15
G01Y0205
M16
G00X0049Y0006
M15
G01Y0205
M16
G00X0049Y0006
M15
G01Y0205
M16
G00X0061Y0006
M15
G01Y0205
M16
G00X0061Y0006
M15
G01Y0205
M16
G00X0073Y0006
M15
G01Y0205
M16
G00X0073Y0006
M15
G01Y0205
M16
G00X0085Y0006
M15
G01Y0205
M16
G00X0085Y0006
M15
G01Y0205
M16
G00X0097Y0006
M15
G01Y0205
M16
G00X0097Y0006
M15
G01Y0205
M16
G00X0109Y0006
M15
G01Y0205
M16
G00X0109Y0006
M15
G01Y0205
M16
G00X0121Y0006
M15
G01Y0205
M16
G00X0121Y0206
M15
G01X0119
M16
G00X0111Y0206
M15
G01X0109
M16
G00X0109Y0206
M15
G01X0107
M16
G00X0099Y0206
M15
G01X0097
M16
G00X0097Y0206
M15
G01X0095
M16
G00X0087Y0206
M15
G01X0085
M16
G00X0085Y0206
M15
G01X0083
M16
G00X0075Y0206
M15
G01X0073
M16
G00X0073Y0206
M15
G01X0071
M16
G00X0063Y0206
M15
G01X0061
M16
G00X0061Y0206
M15
G01X0059
M16
G00X0051Y0206
M15
G01X0049
M16
G00X0049Y0206
M15
G01X0047
M16
G00X0039Y0206
M15
G01X0037
M16
G00X0037Y0206
M15
G01X0035
M16
G00X0027Y0206
M15
G01X0025
M16
G00X0025Y0206
M15
G01X0023
M16
G00X0015Y0206
M15
G01X0013
M16
G00X0013Y0206
M15
G01X0011
M16
G00X0003Y0206
M15
G01X0001
M16
M17
M30
