G04*
G04 #@! TF.GenerationSoftware,Altium Limited,Altium Designer,18.1.7 (191)*
G04*
G04 Layer_Physical_Order=2*
G04 Layer_Color=16711680*
%FSLAX44Y44*%
%MOMM*%
G71*
G01*
G75*
%ADD13C,1.5240*%
%ADD14C,5.0000*%
D13*
X20000Y50000D02*
D03*
X120000D02*
D03*
Y1610000D02*
D03*
X20000D02*
D03*
X140000Y50000D02*
D03*
X240000D02*
D03*
Y1610000D02*
D03*
X140000D02*
D03*
X260000Y50000D02*
D03*
X360000D02*
D03*
Y1610000D02*
D03*
X260000D02*
D03*
X380000Y50000D02*
D03*
X480000D02*
D03*
Y1610000D02*
D03*
X380000D02*
D03*
X500000Y50000D02*
D03*
X600000D02*
D03*
Y1610000D02*
D03*
X500000D02*
D03*
X620000Y50000D02*
D03*
X720000D02*
D03*
Y1610000D02*
D03*
X620000D02*
D03*
X740000Y50000D02*
D03*
X840000D02*
D03*
Y1610000D02*
D03*
X740000D02*
D03*
X860000Y50000D02*
D03*
X960000D02*
D03*
Y1610000D02*
D03*
X860000D02*
D03*
X980000Y50000D02*
D03*
X1080000D02*
D03*
Y1610000D02*
D03*
X980000D02*
D03*
X1100000Y50000D02*
D03*
X1200000D02*
D03*
Y1610000D02*
D03*
X1100000D02*
D03*
X1220000Y50000D02*
D03*
X1320000D02*
D03*
Y1610000D02*
D03*
X1220000D02*
D03*
X1340000Y50000D02*
D03*
X1440000D02*
D03*
Y1610000D02*
D03*
X1340000D02*
D03*
X1460000Y50000D02*
D03*
X1560000D02*
D03*
Y1610000D02*
D03*
X1460000D02*
D03*
X1580000Y50000D02*
D03*
X1680000D02*
D03*
Y1610000D02*
D03*
X1580000D02*
D03*
X1700000Y50000D02*
D03*
X1800000D02*
D03*
Y1610000D02*
D03*
X1700000D02*
D03*
X1820000Y50000D02*
D03*
X1920000D02*
D03*
Y1610000D02*
D03*
X1820000D02*
D03*
X1940000Y50000D02*
D03*
X2040000D02*
D03*
Y1610000D02*
D03*
X1940000D02*
D03*
X2060000Y50000D02*
D03*
X2160000D02*
D03*
Y1610000D02*
D03*
X2060000D02*
D03*
X2180000Y50000D02*
D03*
X2280000D02*
D03*
Y1610000D02*
D03*
X2180000D02*
D03*
X2300000Y50000D02*
D03*
X2400000D02*
D03*
Y1610000D02*
D03*
X2300000D02*
D03*
X2420000Y50000D02*
D03*
X2520000D02*
D03*
Y1610000D02*
D03*
X2420000D02*
D03*
X2540000Y50000D02*
D03*
X2640000D02*
D03*
Y1610000D02*
D03*
X2540000D02*
D03*
X2660000Y50000D02*
D03*
X2760000D02*
D03*
Y1610000D02*
D03*
X2660000D02*
D03*
X2780000Y50000D02*
D03*
X2880000D02*
D03*
Y1610000D02*
D03*
X2780000D02*
D03*
X2900000Y50000D02*
D03*
X3000000D02*
D03*
Y1610000D02*
D03*
X2900000D02*
D03*
X3020000Y50000D02*
D03*
X3120000D02*
D03*
Y1610000D02*
D03*
X3020000D02*
D03*
X3140000Y50000D02*
D03*
X3240000D02*
D03*
Y1610000D02*
D03*
X3140000D02*
D03*
X3260000Y50000D02*
D03*
X3360000D02*
D03*
Y1610000D02*
D03*
X3260000D02*
D03*
X3380000Y50000D02*
D03*
X3480000D02*
D03*
Y1610000D02*
D03*
X3380000D02*
D03*
X3500000Y50000D02*
D03*
X3600000D02*
D03*
Y1610000D02*
D03*
X3500000D02*
D03*
X3620000Y50000D02*
D03*
X3720000D02*
D03*
Y1610000D02*
D03*
X3620000D02*
D03*
X3740000Y50000D02*
D03*
X3840000D02*
D03*
Y1610000D02*
D03*
X3740000D02*
D03*
X3860000Y50000D02*
D03*
X3960000D02*
D03*
Y1610000D02*
D03*
X3860000D02*
D03*
X3980000Y50000D02*
D03*
X4080000D02*
D03*
Y1610000D02*
D03*
X3980000D02*
D03*
X4100000Y50000D02*
D03*
X4200000D02*
D03*
Y1610000D02*
D03*
X4100000D02*
D03*
X4220000Y50000D02*
D03*
X4320000D02*
D03*
Y1610000D02*
D03*
X4220000D02*
D03*
X4340000Y50000D02*
D03*
X4440000D02*
D03*
Y1610000D02*
D03*
X4340000D02*
D03*
X4460000Y50000D02*
D03*
X4560000D02*
D03*
Y1610000D02*
D03*
X4460000D02*
D03*
X4580000Y50000D02*
D03*
X4680000D02*
D03*
Y1610000D02*
D03*
X4580000D02*
D03*
D14*
X70000Y105000D02*
D03*
X70000Y1550000D02*
D03*
X190000Y105000D02*
D03*
X190000Y1550000D02*
D03*
X310000Y105000D02*
D03*
X310000Y1550000D02*
D03*
X430000Y105000D02*
D03*
X430000Y1550000D02*
D03*
X550000Y105000D02*
D03*
X550000Y1550000D02*
D03*
X670000Y105000D02*
D03*
X670000Y1550000D02*
D03*
X790000Y105000D02*
D03*
X790000Y1550000D02*
D03*
X910000Y105000D02*
D03*
X910000Y1550000D02*
D03*
X1030000Y105000D02*
D03*
X1030000Y1550000D02*
D03*
X1150000Y105000D02*
D03*
X1150000Y1550000D02*
D03*
X1270000Y105000D02*
D03*
X1270000Y1550000D02*
D03*
X1390000Y105000D02*
D03*
X1390000Y1550000D02*
D03*
X1510000Y105000D02*
D03*
X1510000Y1550000D02*
D03*
X1630000Y105000D02*
D03*
X1630000Y1550000D02*
D03*
X1750000Y105000D02*
D03*
X1750000Y1550000D02*
D03*
X1870000Y105000D02*
D03*
X1870000Y1550000D02*
D03*
X1990000Y105000D02*
D03*
X1990000Y1550000D02*
D03*
X2110000Y105000D02*
D03*
X2110000Y1550000D02*
D03*
X2230000Y105000D02*
D03*
X2230000Y1550000D02*
D03*
X2350000Y105000D02*
D03*
X2350000Y1550000D02*
D03*
X2470000Y105000D02*
D03*
X2470000Y1550000D02*
D03*
X2590000Y105000D02*
D03*
X2590000Y1550000D02*
D03*
X2710000Y105000D02*
D03*
X2710000Y1550000D02*
D03*
X2830000Y105000D02*
D03*
X2830000Y1550000D02*
D03*
X2950000Y105000D02*
D03*
X2950000Y1550000D02*
D03*
X3070000Y105000D02*
D03*
X3070000Y1550000D02*
D03*
X3190000Y105000D02*
D03*
X3190000Y1550000D02*
D03*
X3310000Y105000D02*
D03*
X3310000Y1550000D02*
D03*
X3430000Y105000D02*
D03*
X3430000Y1550000D02*
D03*
X3550000Y105000D02*
D03*
X3550000Y1550000D02*
D03*
X3670000Y105000D02*
D03*
X3670000Y1550000D02*
D03*
X3790000Y105000D02*
D03*
X3790000Y1550000D02*
D03*
X3910000Y105000D02*
D03*
X3910000Y1550000D02*
D03*
X4030000Y105000D02*
D03*
X4030000Y1550000D02*
D03*
X4150000Y105000D02*
D03*
X4150000Y1550000D02*
D03*
X4270000Y105000D02*
D03*
X4270000Y1550000D02*
D03*
X4390000Y105000D02*
D03*
X4390000Y1550000D02*
D03*
X4510000Y105000D02*
D03*
X4510000Y1550000D02*
D03*
X4630000Y105000D02*
D03*
X4630000Y1550000D02*
D03*
M02*
