M48
;Layer_Color=9474304
;FILE_FORMAT=4:4
METRIC,LZ
;TYPE=PLATED
T1F00S00C3.8000
;TYPE=NON_PLATED
T2F00S00C0.7620
T3F00S00C1.0000
T4F00S00C1.6000
%
T01
X0007Y00105
X0019
X0031
X0043
X0055
X0067
X0079
X0091
X0103
X0115
X0127
X0139
X0151
X0163
X0175
X0187
X0199
X0211
X0223
X0235
X0247
X0259
X0271
X0283
X0295
X0307
X0319
X0331
X0343
X0355
X0367
X0379
X0391
X0403
X0415
X0427
X0439
X0451
X0463
X0463Y0155
X0451
X0439
X0427
X0415
X0403
X0391
X0379
X0367
X0355
X0343
X0331
X0319
X0307
X0295
X0283
X0271
X0259
X0247
X0235
X0223
X0211
X0199
X0187
X0175
X0163
X0151
X0139
X0127
X0115
X0103
X0091
X0079
X0067
X0055
X0043
X0031
X0019
X0007
T02
X0004Y00055
X0005
X0006
X0007
X0008
X0009
X001
X0016
X0017
X0018
X0019
X002
X0021
X0022
X0028
X0029
X003
X0031
X0032
X0033
X0034
X004
X0041
X0042
X0043
X0044
X0045
X0046
X0052
X0053
X0054
X0055
X0056
X0057
X0058
X0064
X0065
X0066
X0067
X0068
X0069
X007
X0076
X0077
X0078
X0079
X008
X0081
X0082
X0088
X0089
X009
X0091
X0092
X0093
X0094
X01
X0101
X0102
X0103
X0104
X0105
X0106
X0112
X0113
X0114
X0115
X0116
X0117
X0118
X0124
X0125
X0126
X0127
X0128
X0129
X013
X0136
X0137
X0138
X0139
X014
X0141
X0142
X0148
X0149
X015
X0151
X0152
X0153
X0154
X016
X0161
X0162
X0163
X0164
X0165
X0166
X0172
X0173
X0174
X0175
X0176
X0177
X0178
X0184
X0185
X0186
X0187
X0188
X0189
X019
X0196
X0197
X0198
X0199
X02
X0201
X0202
X0208
X0209
X021
X0211
X0212
X0213
X0214
X022
X0221
X0222
X0223
X0224
X0225
X0226
X0232
X0233
X0234
X0235
X0236
X0237
X0238
X0244
X0245
X0246
X0247
X0248
X0249
X025
X0256
X0257
X0258
X0259
X026
X0261
X0262
X0268
X0269
X027
X0271
X0272
X0273
X0274
X028
X0281
X0282
X0283
X0284
X0285
X0286
X0292
X0293
X0294
X0295
X0296
X0297
X0298
X0304
X0305
X0306
X0307
X0308
X0309
X031
X0316
X0317
X0318
X0319
X032
X0321
X0322
X0328
X0329
X033
X0331
X0332
X0333
X0334
X034
X0341
X0342
X0343
X0344
X0345
X0346
X0352
X0353
X0354
X0355
X0356
X0357
X0358
X0364
X0365
X0366
X0367
X0368
X0369
X037
X0376
X0377
X0378
X0379
X038
X0381
X0382
X0388
X0389
X039
X0391
X0392
X0393
X0394
X04
X0401
X0402
X0403
X0404
X0405
X0406
X0412
X0413
X0414
X0415
X0416
X0417
X0418
X0424
X0425
X0426
X0427
X0428
X0429
X043
X0436
X0437
X0438
X0439
X044
X0441
X0442
X0448
X0449
X045
X0451
X0452
X0453
X0454
X046
X0461
X0462
X0463
X0464
X0465
X0466
X0034Y01605
X0033
X0032
X0031
X003
X0029
X0028
X0022
X0021
X002
X0019
X0018
X0017
X0016
X001
X0009
X0008
X0007
X0006
X0005
X0004
X004
X0041
X0042
X0043
X0044
X0045
X0046
X0052
X0053
X0054
X0055
X0056
X0057
X0058
X0064
X0065
X0066
X0067
X0068
X0069
X007
X0076
X0077
X0078
X0079
X008
X0081
X0082
X0088
X0089
X009
X0091
X0092
X0093
X0094
X01
X0101
X0102
X0103
X0104
X0105
X0106
X0112
X0113
X0114
X0115
X0116
X0117
X0118
X0124
X0125
X0126
X0127
X0128
X0129
X013
X0136
X0137
X0138
X0139
X014
X0141
X0142
X0148
X0149
X015
X0151
X0152
X0153
X0154
X016
X0161
X0162
X0163
X0164
X0165
X0166
X0172
X0173
X0174
X0175
X0176
X0177
X0178
X0184
X0185
X0186
X0187
X0188
X0189
X019
X0196
X0197
X0198
X0199
X02
X0201
X0202
X0208
X0209
X021
X0211
X0212
X0213
X0214
X022
X0221
X0222
X0223
X0224
X0225
X0226
X0232
X0233
X0234
X0235
X0236
X0237
X0238
X0244
X0245
X0246
X0247
X0248
X0249
X025
X0256
X0257
X0258
X0259
X026
X0261
X0262
X0268
X0269
X027
X0271
X0272
X0273
X0274
X028
X0281
X0282
X0283
X0284
X0285
X0286
X0292
X0293
X0294
X0295
X0296
X0297
X0298
X0304
X0305
X0306
X0307
X0308
X0309
X031
X0316
X0317
X0318
X0319
X032
X0321
X0322
X0328
X0329
X033
X0331
X0332
X0333
X0334
X034
X0341
X0342
X0343
X0344
X0345
X0346
X0352
X0353
X0354
X0355
X0356
X0357
X0358
X0364
X0365
X0366
X0367
X0368
X0369
X037
X0376
X0377
X0378
X0379
X038
X0381
X0382
X0388
X0389
X039
X0391
X0392
X0393
X0394
X04
X0401
X0402
X0403
X0404
X0405
X0406
X0412
X0413
X0414
X0415
X0416
X0417
X0418
X0424
X0425
X0426
X0427
X0428
X0429
X043
X0436
X0437
X0438
X0439
X044
X0441
X0442
X0448
X0449
X045
X0451
X0452
X0453
X0454
X046
X0461
X0462
X0463
X0464
X0465
X0466
T03
X00025Y0002
X0468
X0002127Y0164
X0468127
T04
X0008Y0002
X04625
X0007627Y0164
X0462627
M30
