G04*
G04 #@! TF.GenerationSoftware,Altium Limited,Altium Designer,18.1.7 (191)*
G04*
G04 Layer_Color=65535*
%FSLAX44Y44*%
%MOMM*%
G71*
G01*
G75*
%ADD15C,0.2540*%
%ADD16C,0.2000*%
D15*
X1270Y1620000D02*
X4700000Y1620000D01*
X0Y40000D02*
X4700000D01*
X110157Y27617D02*
X105078D01*
X107618D01*
Y14922D01*
X105078Y12383D01*
X102539D01*
X100000Y14922D01*
X115235Y27617D02*
Y12383D01*
X125392D01*
X140627Y25078D02*
X138088Y27617D01*
X133009D01*
X130470Y25078D01*
Y14922D01*
X133009Y12383D01*
X138088D01*
X140627Y14922D01*
X155862Y27617D02*
X150784D01*
X153323D01*
Y14922D01*
X150784Y12383D01*
X148244D01*
X145705Y14922D01*
X160940Y27617D02*
Y12383D01*
X171097D01*
X186332Y25078D02*
X183793Y27617D01*
X178715D01*
X176175Y25078D01*
Y14922D01*
X178715Y12383D01*
X183793D01*
X186332Y14922D01*
X201567Y27617D02*
X196489D01*
X199028D01*
Y14922D01*
X196489Y12383D01*
X193950D01*
X191410Y14922D01*
X206646Y27617D02*
Y12383D01*
X216802D01*
X232037Y25078D02*
X229498Y27617D01*
X224420D01*
X221881Y25078D01*
Y14922D01*
X224420Y12383D01*
X229498D01*
X232037Y14922D01*
X247272Y27617D02*
X242194D01*
X244733D01*
Y14922D01*
X242194Y12383D01*
X239655D01*
X237116Y14922D01*
X252351Y27617D02*
Y12383D01*
X262507D01*
X277743Y25078D02*
X275203Y27617D01*
X270125D01*
X267586Y25078D01*
Y14922D01*
X270125Y12383D01*
X275203D01*
X277743Y14922D01*
D16*
X82626Y369020D02*
X97399Y366416D01*
X76983Y337014D02*
X91755Y334409D01*
X62930Y292507D02*
X48158Y289902D01*
X57287Y324513D02*
X42515Y321908D01*
X82626Y279020D02*
X97399Y276416D01*
X76983Y247014D02*
X91755Y244409D01*
X62930Y202507D02*
X48158Y199902D01*
X57287Y234513D02*
X42515Y231908D01*
X82626Y189020D02*
X97399Y186416D01*
X76983Y157014D02*
X91755Y154409D01*
X62930Y922506D02*
X48158Y919902D01*
X57287Y954513D02*
X42515Y951908D01*
X82626Y1089020D02*
X97399Y1086416D01*
X76983Y1057014D02*
X91755Y1054409D01*
X62930Y1102506D02*
X48158Y1099902D01*
X57287Y1134513D02*
X42515Y1131908D01*
X82626Y1179020D02*
X97399Y1176416D01*
X76983Y1147014D02*
X91755Y1144409D01*
X62930Y1192506D02*
X48158Y1189902D01*
X57287Y1224513D02*
X42515Y1221908D01*
X82626Y1269020D02*
X97399Y1266416D01*
X76983Y1237014D02*
X91755Y1234409D01*
X62930Y1282507D02*
X48158Y1279902D01*
X57287Y1314513D02*
X42515Y1311908D01*
X82626Y1359020D02*
X97399Y1356416D01*
X76983Y1327014D02*
X91755Y1324409D01*
X62930Y1372507D02*
X48158Y1369902D01*
X57287Y1404513D02*
X42515Y1401908D01*
X82626Y1449020D02*
X97399Y1446416D01*
X76983Y1417014D02*
X91755Y1414409D01*
X62930Y1462507D02*
X48158Y1459902D01*
X57287Y1494513D02*
X42515Y1491908D01*
X62930Y1012506D02*
X48158Y1009902D01*
X57287Y1044513D02*
X42515Y1041908D01*
X82626Y999020D02*
X97399Y996416D01*
X76983Y967014D02*
X91755Y964409D01*
X82626Y909020D02*
X97399Y906416D01*
X76983Y877014D02*
X91755Y874409D01*
X62930Y832506D02*
X48158Y829902D01*
X57287Y864513D02*
X42515Y861908D01*
X82626Y819020D02*
X97399Y816416D01*
X76983Y787014D02*
X91755Y784409D01*
X62930Y742506D02*
X48158Y739902D01*
X57287Y774513D02*
X42515Y771908D01*
X82626Y729020D02*
X97399Y726416D01*
X76983Y697014D02*
X91755Y694409D01*
X62930Y652506D02*
X48158Y649902D01*
X57287Y684513D02*
X42515Y681908D01*
X82626Y639020D02*
X97399Y636416D01*
X76983Y607014D02*
X91755Y604409D01*
X62930Y382506D02*
X48158Y379902D01*
X57287Y414513D02*
X42515Y411908D01*
X82626Y459020D02*
X97399Y456416D01*
X76983Y427014D02*
X91755Y424409D01*
X62930Y472506D02*
X48158Y469902D01*
X57287Y504513D02*
X42515Y501908D01*
X82626Y549020D02*
X97399Y546416D01*
X76983Y517014D02*
X91755Y514409D01*
X62930Y562506D02*
X48158Y559902D01*
X57287Y594513D02*
X42515Y591908D01*
X202626Y369020D02*
X217399Y366416D01*
X196983Y337014D02*
X211755Y334409D01*
X182930Y292507D02*
X168158Y289902D01*
X177287Y324513D02*
X162515Y321908D01*
X202626Y279020D02*
X217399Y276416D01*
X196983Y247014D02*
X211755Y244409D01*
X182930Y202507D02*
X168158Y199902D01*
X177287Y234513D02*
X162515Y231908D01*
X202626Y189020D02*
X217399Y186416D01*
X196983Y157014D02*
X211755Y154409D01*
X182930Y922506D02*
X168158Y919902D01*
X177287Y954513D02*
X162515Y951908D01*
X202626Y1089020D02*
X217399Y1086416D01*
X196983Y1057014D02*
X211755Y1054409D01*
X182930Y1102506D02*
X168158Y1099902D01*
X177287Y1134513D02*
X162515Y1131908D01*
X202626Y1179020D02*
X217399Y1176416D01*
X196983Y1147014D02*
X211755Y1144409D01*
X182930Y1192506D02*
X168158Y1189902D01*
X177287Y1224513D02*
X162515Y1221908D01*
X202626Y1269020D02*
X217399Y1266416D01*
X196983Y1237014D02*
X211755Y1234409D01*
X182930Y1282507D02*
X168158Y1279902D01*
X177287Y1314513D02*
X162515Y1311908D01*
X202626Y1359020D02*
X217399Y1356416D01*
X196983Y1327014D02*
X211755Y1324409D01*
X182930Y1372507D02*
X168158Y1369902D01*
X177287Y1404513D02*
X162515Y1401908D01*
X202626Y1449020D02*
X217399Y1446416D01*
X196983Y1417014D02*
X211755Y1414409D01*
X182930Y1462507D02*
X168158Y1459902D01*
X177287Y1494513D02*
X162515Y1491908D01*
X182930Y1012506D02*
X168158Y1009902D01*
X177287Y1044513D02*
X162515Y1041908D01*
X202626Y999020D02*
X217399Y996416D01*
X196983Y967014D02*
X211755Y964409D01*
X202626Y909020D02*
X217399Y906416D01*
X196983Y877014D02*
X211755Y874409D01*
X182930Y832506D02*
X168158Y829902D01*
X177287Y864513D02*
X162515Y861908D01*
X202626Y819020D02*
X217399Y816416D01*
X196983Y787014D02*
X211755Y784409D01*
X182930Y742506D02*
X168158Y739902D01*
X177287Y774513D02*
X162515Y771908D01*
X202626Y729020D02*
X217399Y726416D01*
X196983Y697014D02*
X211755Y694409D01*
X182930Y652506D02*
X168158Y649902D01*
X177287Y684513D02*
X162515Y681908D01*
X202626Y639020D02*
X217399Y636416D01*
X196983Y607014D02*
X211755Y604409D01*
X182930Y382506D02*
X168158Y379902D01*
X177287Y414513D02*
X162515Y411908D01*
X202626Y459020D02*
X217399Y456416D01*
X196983Y427014D02*
X211755Y424409D01*
X182930Y472506D02*
X168158Y469902D01*
X177287Y504513D02*
X162515Y501908D01*
X202626Y549020D02*
X217399Y546416D01*
X196983Y517014D02*
X211755Y514409D01*
X182930Y562506D02*
X168158Y559902D01*
X177287Y594513D02*
X162515Y591908D01*
X322626Y369020D02*
X337399Y366416D01*
X316983Y337014D02*
X331755Y334409D01*
X302930Y292507D02*
X288158Y289902D01*
X297287Y324513D02*
X282515Y321908D01*
X322626Y279020D02*
X337399Y276416D01*
X316983Y247014D02*
X331755Y244409D01*
X302930Y202507D02*
X288158Y199902D01*
X297287Y234513D02*
X282515Y231908D01*
X322626Y189020D02*
X337399Y186416D01*
X316983Y157014D02*
X331755Y154409D01*
X302930Y922506D02*
X288158Y919902D01*
X297287Y954513D02*
X282515Y951908D01*
X322626Y1089020D02*
X337399Y1086416D01*
X316983Y1057014D02*
X331755Y1054409D01*
X302930Y1102506D02*
X288158Y1099902D01*
X297287Y1134513D02*
X282515Y1131908D01*
X322626Y1179020D02*
X337399Y1176416D01*
X316983Y1147014D02*
X331755Y1144409D01*
X302930Y1192506D02*
X288158Y1189902D01*
X297287Y1224513D02*
X282515Y1221908D01*
X322626Y1269020D02*
X337399Y1266416D01*
X316983Y1237014D02*
X331755Y1234409D01*
X302930Y1282507D02*
X288158Y1279902D01*
X297287Y1314513D02*
X282515Y1311908D01*
X322626Y1359020D02*
X337399Y1356416D01*
X316983Y1327014D02*
X331755Y1324409D01*
X302930Y1372507D02*
X288158Y1369902D01*
X297287Y1404513D02*
X282515Y1401908D01*
X322626Y1449020D02*
X337399Y1446416D01*
X316983Y1417014D02*
X331755Y1414409D01*
X302930Y1462507D02*
X288158Y1459902D01*
X297287Y1494513D02*
X282515Y1491908D01*
X302930Y1012506D02*
X288158Y1009902D01*
X297287Y1044513D02*
X282515Y1041908D01*
X322626Y999020D02*
X337399Y996416D01*
X316983Y967014D02*
X331755Y964409D01*
X322626Y909020D02*
X337399Y906416D01*
X316983Y877014D02*
X331755Y874409D01*
X302930Y832506D02*
X288158Y829902D01*
X297287Y864513D02*
X282515Y861908D01*
X322626Y819020D02*
X337399Y816416D01*
X316983Y787014D02*
X331755Y784409D01*
X302930Y742506D02*
X288158Y739902D01*
X297287Y774513D02*
X282515Y771908D01*
X322626Y729020D02*
X337399Y726416D01*
X316983Y697014D02*
X331755Y694409D01*
X302930Y652506D02*
X288158Y649902D01*
X297287Y684513D02*
X282515Y681908D01*
X322626Y639020D02*
X337399Y636416D01*
X316983Y607014D02*
X331755Y604409D01*
X302930Y382506D02*
X288158Y379902D01*
X297287Y414513D02*
X282515Y411908D01*
X322626Y459020D02*
X337399Y456416D01*
X316983Y427014D02*
X331755Y424409D01*
X302930Y472506D02*
X288158Y469902D01*
X297287Y504513D02*
X282515Y501908D01*
X322626Y549020D02*
X337399Y546416D01*
X316983Y517014D02*
X331755Y514409D01*
X302930Y562506D02*
X288158Y559902D01*
X297287Y594513D02*
X282515Y591908D01*
X442626Y369020D02*
X457399Y366416D01*
X436983Y337014D02*
X451755Y334409D01*
X422930Y292507D02*
X408158Y289902D01*
X417287Y324513D02*
X402515Y321908D01*
X442626Y279020D02*
X457399Y276416D01*
X436983Y247014D02*
X451755Y244409D01*
X422930Y202507D02*
X408158Y199902D01*
X417287Y234513D02*
X402515Y231908D01*
X442626Y189020D02*
X457399Y186416D01*
X436983Y157014D02*
X451755Y154409D01*
X422930Y922506D02*
X408158Y919902D01*
X417287Y954513D02*
X402515Y951908D01*
X442626Y1089020D02*
X457399Y1086416D01*
X436983Y1057014D02*
X451755Y1054409D01*
X422930Y1102506D02*
X408158Y1099902D01*
X417287Y1134513D02*
X402515Y1131908D01*
X442626Y1179020D02*
X457399Y1176416D01*
X436983Y1147014D02*
X451755Y1144409D01*
X422930Y1192506D02*
X408158Y1189902D01*
X417287Y1224513D02*
X402515Y1221908D01*
X442626Y1269020D02*
X457399Y1266416D01*
X436983Y1237014D02*
X451755Y1234409D01*
X422930Y1282507D02*
X408158Y1279902D01*
X417287Y1314513D02*
X402515Y1311908D01*
X442626Y1359020D02*
X457399Y1356416D01*
X436983Y1327014D02*
X451755Y1324409D01*
X422930Y1372507D02*
X408158Y1369902D01*
X417287Y1404513D02*
X402515Y1401908D01*
X442626Y1449020D02*
X457399Y1446416D01*
X436983Y1417014D02*
X451755Y1414409D01*
X422930Y1462507D02*
X408158Y1459902D01*
X417287Y1494513D02*
X402515Y1491908D01*
X422930Y1012506D02*
X408158Y1009902D01*
X417287Y1044513D02*
X402515Y1041908D01*
X442626Y999020D02*
X457399Y996416D01*
X436983Y967014D02*
X451755Y964409D01*
X442626Y909020D02*
X457399Y906416D01*
X436983Y877014D02*
X451755Y874409D01*
X422930Y832506D02*
X408158Y829902D01*
X417287Y864513D02*
X402515Y861908D01*
X442626Y819020D02*
X457399Y816416D01*
X436983Y787014D02*
X451755Y784409D01*
X422930Y742506D02*
X408158Y739902D01*
X417287Y774513D02*
X402515Y771908D01*
X442626Y729020D02*
X457399Y726416D01*
X436983Y697014D02*
X451755Y694409D01*
X422930Y652506D02*
X408158Y649902D01*
X417287Y684513D02*
X402515Y681908D01*
X442626Y639020D02*
X457399Y636416D01*
X436983Y607014D02*
X451755Y604409D01*
X422930Y382506D02*
X408158Y379902D01*
X417287Y414513D02*
X402515Y411908D01*
X442626Y459020D02*
X457399Y456416D01*
X436983Y427014D02*
X451755Y424409D01*
X422930Y472506D02*
X408158Y469902D01*
X417287Y504513D02*
X402515Y501908D01*
X442626Y549020D02*
X457399Y546416D01*
X436983Y517014D02*
X451755Y514409D01*
X422930Y562506D02*
X408158Y559902D01*
X417287Y594513D02*
X402515Y591908D01*
X562626Y369020D02*
X577398Y366416D01*
X556983Y337014D02*
X571755Y334409D01*
X542930Y292507D02*
X528158Y289902D01*
X537287Y324513D02*
X522515Y321908D01*
X562626Y279020D02*
X577398Y276416D01*
X556983Y247014D02*
X571755Y244409D01*
X542930Y202507D02*
X528158Y199902D01*
X537287Y234513D02*
X522515Y231908D01*
X562626Y189020D02*
X577398Y186416D01*
X556983Y157014D02*
X571755Y154409D01*
X542930Y922506D02*
X528158Y919902D01*
X537287Y954513D02*
X522515Y951908D01*
X562626Y1089020D02*
X577398Y1086416D01*
X556983Y1057014D02*
X571755Y1054409D01*
X542930Y1102506D02*
X528158Y1099902D01*
X537287Y1134513D02*
X522515Y1131908D01*
X562626Y1179020D02*
X577398Y1176416D01*
X556983Y1147014D02*
X571755Y1144409D01*
X542930Y1192506D02*
X528158Y1189902D01*
X537287Y1224513D02*
X522515Y1221908D01*
X562626Y1269020D02*
X577398Y1266416D01*
X556983Y1237014D02*
X571755Y1234409D01*
X542930Y1282507D02*
X528158Y1279902D01*
X537287Y1314513D02*
X522515Y1311908D01*
X562626Y1359020D02*
X577398Y1356416D01*
X556983Y1327014D02*
X571755Y1324409D01*
X542930Y1372507D02*
X528158Y1369902D01*
X537287Y1404513D02*
X522515Y1401908D01*
X562626Y1449020D02*
X577398Y1446416D01*
X556983Y1417014D02*
X571755Y1414409D01*
X542930Y1462507D02*
X528158Y1459902D01*
X537287Y1494513D02*
X522515Y1491908D01*
X542930Y1012506D02*
X528158Y1009902D01*
X537287Y1044513D02*
X522515Y1041908D01*
X562626Y999020D02*
X577398Y996416D01*
X556983Y967014D02*
X571755Y964409D01*
X562626Y909020D02*
X577398Y906416D01*
X556983Y877014D02*
X571755Y874409D01*
X542930Y832506D02*
X528158Y829902D01*
X537287Y864513D02*
X522515Y861908D01*
X562626Y819020D02*
X577398Y816416D01*
X556983Y787014D02*
X571755Y784409D01*
X542930Y742506D02*
X528158Y739902D01*
X537287Y774513D02*
X522515Y771908D01*
X562626Y729020D02*
X577398Y726416D01*
X556983Y697014D02*
X571755Y694409D01*
X542930Y652506D02*
X528158Y649902D01*
X537287Y684513D02*
X522515Y681908D01*
X562626Y639020D02*
X577398Y636416D01*
X556983Y607014D02*
X571755Y604409D01*
X542930Y382506D02*
X528158Y379902D01*
X537287Y414513D02*
X522515Y411908D01*
X562626Y459020D02*
X577398Y456416D01*
X556983Y427014D02*
X571755Y424409D01*
X542930Y472506D02*
X528158Y469902D01*
X537287Y504513D02*
X522515Y501908D01*
X562626Y549020D02*
X577398Y546416D01*
X556983Y517014D02*
X571755Y514409D01*
X542930Y562506D02*
X528158Y559902D01*
X537287Y594513D02*
X522515Y591908D01*
X682626Y369020D02*
X697399Y366416D01*
X676983Y337014D02*
X691755Y334409D01*
X662930Y292507D02*
X648158Y289902D01*
X657287Y324513D02*
X642514Y321908D01*
X682626Y279020D02*
X697399Y276416D01*
X676983Y247014D02*
X691755Y244409D01*
X662930Y202507D02*
X648158Y199902D01*
X657287Y234513D02*
X642514Y231908D01*
X682626Y189020D02*
X697399Y186416D01*
X676983Y157014D02*
X691755Y154409D01*
X662930Y922506D02*
X648158Y919902D01*
X657287Y954513D02*
X642514Y951908D01*
X682626Y1089020D02*
X697399Y1086416D01*
X676983Y1057014D02*
X691755Y1054409D01*
X662930Y1102506D02*
X648158Y1099902D01*
X657287Y1134513D02*
X642514Y1131908D01*
X682626Y1179020D02*
X697399Y1176416D01*
X676983Y1147014D02*
X691755Y1144409D01*
X662930Y1192506D02*
X648158Y1189902D01*
X657287Y1224513D02*
X642514Y1221908D01*
X682626Y1269020D02*
X697399Y1266416D01*
X676983Y1237014D02*
X691755Y1234409D01*
X662930Y1282507D02*
X648158Y1279902D01*
X657287Y1314513D02*
X642514Y1311908D01*
X682626Y1359020D02*
X697399Y1356416D01*
X676983Y1327014D02*
X691755Y1324409D01*
X662930Y1372507D02*
X648158Y1369902D01*
X657287Y1404513D02*
X642514Y1401908D01*
X682626Y1449020D02*
X697399Y1446416D01*
X676983Y1417014D02*
X691755Y1414409D01*
X662930Y1462507D02*
X648158Y1459902D01*
X657287Y1494513D02*
X642515Y1491908D01*
X662930Y1012506D02*
X648158Y1009902D01*
X657287Y1044513D02*
X642514Y1041908D01*
X682626Y999020D02*
X697399Y996416D01*
X676983Y967014D02*
X691755Y964409D01*
X682626Y909020D02*
X697399Y906416D01*
X676983Y877014D02*
X691755Y874409D01*
X662930Y832506D02*
X648158Y829902D01*
X657287Y864513D02*
X642514Y861908D01*
X682626Y819020D02*
X697399Y816416D01*
X676983Y787014D02*
X691755Y784409D01*
X662930Y742506D02*
X648158Y739902D01*
X657287Y774513D02*
X642514Y771908D01*
X682626Y729020D02*
X697399Y726416D01*
X676983Y697014D02*
X691755Y694409D01*
X662930Y652506D02*
X648158Y649902D01*
X657287Y684513D02*
X642514Y681908D01*
X682626Y639020D02*
X697399Y636416D01*
X676983Y607014D02*
X691755Y604409D01*
X662930Y382506D02*
X648158Y379902D01*
X657287Y414513D02*
X642514Y411908D01*
X682626Y459020D02*
X697399Y456416D01*
X676983Y427014D02*
X691755Y424409D01*
X662930Y472506D02*
X648158Y469902D01*
X657287Y504513D02*
X642514Y501908D01*
X682626Y549020D02*
X697399Y546416D01*
X676983Y517014D02*
X691755Y514409D01*
X662930Y562506D02*
X648158Y559902D01*
X657287Y594513D02*
X642514Y591908D01*
X802626Y369020D02*
X817399Y366416D01*
X796983Y337014D02*
X811755Y334409D01*
X782930Y292507D02*
X768158Y289902D01*
X777287Y324513D02*
X762514Y321908D01*
X802626Y279020D02*
X817399Y276416D01*
X796983Y247014D02*
X811755Y244409D01*
X782930Y202507D02*
X768158Y199902D01*
X777287Y234513D02*
X762514Y231908D01*
X802626Y189020D02*
X817399Y186416D01*
X796983Y157014D02*
X811755Y154409D01*
X782930Y922506D02*
X768158Y919902D01*
X777287Y954513D02*
X762514Y951908D01*
X802626Y1089020D02*
X817399Y1086416D01*
X796983Y1057014D02*
X811755Y1054409D01*
X782930Y1102506D02*
X768158Y1099902D01*
X777287Y1134513D02*
X762514Y1131908D01*
X802626Y1179020D02*
X817399Y1176416D01*
X796983Y1147014D02*
X811755Y1144409D01*
X782930Y1192506D02*
X768158Y1189902D01*
X777287Y1224513D02*
X762514Y1221908D01*
X802626Y1269020D02*
X817399Y1266416D01*
X796983Y1237014D02*
X811755Y1234409D01*
X782930Y1282507D02*
X768158Y1279902D01*
X777287Y1314513D02*
X762514Y1311908D01*
X802626Y1359020D02*
X817399Y1356416D01*
X796983Y1327014D02*
X811755Y1324409D01*
X782930Y1372507D02*
X768158Y1369902D01*
X777287Y1404513D02*
X762514Y1401908D01*
X802626Y1449020D02*
X817399Y1446416D01*
X796983Y1417014D02*
X811755Y1414409D01*
X782930Y1462507D02*
X768158Y1459902D01*
X777287Y1494513D02*
X762515Y1491908D01*
X782930Y1012506D02*
X768158Y1009902D01*
X777287Y1044513D02*
X762514Y1041908D01*
X802626Y999020D02*
X817399Y996416D01*
X796983Y967014D02*
X811755Y964409D01*
X802626Y909020D02*
X817399Y906416D01*
X796983Y877014D02*
X811755Y874409D01*
X782930Y832506D02*
X768158Y829902D01*
X777287Y864513D02*
X762514Y861908D01*
X802626Y819020D02*
X817399Y816416D01*
X796983Y787014D02*
X811755Y784409D01*
X782930Y742506D02*
X768158Y739902D01*
X777287Y774513D02*
X762514Y771908D01*
X802626Y729020D02*
X817399Y726416D01*
X796983Y697014D02*
X811755Y694409D01*
X782930Y652506D02*
X768158Y649902D01*
X777287Y684513D02*
X762514Y681908D01*
X802626Y639020D02*
X817399Y636416D01*
X796983Y607014D02*
X811755Y604409D01*
X782930Y382506D02*
X768158Y379902D01*
X777287Y414513D02*
X762514Y411908D01*
X802626Y459020D02*
X817399Y456416D01*
X796983Y427014D02*
X811755Y424409D01*
X782930Y472506D02*
X768158Y469902D01*
X777287Y504513D02*
X762514Y501908D01*
X802626Y549020D02*
X817399Y546416D01*
X796983Y517014D02*
X811755Y514409D01*
X782930Y562506D02*
X768158Y559902D01*
X777287Y594513D02*
X762514Y591908D01*
X922626Y369020D02*
X937399Y366416D01*
X916983Y337014D02*
X931755Y334409D01*
X902930Y292507D02*
X888158Y289902D01*
X897287Y324513D02*
X882514Y321908D01*
X922626Y279020D02*
X937399Y276416D01*
X916983Y247014D02*
X931755Y244409D01*
X902930Y202507D02*
X888158Y199902D01*
X897287Y234513D02*
X882514Y231908D01*
X922626Y189020D02*
X937399Y186416D01*
X916983Y157014D02*
X931755Y154409D01*
X902930Y922506D02*
X888158Y919902D01*
X897287Y954513D02*
X882514Y951908D01*
X922626Y1089020D02*
X937399Y1086416D01*
X916983Y1057014D02*
X931755Y1054409D01*
X902930Y1102506D02*
X888158Y1099902D01*
X897287Y1134513D02*
X882514Y1131908D01*
X922626Y1179020D02*
X937399Y1176416D01*
X916983Y1147014D02*
X931755Y1144409D01*
X902930Y1192506D02*
X888158Y1189902D01*
X897287Y1224513D02*
X882514Y1221908D01*
X922626Y1269020D02*
X937399Y1266416D01*
X916983Y1237014D02*
X931755Y1234409D01*
X902930Y1282507D02*
X888158Y1279902D01*
X897287Y1314513D02*
X882514Y1311908D01*
X922626Y1359020D02*
X937399Y1356416D01*
X916983Y1327014D02*
X931755Y1324409D01*
X902930Y1372507D02*
X888158Y1369902D01*
X897287Y1404513D02*
X882514Y1401908D01*
X922626Y1449020D02*
X937399Y1446416D01*
X916983Y1417014D02*
X931755Y1414409D01*
X902930Y1462507D02*
X888158Y1459902D01*
X897287Y1494513D02*
X882515Y1491908D01*
X902930Y1012506D02*
X888158Y1009902D01*
X897287Y1044513D02*
X882514Y1041908D01*
X922626Y999020D02*
X937399Y996416D01*
X916983Y967014D02*
X931755Y964409D01*
X922626Y909020D02*
X937399Y906416D01*
X916983Y877014D02*
X931755Y874409D01*
X902930Y832506D02*
X888158Y829902D01*
X897287Y864513D02*
X882514Y861908D01*
X922626Y819020D02*
X937399Y816416D01*
X916983Y787014D02*
X931755Y784409D01*
X902930Y742506D02*
X888158Y739902D01*
X897287Y774513D02*
X882514Y771908D01*
X922626Y729020D02*
X937399Y726416D01*
X916983Y697014D02*
X931755Y694409D01*
X902930Y652506D02*
X888158Y649902D01*
X897287Y684513D02*
X882514Y681908D01*
X922626Y639020D02*
X937399Y636416D01*
X916983Y607014D02*
X931755Y604409D01*
X902930Y382506D02*
X888158Y379902D01*
X897287Y414513D02*
X882514Y411908D01*
X922626Y459020D02*
X937399Y456416D01*
X916983Y427014D02*
X931755Y424409D01*
X902930Y472506D02*
X888158Y469902D01*
X897287Y504513D02*
X882514Y501908D01*
X922626Y549020D02*
X937399Y546416D01*
X916983Y517014D02*
X931755Y514409D01*
X902930Y562506D02*
X888158Y559902D01*
X897287Y594513D02*
X882514Y591908D01*
X1042626Y369020D02*
X1057399Y366416D01*
X1036983Y337014D02*
X1051755Y334409D01*
X1022930Y292507D02*
X1008158Y289902D01*
X1017287Y324513D02*
X1002514Y321908D01*
X1042626Y279020D02*
X1057399Y276416D01*
X1036983Y247014D02*
X1051755Y244409D01*
X1022930Y202507D02*
X1008158Y199902D01*
X1017287Y234513D02*
X1002514Y231908D01*
X1042626Y189020D02*
X1057399Y186416D01*
X1036983Y157014D02*
X1051755Y154409D01*
X1022930Y922506D02*
X1008158Y919902D01*
X1017287Y954513D02*
X1002514Y951908D01*
X1042626Y1089020D02*
X1057399Y1086416D01*
X1036983Y1057014D02*
X1051755Y1054409D01*
X1022930Y1102506D02*
X1008158Y1099902D01*
X1017287Y1134513D02*
X1002514Y1131908D01*
X1042626Y1179020D02*
X1057399Y1176416D01*
X1036983Y1147014D02*
X1051755Y1144409D01*
X1022930Y1192506D02*
X1008158Y1189902D01*
X1017287Y1224513D02*
X1002514Y1221908D01*
X1042626Y1269020D02*
X1057399Y1266416D01*
X1036983Y1237014D02*
X1051755Y1234409D01*
X1022930Y1282507D02*
X1008158Y1279902D01*
X1017287Y1314513D02*
X1002514Y1311908D01*
X1042626Y1359020D02*
X1057399Y1356416D01*
X1036983Y1327014D02*
X1051755Y1324409D01*
X1022930Y1372507D02*
X1008158Y1369902D01*
X1017287Y1404513D02*
X1002514Y1401908D01*
X1042626Y1449020D02*
X1057399Y1446416D01*
X1036983Y1417014D02*
X1051755Y1414409D01*
X1022930Y1462507D02*
X1008158Y1459902D01*
X1017287Y1494513D02*
X1002515Y1491908D01*
X1022930Y1012506D02*
X1008158Y1009902D01*
X1017287Y1044513D02*
X1002514Y1041908D01*
X1042626Y999020D02*
X1057399Y996416D01*
X1036983Y967014D02*
X1051755Y964409D01*
X1042626Y909020D02*
X1057399Y906416D01*
X1036983Y877014D02*
X1051755Y874409D01*
X1022930Y832506D02*
X1008158Y829902D01*
X1017287Y864513D02*
X1002514Y861908D01*
X1042626Y819020D02*
X1057399Y816416D01*
X1036983Y787014D02*
X1051755Y784409D01*
X1022930Y742506D02*
X1008158Y739902D01*
X1017287Y774513D02*
X1002514Y771908D01*
X1042626Y729020D02*
X1057399Y726416D01*
X1036983Y697014D02*
X1051755Y694409D01*
X1022930Y652506D02*
X1008158Y649902D01*
X1017287Y684513D02*
X1002514Y681908D01*
X1042626Y639020D02*
X1057399Y636416D01*
X1036983Y607014D02*
X1051755Y604409D01*
X1022930Y382506D02*
X1008158Y379902D01*
X1017287Y414513D02*
X1002514Y411908D01*
X1042626Y459020D02*
X1057399Y456416D01*
X1036983Y427014D02*
X1051755Y424409D01*
X1022930Y472506D02*
X1008158Y469902D01*
X1017287Y504513D02*
X1002514Y501908D01*
X1042626Y549020D02*
X1057399Y546416D01*
X1036983Y517014D02*
X1051755Y514409D01*
X1022930Y562506D02*
X1008158Y559902D01*
X1017287Y594513D02*
X1002514Y591908D01*
X1162626Y369020D02*
X1177399Y366416D01*
X1156983Y337014D02*
X1171755Y334409D01*
X1142930Y292507D02*
X1128158Y289902D01*
X1137287Y324513D02*
X1122514Y321908D01*
X1162626Y279020D02*
X1177399Y276416D01*
X1156983Y247014D02*
X1171755Y244409D01*
X1142930Y202507D02*
X1128158Y199902D01*
X1137287Y234513D02*
X1122514Y231908D01*
X1162626Y189020D02*
X1177399Y186416D01*
X1156983Y157014D02*
X1171755Y154409D01*
X1142930Y922506D02*
X1128158Y919902D01*
X1137287Y954513D02*
X1122514Y951908D01*
X1162626Y1089020D02*
X1177399Y1086416D01*
X1156983Y1057014D02*
X1171755Y1054409D01*
X1142930Y1102506D02*
X1128158Y1099902D01*
X1137287Y1134513D02*
X1122514Y1131908D01*
X1162626Y1179020D02*
X1177399Y1176416D01*
X1156983Y1147014D02*
X1171755Y1144409D01*
X1142930Y1192506D02*
X1128158Y1189902D01*
X1137287Y1224513D02*
X1122514Y1221908D01*
X1162626Y1269020D02*
X1177399Y1266416D01*
X1156983Y1237014D02*
X1171755Y1234409D01*
X1142930Y1282507D02*
X1128158Y1279902D01*
X1137287Y1314513D02*
X1122514Y1311908D01*
X1162626Y1359020D02*
X1177399Y1356416D01*
X1156983Y1327014D02*
X1171755Y1324409D01*
X1142930Y1372507D02*
X1128158Y1369902D01*
X1137287Y1404513D02*
X1122514Y1401908D01*
X1162626Y1449020D02*
X1177399Y1446416D01*
X1156983Y1417014D02*
X1171755Y1414409D01*
X1142930Y1462507D02*
X1128158Y1459902D01*
X1137287Y1494513D02*
X1122515Y1491908D01*
X1142930Y1012506D02*
X1128158Y1009902D01*
X1137287Y1044513D02*
X1122514Y1041908D01*
X1162626Y999020D02*
X1177399Y996416D01*
X1156983Y967014D02*
X1171755Y964409D01*
X1162626Y909020D02*
X1177399Y906416D01*
X1156983Y877014D02*
X1171755Y874409D01*
X1142930Y832506D02*
X1128158Y829902D01*
X1137287Y864513D02*
X1122514Y861908D01*
X1162626Y819020D02*
X1177399Y816416D01*
X1156983Y787014D02*
X1171755Y784409D01*
X1142930Y742506D02*
X1128158Y739902D01*
X1137287Y774513D02*
X1122514Y771908D01*
X1162626Y729020D02*
X1177399Y726416D01*
X1156983Y697014D02*
X1171755Y694409D01*
X1142930Y652506D02*
X1128158Y649902D01*
X1137287Y684513D02*
X1122514Y681908D01*
X1162626Y639020D02*
X1177399Y636416D01*
X1156983Y607014D02*
X1171755Y604409D01*
X1142930Y382506D02*
X1128158Y379902D01*
X1137287Y414513D02*
X1122514Y411908D01*
X1162626Y459020D02*
X1177399Y456416D01*
X1156983Y427014D02*
X1171755Y424409D01*
X1142930Y472506D02*
X1128158Y469902D01*
X1137287Y504513D02*
X1122514Y501908D01*
X1162626Y549020D02*
X1177399Y546416D01*
X1156983Y517014D02*
X1171755Y514409D01*
X1142930Y562506D02*
X1128158Y559902D01*
X1137287Y594513D02*
X1122514Y591908D01*
X1282626Y369020D02*
X1297399Y366416D01*
X1276983Y337014D02*
X1291755Y334409D01*
X1262930Y292507D02*
X1248158Y289902D01*
X1257287Y324513D02*
X1242514Y321908D01*
X1282626Y279020D02*
X1297399Y276416D01*
X1276983Y247014D02*
X1291755Y244409D01*
X1262930Y202507D02*
X1248158Y199902D01*
X1257287Y234513D02*
X1242514Y231908D01*
X1282626Y189020D02*
X1297399Y186416D01*
X1276983Y157014D02*
X1291755Y154409D01*
X1262930Y922506D02*
X1248158Y919902D01*
X1257287Y954513D02*
X1242514Y951908D01*
X1282626Y1089020D02*
X1297399Y1086416D01*
X1276983Y1057014D02*
X1291755Y1054409D01*
X1262930Y1102506D02*
X1248158Y1099902D01*
X1257287Y1134513D02*
X1242514Y1131908D01*
X1282626Y1179020D02*
X1297399Y1176416D01*
X1276983Y1147014D02*
X1291755Y1144409D01*
X1262930Y1192506D02*
X1248158Y1189902D01*
X1257287Y1224513D02*
X1242514Y1221908D01*
X1282626Y1269020D02*
X1297399Y1266416D01*
X1276983Y1237014D02*
X1291755Y1234409D01*
X1262930Y1282507D02*
X1248158Y1279902D01*
X1257287Y1314513D02*
X1242514Y1311908D01*
X1282626Y1359020D02*
X1297399Y1356416D01*
X1276983Y1327014D02*
X1291755Y1324409D01*
X1262930Y1372507D02*
X1248158Y1369902D01*
X1257287Y1404513D02*
X1242514Y1401908D01*
X1282626Y1449020D02*
X1297399Y1446416D01*
X1276983Y1417014D02*
X1291755Y1414409D01*
X1262930Y1462507D02*
X1248158Y1459902D01*
X1257287Y1494513D02*
X1242515Y1491908D01*
X1262930Y1012506D02*
X1248158Y1009902D01*
X1257287Y1044513D02*
X1242514Y1041908D01*
X1282626Y999020D02*
X1297399Y996416D01*
X1276983Y967014D02*
X1291755Y964409D01*
X1282626Y909020D02*
X1297399Y906416D01*
X1276983Y877014D02*
X1291755Y874409D01*
X1262930Y832506D02*
X1248158Y829902D01*
X1257287Y864513D02*
X1242514Y861908D01*
X1282626Y819020D02*
X1297399Y816416D01*
X1276983Y787014D02*
X1291755Y784409D01*
X1262930Y742506D02*
X1248158Y739902D01*
X1257287Y774513D02*
X1242514Y771908D01*
X1282626Y729020D02*
X1297399Y726416D01*
X1276983Y697014D02*
X1291755Y694409D01*
X1262930Y652506D02*
X1248158Y649902D01*
X1257287Y684513D02*
X1242514Y681908D01*
X1282626Y639020D02*
X1297399Y636416D01*
X1276983Y607014D02*
X1291755Y604409D01*
X1262930Y382506D02*
X1248158Y379902D01*
X1257287Y414513D02*
X1242514Y411908D01*
X1282626Y459020D02*
X1297399Y456416D01*
X1276983Y427014D02*
X1291755Y424409D01*
X1262930Y472506D02*
X1248158Y469902D01*
X1257287Y504513D02*
X1242514Y501908D01*
X1282626Y549020D02*
X1297399Y546416D01*
X1276983Y517014D02*
X1291755Y514409D01*
X1262930Y562506D02*
X1248158Y559902D01*
X1257287Y594513D02*
X1242514Y591908D01*
X1402626Y369020D02*
X1417399Y366416D01*
X1396983Y337014D02*
X1411755Y334409D01*
X1382930Y292507D02*
X1368158Y289902D01*
X1377287Y324513D02*
X1362514Y321908D01*
X1402626Y279020D02*
X1417399Y276416D01*
X1396983Y247014D02*
X1411755Y244409D01*
X1382930Y202507D02*
X1368158Y199902D01*
X1377287Y234513D02*
X1362514Y231908D01*
X1402626Y189020D02*
X1417399Y186416D01*
X1396983Y157014D02*
X1411755Y154409D01*
X1382930Y922506D02*
X1368158Y919902D01*
X1377287Y954513D02*
X1362514Y951908D01*
X1402626Y1089020D02*
X1417399Y1086416D01*
X1396983Y1057014D02*
X1411755Y1054409D01*
X1382930Y1102506D02*
X1368158Y1099902D01*
X1377287Y1134513D02*
X1362514Y1131908D01*
X1402626Y1179020D02*
X1417399Y1176416D01*
X1396983Y1147014D02*
X1411755Y1144409D01*
X1382930Y1192506D02*
X1368158Y1189902D01*
X1377287Y1224513D02*
X1362514Y1221908D01*
X1402626Y1269020D02*
X1417399Y1266416D01*
X1396983Y1237014D02*
X1411755Y1234409D01*
X1382930Y1282507D02*
X1368158Y1279902D01*
X1377287Y1314513D02*
X1362514Y1311908D01*
X1402626Y1359020D02*
X1417399Y1356416D01*
X1396983Y1327014D02*
X1411755Y1324409D01*
X1382930Y1372507D02*
X1368158Y1369902D01*
X1377287Y1404513D02*
X1362514Y1401908D01*
X1402626Y1449020D02*
X1417399Y1446416D01*
X1396983Y1417014D02*
X1411755Y1414409D01*
X1382930Y1462507D02*
X1368158Y1459902D01*
X1377287Y1494513D02*
X1362514Y1491908D01*
X1382930Y1012506D02*
X1368158Y1009902D01*
X1377287Y1044513D02*
X1362514Y1041908D01*
X1402626Y999020D02*
X1417399Y996416D01*
X1396983Y967014D02*
X1411755Y964409D01*
X1402626Y909020D02*
X1417399Y906416D01*
X1396983Y877014D02*
X1411755Y874409D01*
X1382930Y832506D02*
X1368158Y829902D01*
X1377287Y864513D02*
X1362514Y861908D01*
X1402626Y819020D02*
X1417399Y816416D01*
X1396983Y787014D02*
X1411755Y784409D01*
X1382930Y742506D02*
X1368158Y739902D01*
X1377287Y774513D02*
X1362514Y771908D01*
X1402626Y729020D02*
X1417399Y726416D01*
X1396983Y697014D02*
X1411755Y694409D01*
X1382930Y652506D02*
X1368158Y649902D01*
X1377287Y684513D02*
X1362514Y681908D01*
X1402626Y639020D02*
X1417399Y636416D01*
X1396983Y607014D02*
X1411755Y604409D01*
X1382930Y382506D02*
X1368158Y379902D01*
X1377287Y414513D02*
X1362514Y411908D01*
X1402626Y459020D02*
X1417399Y456416D01*
X1396983Y427014D02*
X1411755Y424409D01*
X1382930Y472506D02*
X1368158Y469902D01*
X1377287Y504513D02*
X1362514Y501908D01*
X1402626Y549020D02*
X1417399Y546416D01*
X1396983Y517014D02*
X1411755Y514409D01*
X1382930Y562506D02*
X1368158Y559902D01*
X1377287Y594513D02*
X1362514Y591908D01*
X1522626Y369020D02*
X1537398Y366416D01*
X1516983Y337014D02*
X1531755Y334409D01*
X1502930Y292507D02*
X1488158Y289902D01*
X1497287Y324513D02*
X1482514Y321908D01*
X1522626Y279020D02*
X1537398Y276416D01*
X1516983Y247014D02*
X1531755Y244409D01*
X1502930Y202507D02*
X1488158Y199902D01*
X1497287Y234513D02*
X1482514Y231908D01*
X1522626Y189020D02*
X1537398Y186416D01*
X1516983Y157014D02*
X1531755Y154409D01*
X1502930Y922506D02*
X1488158Y919902D01*
X1497287Y954513D02*
X1482514Y951908D01*
X1522626Y1089020D02*
X1537398Y1086416D01*
X1516983Y1057014D02*
X1531755Y1054409D01*
X1502930Y1102506D02*
X1488158Y1099902D01*
X1497287Y1134513D02*
X1482514Y1131908D01*
X1522626Y1179020D02*
X1537398Y1176416D01*
X1516983Y1147014D02*
X1531755Y1144409D01*
X1502930Y1192506D02*
X1488158Y1189902D01*
X1497287Y1224513D02*
X1482514Y1221908D01*
X1522626Y1269020D02*
X1537398Y1266416D01*
X1516983Y1237014D02*
X1531755Y1234409D01*
X1502930Y1282507D02*
X1488158Y1279902D01*
X1497287Y1314513D02*
X1482514Y1311908D01*
X1522626Y1359020D02*
X1537398Y1356416D01*
X1516983Y1327014D02*
X1531755Y1324409D01*
X1502930Y1372507D02*
X1488158Y1369902D01*
X1497287Y1404513D02*
X1482514Y1401908D01*
X1522626Y1449020D02*
X1537398Y1446416D01*
X1516983Y1417014D02*
X1531755Y1414409D01*
X1502930Y1462507D02*
X1488158Y1459902D01*
X1497287Y1494513D02*
X1482514Y1491908D01*
X1502930Y1012506D02*
X1488158Y1009902D01*
X1497287Y1044513D02*
X1482514Y1041908D01*
X1522626Y999020D02*
X1537398Y996416D01*
X1516983Y967014D02*
X1531755Y964409D01*
X1522626Y909020D02*
X1537398Y906416D01*
X1516983Y877014D02*
X1531755Y874409D01*
X1502930Y832506D02*
X1488158Y829902D01*
X1497287Y864513D02*
X1482514Y861908D01*
X1522626Y819020D02*
X1537398Y816416D01*
X1516983Y787014D02*
X1531755Y784409D01*
X1502930Y742506D02*
X1488158Y739902D01*
X1497287Y774513D02*
X1482514Y771908D01*
X1522626Y729020D02*
X1537398Y726416D01*
X1516983Y697014D02*
X1531755Y694409D01*
X1502930Y652506D02*
X1488158Y649902D01*
X1497287Y684513D02*
X1482514Y681908D01*
X1522626Y639020D02*
X1537398Y636416D01*
X1516983Y607014D02*
X1531755Y604409D01*
X1502930Y382506D02*
X1488158Y379902D01*
X1497287Y414513D02*
X1482514Y411908D01*
X1522626Y459020D02*
X1537398Y456416D01*
X1516983Y427014D02*
X1531755Y424409D01*
X1502930Y472506D02*
X1488158Y469902D01*
X1497287Y504513D02*
X1482514Y501908D01*
X1522626Y549020D02*
X1537398Y546416D01*
X1516983Y517014D02*
X1531755Y514409D01*
X1502930Y562506D02*
X1488158Y559902D01*
X1497287Y594513D02*
X1482514Y591908D01*
X1642626Y369020D02*
X1657398Y366416D01*
X1636983Y337014D02*
X1651755Y334409D01*
X1622930Y292507D02*
X1608158Y289902D01*
X1617287Y324513D02*
X1602514Y321908D01*
X1642626Y279020D02*
X1657398Y276416D01*
X1636983Y247014D02*
X1651755Y244409D01*
X1622930Y202507D02*
X1608158Y199902D01*
X1617287Y234513D02*
X1602514Y231908D01*
X1642626Y189020D02*
X1657398Y186416D01*
X1636983Y157014D02*
X1651755Y154409D01*
X1622930Y922506D02*
X1608158Y919902D01*
X1617287Y954513D02*
X1602514Y951908D01*
X1642626Y1089020D02*
X1657398Y1086416D01*
X1636983Y1057014D02*
X1651755Y1054409D01*
X1622930Y1102506D02*
X1608158Y1099902D01*
X1617287Y1134513D02*
X1602514Y1131908D01*
X1642626Y1179020D02*
X1657398Y1176416D01*
X1636983Y1147014D02*
X1651755Y1144409D01*
X1622930Y1192506D02*
X1608158Y1189902D01*
X1617287Y1224513D02*
X1602514Y1221908D01*
X1642626Y1269020D02*
X1657398Y1266416D01*
X1636983Y1237014D02*
X1651755Y1234409D01*
X1622930Y1282507D02*
X1608158Y1279902D01*
X1617287Y1314513D02*
X1602514Y1311908D01*
X1642626Y1359020D02*
X1657398Y1356416D01*
X1636983Y1327014D02*
X1651755Y1324409D01*
X1622930Y1372507D02*
X1608158Y1369902D01*
X1617287Y1404513D02*
X1602514Y1401908D01*
X1642626Y1449020D02*
X1657398Y1446416D01*
X1636983Y1417014D02*
X1651755Y1414409D01*
X1622930Y1462507D02*
X1608158Y1459902D01*
X1617287Y1494513D02*
X1602514Y1491908D01*
X1622930Y1012506D02*
X1608158Y1009902D01*
X1617287Y1044513D02*
X1602514Y1041908D01*
X1642626Y999020D02*
X1657398Y996416D01*
X1636983Y967014D02*
X1651755Y964409D01*
X1642626Y909020D02*
X1657398Y906416D01*
X1636983Y877014D02*
X1651755Y874409D01*
X1622930Y832506D02*
X1608158Y829902D01*
X1617287Y864513D02*
X1602514Y861908D01*
X1642626Y819020D02*
X1657398Y816416D01*
X1636983Y787014D02*
X1651755Y784409D01*
X1622930Y742506D02*
X1608158Y739902D01*
X1617287Y774513D02*
X1602514Y771908D01*
X1642626Y729020D02*
X1657398Y726416D01*
X1636983Y697014D02*
X1651755Y694409D01*
X1622930Y652506D02*
X1608158Y649902D01*
X1617287Y684513D02*
X1602514Y681908D01*
X1642626Y639020D02*
X1657398Y636416D01*
X1636983Y607014D02*
X1651755Y604409D01*
X1622930Y382506D02*
X1608158Y379902D01*
X1617287Y414513D02*
X1602514Y411908D01*
X1642626Y459020D02*
X1657398Y456416D01*
X1636983Y427014D02*
X1651755Y424409D01*
X1622930Y472506D02*
X1608158Y469902D01*
X1617287Y504513D02*
X1602514Y501908D01*
X1642626Y549020D02*
X1657398Y546416D01*
X1636983Y517014D02*
X1651755Y514409D01*
X1622930Y562506D02*
X1608158Y559902D01*
X1617287Y594513D02*
X1602514Y591908D01*
X1762626Y369020D02*
X1777398Y366416D01*
X1756983Y337014D02*
X1771755Y334409D01*
X1742930Y292507D02*
X1728158Y289902D01*
X1737287Y324513D02*
X1722514Y321908D01*
X1762626Y279020D02*
X1777398Y276416D01*
X1756983Y247014D02*
X1771755Y244409D01*
X1742930Y202507D02*
X1728158Y199902D01*
X1737287Y234513D02*
X1722514Y231908D01*
X1762626Y189020D02*
X1777398Y186416D01*
X1756983Y157014D02*
X1771755Y154409D01*
X1742930Y922506D02*
X1728158Y919902D01*
X1737287Y954513D02*
X1722514Y951908D01*
X1762626Y1089020D02*
X1777398Y1086416D01*
X1756983Y1057014D02*
X1771755Y1054409D01*
X1742930Y1102506D02*
X1728158Y1099902D01*
X1737287Y1134513D02*
X1722514Y1131908D01*
X1762626Y1179020D02*
X1777398Y1176416D01*
X1756983Y1147014D02*
X1771755Y1144409D01*
X1742930Y1192506D02*
X1728158Y1189902D01*
X1737287Y1224513D02*
X1722514Y1221908D01*
X1762626Y1269020D02*
X1777398Y1266416D01*
X1756983Y1237014D02*
X1771755Y1234409D01*
X1742930Y1282507D02*
X1728158Y1279902D01*
X1737287Y1314513D02*
X1722514Y1311908D01*
X1762626Y1359020D02*
X1777398Y1356416D01*
X1756983Y1327014D02*
X1771755Y1324409D01*
X1742930Y1372507D02*
X1728158Y1369902D01*
X1737287Y1404513D02*
X1722514Y1401908D01*
X1762626Y1449020D02*
X1777398Y1446416D01*
X1756983Y1417014D02*
X1771755Y1414409D01*
X1742930Y1462507D02*
X1728158Y1459902D01*
X1737287Y1494513D02*
X1722514Y1491908D01*
X1742930Y1012506D02*
X1728158Y1009902D01*
X1737287Y1044513D02*
X1722514Y1041908D01*
X1762626Y999020D02*
X1777398Y996416D01*
X1756983Y967014D02*
X1771755Y964409D01*
X1762626Y909020D02*
X1777398Y906416D01*
X1756983Y877014D02*
X1771755Y874409D01*
X1742930Y832506D02*
X1728158Y829902D01*
X1737287Y864513D02*
X1722514Y861908D01*
X1762626Y819020D02*
X1777398Y816416D01*
X1756983Y787014D02*
X1771755Y784409D01*
X1742930Y742506D02*
X1728158Y739902D01*
X1737287Y774513D02*
X1722514Y771908D01*
X1762626Y729020D02*
X1777398Y726416D01*
X1756983Y697014D02*
X1771755Y694409D01*
X1742930Y652506D02*
X1728158Y649902D01*
X1737287Y684513D02*
X1722514Y681908D01*
X1762626Y639020D02*
X1777398Y636416D01*
X1756983Y607014D02*
X1771755Y604409D01*
X1742930Y382506D02*
X1728158Y379902D01*
X1737287Y414513D02*
X1722514Y411908D01*
X1762626Y459020D02*
X1777398Y456416D01*
X1756983Y427014D02*
X1771755Y424409D01*
X1742930Y472506D02*
X1728158Y469902D01*
X1737287Y504513D02*
X1722514Y501908D01*
X1762626Y549020D02*
X1777398Y546416D01*
X1756983Y517014D02*
X1771755Y514409D01*
X1742930Y562506D02*
X1728158Y559902D01*
X1737287Y594513D02*
X1722514Y591908D01*
X1882626Y369020D02*
X1897398Y366416D01*
X1876983Y337014D02*
X1891755Y334409D01*
X1862930Y292507D02*
X1848158Y289902D01*
X1857287Y324513D02*
X1842514Y321908D01*
X1882626Y279020D02*
X1897398Y276416D01*
X1876983Y247014D02*
X1891755Y244409D01*
X1862930Y202507D02*
X1848158Y199902D01*
X1857287Y234513D02*
X1842514Y231908D01*
X1882626Y189020D02*
X1897398Y186416D01*
X1876983Y157014D02*
X1891755Y154409D01*
X1862930Y922506D02*
X1848158Y919902D01*
X1857287Y954513D02*
X1842514Y951908D01*
X1882626Y1089020D02*
X1897398Y1086416D01*
X1876983Y1057014D02*
X1891755Y1054409D01*
X1862930Y1102506D02*
X1848158Y1099902D01*
X1857287Y1134513D02*
X1842514Y1131908D01*
X1882626Y1179020D02*
X1897398Y1176416D01*
X1876983Y1147014D02*
X1891755Y1144409D01*
X1862930Y1192506D02*
X1848158Y1189902D01*
X1857287Y1224513D02*
X1842514Y1221908D01*
X1882626Y1269020D02*
X1897398Y1266416D01*
X1876983Y1237014D02*
X1891755Y1234409D01*
X1862930Y1282507D02*
X1848158Y1279902D01*
X1857287Y1314513D02*
X1842514Y1311908D01*
X1882626Y1359020D02*
X1897398Y1356416D01*
X1876983Y1327014D02*
X1891755Y1324409D01*
X1862930Y1372507D02*
X1848158Y1369902D01*
X1857287Y1404513D02*
X1842514Y1401908D01*
X1882626Y1449020D02*
X1897398Y1446416D01*
X1876983Y1417014D02*
X1891755Y1414409D01*
X1862930Y1462507D02*
X1848158Y1459902D01*
X1857287Y1494513D02*
X1842514Y1491908D01*
X1862930Y1012506D02*
X1848158Y1009902D01*
X1857287Y1044513D02*
X1842514Y1041908D01*
X1882626Y999020D02*
X1897398Y996416D01*
X1876983Y967014D02*
X1891755Y964409D01*
X1882626Y909020D02*
X1897398Y906416D01*
X1876983Y877014D02*
X1891755Y874409D01*
X1862930Y832506D02*
X1848158Y829902D01*
X1857287Y864513D02*
X1842514Y861908D01*
X1882626Y819020D02*
X1897398Y816416D01*
X1876983Y787014D02*
X1891755Y784409D01*
X1862930Y742506D02*
X1848158Y739902D01*
X1857287Y774513D02*
X1842514Y771908D01*
X1882626Y729020D02*
X1897398Y726416D01*
X1876983Y697014D02*
X1891755Y694409D01*
X1862930Y652506D02*
X1848158Y649902D01*
X1857287Y684513D02*
X1842514Y681908D01*
X1882626Y639020D02*
X1897398Y636416D01*
X1876983Y607014D02*
X1891755Y604409D01*
X1862930Y382506D02*
X1848158Y379902D01*
X1857287Y414513D02*
X1842514Y411908D01*
X1882626Y459020D02*
X1897398Y456416D01*
X1876983Y427014D02*
X1891755Y424409D01*
X1862930Y472506D02*
X1848158Y469902D01*
X1857287Y504513D02*
X1842514Y501908D01*
X1882626Y549020D02*
X1897398Y546416D01*
X1876983Y517014D02*
X1891755Y514409D01*
X1862930Y562506D02*
X1848158Y559902D01*
X1857287Y594513D02*
X1842514Y591908D01*
X2002626Y369020D02*
X2017398Y366416D01*
X1996983Y337014D02*
X2011755Y334409D01*
X1982930Y292507D02*
X1968158Y289902D01*
X1977287Y324513D02*
X1962514Y321908D01*
X2002626Y279020D02*
X2017398Y276416D01*
X1996983Y247014D02*
X2011755Y244409D01*
X1982930Y202507D02*
X1968158Y199902D01*
X1977287Y234513D02*
X1962514Y231908D01*
X2002626Y189020D02*
X2017398Y186416D01*
X1996983Y157014D02*
X2011755Y154409D01*
X1982930Y922506D02*
X1968158Y919902D01*
X1977287Y954513D02*
X1962514Y951908D01*
X2002626Y1089020D02*
X2017398Y1086416D01*
X1996983Y1057014D02*
X2011755Y1054409D01*
X1982930Y1102506D02*
X1968158Y1099902D01*
X1977287Y1134513D02*
X1962514Y1131908D01*
X2002626Y1179020D02*
X2017398Y1176416D01*
X1996983Y1147014D02*
X2011755Y1144409D01*
X1982930Y1192506D02*
X1968158Y1189902D01*
X1977287Y1224513D02*
X1962514Y1221908D01*
X2002626Y1269020D02*
X2017398Y1266416D01*
X1996983Y1237014D02*
X2011755Y1234409D01*
X1982930Y1282507D02*
X1968158Y1279902D01*
X1977287Y1314513D02*
X1962514Y1311908D01*
X2002626Y1359020D02*
X2017398Y1356416D01*
X1996983Y1327014D02*
X2011755Y1324409D01*
X1982930Y1372507D02*
X1968158Y1369902D01*
X1977287Y1404513D02*
X1962514Y1401908D01*
X2002626Y1449020D02*
X2017398Y1446416D01*
X1996983Y1417014D02*
X2011755Y1414409D01*
X1982930Y1462507D02*
X1968158Y1459902D01*
X1977287Y1494513D02*
X1962514Y1491908D01*
X1982930Y1012506D02*
X1968158Y1009902D01*
X1977287Y1044513D02*
X1962514Y1041908D01*
X2002626Y999020D02*
X2017398Y996416D01*
X1996983Y967014D02*
X2011755Y964409D01*
X2002626Y909020D02*
X2017398Y906416D01*
X1996983Y877014D02*
X2011755Y874409D01*
X1982930Y832506D02*
X1968158Y829902D01*
X1977287Y864513D02*
X1962514Y861908D01*
X2002626Y819020D02*
X2017398Y816416D01*
X1996983Y787014D02*
X2011755Y784409D01*
X1982930Y742506D02*
X1968158Y739902D01*
X1977287Y774513D02*
X1962514Y771908D01*
X2002626Y729020D02*
X2017398Y726416D01*
X1996983Y697014D02*
X2011755Y694409D01*
X1982930Y652506D02*
X1968158Y649902D01*
X1977287Y684513D02*
X1962514Y681908D01*
X2002626Y639020D02*
X2017398Y636416D01*
X1996983Y607014D02*
X2011755Y604409D01*
X1982930Y382506D02*
X1968158Y379902D01*
X1977287Y414513D02*
X1962514Y411908D01*
X2002626Y459020D02*
X2017398Y456416D01*
X1996983Y427014D02*
X2011755Y424409D01*
X1982930Y472506D02*
X1968158Y469902D01*
X1977287Y504513D02*
X1962514Y501908D01*
X2002626Y549020D02*
X2017398Y546416D01*
X1996983Y517014D02*
X2011755Y514409D01*
X1982930Y562506D02*
X1968158Y559902D01*
X1977287Y594513D02*
X1962514Y591908D01*
X2122626Y369020D02*
X2137398Y366416D01*
X2116983Y337014D02*
X2131755Y334409D01*
X2102930Y292507D02*
X2088158Y289902D01*
X2097287Y324513D02*
X2082514Y321908D01*
X2122626Y279020D02*
X2137398Y276416D01*
X2116983Y247014D02*
X2131755Y244409D01*
X2102930Y202507D02*
X2088158Y199902D01*
X2097287Y234513D02*
X2082514Y231908D01*
X2122626Y189020D02*
X2137398Y186416D01*
X2116983Y157014D02*
X2131755Y154409D01*
X2102930Y922506D02*
X2088158Y919902D01*
X2097287Y954513D02*
X2082514Y951908D01*
X2122626Y1089020D02*
X2137398Y1086416D01*
X2116983Y1057014D02*
X2131755Y1054409D01*
X2102930Y1102506D02*
X2088158Y1099902D01*
X2097287Y1134513D02*
X2082514Y1131908D01*
X2122626Y1179020D02*
X2137398Y1176416D01*
X2116983Y1147014D02*
X2131755Y1144409D01*
X2102930Y1192506D02*
X2088158Y1189902D01*
X2097287Y1224513D02*
X2082514Y1221908D01*
X2122626Y1269020D02*
X2137398Y1266416D01*
X2116983Y1237014D02*
X2131755Y1234409D01*
X2102930Y1282507D02*
X2088158Y1279902D01*
X2097287Y1314513D02*
X2082514Y1311908D01*
X2122626Y1359020D02*
X2137398Y1356416D01*
X2116983Y1327014D02*
X2131755Y1324409D01*
X2102930Y1372507D02*
X2088158Y1369902D01*
X2097287Y1404513D02*
X2082514Y1401908D01*
X2122626Y1449020D02*
X2137398Y1446416D01*
X2116983Y1417014D02*
X2131755Y1414409D01*
X2102930Y1462507D02*
X2088158Y1459902D01*
X2097287Y1494513D02*
X2082514Y1491908D01*
X2102930Y1012506D02*
X2088158Y1009902D01*
X2097287Y1044513D02*
X2082514Y1041908D01*
X2122626Y999020D02*
X2137398Y996416D01*
X2116983Y967014D02*
X2131755Y964409D01*
X2122626Y909020D02*
X2137398Y906416D01*
X2116983Y877014D02*
X2131755Y874409D01*
X2102930Y832506D02*
X2088158Y829902D01*
X2097287Y864513D02*
X2082514Y861908D01*
X2122626Y819020D02*
X2137398Y816416D01*
X2116983Y787014D02*
X2131755Y784409D01*
X2102930Y742506D02*
X2088158Y739902D01*
X2097287Y774513D02*
X2082514Y771908D01*
X2122626Y729020D02*
X2137398Y726416D01*
X2116983Y697014D02*
X2131755Y694409D01*
X2102930Y652506D02*
X2088158Y649902D01*
X2097287Y684513D02*
X2082514Y681908D01*
X2122626Y639020D02*
X2137398Y636416D01*
X2116983Y607014D02*
X2131755Y604409D01*
X2102930Y382506D02*
X2088158Y379902D01*
X2097287Y414513D02*
X2082514Y411908D01*
X2122626Y459020D02*
X2137398Y456416D01*
X2116983Y427014D02*
X2131755Y424409D01*
X2102930Y472506D02*
X2088158Y469902D01*
X2097287Y504513D02*
X2082514Y501908D01*
X2122626Y549020D02*
X2137398Y546416D01*
X2116983Y517014D02*
X2131755Y514409D01*
X2102930Y562506D02*
X2088158Y559902D01*
X2097287Y594513D02*
X2082514Y591908D01*
X2242626Y369020D02*
X2257398Y366416D01*
X2236983Y337014D02*
X2251755Y334409D01*
X2222930Y292507D02*
X2208158Y289902D01*
X2217287Y324513D02*
X2202514Y321908D01*
X2242626Y279020D02*
X2257398Y276416D01*
X2236983Y247014D02*
X2251755Y244409D01*
X2222930Y202507D02*
X2208158Y199902D01*
X2217287Y234513D02*
X2202514Y231908D01*
X2242626Y189020D02*
X2257398Y186416D01*
X2236983Y157014D02*
X2251755Y154409D01*
X2222930Y922506D02*
X2208158Y919902D01*
X2217287Y954513D02*
X2202514Y951908D01*
X2242626Y1089020D02*
X2257398Y1086416D01*
X2236983Y1057014D02*
X2251755Y1054409D01*
X2222930Y1102506D02*
X2208158Y1099902D01*
X2217287Y1134513D02*
X2202514Y1131908D01*
X2242626Y1179020D02*
X2257398Y1176416D01*
X2236983Y1147014D02*
X2251755Y1144409D01*
X2222930Y1192506D02*
X2208158Y1189902D01*
X2217287Y1224513D02*
X2202514Y1221908D01*
X2242626Y1269020D02*
X2257398Y1266416D01*
X2236983Y1237014D02*
X2251755Y1234409D01*
X2222930Y1282507D02*
X2208158Y1279902D01*
X2217287Y1314513D02*
X2202514Y1311908D01*
X2242626Y1359020D02*
X2257398Y1356416D01*
X2236983Y1327014D02*
X2251755Y1324409D01*
X2222930Y1372507D02*
X2208158Y1369902D01*
X2217287Y1404513D02*
X2202514Y1401908D01*
X2242626Y1449020D02*
X2257398Y1446416D01*
X2236983Y1417014D02*
X2251755Y1414409D01*
X2222930Y1462507D02*
X2208158Y1459902D01*
X2217287Y1494513D02*
X2202514Y1491908D01*
X2222930Y1012506D02*
X2208158Y1009902D01*
X2217287Y1044513D02*
X2202514Y1041908D01*
X2242626Y999020D02*
X2257398Y996416D01*
X2236983Y967014D02*
X2251755Y964409D01*
X2242626Y909020D02*
X2257398Y906416D01*
X2236983Y877014D02*
X2251755Y874409D01*
X2222930Y832506D02*
X2208158Y829902D01*
X2217287Y864513D02*
X2202514Y861908D01*
X2242626Y819020D02*
X2257398Y816416D01*
X2236983Y787014D02*
X2251755Y784409D01*
X2222930Y742506D02*
X2208158Y739902D01*
X2217287Y774513D02*
X2202514Y771908D01*
X2242626Y729020D02*
X2257398Y726416D01*
X2236983Y697014D02*
X2251755Y694409D01*
X2222930Y652506D02*
X2208158Y649902D01*
X2217287Y684513D02*
X2202514Y681908D01*
X2242626Y639020D02*
X2257398Y636416D01*
X2236983Y607014D02*
X2251755Y604409D01*
X2222930Y382506D02*
X2208158Y379902D01*
X2217287Y414513D02*
X2202514Y411908D01*
X2242626Y459020D02*
X2257398Y456416D01*
X2236983Y427014D02*
X2251755Y424409D01*
X2222930Y472506D02*
X2208158Y469902D01*
X2217287Y504513D02*
X2202514Y501908D01*
X2242626Y549020D02*
X2257398Y546416D01*
X2236983Y517014D02*
X2251755Y514409D01*
X2222930Y562506D02*
X2208158Y559902D01*
X2217287Y594513D02*
X2202514Y591908D01*
X2362626Y369020D02*
X2377398Y366416D01*
X2356983Y337014D02*
X2371755Y334409D01*
X2342930Y292507D02*
X2328158Y289902D01*
X2337287Y324513D02*
X2322514Y321908D01*
X2362626Y279020D02*
X2377398Y276416D01*
X2356983Y247014D02*
X2371755Y244409D01*
X2342930Y202507D02*
X2328158Y199902D01*
X2337287Y234513D02*
X2322514Y231908D01*
X2362626Y189020D02*
X2377398Y186416D01*
X2356983Y157014D02*
X2371755Y154409D01*
X2342930Y922506D02*
X2328158Y919902D01*
X2337287Y954513D02*
X2322514Y951908D01*
X2362626Y1089020D02*
X2377398Y1086416D01*
X2356983Y1057014D02*
X2371755Y1054409D01*
X2342930Y1102506D02*
X2328158Y1099902D01*
X2337287Y1134513D02*
X2322514Y1131908D01*
X2362626Y1179020D02*
X2377398Y1176416D01*
X2356983Y1147014D02*
X2371755Y1144409D01*
X2342930Y1192506D02*
X2328158Y1189902D01*
X2337287Y1224513D02*
X2322514Y1221908D01*
X2362626Y1269020D02*
X2377398Y1266416D01*
X2356983Y1237014D02*
X2371755Y1234409D01*
X2342930Y1282507D02*
X2328158Y1279902D01*
X2337287Y1314513D02*
X2322514Y1311908D01*
X2362626Y1359020D02*
X2377398Y1356416D01*
X2356983Y1327014D02*
X2371755Y1324409D01*
X2342930Y1372507D02*
X2328158Y1369902D01*
X2337287Y1404513D02*
X2322514Y1401908D01*
X2362626Y1449020D02*
X2377398Y1446416D01*
X2356983Y1417014D02*
X2371755Y1414409D01*
X2342930Y1462507D02*
X2328158Y1459902D01*
X2337287Y1494513D02*
X2322514Y1491908D01*
X2342930Y1012506D02*
X2328158Y1009902D01*
X2337287Y1044513D02*
X2322514Y1041908D01*
X2362626Y999020D02*
X2377398Y996416D01*
X2356983Y967014D02*
X2371755Y964409D01*
X2362626Y909020D02*
X2377398Y906416D01*
X2356983Y877014D02*
X2371755Y874409D01*
X2342930Y832506D02*
X2328158Y829902D01*
X2337287Y864513D02*
X2322514Y861908D01*
X2362626Y819020D02*
X2377398Y816416D01*
X2356983Y787014D02*
X2371755Y784409D01*
X2342930Y742506D02*
X2328158Y739902D01*
X2337287Y774513D02*
X2322514Y771908D01*
X2362626Y729020D02*
X2377398Y726416D01*
X2356983Y697014D02*
X2371755Y694409D01*
X2342930Y652506D02*
X2328158Y649902D01*
X2337287Y684513D02*
X2322514Y681908D01*
X2362626Y639020D02*
X2377398Y636416D01*
X2356983Y607014D02*
X2371755Y604409D01*
X2342930Y382506D02*
X2328158Y379902D01*
X2337287Y414513D02*
X2322514Y411908D01*
X2362626Y459020D02*
X2377398Y456416D01*
X2356983Y427014D02*
X2371755Y424409D01*
X2342930Y472506D02*
X2328158Y469902D01*
X2337287Y504513D02*
X2322514Y501908D01*
X2362626Y549020D02*
X2377398Y546416D01*
X2356983Y517014D02*
X2371755Y514409D01*
X2342930Y562506D02*
X2328158Y559902D01*
X2337287Y594513D02*
X2322514Y591908D01*
X2482626Y369020D02*
X2497398Y366416D01*
X2476983Y337014D02*
X2491755Y334409D01*
X2462930Y292507D02*
X2448158Y289902D01*
X2457287Y324513D02*
X2442514Y321908D01*
X2482626Y279020D02*
X2497398Y276416D01*
X2476983Y247014D02*
X2491755Y244409D01*
X2462930Y202507D02*
X2448158Y199902D01*
X2457287Y234513D02*
X2442514Y231908D01*
X2482626Y189020D02*
X2497398Y186416D01*
X2476983Y157014D02*
X2491755Y154409D01*
X2462930Y922506D02*
X2448158Y919902D01*
X2457287Y954513D02*
X2442514Y951908D01*
X2482626Y1089020D02*
X2497398Y1086416D01*
X2476983Y1057014D02*
X2491755Y1054409D01*
X2462930Y1102506D02*
X2448158Y1099902D01*
X2457287Y1134513D02*
X2442514Y1131908D01*
X2482626Y1179020D02*
X2497398Y1176416D01*
X2476983Y1147014D02*
X2491755Y1144409D01*
X2462930Y1192506D02*
X2448158Y1189902D01*
X2457287Y1224513D02*
X2442514Y1221908D01*
X2482626Y1269020D02*
X2497398Y1266416D01*
X2476983Y1237014D02*
X2491755Y1234409D01*
X2462930Y1282507D02*
X2448158Y1279902D01*
X2457287Y1314513D02*
X2442514Y1311908D01*
X2482626Y1359020D02*
X2497398Y1356416D01*
X2476983Y1327014D02*
X2491755Y1324409D01*
X2462930Y1372507D02*
X2448158Y1369902D01*
X2457287Y1404513D02*
X2442514Y1401908D01*
X2482626Y1449020D02*
X2497398Y1446416D01*
X2476983Y1417014D02*
X2491755Y1414409D01*
X2462930Y1462507D02*
X2448158Y1459902D01*
X2457287Y1494513D02*
X2442514Y1491908D01*
X2462930Y1012506D02*
X2448158Y1009902D01*
X2457287Y1044513D02*
X2442514Y1041908D01*
X2482626Y999020D02*
X2497398Y996416D01*
X2476983Y967014D02*
X2491755Y964409D01*
X2482626Y909020D02*
X2497398Y906416D01*
X2476983Y877014D02*
X2491755Y874409D01*
X2462930Y832506D02*
X2448158Y829902D01*
X2457287Y864513D02*
X2442514Y861908D01*
X2482626Y819020D02*
X2497398Y816416D01*
X2476983Y787014D02*
X2491755Y784409D01*
X2462930Y742506D02*
X2448158Y739902D01*
X2457287Y774513D02*
X2442514Y771908D01*
X2482626Y729020D02*
X2497398Y726416D01*
X2476983Y697014D02*
X2491755Y694409D01*
X2462930Y652506D02*
X2448158Y649902D01*
X2457287Y684513D02*
X2442514Y681908D01*
X2482626Y639020D02*
X2497398Y636416D01*
X2476983Y607014D02*
X2491755Y604409D01*
X2462930Y382506D02*
X2448158Y379902D01*
X2457287Y414513D02*
X2442514Y411908D01*
X2482626Y459020D02*
X2497398Y456416D01*
X2476983Y427014D02*
X2491755Y424409D01*
X2462930Y472506D02*
X2448158Y469902D01*
X2457287Y504513D02*
X2442514Y501908D01*
X2482626Y549020D02*
X2497398Y546416D01*
X2476983Y517014D02*
X2491755Y514409D01*
X2462930Y562506D02*
X2448158Y559902D01*
X2457287Y594513D02*
X2442514Y591908D01*
X2602626Y369020D02*
X2617398Y366416D01*
X2596983Y337014D02*
X2611755Y334409D01*
X2582930Y292507D02*
X2568158Y289902D01*
X2577286Y324513D02*
X2562514Y321908D01*
X2602626Y279020D02*
X2617398Y276416D01*
X2596983Y247014D02*
X2611755Y244409D01*
X2582930Y202507D02*
X2568158Y199902D01*
X2577286Y234513D02*
X2562514Y231908D01*
X2602626Y189020D02*
X2617398Y186416D01*
X2596983Y157014D02*
X2611755Y154409D01*
X2582930Y922506D02*
X2568158Y919902D01*
X2577286Y954513D02*
X2562514Y951908D01*
X2602626Y1089020D02*
X2617398Y1086416D01*
X2596983Y1057014D02*
X2611755Y1054409D01*
X2582930Y1102506D02*
X2568158Y1099902D01*
X2577286Y1134513D02*
X2562514Y1131908D01*
X2602626Y1179020D02*
X2617398Y1176416D01*
X2596983Y1147014D02*
X2611755Y1144409D01*
X2582930Y1192506D02*
X2568158Y1189902D01*
X2577286Y1224513D02*
X2562514Y1221908D01*
X2602626Y1269020D02*
X2617398Y1266416D01*
X2596983Y1237014D02*
X2611755Y1234409D01*
X2582930Y1282507D02*
X2568158Y1279902D01*
X2577286Y1314513D02*
X2562514Y1311908D01*
X2602626Y1359020D02*
X2617398Y1356416D01*
X2596983Y1327014D02*
X2611755Y1324409D01*
X2582930Y1372507D02*
X2568158Y1369902D01*
X2577286Y1404513D02*
X2562514Y1401908D01*
X2602626Y1449020D02*
X2617398Y1446416D01*
X2596983Y1417014D02*
X2611755Y1414409D01*
X2582930Y1462507D02*
X2568158Y1459902D01*
X2577286Y1494513D02*
X2562514Y1491908D01*
X2582930Y1012506D02*
X2568158Y1009902D01*
X2577286Y1044513D02*
X2562514Y1041908D01*
X2602626Y999020D02*
X2617398Y996416D01*
X2596983Y967014D02*
X2611755Y964409D01*
X2602626Y909020D02*
X2617398Y906416D01*
X2596983Y877014D02*
X2611755Y874409D01*
X2582930Y832506D02*
X2568158Y829902D01*
X2577286Y864513D02*
X2562514Y861908D01*
X2602626Y819020D02*
X2617398Y816416D01*
X2596983Y787014D02*
X2611755Y784409D01*
X2582930Y742506D02*
X2568158Y739902D01*
X2577286Y774513D02*
X2562514Y771908D01*
X2602626Y729020D02*
X2617398Y726416D01*
X2596983Y697014D02*
X2611755Y694409D01*
X2582930Y652506D02*
X2568158Y649902D01*
X2577286Y684513D02*
X2562514Y681908D01*
X2602626Y639020D02*
X2617398Y636416D01*
X2596983Y607014D02*
X2611755Y604409D01*
X2582930Y382506D02*
X2568158Y379902D01*
X2577286Y414513D02*
X2562514Y411908D01*
X2602626Y459020D02*
X2617398Y456416D01*
X2596983Y427014D02*
X2611755Y424409D01*
X2582930Y472506D02*
X2568158Y469902D01*
X2577286Y504513D02*
X2562514Y501908D01*
X2602626Y549020D02*
X2617398Y546416D01*
X2596983Y517014D02*
X2611755Y514409D01*
X2582930Y562506D02*
X2568158Y559902D01*
X2577286Y594513D02*
X2562514Y591908D01*
X2722626Y369020D02*
X2737398Y366416D01*
X2716983Y337014D02*
X2731755Y334409D01*
X2702930Y292507D02*
X2688158Y289902D01*
X2697286Y324513D02*
X2682514Y321908D01*
X2722626Y279020D02*
X2737398Y276416D01*
X2716983Y247014D02*
X2731755Y244409D01*
X2702930Y202507D02*
X2688158Y199902D01*
X2697286Y234513D02*
X2682514Y231908D01*
X2722626Y189020D02*
X2737398Y186416D01*
X2716983Y157014D02*
X2731755Y154409D01*
X2702930Y922506D02*
X2688158Y919902D01*
X2697286Y954513D02*
X2682514Y951908D01*
X2722626Y1089020D02*
X2737398Y1086416D01*
X2716983Y1057014D02*
X2731755Y1054409D01*
X2702930Y1102506D02*
X2688158Y1099902D01*
X2697286Y1134513D02*
X2682514Y1131908D01*
X2722626Y1179020D02*
X2737398Y1176416D01*
X2716983Y1147014D02*
X2731755Y1144409D01*
X2702930Y1192506D02*
X2688158Y1189902D01*
X2697286Y1224513D02*
X2682514Y1221908D01*
X2722626Y1269020D02*
X2737398Y1266416D01*
X2716983Y1237014D02*
X2731755Y1234409D01*
X2702930Y1282507D02*
X2688158Y1279902D01*
X2697286Y1314513D02*
X2682514Y1311908D01*
X2722626Y1359020D02*
X2737398Y1356416D01*
X2716983Y1327014D02*
X2731755Y1324409D01*
X2702930Y1372507D02*
X2688158Y1369902D01*
X2697286Y1404513D02*
X2682514Y1401908D01*
X2722626Y1449020D02*
X2737398Y1446416D01*
X2716983Y1417014D02*
X2731755Y1414409D01*
X2702930Y1462507D02*
X2688158Y1459902D01*
X2697286Y1494513D02*
X2682514Y1491908D01*
X2702930Y1012506D02*
X2688158Y1009902D01*
X2697286Y1044513D02*
X2682514Y1041908D01*
X2722626Y999020D02*
X2737398Y996416D01*
X2716983Y967014D02*
X2731755Y964409D01*
X2722626Y909020D02*
X2737398Y906416D01*
X2716983Y877014D02*
X2731755Y874409D01*
X2702930Y832506D02*
X2688158Y829902D01*
X2697286Y864513D02*
X2682514Y861908D01*
X2722626Y819020D02*
X2737398Y816416D01*
X2716983Y787014D02*
X2731755Y784409D01*
X2702930Y742506D02*
X2688158Y739902D01*
X2697286Y774513D02*
X2682514Y771908D01*
X2722626Y729020D02*
X2737398Y726416D01*
X2716983Y697014D02*
X2731755Y694409D01*
X2702930Y652506D02*
X2688158Y649902D01*
X2697286Y684513D02*
X2682514Y681908D01*
X2722626Y639020D02*
X2737398Y636416D01*
X2716983Y607014D02*
X2731755Y604409D01*
X2702930Y382506D02*
X2688158Y379902D01*
X2697286Y414513D02*
X2682514Y411908D01*
X2722626Y459020D02*
X2737398Y456416D01*
X2716983Y427014D02*
X2731755Y424409D01*
X2702930Y472506D02*
X2688158Y469902D01*
X2697286Y504513D02*
X2682514Y501908D01*
X2722626Y549020D02*
X2737398Y546416D01*
X2716983Y517014D02*
X2731755Y514409D01*
X2702930Y562506D02*
X2688158Y559902D01*
X2697286Y594513D02*
X2682514Y591908D01*
X2842626Y369020D02*
X2857398Y366416D01*
X2836983Y337014D02*
X2851755Y334409D01*
X2822930Y292507D02*
X2808158Y289902D01*
X2817286Y324513D02*
X2802514Y321908D01*
X2842626Y279020D02*
X2857398Y276416D01*
X2836983Y247014D02*
X2851755Y244409D01*
X2822930Y202507D02*
X2808158Y199902D01*
X2817286Y234513D02*
X2802514Y231908D01*
X2842626Y189020D02*
X2857398Y186416D01*
X2836983Y157014D02*
X2851755Y154409D01*
X2822930Y922506D02*
X2808158Y919902D01*
X2817286Y954513D02*
X2802514Y951908D01*
X2842626Y1089020D02*
X2857398Y1086416D01*
X2836983Y1057014D02*
X2851755Y1054409D01*
X2822930Y1102506D02*
X2808158Y1099902D01*
X2817286Y1134513D02*
X2802514Y1131908D01*
X2842626Y1179020D02*
X2857398Y1176416D01*
X2836983Y1147014D02*
X2851755Y1144409D01*
X2822930Y1192506D02*
X2808158Y1189902D01*
X2817286Y1224513D02*
X2802514Y1221908D01*
X2842626Y1269020D02*
X2857398Y1266416D01*
X2836983Y1237014D02*
X2851755Y1234409D01*
X2822930Y1282507D02*
X2808158Y1279902D01*
X2817286Y1314513D02*
X2802514Y1311908D01*
X2842626Y1359020D02*
X2857398Y1356416D01*
X2836983Y1327014D02*
X2851755Y1324409D01*
X2822930Y1372507D02*
X2808158Y1369902D01*
X2817286Y1404513D02*
X2802514Y1401908D01*
X2842626Y1449020D02*
X2857398Y1446416D01*
X2836983Y1417014D02*
X2851755Y1414409D01*
X2822930Y1462507D02*
X2808158Y1459902D01*
X2817286Y1494513D02*
X2802514Y1491908D01*
X2822930Y1012506D02*
X2808158Y1009902D01*
X2817286Y1044513D02*
X2802514Y1041908D01*
X2842626Y999020D02*
X2857398Y996416D01*
X2836983Y967014D02*
X2851755Y964409D01*
X2842626Y909020D02*
X2857398Y906416D01*
X2836983Y877014D02*
X2851755Y874409D01*
X2822930Y832506D02*
X2808158Y829902D01*
X2817286Y864513D02*
X2802514Y861908D01*
X2842626Y819020D02*
X2857398Y816416D01*
X2836983Y787014D02*
X2851755Y784409D01*
X2822930Y742506D02*
X2808158Y739902D01*
X2817286Y774513D02*
X2802514Y771908D01*
X2842626Y729020D02*
X2857398Y726416D01*
X2836983Y697014D02*
X2851755Y694409D01*
X2822930Y652506D02*
X2808158Y649902D01*
X2817286Y684513D02*
X2802514Y681908D01*
X2842626Y639020D02*
X2857398Y636416D01*
X2836983Y607014D02*
X2851755Y604409D01*
X2822930Y382506D02*
X2808158Y379902D01*
X2817286Y414513D02*
X2802514Y411908D01*
X2842626Y459020D02*
X2857398Y456416D01*
X2836983Y427014D02*
X2851755Y424409D01*
X2822930Y472506D02*
X2808158Y469902D01*
X2817286Y504513D02*
X2802514Y501908D01*
X2842626Y549020D02*
X2857398Y546416D01*
X2836983Y517014D02*
X2851755Y514409D01*
X2822930Y562506D02*
X2808158Y559902D01*
X2817286Y594513D02*
X2802514Y591908D01*
X2962626Y369020D02*
X2977398Y366416D01*
X2956983Y337014D02*
X2971755Y334409D01*
X2942930Y292507D02*
X2928158Y289902D01*
X2937286Y324513D02*
X2922514Y321908D01*
X2962626Y279020D02*
X2977398Y276416D01*
X2956983Y247014D02*
X2971755Y244409D01*
X2942930Y202507D02*
X2928158Y199902D01*
X2937286Y234513D02*
X2922514Y231908D01*
X2962626Y189020D02*
X2977398Y186416D01*
X2956983Y157014D02*
X2971755Y154409D01*
X2942930Y922506D02*
X2928158Y919902D01*
X2937286Y954513D02*
X2922514Y951908D01*
X2962626Y1089020D02*
X2977398Y1086416D01*
X2956983Y1057014D02*
X2971755Y1054409D01*
X2942930Y1102506D02*
X2928158Y1099902D01*
X2937286Y1134513D02*
X2922514Y1131908D01*
X2962626Y1179020D02*
X2977398Y1176416D01*
X2956983Y1147014D02*
X2971755Y1144409D01*
X2942930Y1192506D02*
X2928158Y1189902D01*
X2937286Y1224513D02*
X2922514Y1221908D01*
X2962626Y1269020D02*
X2977398Y1266416D01*
X2956983Y1237014D02*
X2971755Y1234409D01*
X2942930Y1282507D02*
X2928158Y1279902D01*
X2937286Y1314513D02*
X2922514Y1311908D01*
X2962626Y1359020D02*
X2977398Y1356416D01*
X2956983Y1327014D02*
X2971755Y1324409D01*
X2942930Y1372507D02*
X2928158Y1369902D01*
X2937286Y1404513D02*
X2922514Y1401908D01*
X2962626Y1449020D02*
X2977398Y1446416D01*
X2956983Y1417014D02*
X2971755Y1414409D01*
X2942930Y1462507D02*
X2928158Y1459902D01*
X2937286Y1494513D02*
X2922514Y1491908D01*
X2942930Y1012506D02*
X2928158Y1009902D01*
X2937286Y1044513D02*
X2922514Y1041908D01*
X2962626Y999020D02*
X2977398Y996416D01*
X2956983Y967014D02*
X2971755Y964409D01*
X2962626Y909020D02*
X2977398Y906416D01*
X2956983Y877014D02*
X2971755Y874409D01*
X2942930Y832506D02*
X2928158Y829902D01*
X2937286Y864513D02*
X2922514Y861908D01*
X2962626Y819020D02*
X2977398Y816416D01*
X2956983Y787014D02*
X2971755Y784409D01*
X2942930Y742506D02*
X2928158Y739902D01*
X2937286Y774513D02*
X2922514Y771908D01*
X2962626Y729020D02*
X2977398Y726416D01*
X2956983Y697014D02*
X2971755Y694409D01*
X2942930Y652506D02*
X2928158Y649902D01*
X2937286Y684513D02*
X2922514Y681908D01*
X2962626Y639020D02*
X2977398Y636416D01*
X2956983Y607014D02*
X2971755Y604409D01*
X2942930Y382506D02*
X2928158Y379902D01*
X2937286Y414513D02*
X2922514Y411908D01*
X2962626Y459020D02*
X2977398Y456416D01*
X2956983Y427014D02*
X2971755Y424409D01*
X2942930Y472506D02*
X2928158Y469902D01*
X2937286Y504513D02*
X2922514Y501908D01*
X2962626Y549020D02*
X2977398Y546416D01*
X2956983Y517014D02*
X2971755Y514409D01*
X2942930Y562506D02*
X2928158Y559902D01*
X2937286Y594513D02*
X2922514Y591908D01*
X3082626Y369020D02*
X3097398Y366416D01*
X3076983Y337014D02*
X3091755Y334409D01*
X3062930Y292507D02*
X3048158Y289902D01*
X3057286Y324513D02*
X3042514Y321908D01*
X3082626Y279020D02*
X3097398Y276416D01*
X3076983Y247014D02*
X3091755Y244409D01*
X3062930Y202507D02*
X3048158Y199902D01*
X3057286Y234513D02*
X3042514Y231908D01*
X3082626Y189020D02*
X3097398Y186416D01*
X3076983Y157014D02*
X3091755Y154409D01*
X3062930Y922506D02*
X3048158Y919902D01*
X3057286Y954513D02*
X3042514Y951908D01*
X3082626Y1089020D02*
X3097398Y1086416D01*
X3076983Y1057014D02*
X3091755Y1054409D01*
X3062930Y1102506D02*
X3048158Y1099902D01*
X3057286Y1134513D02*
X3042514Y1131908D01*
X3082626Y1179020D02*
X3097398Y1176416D01*
X3076983Y1147014D02*
X3091755Y1144409D01*
X3062930Y1192506D02*
X3048158Y1189902D01*
X3057286Y1224513D02*
X3042514Y1221908D01*
X3082626Y1269020D02*
X3097398Y1266416D01*
X3076983Y1237014D02*
X3091755Y1234409D01*
X3062930Y1282507D02*
X3048158Y1279902D01*
X3057286Y1314513D02*
X3042514Y1311908D01*
X3082626Y1359020D02*
X3097398Y1356416D01*
X3076983Y1327014D02*
X3091755Y1324409D01*
X3062930Y1372507D02*
X3048158Y1369902D01*
X3057286Y1404513D02*
X3042514Y1401908D01*
X3082626Y1449020D02*
X3097398Y1446416D01*
X3076983Y1417014D02*
X3091755Y1414409D01*
X3062930Y1462507D02*
X3048158Y1459902D01*
X3057286Y1494513D02*
X3042514Y1491908D01*
X3062930Y1012506D02*
X3048158Y1009902D01*
X3057286Y1044513D02*
X3042514Y1041908D01*
X3082626Y999020D02*
X3097398Y996416D01*
X3076983Y967014D02*
X3091755Y964409D01*
X3082626Y909020D02*
X3097398Y906416D01*
X3076983Y877014D02*
X3091755Y874409D01*
X3062930Y832506D02*
X3048158Y829902D01*
X3057286Y864513D02*
X3042514Y861908D01*
X3082626Y819020D02*
X3097398Y816416D01*
X3076983Y787014D02*
X3091755Y784409D01*
X3062930Y742506D02*
X3048158Y739902D01*
X3057286Y774513D02*
X3042514Y771908D01*
X3082626Y729020D02*
X3097398Y726416D01*
X3076983Y697014D02*
X3091755Y694409D01*
X3062930Y652506D02*
X3048158Y649902D01*
X3057286Y684513D02*
X3042514Y681908D01*
X3082626Y639020D02*
X3097398Y636416D01*
X3076983Y607014D02*
X3091755Y604409D01*
X3062930Y382506D02*
X3048158Y379902D01*
X3057286Y414513D02*
X3042514Y411908D01*
X3082626Y459020D02*
X3097398Y456416D01*
X3076983Y427014D02*
X3091755Y424409D01*
X3062930Y472506D02*
X3048158Y469902D01*
X3057286Y504513D02*
X3042514Y501908D01*
X3082626Y549020D02*
X3097398Y546416D01*
X3076983Y517014D02*
X3091755Y514409D01*
X3062930Y562506D02*
X3048158Y559902D01*
X3057286Y594513D02*
X3042514Y591908D01*
X3202626Y369020D02*
X3217398Y366416D01*
X3196983Y337014D02*
X3211755Y334409D01*
X3182930Y292507D02*
X3168158Y289902D01*
X3177286Y324513D02*
X3162514Y321908D01*
X3202626Y279020D02*
X3217398Y276416D01*
X3196983Y247014D02*
X3211755Y244409D01*
X3182930Y202507D02*
X3168158Y199902D01*
X3177286Y234513D02*
X3162514Y231908D01*
X3202626Y189020D02*
X3217398Y186416D01*
X3196983Y157014D02*
X3211755Y154409D01*
X3182930Y922506D02*
X3168158Y919902D01*
X3177286Y954513D02*
X3162514Y951908D01*
X3202626Y1089020D02*
X3217398Y1086416D01*
X3196983Y1057014D02*
X3211755Y1054409D01*
X3182930Y1102506D02*
X3168158Y1099902D01*
X3177286Y1134513D02*
X3162514Y1131908D01*
X3202626Y1179020D02*
X3217398Y1176416D01*
X3196983Y1147014D02*
X3211755Y1144409D01*
X3182930Y1192506D02*
X3168158Y1189902D01*
X3177286Y1224513D02*
X3162514Y1221908D01*
X3202626Y1269020D02*
X3217398Y1266416D01*
X3196983Y1237014D02*
X3211755Y1234409D01*
X3182930Y1282507D02*
X3168158Y1279902D01*
X3177286Y1314513D02*
X3162514Y1311908D01*
X3202626Y1359020D02*
X3217398Y1356416D01*
X3196983Y1327014D02*
X3211755Y1324409D01*
X3182930Y1372507D02*
X3168158Y1369902D01*
X3177286Y1404513D02*
X3162514Y1401908D01*
X3202626Y1449020D02*
X3217398Y1446416D01*
X3196983Y1417014D02*
X3211755Y1414409D01*
X3182930Y1462507D02*
X3168158Y1459902D01*
X3177286Y1494513D02*
X3162514Y1491908D01*
X3182930Y1012506D02*
X3168158Y1009902D01*
X3177286Y1044513D02*
X3162514Y1041908D01*
X3202626Y999020D02*
X3217398Y996416D01*
X3196983Y967014D02*
X3211755Y964409D01*
X3202626Y909020D02*
X3217398Y906416D01*
X3196983Y877014D02*
X3211755Y874409D01*
X3182930Y832506D02*
X3168158Y829902D01*
X3177286Y864513D02*
X3162514Y861908D01*
X3202626Y819020D02*
X3217398Y816416D01*
X3196983Y787014D02*
X3211755Y784409D01*
X3182930Y742506D02*
X3168158Y739902D01*
X3177286Y774513D02*
X3162514Y771908D01*
X3202626Y729020D02*
X3217398Y726416D01*
X3196983Y697014D02*
X3211755Y694409D01*
X3182930Y652506D02*
X3168158Y649902D01*
X3177286Y684513D02*
X3162514Y681908D01*
X3202626Y639020D02*
X3217398Y636416D01*
X3196983Y607014D02*
X3211755Y604409D01*
X3182930Y382506D02*
X3168158Y379902D01*
X3177286Y414513D02*
X3162514Y411908D01*
X3202626Y459020D02*
X3217398Y456416D01*
X3196983Y427014D02*
X3211755Y424409D01*
X3182930Y472506D02*
X3168158Y469902D01*
X3177286Y504513D02*
X3162514Y501908D01*
X3202626Y549020D02*
X3217398Y546416D01*
X3196983Y517014D02*
X3211755Y514409D01*
X3182930Y562506D02*
X3168158Y559902D01*
X3177286Y594513D02*
X3162514Y591908D01*
X3322626Y369020D02*
X3337398Y366416D01*
X3316983Y337014D02*
X3331755Y334409D01*
X3302930Y292507D02*
X3288158Y289902D01*
X3297286Y324513D02*
X3282514Y321908D01*
X3322626Y279020D02*
X3337398Y276416D01*
X3316983Y247014D02*
X3331755Y244409D01*
X3302930Y202507D02*
X3288158Y199902D01*
X3297286Y234513D02*
X3282514Y231908D01*
X3322626Y189020D02*
X3337398Y186416D01*
X3316983Y157014D02*
X3331755Y154409D01*
X3302930Y922506D02*
X3288158Y919902D01*
X3297286Y954513D02*
X3282514Y951908D01*
X3322626Y1089020D02*
X3337398Y1086416D01*
X3316983Y1057014D02*
X3331755Y1054409D01*
X3302930Y1102506D02*
X3288158Y1099902D01*
X3297286Y1134513D02*
X3282514Y1131908D01*
X3322626Y1179020D02*
X3337398Y1176416D01*
X3316983Y1147014D02*
X3331755Y1144409D01*
X3302930Y1192506D02*
X3288158Y1189902D01*
X3297286Y1224513D02*
X3282514Y1221908D01*
X3322626Y1269020D02*
X3337398Y1266416D01*
X3316983Y1237014D02*
X3331755Y1234409D01*
X3302930Y1282507D02*
X3288158Y1279902D01*
X3297286Y1314513D02*
X3282514Y1311908D01*
X3322626Y1359020D02*
X3337398Y1356416D01*
X3316983Y1327014D02*
X3331755Y1324409D01*
X3302930Y1372507D02*
X3288158Y1369902D01*
X3297286Y1404513D02*
X3282514Y1401908D01*
X3322626Y1449020D02*
X3337398Y1446416D01*
X3316983Y1417014D02*
X3331755Y1414409D01*
X3302930Y1462507D02*
X3288158Y1459902D01*
X3297286Y1494513D02*
X3282514Y1491908D01*
X3302930Y1012506D02*
X3288158Y1009902D01*
X3297286Y1044513D02*
X3282514Y1041908D01*
X3322626Y999020D02*
X3337398Y996416D01*
X3316983Y967014D02*
X3331755Y964409D01*
X3322626Y909020D02*
X3337398Y906416D01*
X3316983Y877014D02*
X3331755Y874409D01*
X3302930Y832506D02*
X3288158Y829902D01*
X3297286Y864513D02*
X3282514Y861908D01*
X3322626Y819020D02*
X3337398Y816416D01*
X3316983Y787014D02*
X3331755Y784409D01*
X3302930Y742506D02*
X3288158Y739902D01*
X3297286Y774513D02*
X3282514Y771908D01*
X3322626Y729020D02*
X3337398Y726416D01*
X3316983Y697014D02*
X3331755Y694409D01*
X3302930Y652506D02*
X3288158Y649902D01*
X3297286Y684513D02*
X3282514Y681908D01*
X3322626Y639020D02*
X3337398Y636416D01*
X3316983Y607014D02*
X3331755Y604409D01*
X3302930Y382506D02*
X3288158Y379902D01*
X3297286Y414513D02*
X3282514Y411908D01*
X3322626Y459020D02*
X3337398Y456416D01*
X3316983Y427014D02*
X3331755Y424409D01*
X3302930Y472506D02*
X3288158Y469902D01*
X3297286Y504513D02*
X3282514Y501908D01*
X3322626Y549020D02*
X3337398Y546416D01*
X3316983Y517014D02*
X3331755Y514409D01*
X3302930Y562506D02*
X3288158Y559902D01*
X3297286Y594513D02*
X3282514Y591908D01*
X3442626Y369020D02*
X3457398Y366416D01*
X3436983Y337014D02*
X3451755Y334409D01*
X3422930Y292507D02*
X3408158Y289902D01*
X3417286Y324513D02*
X3402514Y321908D01*
X3442626Y279020D02*
X3457398Y276416D01*
X3436983Y247014D02*
X3451755Y244409D01*
X3422930Y202507D02*
X3408158Y199902D01*
X3417286Y234513D02*
X3402514Y231908D01*
X3442626Y189020D02*
X3457398Y186416D01*
X3436983Y157014D02*
X3451755Y154409D01*
X3422930Y922506D02*
X3408158Y919902D01*
X3417286Y954513D02*
X3402514Y951908D01*
X3442626Y1089020D02*
X3457398Y1086416D01*
X3436983Y1057014D02*
X3451755Y1054409D01*
X3422930Y1102506D02*
X3408158Y1099902D01*
X3417286Y1134513D02*
X3402514Y1131908D01*
X3442626Y1179020D02*
X3457398Y1176416D01*
X3436983Y1147014D02*
X3451755Y1144409D01*
X3422930Y1192506D02*
X3408158Y1189902D01*
X3417286Y1224513D02*
X3402514Y1221908D01*
X3442626Y1269020D02*
X3457398Y1266416D01*
X3436983Y1237014D02*
X3451755Y1234409D01*
X3422930Y1282507D02*
X3408158Y1279902D01*
X3417286Y1314513D02*
X3402514Y1311908D01*
X3442626Y1359020D02*
X3457398Y1356416D01*
X3436983Y1327014D02*
X3451755Y1324409D01*
X3422930Y1372507D02*
X3408158Y1369902D01*
X3417286Y1404513D02*
X3402514Y1401908D01*
X3442626Y1449020D02*
X3457398Y1446416D01*
X3436983Y1417014D02*
X3451755Y1414409D01*
X3422930Y1462507D02*
X3408158Y1459902D01*
X3417286Y1494513D02*
X3402514Y1491908D01*
X3422930Y1012506D02*
X3408158Y1009902D01*
X3417286Y1044513D02*
X3402514Y1041908D01*
X3442626Y999020D02*
X3457398Y996416D01*
X3436983Y967014D02*
X3451755Y964409D01*
X3442626Y909020D02*
X3457398Y906416D01*
X3436983Y877014D02*
X3451755Y874409D01*
X3422930Y832506D02*
X3408158Y829902D01*
X3417286Y864513D02*
X3402514Y861908D01*
X3442626Y819020D02*
X3457398Y816416D01*
X3436983Y787014D02*
X3451755Y784409D01*
X3422930Y742506D02*
X3408158Y739902D01*
X3417286Y774513D02*
X3402514Y771908D01*
X3442626Y729020D02*
X3457398Y726416D01*
X3436983Y697014D02*
X3451755Y694409D01*
X3422930Y652506D02*
X3408158Y649902D01*
X3417286Y684513D02*
X3402514Y681908D01*
X3442626Y639020D02*
X3457398Y636416D01*
X3436983Y607014D02*
X3451755Y604409D01*
X3422930Y382506D02*
X3408158Y379902D01*
X3417286Y414513D02*
X3402514Y411908D01*
X3442626Y459020D02*
X3457398Y456416D01*
X3436983Y427014D02*
X3451755Y424409D01*
X3422930Y472506D02*
X3408158Y469902D01*
X3417286Y504513D02*
X3402514Y501908D01*
X3442626Y549020D02*
X3457398Y546416D01*
X3436983Y517014D02*
X3451755Y514409D01*
X3422930Y562506D02*
X3408158Y559902D01*
X3417286Y594513D02*
X3402514Y591908D01*
X3562626Y369020D02*
X3577398Y366416D01*
X3556983Y337014D02*
X3571755Y334409D01*
X3542930Y292507D02*
X3528158Y289902D01*
X3537286Y324513D02*
X3522514Y321908D01*
X3562626Y279020D02*
X3577398Y276416D01*
X3556983Y247014D02*
X3571755Y244409D01*
X3542930Y202507D02*
X3528158Y199902D01*
X3537286Y234513D02*
X3522514Y231908D01*
X3562626Y189020D02*
X3577398Y186416D01*
X3556983Y157014D02*
X3571755Y154409D01*
X3542930Y922506D02*
X3528158Y919902D01*
X3537286Y954513D02*
X3522514Y951908D01*
X3562626Y1089020D02*
X3577398Y1086416D01*
X3556983Y1057014D02*
X3571755Y1054409D01*
X3542930Y1102506D02*
X3528158Y1099902D01*
X3537286Y1134513D02*
X3522514Y1131908D01*
X3562626Y1179020D02*
X3577398Y1176416D01*
X3556983Y1147014D02*
X3571755Y1144409D01*
X3542930Y1192506D02*
X3528158Y1189902D01*
X3537286Y1224513D02*
X3522514Y1221908D01*
X3562626Y1269020D02*
X3577398Y1266416D01*
X3556983Y1237014D02*
X3571755Y1234409D01*
X3542930Y1282507D02*
X3528158Y1279902D01*
X3537286Y1314513D02*
X3522514Y1311908D01*
X3562626Y1359020D02*
X3577398Y1356416D01*
X3556983Y1327014D02*
X3571755Y1324409D01*
X3542930Y1372507D02*
X3528158Y1369902D01*
X3537286Y1404513D02*
X3522514Y1401908D01*
X3562626Y1449020D02*
X3577398Y1446416D01*
X3556982Y1417014D02*
X3571755Y1414409D01*
X3542930Y1462507D02*
X3528158Y1459902D01*
X3537286Y1494513D02*
X3522514Y1491908D01*
X3542930Y1012506D02*
X3528158Y1009902D01*
X3537286Y1044513D02*
X3522514Y1041908D01*
X3562626Y999020D02*
X3577398Y996416D01*
X3556983Y967014D02*
X3571755Y964409D01*
X3562626Y909020D02*
X3577398Y906416D01*
X3556983Y877014D02*
X3571755Y874409D01*
X3542930Y832506D02*
X3528158Y829902D01*
X3537286Y864513D02*
X3522514Y861908D01*
X3562626Y819020D02*
X3577398Y816416D01*
X3556983Y787014D02*
X3571755Y784409D01*
X3542930Y742506D02*
X3528158Y739902D01*
X3537286Y774513D02*
X3522514Y771908D01*
X3562626Y729020D02*
X3577398Y726416D01*
X3556983Y697014D02*
X3571755Y694409D01*
X3542930Y652506D02*
X3528158Y649902D01*
X3537286Y684513D02*
X3522514Y681908D01*
X3562626Y639020D02*
X3577398Y636416D01*
X3556983Y607014D02*
X3571755Y604409D01*
X3542930Y382506D02*
X3528158Y379902D01*
X3537286Y414513D02*
X3522514Y411908D01*
X3562626Y459020D02*
X3577398Y456416D01*
X3556983Y427014D02*
X3571755Y424409D01*
X3542930Y472506D02*
X3528158Y469902D01*
X3537286Y504513D02*
X3522514Y501908D01*
X3562626Y549020D02*
X3577398Y546416D01*
X3556983Y517014D02*
X3571755Y514409D01*
X3542930Y562506D02*
X3528158Y559902D01*
X3537286Y594513D02*
X3522514Y591908D01*
X3682626Y369020D02*
X3697398Y366416D01*
X3676983Y337014D02*
X3691754Y334409D01*
X3662930Y292507D02*
X3648158Y289902D01*
X3657286Y324513D02*
X3642514Y321908D01*
X3682626Y279020D02*
X3697398Y276416D01*
X3676983Y247014D02*
X3691754Y244409D01*
X3662930Y202507D02*
X3648158Y199902D01*
X3657286Y234513D02*
X3642514Y231908D01*
X3682626Y189020D02*
X3697398Y186416D01*
X3676983Y157014D02*
X3691754Y154409D01*
X3662930Y922506D02*
X3648158Y919902D01*
X3657286Y954513D02*
X3642514Y951908D01*
X3682626Y1089020D02*
X3697398Y1086416D01*
X3676983Y1057014D02*
X3691754Y1054409D01*
X3662930Y1102506D02*
X3648158Y1099902D01*
X3657286Y1134513D02*
X3642514Y1131908D01*
X3682626Y1179020D02*
X3697398Y1176416D01*
X3676983Y1147014D02*
X3691754Y1144409D01*
X3662930Y1192506D02*
X3648158Y1189902D01*
X3657286Y1224513D02*
X3642514Y1221908D01*
X3682626Y1269020D02*
X3697398Y1266416D01*
X3676983Y1237014D02*
X3691754Y1234409D01*
X3662930Y1282507D02*
X3648158Y1279902D01*
X3657286Y1314513D02*
X3642514Y1311908D01*
X3682626Y1359020D02*
X3697398Y1356416D01*
X3676983Y1327014D02*
X3691754Y1324409D01*
X3662930Y1372507D02*
X3648158Y1369902D01*
X3657286Y1404513D02*
X3642514Y1401908D01*
X3682626Y1449020D02*
X3697398Y1446416D01*
X3676982Y1417014D02*
X3691754Y1414409D01*
X3662930Y1462507D02*
X3648158Y1459902D01*
X3657286Y1494513D02*
X3642514Y1491908D01*
X3662930Y1012506D02*
X3648158Y1009902D01*
X3657286Y1044513D02*
X3642514Y1041908D01*
X3682626Y999020D02*
X3697398Y996416D01*
X3676983Y967014D02*
X3691754Y964409D01*
X3682626Y909020D02*
X3697398Y906416D01*
X3676983Y877014D02*
X3691754Y874409D01*
X3662930Y832506D02*
X3648158Y829902D01*
X3657286Y864513D02*
X3642514Y861908D01*
X3682626Y819020D02*
X3697398Y816416D01*
X3676983Y787014D02*
X3691754Y784409D01*
X3662930Y742506D02*
X3648158Y739902D01*
X3657286Y774513D02*
X3642514Y771908D01*
X3682626Y729020D02*
X3697398Y726416D01*
X3676983Y697014D02*
X3691754Y694409D01*
X3662930Y652506D02*
X3648158Y649902D01*
X3657286Y684513D02*
X3642514Y681908D01*
X3682626Y639020D02*
X3697398Y636416D01*
X3676983Y607014D02*
X3691754Y604409D01*
X3662930Y382506D02*
X3648158Y379902D01*
X3657286Y414513D02*
X3642514Y411908D01*
X3682626Y459020D02*
X3697398Y456416D01*
X3676983Y427014D02*
X3691754Y424409D01*
X3662930Y472506D02*
X3648158Y469902D01*
X3657286Y504513D02*
X3642514Y501908D01*
X3682626Y549020D02*
X3697398Y546416D01*
X3676983Y517014D02*
X3691754Y514409D01*
X3662930Y562506D02*
X3648158Y559902D01*
X3657286Y594513D02*
X3642514Y591908D01*
X3802626Y369020D02*
X3817398Y366416D01*
X3796983Y337014D02*
X3811754Y334409D01*
X3782930Y292507D02*
X3768158Y289902D01*
X3777286Y324513D02*
X3762514Y321908D01*
X3802626Y279020D02*
X3817398Y276416D01*
X3796983Y247014D02*
X3811754Y244409D01*
X3782930Y202507D02*
X3768158Y199902D01*
X3777286Y234513D02*
X3762514Y231908D01*
X3802626Y189020D02*
X3817398Y186416D01*
X3796983Y157014D02*
X3811754Y154409D01*
X3782930Y922506D02*
X3768158Y919902D01*
X3777286Y954513D02*
X3762514Y951908D01*
X3802626Y1089020D02*
X3817398Y1086416D01*
X3796983Y1057014D02*
X3811754Y1054409D01*
X3782930Y1102506D02*
X3768158Y1099902D01*
X3777286Y1134513D02*
X3762514Y1131908D01*
X3802626Y1179020D02*
X3817398Y1176416D01*
X3796983Y1147014D02*
X3811754Y1144409D01*
X3782930Y1192506D02*
X3768158Y1189902D01*
X3777286Y1224513D02*
X3762514Y1221908D01*
X3802626Y1269020D02*
X3817398Y1266416D01*
X3796983Y1237014D02*
X3811754Y1234409D01*
X3782930Y1282507D02*
X3768158Y1279902D01*
X3777286Y1314513D02*
X3762514Y1311908D01*
X3802626Y1359020D02*
X3817398Y1356416D01*
X3796983Y1327014D02*
X3811754Y1324409D01*
X3782930Y1372507D02*
X3768158Y1369902D01*
X3777286Y1404513D02*
X3762514Y1401908D01*
X3802626Y1449020D02*
X3817398Y1446416D01*
X3796982Y1417014D02*
X3811754Y1414409D01*
X3782930Y1462507D02*
X3768158Y1459902D01*
X3777286Y1494513D02*
X3762514Y1491908D01*
X3782930Y1012506D02*
X3768158Y1009902D01*
X3777286Y1044513D02*
X3762514Y1041908D01*
X3802626Y999020D02*
X3817398Y996416D01*
X3796983Y967014D02*
X3811754Y964409D01*
X3802626Y909020D02*
X3817398Y906416D01*
X3796983Y877014D02*
X3811754Y874409D01*
X3782930Y832506D02*
X3768158Y829902D01*
X3777286Y864513D02*
X3762514Y861908D01*
X3802626Y819020D02*
X3817398Y816416D01*
X3796983Y787014D02*
X3811754Y784409D01*
X3782930Y742506D02*
X3768158Y739902D01*
X3777286Y774513D02*
X3762514Y771908D01*
X3802626Y729020D02*
X3817398Y726416D01*
X3796983Y697014D02*
X3811754Y694409D01*
X3782930Y652506D02*
X3768158Y649902D01*
X3777286Y684513D02*
X3762514Y681908D01*
X3802626Y639020D02*
X3817398Y636416D01*
X3796983Y607014D02*
X3811754Y604409D01*
X3782930Y382506D02*
X3768158Y379902D01*
X3777286Y414513D02*
X3762514Y411908D01*
X3802626Y459020D02*
X3817398Y456416D01*
X3796983Y427014D02*
X3811754Y424409D01*
X3782930Y472506D02*
X3768158Y469902D01*
X3777286Y504513D02*
X3762514Y501908D01*
X3802626Y549020D02*
X3817398Y546416D01*
X3796983Y517014D02*
X3811754Y514409D01*
X3782930Y562506D02*
X3768158Y559902D01*
X3777286Y594513D02*
X3762514Y591908D01*
X3922626Y369020D02*
X3937398Y366416D01*
X3916982Y337014D02*
X3931754Y334409D01*
X3902930Y292507D02*
X3888158Y289902D01*
X3897286Y324513D02*
X3882514Y321908D01*
X3922626Y279020D02*
X3937398Y276416D01*
X3916982Y247014D02*
X3931754Y244409D01*
X3902930Y202507D02*
X3888158Y199902D01*
X3897286Y234513D02*
X3882514Y231908D01*
X3922626Y189020D02*
X3937398Y186416D01*
X3916982Y157014D02*
X3931754Y154409D01*
X3902930Y922506D02*
X3888158Y919902D01*
X3897286Y954513D02*
X3882514Y951908D01*
X3922626Y1089020D02*
X3937398Y1086416D01*
X3916982Y1057014D02*
X3931754Y1054409D01*
X3902930Y1102506D02*
X3888158Y1099902D01*
X3897286Y1134513D02*
X3882514Y1131908D01*
X3922626Y1179020D02*
X3937398Y1176416D01*
X3916982Y1147014D02*
X3931754Y1144409D01*
X3902930Y1192506D02*
X3888158Y1189902D01*
X3897286Y1224513D02*
X3882514Y1221908D01*
X3922626Y1269020D02*
X3937398Y1266416D01*
X3916982Y1237014D02*
X3931754Y1234409D01*
X3902930Y1282507D02*
X3888158Y1279902D01*
X3897286Y1314513D02*
X3882514Y1311908D01*
X3922626Y1359020D02*
X3937398Y1356416D01*
X3916982Y1327014D02*
X3931754Y1324409D01*
X3902930Y1372507D02*
X3888158Y1369902D01*
X3897286Y1404513D02*
X3882514Y1401908D01*
X3922626Y1449020D02*
X3937398Y1446416D01*
X3916982Y1417014D02*
X3931754Y1414409D01*
X3902930Y1462507D02*
X3888158Y1459902D01*
X3897286Y1494513D02*
X3882514Y1491908D01*
X3902930Y1012506D02*
X3888158Y1009902D01*
X3897286Y1044513D02*
X3882514Y1041908D01*
X3922626Y999020D02*
X3937398Y996416D01*
X3916982Y967014D02*
X3931754Y964409D01*
X3922626Y909020D02*
X3937398Y906416D01*
X3916982Y877014D02*
X3931754Y874409D01*
X3902930Y832506D02*
X3888158Y829902D01*
X3897286Y864513D02*
X3882514Y861908D01*
X3922626Y819020D02*
X3937398Y816416D01*
X3916982Y787014D02*
X3931754Y784409D01*
X3902930Y742506D02*
X3888158Y739902D01*
X3897286Y774513D02*
X3882514Y771908D01*
X3922626Y729020D02*
X3937398Y726416D01*
X3916982Y697014D02*
X3931754Y694409D01*
X3902930Y652506D02*
X3888158Y649902D01*
X3897286Y684513D02*
X3882514Y681908D01*
X3922626Y639020D02*
X3937398Y636416D01*
X3916982Y607014D02*
X3931754Y604409D01*
X3902930Y382506D02*
X3888158Y379902D01*
X3897286Y414513D02*
X3882514Y411908D01*
X3922626Y459020D02*
X3937398Y456416D01*
X3916982Y427014D02*
X3931754Y424409D01*
X3902930Y472506D02*
X3888158Y469902D01*
X3897286Y504513D02*
X3882514Y501908D01*
X3922626Y549020D02*
X3937398Y546416D01*
X3916982Y517014D02*
X3931754Y514409D01*
X3902930Y562506D02*
X3888158Y559902D01*
X3897286Y594513D02*
X3882514Y591908D01*
X4042626Y369020D02*
X4057398Y366416D01*
X4036982Y337014D02*
X4051754Y334409D01*
X4022930Y292507D02*
X4008158Y289902D01*
X4017286Y324513D02*
X4002514Y321908D01*
X4042626Y279020D02*
X4057398Y276416D01*
X4036982Y247014D02*
X4051754Y244409D01*
X4022930Y202507D02*
X4008158Y199902D01*
X4017286Y234513D02*
X4002514Y231908D01*
X4042626Y189020D02*
X4057398Y186416D01*
X4036982Y157014D02*
X4051754Y154409D01*
X4022930Y922506D02*
X4008158Y919902D01*
X4017286Y954513D02*
X4002514Y951908D01*
X4042626Y1089020D02*
X4057398Y1086416D01*
X4036982Y1057014D02*
X4051754Y1054409D01*
X4022930Y1102506D02*
X4008158Y1099902D01*
X4017286Y1134513D02*
X4002514Y1131908D01*
X4042626Y1179020D02*
X4057398Y1176416D01*
X4036982Y1147014D02*
X4051754Y1144409D01*
X4022930Y1192506D02*
X4008158Y1189902D01*
X4017286Y1224513D02*
X4002514Y1221908D01*
X4042626Y1269020D02*
X4057398Y1266416D01*
X4036982Y1237014D02*
X4051754Y1234409D01*
X4022930Y1282507D02*
X4008158Y1279902D01*
X4017286Y1314513D02*
X4002514Y1311908D01*
X4042626Y1359020D02*
X4057398Y1356416D01*
X4036982Y1327014D02*
X4051754Y1324409D01*
X4022930Y1372507D02*
X4008158Y1369902D01*
X4017286Y1404513D02*
X4002514Y1401908D01*
X4042626Y1449020D02*
X4057398Y1446416D01*
X4036982Y1417014D02*
X4051754Y1414409D01*
X4022930Y1462507D02*
X4008158Y1459902D01*
X4017286Y1494513D02*
X4002514Y1491908D01*
X4022930Y1012506D02*
X4008158Y1009902D01*
X4017286Y1044513D02*
X4002514Y1041908D01*
X4042626Y999020D02*
X4057398Y996416D01*
X4036982Y967014D02*
X4051754Y964409D01*
X4042626Y909020D02*
X4057398Y906416D01*
X4036982Y877014D02*
X4051754Y874409D01*
X4022930Y832506D02*
X4008158Y829902D01*
X4017286Y864513D02*
X4002514Y861908D01*
X4042626Y819020D02*
X4057398Y816416D01*
X4036982Y787014D02*
X4051754Y784409D01*
X4022930Y742506D02*
X4008158Y739902D01*
X4017286Y774513D02*
X4002514Y771908D01*
X4042626Y729020D02*
X4057398Y726416D01*
X4036982Y697014D02*
X4051754Y694409D01*
X4022930Y652506D02*
X4008158Y649902D01*
X4017286Y684513D02*
X4002514Y681908D01*
X4042626Y639020D02*
X4057398Y636416D01*
X4036982Y607014D02*
X4051754Y604409D01*
X4022930Y382506D02*
X4008158Y379902D01*
X4017286Y414513D02*
X4002514Y411908D01*
X4042626Y459020D02*
X4057398Y456416D01*
X4036982Y427014D02*
X4051754Y424409D01*
X4022930Y472506D02*
X4008158Y469902D01*
X4017286Y504513D02*
X4002514Y501908D01*
X4042626Y549020D02*
X4057398Y546416D01*
X4036982Y517014D02*
X4051754Y514409D01*
X4022930Y562506D02*
X4008158Y559902D01*
X4017286Y594513D02*
X4002514Y591908D01*
X4162626Y369020D02*
X4177398Y366416D01*
X4156982Y337014D02*
X4171754Y334409D01*
X4142930Y292507D02*
X4128158Y289902D01*
X4137286Y324513D02*
X4122514Y321908D01*
X4162626Y279020D02*
X4177398Y276416D01*
X4156982Y247014D02*
X4171754Y244409D01*
X4142930Y202507D02*
X4128158Y199902D01*
X4137286Y234513D02*
X4122514Y231908D01*
X4162626Y189020D02*
X4177398Y186416D01*
X4156982Y157014D02*
X4171754Y154409D01*
X4142930Y922506D02*
X4128158Y919902D01*
X4137286Y954513D02*
X4122514Y951908D01*
X4162626Y1089020D02*
X4177398Y1086416D01*
X4156982Y1057014D02*
X4171754Y1054409D01*
X4142930Y1102506D02*
X4128158Y1099902D01*
X4137286Y1134513D02*
X4122514Y1131908D01*
X4162626Y1179020D02*
X4177398Y1176416D01*
X4156982Y1147014D02*
X4171754Y1144409D01*
X4142930Y1192506D02*
X4128158Y1189902D01*
X4137286Y1224513D02*
X4122514Y1221908D01*
X4162626Y1269020D02*
X4177398Y1266416D01*
X4156982Y1237014D02*
X4171754Y1234409D01*
X4142930Y1282507D02*
X4128158Y1279902D01*
X4137286Y1314513D02*
X4122514Y1311908D01*
X4162626Y1359020D02*
X4177398Y1356416D01*
X4156982Y1327014D02*
X4171754Y1324409D01*
X4142930Y1372507D02*
X4128158Y1369902D01*
X4137286Y1404513D02*
X4122514Y1401908D01*
X4162626Y1449020D02*
X4177398Y1446416D01*
X4156982Y1417014D02*
X4171754Y1414409D01*
X4142930Y1462507D02*
X4128158Y1459902D01*
X4137286Y1494513D02*
X4122514Y1491908D01*
X4142930Y1012506D02*
X4128158Y1009902D01*
X4137286Y1044513D02*
X4122514Y1041908D01*
X4162626Y999020D02*
X4177398Y996416D01*
X4156982Y967014D02*
X4171754Y964409D01*
X4162626Y909020D02*
X4177398Y906416D01*
X4156982Y877014D02*
X4171754Y874409D01*
X4142930Y832506D02*
X4128158Y829902D01*
X4137286Y864513D02*
X4122514Y861908D01*
X4162626Y819020D02*
X4177398Y816416D01*
X4156982Y787014D02*
X4171754Y784409D01*
X4142930Y742506D02*
X4128158Y739902D01*
X4137286Y774513D02*
X4122514Y771908D01*
X4162626Y729020D02*
X4177398Y726416D01*
X4156982Y697014D02*
X4171754Y694409D01*
X4142930Y652506D02*
X4128158Y649902D01*
X4137286Y684513D02*
X4122514Y681908D01*
X4162626Y639020D02*
X4177398Y636416D01*
X4156982Y607014D02*
X4171754Y604409D01*
X4142930Y382506D02*
X4128158Y379902D01*
X4137286Y414513D02*
X4122514Y411908D01*
X4162626Y459020D02*
X4177398Y456416D01*
X4156982Y427014D02*
X4171754Y424409D01*
X4142930Y472506D02*
X4128158Y469902D01*
X4137286Y504513D02*
X4122514Y501908D01*
X4162626Y549020D02*
X4177398Y546416D01*
X4156982Y517014D02*
X4171754Y514409D01*
X4142930Y562506D02*
X4128158Y559902D01*
X4137286Y594513D02*
X4122514Y591908D01*
X4282626Y369020D02*
X4297398Y366416D01*
X4276982Y337014D02*
X4291754Y334409D01*
X4262930Y292507D02*
X4248158Y289902D01*
X4257286Y324513D02*
X4242514Y321908D01*
X4282626Y279020D02*
X4297398Y276416D01*
X4276982Y247014D02*
X4291754Y244409D01*
X4262930Y202507D02*
X4248158Y199902D01*
X4257286Y234513D02*
X4242514Y231908D01*
X4282626Y189020D02*
X4297398Y186416D01*
X4276982Y157014D02*
X4291754Y154409D01*
X4262930Y922506D02*
X4248158Y919902D01*
X4257286Y954513D02*
X4242514Y951908D01*
X4282626Y1089020D02*
X4297398Y1086416D01*
X4276982Y1057014D02*
X4291754Y1054409D01*
X4262930Y1102506D02*
X4248158Y1099902D01*
X4257286Y1134513D02*
X4242514Y1131908D01*
X4282626Y1179020D02*
X4297398Y1176416D01*
X4276982Y1147014D02*
X4291754Y1144409D01*
X4262930Y1192506D02*
X4248158Y1189902D01*
X4257286Y1224513D02*
X4242514Y1221908D01*
X4282626Y1269020D02*
X4297398Y1266416D01*
X4276982Y1237014D02*
X4291754Y1234409D01*
X4262930Y1282507D02*
X4248158Y1279902D01*
X4257286Y1314513D02*
X4242514Y1311908D01*
X4282626Y1359020D02*
X4297398Y1356416D01*
X4276982Y1327014D02*
X4291754Y1324409D01*
X4262930Y1372507D02*
X4248158Y1369902D01*
X4257286Y1404513D02*
X4242514Y1401908D01*
X4282626Y1449020D02*
X4297398Y1446416D01*
X4276982Y1417014D02*
X4291754Y1414409D01*
X4262930Y1462507D02*
X4248158Y1459902D01*
X4257286Y1494513D02*
X4242514Y1491908D01*
X4262930Y1012506D02*
X4248158Y1009902D01*
X4257286Y1044513D02*
X4242514Y1041908D01*
X4282626Y999020D02*
X4297398Y996416D01*
X4276982Y967014D02*
X4291754Y964409D01*
X4282626Y909020D02*
X4297398Y906416D01*
X4276982Y877014D02*
X4291754Y874409D01*
X4262930Y832506D02*
X4248158Y829902D01*
X4257286Y864513D02*
X4242514Y861908D01*
X4282626Y819020D02*
X4297398Y816416D01*
X4276982Y787014D02*
X4291754Y784409D01*
X4262930Y742506D02*
X4248158Y739902D01*
X4257286Y774513D02*
X4242514Y771908D01*
X4282626Y729020D02*
X4297398Y726416D01*
X4276982Y697014D02*
X4291754Y694409D01*
X4262930Y652506D02*
X4248158Y649902D01*
X4257286Y684513D02*
X4242514Y681908D01*
X4282626Y639020D02*
X4297398Y636416D01*
X4276982Y607014D02*
X4291754Y604409D01*
X4262930Y382506D02*
X4248158Y379902D01*
X4257286Y414513D02*
X4242514Y411908D01*
X4282626Y459020D02*
X4297398Y456416D01*
X4276982Y427014D02*
X4291754Y424409D01*
X4262930Y472506D02*
X4248158Y469902D01*
X4257286Y504513D02*
X4242514Y501908D01*
X4282626Y549020D02*
X4297398Y546416D01*
X4276982Y517014D02*
X4291754Y514409D01*
X4262930Y562506D02*
X4248158Y559902D01*
X4257286Y594513D02*
X4242514Y591908D01*
X4402626Y369020D02*
X4417398Y366416D01*
X4396982Y337014D02*
X4411754Y334409D01*
X4382930Y292507D02*
X4368158Y289902D01*
X4377286Y324513D02*
X4362514Y321908D01*
X4402626Y279020D02*
X4417398Y276416D01*
X4396982Y247014D02*
X4411754Y244409D01*
X4382930Y202507D02*
X4368158Y199902D01*
X4377286Y234513D02*
X4362514Y231908D01*
X4402626Y189020D02*
X4417398Y186416D01*
X4396982Y157014D02*
X4411754Y154409D01*
X4382930Y922506D02*
X4368158Y919902D01*
X4377286Y954513D02*
X4362514Y951908D01*
X4402626Y1089020D02*
X4417398Y1086416D01*
X4396982Y1057014D02*
X4411754Y1054409D01*
X4382930Y1102506D02*
X4368158Y1099902D01*
X4377286Y1134513D02*
X4362514Y1131908D01*
X4402626Y1179020D02*
X4417398Y1176416D01*
X4396982Y1147014D02*
X4411754Y1144409D01*
X4382930Y1192506D02*
X4368158Y1189902D01*
X4377286Y1224513D02*
X4362514Y1221908D01*
X4402626Y1269020D02*
X4417398Y1266416D01*
X4396982Y1237014D02*
X4411754Y1234409D01*
X4382930Y1282507D02*
X4368158Y1279902D01*
X4377286Y1314513D02*
X4362514Y1311908D01*
X4402626Y1359020D02*
X4417398Y1356416D01*
X4396982Y1327014D02*
X4411754Y1324409D01*
X4382930Y1372507D02*
X4368158Y1369902D01*
X4377286Y1404513D02*
X4362514Y1401908D01*
X4402626Y1449020D02*
X4417398Y1446416D01*
X4396982Y1417014D02*
X4411754Y1414409D01*
X4382930Y1462507D02*
X4368158Y1459902D01*
X4377286Y1494513D02*
X4362514Y1491908D01*
X4382930Y1012506D02*
X4368158Y1009902D01*
X4377286Y1044513D02*
X4362514Y1041908D01*
X4402626Y999020D02*
X4417398Y996416D01*
X4396982Y967014D02*
X4411754Y964409D01*
X4402626Y909020D02*
X4417398Y906416D01*
X4396982Y877014D02*
X4411754Y874409D01*
X4382930Y832506D02*
X4368158Y829902D01*
X4377286Y864513D02*
X4362514Y861908D01*
X4402626Y819020D02*
X4417398Y816416D01*
X4396982Y787014D02*
X4411754Y784409D01*
X4382930Y742506D02*
X4368158Y739902D01*
X4377286Y774513D02*
X4362514Y771908D01*
X4402626Y729020D02*
X4417398Y726416D01*
X4396982Y697014D02*
X4411754Y694409D01*
X4382930Y652506D02*
X4368158Y649902D01*
X4377286Y684513D02*
X4362514Y681908D01*
X4402626Y639020D02*
X4417398Y636416D01*
X4396982Y607014D02*
X4411754Y604409D01*
X4382930Y382506D02*
X4368158Y379902D01*
X4377286Y414513D02*
X4362514Y411908D01*
X4402626Y459020D02*
X4417398Y456416D01*
X4396982Y427014D02*
X4411754Y424409D01*
X4382930Y472506D02*
X4368158Y469902D01*
X4377286Y504513D02*
X4362514Y501908D01*
X4402626Y549020D02*
X4417398Y546416D01*
X4396982Y517014D02*
X4411754Y514409D01*
X4382930Y562506D02*
X4368158Y559902D01*
X4377286Y594513D02*
X4362514Y591908D01*
X4522626Y369020D02*
X4537398Y366416D01*
X4516982Y337014D02*
X4531754Y334409D01*
X4502930Y292507D02*
X4488158Y289902D01*
X4497286Y324513D02*
X4482514Y321908D01*
X4522626Y279020D02*
X4537398Y276416D01*
X4516982Y247014D02*
X4531754Y244409D01*
X4502930Y202507D02*
X4488158Y199902D01*
X4497286Y234513D02*
X4482514Y231908D01*
X4522626Y189020D02*
X4537398Y186416D01*
X4516982Y157014D02*
X4531754Y154409D01*
X4502930Y922506D02*
X4488158Y919902D01*
X4497286Y954513D02*
X4482514Y951908D01*
X4522626Y1089020D02*
X4537398Y1086416D01*
X4516982Y1057014D02*
X4531754Y1054409D01*
X4502930Y1102506D02*
X4488158Y1099902D01*
X4497286Y1134513D02*
X4482514Y1131908D01*
X4522626Y1179020D02*
X4537398Y1176416D01*
X4516982Y1147014D02*
X4531754Y1144409D01*
X4502930Y1192506D02*
X4488158Y1189902D01*
X4497286Y1224513D02*
X4482514Y1221908D01*
X4522626Y1269020D02*
X4537398Y1266416D01*
X4516982Y1237014D02*
X4531754Y1234409D01*
X4502930Y1282507D02*
X4488158Y1279902D01*
X4497286Y1314513D02*
X4482514Y1311908D01*
X4522626Y1359020D02*
X4537398Y1356416D01*
X4516982Y1327014D02*
X4531754Y1324409D01*
X4502930Y1372507D02*
X4488158Y1369902D01*
X4497286Y1404513D02*
X4482514Y1401908D01*
X4522626Y1449020D02*
X4537398Y1446416D01*
X4516982Y1417014D02*
X4531754Y1414409D01*
X4502930Y1462507D02*
X4488158Y1459902D01*
X4497286Y1494513D02*
X4482514Y1491908D01*
X4502930Y1012506D02*
X4488158Y1009902D01*
X4497286Y1044513D02*
X4482514Y1041908D01*
X4522626Y999020D02*
X4537398Y996416D01*
X4516982Y967014D02*
X4531754Y964409D01*
X4522626Y909020D02*
X4537398Y906416D01*
X4516982Y877014D02*
X4531754Y874409D01*
X4502930Y832506D02*
X4488158Y829902D01*
X4497286Y864513D02*
X4482514Y861908D01*
X4522626Y819020D02*
X4537398Y816416D01*
X4516982Y787014D02*
X4531754Y784409D01*
X4502930Y742506D02*
X4488158Y739902D01*
X4497286Y774513D02*
X4482514Y771908D01*
X4522626Y729020D02*
X4537398Y726416D01*
X4516982Y697014D02*
X4531754Y694409D01*
X4502930Y652506D02*
X4488158Y649902D01*
X4497286Y684513D02*
X4482514Y681908D01*
X4522626Y639020D02*
X4537398Y636416D01*
X4516982Y607014D02*
X4531754Y604409D01*
X4502930Y382506D02*
X4488158Y379902D01*
X4497286Y414513D02*
X4482514Y411908D01*
X4522626Y459020D02*
X4537398Y456416D01*
X4516982Y427014D02*
X4531754Y424409D01*
X4502930Y472506D02*
X4488158Y469902D01*
X4497286Y504513D02*
X4482514Y501908D01*
X4522626Y549020D02*
X4537398Y546416D01*
X4516982Y517014D02*
X4531754Y514409D01*
X4502930Y562506D02*
X4488158Y559902D01*
X4497286Y594513D02*
X4482514Y591908D01*
X4642626Y369020D02*
X4657398Y366416D01*
X4636982Y337014D02*
X4651754Y334409D01*
X4622930Y292507D02*
X4608158Y289902D01*
X4617286Y324513D02*
X4602514Y321908D01*
X4642626Y279020D02*
X4657398Y276416D01*
X4636982Y247014D02*
X4651754Y244409D01*
X4622930Y202507D02*
X4608158Y199902D01*
X4617286Y234513D02*
X4602514Y231908D01*
X4642626Y189020D02*
X4657398Y186416D01*
X4636982Y157014D02*
X4651754Y154409D01*
X4622930Y922506D02*
X4608158Y919902D01*
X4617286Y954513D02*
X4602514Y951908D01*
X4642626Y1089020D02*
X4657398Y1086416D01*
X4636982Y1057014D02*
X4651754Y1054409D01*
X4622930Y1102506D02*
X4608158Y1099902D01*
X4617286Y1134513D02*
X4602514Y1131908D01*
X4642626Y1179020D02*
X4657398Y1176416D01*
X4636982Y1147014D02*
X4651754Y1144409D01*
X4622930Y1192506D02*
X4608158Y1189902D01*
X4617286Y1224513D02*
X4602514Y1221908D01*
X4642626Y1269020D02*
X4657398Y1266416D01*
X4636982Y1237014D02*
X4651754Y1234409D01*
X4622930Y1282507D02*
X4608158Y1279902D01*
X4617286Y1314513D02*
X4602514Y1311908D01*
X4642626Y1359020D02*
X4657398Y1356416D01*
X4636982Y1327014D02*
X4651754Y1324409D01*
X4622930Y1372507D02*
X4608158Y1369902D01*
X4617286Y1404513D02*
X4602514Y1401908D01*
X4642626Y1449020D02*
X4657398Y1446416D01*
X4636982Y1417014D02*
X4651754Y1414409D01*
X4622930Y1462507D02*
X4608158Y1459902D01*
X4617286Y1494513D02*
X4602514Y1491908D01*
X4622930Y1012506D02*
X4608158Y1009902D01*
X4617286Y1044513D02*
X4602514Y1041908D01*
X4642626Y999020D02*
X4657398Y996416D01*
X4636982Y967014D02*
X4651754Y964409D01*
X4642626Y909020D02*
X4657398Y906416D01*
X4636982Y877014D02*
X4651754Y874409D01*
X4622930Y832506D02*
X4608158Y829902D01*
X4617286Y864513D02*
X4602514Y861908D01*
X4642626Y819020D02*
X4657398Y816416D01*
X4636982Y787014D02*
X4651754Y784409D01*
X4622930Y742506D02*
X4608158Y739902D01*
X4617286Y774513D02*
X4602514Y771908D01*
X4642626Y729020D02*
X4657398Y726416D01*
X4636982Y697014D02*
X4651754Y694409D01*
X4622930Y652506D02*
X4608158Y649902D01*
X4617286Y684513D02*
X4602514Y681908D01*
X4642626Y639020D02*
X4657398Y636416D01*
X4636982Y607014D02*
X4651754Y604409D01*
X4622930Y382506D02*
X4608158Y379902D01*
X4617286Y414513D02*
X4602514Y411908D01*
X4642626Y459020D02*
X4657398Y456416D01*
X4636982Y427014D02*
X4651754Y424409D01*
X4622930Y472506D02*
X4608158Y469902D01*
X4617286Y504513D02*
X4602514Y501908D01*
X4642626Y549020D02*
X4657398Y546416D01*
X4636982Y517014D02*
X4651754Y514409D01*
X4622930Y562506D02*
X4608158Y559902D01*
X4617286Y594513D02*
X4602514Y591908D01*
M02*
