M48
;Layer_Color=9474304
;FILE_FORMAT=4:4
METRIC,LZ
;TYPE=PLATED
;TYPE=NON_PLATED
T5F00S00C2.0000
%
G90
G05
T05
G00X0001Y0005
M15
G01X0003
M16
G00X0011Y0005
M15
G01X0013
M16
G00X0013Y0005
M15
G01X0015
M16
G00X0023Y0005
M15
G01X0025
M16
G00X0025Y0005
M15
G01X0027
M16
G00X0035Y0005
M15
G01X0037
M16
G00X0037Y0005
M15
G01X0039
M16
G00X0047Y0005
M15
G01X0049
M16
G00X0049Y0005
M15
G01X0051
M16
G00X0059Y0005
M15
G01X0061
M16
G00X0061Y0005
M15
G01X0063
M16
G00X0071Y0005
M15
G01X0073
M16
G00X0073Y0005
M15
G01X0075
M16
G00X0083Y0005
M15
G01X0085
M16
G00X0085Y0005
M15
G01X0087
M16
G00X0095Y0005
M15
G01X0097
M16
G00X0097Y0005
M15
G01X0099
M16
G00X0107Y0005
M15
G01X0109
M16
G00X0109Y0005
M15
G01X0111
M16
G00X0119Y0005
M15
G01X0121
M16
G00X0121Y0005
M15
G01X0123
M16
G00X0131Y0005
M15
G01X0133
M16
G00X0133Y0005
M15
G01X0135
M16
G00X0143Y0005
M15
G01X0145
M16
G00X0145Y0005
M15
G01X0147
M16
G00X0155Y0005
M15
G01X0157
M16
G00X0157Y0005
M15
G01X0159
M16
G00X0167Y0005
M15
G01X0169
M16
G00X0169Y0005
M15
G01X0171
M16
G00X0179Y0005
M15
G01X0181
M16
G00X0181Y0005
M15
G01X0183
M16
G00X0191Y0005
M15
G01X0193
M16
G00X0193Y0005
M15
G01X0195
M16
G00X0203Y0005
M15
G01X0205
M16
G00X0205Y0005
M15
G01X0207
M16
G00X0215Y0005
M15
G01X0217
M16
G00X0217Y0005
M15
G01X0219
M16
G00X0227Y0005
M15
G01X0229
M16
G00X0229Y0005
M15
G01X0231
M16
G00X0239Y0005
M15
G01X0241
M16
G00X0241Y0005
M15
G01X0243
M16
G00X0251Y0005
M15
G01X0253
M16
G00X0253Y0005
M15
G01X0255
M16
G00X0263Y0005
M15
G01X0265
M16
G00X0265Y0005
M15
G01X0267
M16
G00X0275Y0005
M15
G01X0277
M16
G00X0277Y0005
M15
G01X0279
M16
G00X0287Y0005
M15
G01X0289
M16
G00X0289Y0005
M15
G01X0291
M16
G00X0299Y0005
M15
G01X0301
M16
G00X0301Y0005
M15
G01X0303
M16
G00X0311Y0005
M15
G01X0313
M16
G00X0313Y0005
M15
G01X0315
M16
G00X0323Y0005
M15
G01X0325
M16
G00X0325Y0005
M15
G01X0327
M16
G00X0335Y0005
M15
G01X0337
M16
G00X0337Y0005
M15
G01X0339
M16
G00X0347Y0005
M15
G01X0349
M16
G00X0349Y0005
M15
G01X0351
M16
G00X0359Y0005
M15
G01X0361
M16
G00X0361Y0005
M15
G01X0363
M16
G00X0371Y0005
M15
G01X0373
M16
G00X0373Y0005
M15
G01X0375
M16
G00X0383Y0005
M15
G01X0385
M16
G00X0385Y0005
M15
G01X0387
M16
G00X0395Y0005
M15
G01X0397
M16
G00X0397Y0005
M15
G01X0399
M16
G00X0407Y0005
M15
G01X0409
M16
G00X0409Y0005
M15
G01X0411
M16
G00X0419Y0005
M15
G01X0421
M16
G00X0421Y0005
M15
G01X0423
M16
G00X0431Y0005
M15
G01X0433
M16
G00X0433Y0005
M15
G01X0435
M16
G00X0443Y0005
M15
G01X0445
M16
G00X0445Y0005
M15
G01X0447
M16
G00X0455Y0005
M15
G01X0457
M16
G00X0457Y0005
M15
G01X0459
M16
G00X0467Y0005
M15
G01X0469
M16
G00X0037Y01605
M15
G01Y00055
M16
G00X0037Y01605
M15
G01Y00055
M16
G00X0025Y01605
M15
G01Y00055
M16
G00X0025Y01605
M15
G01Y00055
M16
G00X0013Y01605
M15
G01Y00055
M16
G00X0013Y01605
M15
G01Y00055
M16
G00X0001Y01605
M15
G01Y00055
M16
G00X0049Y01605
M15
G01Y00055
M16
G00X0049Y01605
M15
G01Y00055
M16
G00X0061Y01605
M15
G01Y00055
M16
G00X0061Y01605
M15
G01Y00055
M16
G00X0073Y01605
M15
G01Y00055
M16
G00X0073Y01605
M15
G01Y00055
M16
G00X0085Y01605
M15
G01Y00055
M16
G00X0085Y01605
M15
G01Y00055
M16
G00X0097Y01605
M15
G01Y00055
M16
G00X0097Y01605
M15
G01Y00055
M16
G00X0109Y01605
M15
G01Y00055
M16
G00X0109Y01605
M15
G01Y00055
M16
G00X0121Y01605
M15
G01Y00055
M16
G00X0121Y01605
M15
G01Y00055
M16
G00X0133Y01605
M15
G01Y00055
M16
G00X0133Y01605
M15
G01Y00055
M16
G00X0145Y01605
M15
G01Y00055
M16
G00X0145Y01605
M15
G01Y00055
M16
G00X0157Y01605
M15
G01Y00055
M16
G00X0157Y01605
M15
G01Y00055
M16
G00X0169Y01605
M15
G01Y00055
M16
G00X0169Y01605
M15
G01Y00055
M16
G00X0181Y01605
M15
G01Y00055
M16
G00X0181Y01605
M15
G01Y00055
M16
G00X0193Y01605
M15
G01Y00055
M16
G00X0193Y01605
M15
G01Y00055
M16
G00X0205Y01605
M15
G01Y00055
M16
G00X0205Y01605
M15
G01Y00055
M16
G00X0217Y01605
M15
G01Y00055
M16
G00X0217Y01605
M15
G01Y00055
M16
G00X0229Y01605
M15
G01Y00055
M16
G00X0229Y01605
M15
G01Y00055
M16
G00X0241Y01605
M15
G01Y00055
M16
G00X0241Y01605
M15
G01Y00055
M16
G00X0253Y01605
M15
G01Y00055
M16
G00X0253Y01605
M15
G01Y00055
M16
G00X0265Y01605
M15
G01Y00055
M16
G00X0265Y01605
M15
G01Y00055
M16
G00X0277Y01605
M15
G01Y00055
M16
G00X0277Y01605
M15
G01Y00055
M16
G00X0289Y01605
M15
G01Y00055
M16
G00X0289Y01605
M15
G01Y00055
M16
G00X0301Y01605
M15
G01Y00055
M16
G00X0301Y01605
M15
G01Y00055
M16
G00X0313Y01605
M15
G01Y00055
M16
G00X0313Y01605
M15
G01Y00055
M16
G00X0325Y01605
M15
G01Y00055
M16
G00X0325Y01605
M15
G01Y00055
M16
G00X0337Y01605
M15
G01Y00055
M16
G00X0337Y01605
M15
G01Y00055
M16
G00X0349Y01605
M15
G01Y00055
M16
G00X0349Y01605
M15
G01Y00055
M16
G00X0361Y01605
M15
G01Y00055
M16
G00X0361Y01605
M15
G01Y00055
M16
G00X0373Y01605
M15
G01Y00055
M16
G00X0373Y01605
M15
G01Y00055
M16
G00X0385Y01605
M15
G01Y00055
M16
G00X0385Y01605
M15
G01Y00055
M16
G00X0397Y01605
M15
G01Y00055
M16
G00X0397Y01605
M15
G01Y00055
M16
G00X0409Y01605
M15
G01Y00055
M16
G00X0409Y01605
M15
G01Y00055
M16
G00X0421Y01605
M15
G01Y00055
M16
G00X0421Y01605
M15
G01Y00055
M16
G00X0433Y01605
M15
G01Y00055
M16
G00X0433Y01605
M15
G01Y00055
M16
G00X0445Y01605
M15
G01Y00055
M16
G00X0445Y01605
M15
G01Y00055
M16
G00X0457Y01605
M15
G01Y00055
M16
G00X0457Y01605
M15
G01Y00055
M16
G00X0469Y01605
M15
G01Y00055
M16
G00X0037Y0161
M15
G01X0039
M16
G00X0035Y0161
M15
G01X0037
M16
G00X0025Y0161
M15
G01X0027
M16
G00X0023Y0161
M15
G01X0025
M16
G00X0013Y0161
M15
G01X0015
M16
G00X0011Y0161
M15
G01X0013
M16
G00X0001Y0161
M15
G01X0003
M16
G00X0047Y0161
M15
G01X0049
M16
G00X0049Y0161
M15
G01X0051
M16
G00X0059Y0161
M15
G01X0061
M16
G00X0061Y0161
M15
G01X0063
M16
G00X0071Y0161
M15
G01X0073
M16
G00X0073Y0161
M15
G01X0075
M16
G00X0083Y0161
M15
G01X0085
M16
G00X0085Y0161
M15
G01X0087
M16
G00X0095Y0161
M15
G01X0097
M16
G00X0097Y0161
M15
G01X0099
M16
G00X0107Y0161
M15
G01X0109
M16
G00X0109Y0161
M15
G01X0111
M16
G00X0119Y0161
M15
G01X0121
M16
G00X0121Y0161
M15
G01X0123
M16
G00X0131Y0161
M15
G01X0133
M16
G00X0133Y0161
M15
G01X0135
M16
G00X0143Y0161
M15
G01X0145
M16
G00X0145Y0161
M15
G01X0147
M16
G00X0155Y0161
M15
G01X0157
M16
G00X0157Y0161
M15
G01X0159
M16
G00X0167Y0161
M15
G01X0169
M16
G00X0169Y0161
M15
G01X0171
M16
G00X0179Y0161
M15
G01X0181
M16
G00X0181Y0161
M15
G01X0183
M16
G00X0191Y0161
M15
G01X0193
M16
G00X0193Y0161
M15
G01X0195
M16
G00X0203Y0161
M15
G01X0205
M16
G00X0205Y0161
M15
G01X0207
M16
G00X0215Y0161
M15
G01X0217
M16
G00X0217Y0161
M15
G01X0219
M16
G00X0227Y0161
M15
G01X0229
M16
G00X0229Y0161
M15
G01X0231
M16
G00X0239Y0161
M15
G01X0241
M16
G00X0241Y0161
M15
G01X0243
M16
G00X0251Y0161
M15
G01X0253
M16
G00X0253Y0161
M15
G01X0255
M16
G00X0263Y0161
M15
G01X0265
M16
G00X0265Y0161
M15
G01X0267
M16
G00X0275Y0161
M15
G01X0277
M16
G00X0277Y0161
M15
G01X0279
M16
G00X0287Y0161
M15
G01X0289
M16
G00X0289Y0161
M15
G01X0291
M16
G00X0299Y0161
M15
G01X0301
M16
G00X0301Y0161
M15
G01X0303
M16
G00X0311Y0161
M15
G01X0313
M16
G00X0313Y0161
M15
G01X0315
M16
G00X0323Y0161
M15
G01X0325
M16
G00X0325Y0161
M15
G01X0327
M16
G00X0335Y0161
M15
G01X0337
M16
G00X0337Y0161
M15
G01X0339
M16
G00X0347Y0161
M15
G01X0349
M16
G00X0349Y0161
M15
G01X0351
M16
G00X0359Y0161
M15
G01X0361
M16
G00X0361Y0161
M15
G01X0363
M16
G00X0371Y0161
M15
G01X0373
M16
G00X0373Y0161
M15
G01X0375
M16
G00X0383Y0161
M15
G01X0385
M16
G00X0385Y0161
M15
G01X0387
M16
G00X0395Y0161
M15
G01X0397
M16
G00X0397Y0161
M15
G01X0399
M16
G00X0407Y0161
M15
G01X0409
M16
G00X0409Y0161
M15
G01X0411
M16
G00X0419Y0161
M15
G01X0421
M16
G00X0421Y0161
M15
G01X0423
M16
G00X0431Y0161
M15
G01X0433
M16
G00X0433Y0161
M15
G01X0435
M16
G00X0443Y0161
M15
G01X0445
M16
G00X0445Y0161
M15
G01X0447
M16
G00X0455Y0161
M15
G01X0457
M16
G00X0457Y0161
M15
G01X0459
M16
G00X0467Y0161
M15
G01X0469
M16
M17
M30
